<?xml version="1.0" encoding="UTF-8"?>
<svg id="Layer_1" data-name="Layer 1" xmlns="http://www.w3.org/2000/svg" viewBox="0 0 1080 1080">
  <defs>
    <style>
      .cls-1 {
        fill: #78c14d;
      }
    </style>
  </defs>
  <path class="cls-1" d="M432.68,626.13c-4.3-19.08-8.56-38.18-13.41-59.79,86.91,45.98,298,250.6,382.46,295.29.64-.64-156.62-225.47-173.27-256.91-4.23-7.99-2.82-10.86,4.99-14.48,34.12-15.74,67.85-32.4,101.98-48.12,8.26-3.81,10.47-7.16,7.01-16.37-37.08-99.08-73.74-198.32-110.21-297.63-2.86-7.78-6.11-10.49-14.9-9.59-109.91,11.18-219.85,21.99-329.82,32.53-7.96.75-9.29,3.96-9.23,10.93.29,32.18.11,64.37.11,96.54v331.52c0,6.89-1.63,13.59,9.93,13.47,50.79-.56,101.58-.34,152.38-.12,7.34.04,9.41-1.59,7.52-9.26-5.6-22.56-10.44-45.33-15.53-68.01ZM416.25,554.23c-17.62-79.45-35.79-158.79-53.78-238.17-.25-1.08-.21-2.22-.53-6.22,82.11,56.34,162.46,111.46,244.55,167.77-19.33,9.04-36.71,17.23-54.13,25.34-41.12,19.11-82.35,38-123.32,57.44-8.05,3.84-10.7,3.21-12.78-6.16Z"/>
</svg>