<?xml version="1.0" encoding="UTF-8"?>
<svg id="Layer_1" data-name="Layer 1" xmlns="http://www.w3.org/2000/svg" viewBox="0 0 1920 1080">
  <defs>
    <style>
      .cls-1 {
        fill: #78c14d;
      }
    </style>
  </defs>
  <path class="cls-1" d="M738.4,554.84v109.51h-51.45v-98.73c0-23.29-3.83-60.84-52.5-60.84-55.28,0-86.92,47.98-86.92,72.31v87.26h-52.15v-254.14h52.15v89.7l-7.65,21.21h11.82c22.94-42.07,52.5-56.67,93.52-56.67,44.5,0,93.18,17.04,93.18,90.39M1077.72,505.82h53.53v-37.54h-67.79l.36-57.73-47.98,11.48v46.25h-89.69l-72.67,170.7h-11.82l7.3-19.81-68.49-150.88h-54.94l80.33,170c7.64,18.08,19.47,24.33,38.59,25.38l18.42,48.66h-63.28v38.61h129.34l-33.74-84.15,67.67-160.97h45.68l37.2-14.26v11.48c-39.98,6.96-56.31,37.9-56.31,76.85,0,52.14,31.99,84.12,89.7,84.12h51.8v-38.93h-49.37c-38.59,0-48.68-23.29-48.68-58.42,0-38.93,10.09-60.83,44.86-60.83ZM1383.31,554.84c0-73.36-48.67-90.39-93.18-90.39-41.02,0-70.57,14.6-93.52,56.67h-11.82l7.65-21.21v-89.7h-52.15v254.14h52.15v-87.26c0-24.34,31.64-72.31,86.92-72.31,48.67,0,52.5,37.55,52.5,60.84v98.73h51.45v-109.51M1400.69,468.62v195.39h52.15v-103.95c0-23.64,21.55-55.63,60.15-55.63s52.5,23.64,52.5,62.92v96.65h51.45v-95.96c0-35.81,25.03-62.92,59.45-62.92,38.59,0,51.8,23.29,51.8,62.58v96.31h51.45v-104.65c0-64.32-36.15-94.91-89-94.91-35.46,0-65.71,21.21-80.31,56.32h-11.12c-11.47-41.72-37.9-56.32-67.1-56.32-32.68,0-62.92,17.38-81.7,58.76h-9.74l12.17-28.86v-25.73h-52.15ZM522.61,774.75c.47-.47-114.35-164.6-126.5-187.56-3.09-5.83-2.06-7.93,3.64-10.56,24.91-11.5,49.53-23.65,74.45-35.13,6.03-2.78,7.64-5.23,5.12-11.95-27.07-72.33-53.83-144.78-80.46-217.28-2.09-5.68-4.46-7.66-10.88-7-80.23,8.16-160.5,16.05-240.78,23.75-5.81.56-6.78,2.89-6.73,7.98.21,23.49.08,46.99.08,70.48,0,80.68,0,161.35,0,242.02,0,5.03-1.2,9.93,7.25,9.84,37.07-.41,74.16-.26,111.24-.09,5.36.02,6.87-1.16,5.49-6.76-4.09-16.47-7.61-33.09-11.34-49.65-3.14-13.93-6.25-27.87-9.79-43.65,63.45,33.57,217.55,182.95,279.21,215.58M201.54,371.93c59.95,41.13,118.61,81.37,178.53,122.48-14.1,6.6-26.8,12.58-39.52,18.5-30.02,13.95-60.12,27.75-90.02,41.93-5.88,2.8-7.82,2.34-9.33-4.5-12.86-58.01-26.13-115.92-39.26-173.87-.18-.79-.15-1.63-.39-4.54"/>
</svg>