<?xml version="1.0" encoding="UTF-8"?>
<svg id="Layer_1" data-name="Layer 1" xmlns="http://www.w3.org/2000/svg" viewBox="0 0 1000 1000">
  <defs>
    <style>
      .cls-1 {
        fill: #fff;
      }
    </style>
  </defs>
  <path class="cls-1" d="M612.2,334.04c0-10.27-7.53-18.71-17.35-20.28-.08-.02-.14-.05-.22-.06-16.91-58.56-52.94-90.81-94.56-90.81-57.8,0-104.83,69.89-104.83,165.97,0,12.81.86,25.29,2.45,37.32-.25.14-.48.33-.72.51-5.5,3.68-9.16,9.9-9.16,17.02,0,10.23,7.51,18.64,17.3,20.2.14.03.26.08.4.11,16.91,58.56,52.94,90.81,94.56,90.81,57.8,0,104.83-69.89,104.83-165.96,0-12.81-.86-25.29-2.45-37.32.27-.16.53-.36.79-.56,5.39-3.72,8.96-9.89,8.96-16.94ZM408.45,436.88c-2.68-15.2-4.14-31.32-4.14-48.01,0-91.07,42.95-156.89,95.75-156.89,37.11,0,69.33,28.35,85.22,81.72-13.66,1.64-25.92,9.41-36.75,23.35-12.27,15.8-22.3,36.96-29.34,60.15,0,0-10.47-16.4-18.26-29.2-7.79-12.8-12.16-22.29-12.16-22.29,2.73-16.14,4.09-33.19,4.09-51.15,0-25.46-7.5-38.19-22.51-38.19-7.04,0-14.1,3.09-18.01,9.03-5.2,7.88-5.34,15.33-5.39,21.99-.14,20,2.91,37.34,24.42,78.45-7.72,25.69-17.39,45.46-28.99,59.33-8.18,9.77-16.93,14.66-26.26,14.66-3.09,0-5.63-.94-7.6-2.81-.03-.05-.05-.09-.08-.14ZM535.2,492.4c.73,15.84-12.91,20.83-18.23,7.99-5.31-12.92-2.34-44.12.7-58.57,9.55,16.37,16.91,37.08,17.53,50.58ZM482.71,335.21c-3.95-6.77-7.42-14.94-10.2-22.86-2.11-5.57-3.67-10.91-4.7-15.68-1.18-4.82-1.92-8.94-2.1-11.69-1.03-15.83,12.14-20.17,17.45-7.33,5.31,12.92,2.58,43.12-.46,57.57ZM500.06,545.75c-37.11,0-69.33-28.35-85.22-81.72,13.67-1.64,25.92-9.41,36.75-23.35,12.27-15.8,22.3-36.54,29.35-59.72,0,0,8.73,15.31,15.45,25.55,6.79,10.35,14.98,25.51,14.98,25.51-2.73,16.14-4.09,33.19-4.09,51.15,0,25.46,7.5,38.19,22.51,38.19,7.04,0,14.16-3.2,17.8-9.45,3.64-6.25,5.78-13.96,5.78-22.14,0-20-6.71-47.94-24.6-77.87,7.72-25.69,17.39-45.46,28.99-59.33,8.18-9.77,16.93-14.66,26.26-14.66,3.09,0,5.63.94,7.6,2.81.03.05.05.09.08.14,2.68,15.2,4.14,31.32,4.14,48.02,0,91.07-42.95,156.88-95.75,156.88Z"/>
  <path class="cls-1" d="M290.09,683.56l-36.62-45.5c-1.94-2.33-4.19-4.1-6.69-5.27-2.5-1.17-5.56-1.76-9.1-1.76h-8.33v6.72h2.26c3.22,0,5.5.82,6.77,2.43,1.33,1.7,2.01,4.21,2.01,7.46v58.56h6.72v-55.85l45.78,56.96h3.91v-76.28h-6.72v52.54Z"/>
  <path class="cls-1" d="M369.22,688.07c-1.59,4.16-3.75,7.13-6.39,8.83-2.67,1.71-6.47,2.58-11.3,2.58h-18.17v-28.62h29.81v-6.72h-29.81v-26.41h19.39c8.51,0,12.65,3.78,12.65,11.55v1.15h4.51v-9.43c0-6.53-3.64-9.98-10.54-9.98h-48.19v6.72h3.36c2.67,0,4.36.7,5.18,2.13.93,1.62,1.39,4.24,1.39,7.77v58.56h39.25c4.71,0,7.86-2.11,9.36-6.28l4.31-11.69-4.44-1.1-.36.95Z"/>
  <path class="cls-1" d="M431.35,635.68c-5.81-3.09-12.42-4.66-19.64-4.66h-29.86v6.72h3.36c2.67,0,4.36.7,5.18,2.13.93,1.62,1.39,4.24,1.39,7.77v58.56h12.24v-29.81h10.99c3.12,0,6.59-.53,10.31-1.59,3.82-1.08,7.32-3.26,10.4-6.49,3.15-3.3,4.74-8.02,4.74-14.04,0-9.1-3.06-15.35-9.11-18.57ZM427.11,653.7c0,3.79-.88,6.95-2.6,9.39-1.75,2.47-3.88,4.29-6.33,5.41-2.48,1.14-4.85,1.72-7.03,1.72h-7.13v-32.17c5-1.13,9.15-1.44,14.16.86,2.45,1.12,4.58,2.94,6.33,5.41,1.73,2.44,2.6,5.6,2.6,9.38Z"/>
  <path class="cls-1" d="M514.95,697.35c-.93-1.61-1.39-4.22-1.39-7.76v-58.57h-12.24v33.13h-30.83v-18.73c0-3.9-.31-6.76-.94-8.74-.68-2.13-1.86-3.64-3.5-4.48-1.55-.79-3.72-1.17-6.65-1.17h-11.09v6.72h3.36c2.67,0,4.36.7,5.18,2.13.93,1.62,1.39,2.03,1.39,5.56v60.78h12.24v-35.33h30.83v20.93c0,3.91.31,6.78.93,8.74.68,2.13,1.86,3.64,3.5,4.48,1.55.79,3.72,1.17,6.65,1.17h11.08v-6.72h-3.36c-2.67,0-4.37-.7-5.18-2.13Z"/>
  <path class="cls-1" d="M589.82,698.8c-2.06-1.71-4.45-4.82-7.09-9.26l-10.8-17.99c4.56-1.25,8.46-3.22,11.6-5.88,3.6-3.05,5.43-7.67,5.43-13.74,0-8.1-3.12-13.7-9.26-16.66-5.87-2.82-12.43-4.25-19.49-4.25h-29.86v6.72h3.36c2.67,0,4.36.7,5.18,2.13.93,1.62,1.39,2.03,1.39,5.56v60.78h12.24v-33.68h5.92l10.71,18.2c3.59,6.13,6.93,10.45,9.93,12.85,3.1,2.48,6.74,3.73,10.82,3.73,1.37,0,2.74-.12,4.06-.35,1.33-.23,2.39-.52,3.14-.85l.68-.3v-4l-1.03-.11c-2.63-.27-4.96-1.24-6.95-2.88ZM552.53,638.04c2.5-.58,4.78-.86,6.8-.86,2.26,0,4.7.54,7.22,1.62,2.5,1.06,4.67,2.71,6.46,4.91,1.73,2.14,2.61,4.87,2.61,8.11s-.86,5.98-2.56,8.12c-1.74,2.19-3.91,3.82-6.43,4.84-2.58,1.04-5.04,1.57-7.3,1.57h-6.8v-28.31Z"/>
  <path class="cls-1" d="M623.26,697.35c-.93-1.62-1.39-4.23-1.39-7.76v-58.57h-12.24v60.78c0,3.9.31,6.76.94,8.74.68,2.13,1.86,3.64,3.5,4.48,1.55.79,3.72,1.17,6.65,1.17h11.09v-6.72h-3.36c-2.67,0-4.37-.7-5.18-2.13Z"/>
  <path class="cls-1" d="M766.2,687.12l-.36.95c-1.59,4.16-3.75,7.13-6.39,8.83-2.67,1.71-6.47,2.58-11.3,2.58h-18.17v-28.62h29.81v-6.72h-29.81v-26.41h19.39c8.51,0,12.65,3.78,12.65,11.55v1.15h4.51v-9.43c0-6.53-3.64-9.98-10.54-9.98h-48.19v6.72h3.36c2.67,0,4.36.7,5.18,2.13.93,1.62,1.39,4.24,1.39,7.77v58.56h39.25c4.71,0,7.86-2.11,9.36-6.28l4.31-11.69-4.44-1.1Z"/>
  <path class="cls-1" d="M692.05,631.02h-43.06c-6.89,0-10.53,3.45-10.53,9.98v9.43h4.51v-1.15c0-7.77,4.14-11.55,12.65-11.55h8.78v68.46h12.24v-68.46h8.78c8.51,0,12.65,3.78,12.65,11.55v1.15h4.51v-9.43c0-6.53-3.64-9.98-10.53-9.98Z"/>
  <path class="cls-1" d="M349.59,762.7c-1.19-.68-2.49-1.25-3.87-1.7-1.37-.45-2.64-.93-3.78-1.42-1.13-.49-2.09-1.05-2.84-1.68-.71-.59-1.05-1.36-1.05-2.34,0-.55.12-1.07.36-1.54.24-.48.6-.9,1.07-1.25.48-.36,1.09-.66,1.8-.89.72-.23,1.56-.34,2.5-.34,1.56,0,2.9.33,3.99.99,1.06.64,1.67,1.62,1.86,3.01l.04.29h3.25l-.07-.39c-.16-.97-.52-1.86-1.07-2.64-.55-.77-1.25-1.43-2.09-1.97-.83-.53-1.78-.94-2.83-1.21-2.12-.55-4.58-.54-6.65.06-1.08.31-2.03.77-2.85,1.37-.83.6-1.5,1.37-1.98,2.29-.49.92-.74,1.99-.74,3.16,0,1.55.4,2.83,1.21,3.79.78.93,1.77,1.72,2.94,2.34,1.15.61,2.42,1.13,3.76,1.56,1.32.42,2.55.9,3.66,1.43,1.1.52,2.02,1.16,2.74,1.9.68.71,1.03,1.68,1.03,2.89,0,1.52-.53,2.6-1.63,3.29-1.13.71-2.67,1.07-4.58,1.07-1.53,0-2.76-.2-3.66-.59-.9-.39-1.59-.86-2.06-1.4-.47-.54-.79-1.1-.95-1.66-.17-.59-.26-1.08-.29-1.49l-.02-.31h-3.22l.02.35c.05,1.13.35,2.16.89,3.08.54.92,1.28,1.71,2.21,2.34.92.63,2.01,1.13,3.24,1.47,1.23.35,2.59.52,4.05.52s2.83-.18,4.03-.54c1.2-.36,2.24-.89,3.11-1.56.86-.68,1.54-1.52,2.01-2.49.47-.97.71-2.06.71-3.23,0-1.62-.42-2.98-1.24-4.02-.8-1.02-1.82-1.89-3.02-2.56Z"/>
  <path class="cls-1" d="M376.06,752.11c-.74-.74-1.68-1.34-2.8-1.78-1.11-.44-2.43-.66-3.92-.66h-9.13v26.98h4.09v-10.88c.54.13,1.12.24,1.72.33.77.11,1.62.17,2.53.17,1.56,0,2.96-.22,4.17-.66,1.21-.44,2.24-1.05,3.07-1.82.82-.77,1.45-1.67,1.86-2.67.42-1,.63-2.09.63-3.23,0-1.08-.19-2.14-.55-3.14-.36-1-.93-1.89-1.67-2.64ZM364.3,751.99h3.61c1,0,1.89.18,2.64.53.75.35,1.39.83,1.88,1.4.49.58.87,1.24,1.12,1.96.25.72.38,1.45.38,2.17s-.11,1.39-.34,2.09c-.22.69-.59,1.33-1.08,1.89-.49.56-1.12,1.03-1.88,1.38-.76.35-1.68.53-2.76.53-.76,0-1.47-.03-2.11-.09-.53-.05-1.02-.15-1.46-.3v-11.57Z"/>
  <path class="cls-1" d="M393.42,749.67h-2.31l-11.41,26.98h2.46l3.31-7.74h12.53l3.52,7.55.09.19h4.39l-12.48-26.79-.09-.19ZM396.89,766.55h-10.43l4.99-11.68,5.44,11.68Z"/>
  <path class="cls-1" d="M442.27,762.24c-.07,1.96-.31,3.59-.7,4.86-.34,1.1-.82,2.1-1.42,2.98l-6.96-9.16c1.61-.81,2.77-1.71,3.46-2.69.75-1.07,1.13-2.18,1.13-3.29,0-.87-.16-1.67-.48-2.37-.32-.7-.75-1.31-1.28-1.82-.54-.51-1.17-.9-1.88-1.16-.71-.26-1.49-.39-2.3-.39-1.05,0-1.96.18-2.72.54-.75.36-1.38.82-1.87,1.38-.49.56-.85,1.2-1.08,1.91-.22.7-.33,1.38-.33,2.04,0,1.11.3,2.17.89,3.16.52.86,1.13,1.8,1.83,2.8-.88.43-1.71.91-2.47,1.41-.87.57-1.64,1.23-2.3,1.93-.66.71-1.19,1.5-1.56,2.32-.38.84-.57,1.77-.57,2.77s.21,1.9.63,2.81c.42.92,1.04,1.74,1.87,2.47.82.71,1.84,1.29,3.04,1.72,1.2.42,2.59.64,4.15.64,1.06,0,2.22-.17,3.45-.5,1.18-.32,2.51-1,3.96-2.04l1.63,2.13h4.84l-3.68-4.65c.21-.25.48-.57.82-.98.45-.56.92-1.26,1.39-2.1.47-.84.9-1.82,1.3-2.91.4-1.1.66-2.36.79-3.73l.03-.37h-3.62v.32ZM434.45,756.31c-.2.49-.46.94-.77,1.33-.3.39-.65.74-1.02,1.04-.28.22-.54.41-.79.56-.72-.9-1.34-1.75-1.84-2.51-.51-.78-.78-1.59-.78-2.39,0-.35.05-.69.16-1.03.1-.33.26-.63.48-.9.22-.26.5-.48.85-.65.34-.16.77-.25,1.27-.25.54,0,.98.11,1.31.32.35.22.63.49.83.8.21.32.36.67.45,1.05.09.38.14.73.14,1.03,0,.58-.1,1.12-.3,1.6ZM432.31,774.44c-.79,0-1.59-.14-2.39-.42-.79-.27-1.53-.68-2.19-1.2-.65-.52-1.19-1.16-1.59-1.91-.4-.73-.6-1.6-.6-2.56,0-1.05.33-2.02.97-2.88.62-.84,1.77-1.71,3.41-2.59l7.53,9.93c-.42.33-.86.6-1.31.8-.55.24-1.08.43-1.58.55-.51.12-.96.2-1.36.24-.4.04-.7.05-.89.05Z"/>
  <polygon class="cls-1" points="488.44 771.15 481.26 749.67 479.17 749.67 471.85 771.04 464.35 749.89 464.27 749.67 460.1 749.67 469.58 776.43 469.66 776.65 472.39 776.65 479.42 756.51 486.16 776.42 486.23 776.65 488.93 776.65 498.33 750.12 498.49 749.67 496.05 749.67 488.44 771.15"/>
  <polygon class="cls-1" points="503.32 776.65 520.98 776.65 520.98 773.91 507.41 773.91 507.41 763.57 519.06 763.57 519.06 761.17 507.41 761.17 507.41 752.4 520.98 752.4 520.98 749.67 503.32 749.67 503.32 776.65"/>
  <polygon class="cls-1" points="530.04 749.67 525.95 749.67 525.95 776.65 543.61 776.65 543.61 773.91 530.04 773.91 530.04 749.67"/>
  <polygon class="cls-1" points="552.67 749.67 548.58 749.67 548.58 776.65 566.24 776.65 566.24 773.91 552.67 773.91 552.67 749.67"/>
  <polygon class="cls-1" points="592.41 769.46 571.97 749.31 571.87 749.22 571.21 749.22 571.21 776.65 573.61 776.65 573.61 756.85 594.05 777.01 594.15 777.1 594.81 777.1 594.81 749.67 592.41 749.67 592.41 769.46"/>
  <polygon class="cls-1" points="603.16 776.65 620.82 776.65 620.82 773.91 607.25 773.91 607.25 763.57 618.9 763.57 618.9 761.17 607.25 761.17 607.25 752.4 620.82 752.4 620.82 749.67 603.16 749.67 603.16 776.65"/>
  <path class="cls-1" d="M638.67,762.7c-1.19-.68-2.49-1.25-3.87-1.7-1.37-.45-2.64-.93-3.78-1.42-1.13-.49-2.09-1.05-2.84-1.68-.71-.59-1.05-1.36-1.05-2.34,0-.55.12-1.07.36-1.54.24-.48.6-.9,1.07-1.25.48-.36,1.09-.66,1.8-.89.72-.23,1.56-.34,2.5-.34,1.56,0,2.9.33,3.99.99,1.06.64,1.67,1.62,1.86,3.01l.04.29h3.25l-.07-.39c-.16-.97-.52-1.86-1.07-2.64-.55-.77-1.25-1.43-2.09-1.97-.83-.53-1.78-.94-2.83-1.21-2.12-.55-4.58-.54-6.65.06-1.08.31-2.03.77-2.85,1.37-.83.6-1.5,1.37-1.98,2.29-.49.92-.74,1.99-.74,3.16,0,1.55.4,2.83,1.21,3.79.78.93,1.77,1.72,2.94,2.34,1.15.61,2.42,1.13,3.76,1.56,1.32.42,2.55.9,3.66,1.43,1.1.52,2.02,1.16,2.74,1.9.68.71,1.03,1.68,1.03,2.89,0,1.52-.53,2.6-1.63,3.29-1.13.71-2.67,1.07-4.58,1.07-1.53,0-2.76-.2-3.66-.59-.9-.39-1.59-.86-2.06-1.4-.47-.54-.79-1.1-.95-1.66-.17-.59-.26-1.08-.29-1.49l-.02-.31h-3.22l.02.35c.05,1.13.35,2.16.89,3.08.54.92,1.28,1.71,2.21,2.34.92.63,2.01,1.13,3.24,1.47,1.23.35,2.59.52,4.05.52s2.83-.18,4.03-.54c1.2-.36,2.24-.89,3.11-1.56.86-.68,1.54-1.52,2.01-2.49.47-.97.71-2.06.71-3.23,0-1.62-.42-2.98-1.24-4.02-.8-1.02-1.82-1.89-3.02-2.56Z"/>
  <path class="cls-1" d="M665.18,765.27c-.8-1.02-1.82-1.89-3.02-2.56-1.19-.68-2.49-1.25-3.87-1.7-1.37-.45-2.64-.93-3.78-1.42-1.13-.49-2.09-1.05-2.84-1.68-.71-.59-1.05-1.36-1.05-2.34,0-.55.12-1.07.36-1.54.24-.48.6-.9,1.07-1.25.48-.36,1.09-.66,1.8-.89.72-.23,1.56-.34,2.5-.34,1.56,0,2.9.33,3.99.99,1.06.64,1.67,1.62,1.86,3.01l.04.29h3.25l-.07-.39c-.16-.97-.52-1.86-1.07-2.64-.55-.77-1.25-1.43-2.09-1.97-.83-.53-1.78-.94-2.83-1.21-2.12-.55-4.58-.54-6.65.06-1.08.31-2.03.77-2.85,1.37-.83.6-1.5,1.37-1.98,2.29-.49.92-.74,1.99-.74,3.16,0,1.55.4,2.83,1.21,3.79.78.93,1.77,1.72,2.94,2.34,1.15.61,2.42,1.13,3.76,1.56,1.32.42,2.55.9,3.66,1.43,1.1.52,2.02,1.16,2.74,1.9.68.71,1.03,1.68,1.03,2.89,0,1.52-.53,2.6-1.63,3.29-1.13.71-2.67,1.07-4.58,1.07-1.53,0-2.76-.2-3.66-.59-.9-.39-1.59-.86-2.06-1.4-.47-.54-.79-1.1-.95-1.66-.17-.59-.26-1.08-.29-1.49l-.02-.31h-3.22l.02.35c.05,1.13.35,2.16.89,3.08.54.92,1.28,1.71,2.21,2.34.92.63,2.01,1.13,3.24,1.47,1.23.35,2.59.52,4.05.52s2.83-.18,4.03-.54c1.2-.36,2.24-.89,3.11-1.56.86-.68,1.54-1.52,2.01-2.49.47-.97.71-2.06.71-3.23,0-1.62-.42-2.98-1.24-4.02Z"/>
</svg>