<?xml version="1.0" encoding="UTF-8"?>
<svg id="Layer_1" data-name="Layer 1" xmlns="http://www.w3.org/2000/svg" viewBox="0 0 1000 1000">
  <defs>
    <style>
      .cls-1 {
        fill: #fff;
      }
    </style>
  </defs>
  <path class="cls-1" d="M492.2,244.74c-75.45,0-131.03,47.95-131.03,99.19,0,26.48,14.92,48.77,33.7,64.23l1.43-.97c-14.9-12.31-28.34-31.61-28.34-58.04,3.94-56.06,73.09-87.66,134.53-87.66,43.51,0,121.63,10.05,121.63,82.75,0,37.93-40.54,87.26-125.64,87.26-43.59,0-77.44-23.34-77.44-56.87,0-29.04,22.73-49.72,56.65-49.72,9.35,0,18.1,2.18,24.78,4-14.14-2.55-36.1,1.09-47.46,10.01v49.1h41.68v-55.81c7.86,1.42,13.95,4.36,18.15,6.98v48.83h10.86c-8.54,9.57-24.43,15.4-38.2,13.26v2.05c39.6,3.11,56.36-15.66,56.36-36.79,0-24.85-23.33-39.45-47.17-42.43v-36.7h-41.68v37.14c-26.97,5.43-53.37,21.45-53.37,47.99,0,40.85,57.11,66.16,106.79,66.16,75.51,0,133.61-36.5,133.61-87.71,0-61.99-83.88-106.24-149.83-106.24M549.63,367.97c0-18.05-12.34-32.51-34.81-39.5v-41.07h41.62v100.61h-13.01c4.58-6.44,6.2-13.76,6.2-20.04"/>
  <polygon class="cls-1" points="312.8 495.45 312.8 638.54 323.9 640.02 323.9 648.41 268.9 648.41 268.9 640.02 280.74 638.54 280.74 573.44 210.45 573.44 210.45 638.54 221.3 640.02 221.3 648.41 167.29 648.41 167.29 640.02 178.14 638.54 178.14 495.45 167.29 493.97 167.29 485.83 221.3 485.83 221.3 493.97 210.45 495.45 210.45 556.65 280.74 556.65 280.74 495.45 268.9 493.97 268.9 485.83 323.9 485.83 323.9 493.97 312.8 495.45"/>
  <path class="cls-1" d="M389.44,496.19c0,10.85-7.4,19-17.51,19s-17.51-7.4-17.51-18.26,7.15-18.51,17.51-18.51,17.51,8.14,17.51,17.77M385.74,639.53l10.36,1.48v7.4h-50.56v-7.4l10.36-1.48v-97.93l-10.36-1.48v-7.41h40.2v106.82Z"/>
  <polygon class="cls-1" points="418.06 641.01 428.17 639.53 428.17 489.77 418.06 488.29 418.06 480.89 458.25 480.89 458.25 639.53 468.61 641.01 468.61 648.41 418.06 648.41 418.06 641.01"/>
  <path class="cls-1" d="M530.03,532.71h27.13v10.86h-27.13v68.83c0,17.75,3.7,23.43,19.73,23.43,5.92,0,11.09,0,16.03-1.23v7.89c-14.55,5.18-26.89,7.4-37.24,7.4-23.18,0-28.61-10.61-28.61-30.83v-75.49h-21.21v-10.86h21.95v-24.19l29.35-8.88v33.07Z"/>
  <path class="cls-1" d="M659.45,590.95c0-36.51-10.85-52.56-28.36-52.56s-27.87,15.31-27.87,52.56,10.85,52.03,27.87,52.03c18.25,0,28.36-14.55,28.36-52.03M692.49,591.68c0,36.01-24.16,60.18-62.14,60.18s-60.18-15.78-60.18-60.18c0-37.25,24.17-62.18,62.15-62.18s60.17,22.46,60.17,62.18"/>
  <path class="cls-1" d="M832.71,641.01v7.4h-50.56v-7.4l10.11-1.48v-65.85c0-18.26-6.66-26.41-20.47-26.41-6.41,0-16.53,4.44-23.92,9.62v82.63l10.36,1.48v7.4h-50.8v-7.4l10.36-1.48v-97.19l-10.36-1.48v-8.14h40.45v16.04c12.58-10.12,24.66-18.26,41.67-18.26,22.69,0,32.81,13.33,32.81,39.49v69.55l10.36,1.48Z"/>
  <path class="cls-1" d="M188.43,754.96c-5.05,0-9.37-1.14-13.03-2.88l1.2-7.27c3.48,2.04,7.81,3.66,11.95,3.66,3.66,0,6.19-1.74,6.19-5.04,0-3.06-1.44-4.32-7.45-6.91-8.05-3.3-11.29-5.94-11.29-12.37,0-7.32,5.65-11.59,13.39-11.59,4.68,0,7.93.96,10.93,2.52l-1.2,7.21c-3-1.98-6.55-3.24-9.79-3.24-3.97,0-5.71,1.92-5.71,4.44s1.32,3.9,7.09,6.3c8.53,3.48,11.65,6.43,11.65,12.85,0,8.11-5.94,12.31-13.93,12.31Z"/>
  <path class="cls-1" d="M220.72,712.86h8.47l15.19,40.6-7.99,1.44-3.96-10.93h-15.67l-3.6,10.51h-7.99l15.55-41.62ZM218.92,737.48h11.29l-5.59-16.03-5.7,16.03Z"/>
  <path class="cls-1" d="M288.55,754.48l-2.22-30.57-10.39,30.69h-7.09l-10.45-30.69-2.1,30.57h-7.15l3.18-41.44h10.09l10.51,31.29,10.45-31.29h9.91l3.18,41.44h-7.93Z"/>
  <path class="cls-1" d="M316.81,712.86h8.47l15.19,40.6-7.99,1.44-3.96-10.93h-15.67l-3.6,10.51h-7.99l15.55-41.62ZM315.01,737.48h11.29l-5.59-16.03-5.7,16.03Z"/>
  <path class="cls-1" d="M367.92,754.9l-10.81-16.27h-3.36v15.85h-7.93v-41.44h12.85c9.25,0,14.83,4.38,14.83,12.43,0,6.06-3.24,9.85-8.41,11.65l11.23,16.27-8.41,1.5ZM358.07,719.41h-4.38v13.15h4.02c4.92,0,7.99-2.34,7.99-6.67s-2.64-6.49-7.63-6.49Z"/>
  <path class="cls-1" d="M405.84,754.9l-16.45-20.6v20.18h-7.99v-41.44h7.99v18.2l14.95-18.2h9.55l-16.58,19.4,17.3,20.96-8.77,1.5Z"/>
  <path class="cls-1" d="M433.44,712.86h8.47l15.19,40.6-7.99,1.44-3.96-10.93h-15.67l-3.6,10.51h-7.99l15.55-41.62ZM431.64,737.48h11.29l-5.59-16.03-5.7,16.03Z"/>
  <path class="cls-1" d="M489.35,754.48l-19.52-28.53v28.53h-7.39v-41.44h7.51l18.62,27.14v-27.14h7.39v41.44h-6.61Z"/>
  <path class="cls-1" d="M518.05,754.48h-13.15v-41.44h13.15c14.41,0,21.86,8.47,21.86,20.66s-7.75,20.78-21.86,20.78ZM517.99,719.59h-5.16v28.34h5.04c8.71,0,13.93-4.44,13.93-14.17s-5.52-14.17-13.81-14.17Z"/>
  <path class="cls-1" d="M582.12,754.9l-10.81-16.27h-3.36v15.85h-7.93v-41.44h12.85c9.25,0,14.83,4.38,14.83,12.43,0,6.06-3.24,9.85-8.41,11.65l11.23,16.27-8.41,1.5ZM572.27,719.41h-4.38v13.15h4.02c4.92,0,7.99-2.34,7.99-6.67s-2.64-6.49-7.63-6.49Z"/>
  <path class="cls-1" d="M595.6,754.48v-41.44h24.08v6.73h-16.21v9.91h12.49l1.08,6.67h-13.57v11.41h16.81v6.73h-24.68Z"/>
  <path class="cls-1" d="M644.94,755.26c-13.15,0-20.36-8.65-20.36-21.44s7.63-21.56,20.24-21.56c5.28,0,9.31,1.32,12.61,3.3l-1.14,7.39c-3.12-2.22-6.85-3.9-11.41-3.9-8.11,0-12.19,5.89-12.19,14.71s4.2,14.77,12.55,14.77c2.88,0,4.93-.6,6.97-1.68v-9.19h-8.41l-.96-6.36h16.63v19.76c-3.9,2.52-9.01,4.2-14.53,4.2Z"/>
  <path class="cls-1" d="M667.78,754.48v-41.44h24.08v6.73h-16.21v9.91h12.49l1.08,6.67h-13.57v11.41h16.81v6.73h-24.68Z"/>
  <path class="cls-1" d="M726.23,754.48l-19.52-28.53v28.53h-7.39v-41.44h7.51l18.62,27.14v-27.14h7.39v41.44h-6.61Z"/>
  <path class="cls-1" d="M759.45,755.2c-12.01,0-19.58-8.47-19.58-21.38s7.75-21.5,19.81-21.5c4.68,0,8.29,1.08,11.35,3l-1.14,7.51c-2.7-2.04-5.89-3.66-9.91-3.66-7.51,0-12.01,5.64-12.01,14.59s4.68,14.53,12.13,14.53c3.9,0,7.33-1.44,10.51-3.6l1.08,6.97c-3.24,2.1-7.51,3.54-12.25,3.54Z"/>
  <path class="cls-1" d="M797.95,738.62v15.85h-7.99v-15.79l-14.47-24.74,8.29-1.32,10.39,18.68,10.09-18.26h8.65l-14.95,25.58Z"/>
</svg>