<?xml version="1.0" encoding="UTF-8"?>
<svg id="Layer_1" data-name="Layer 1" xmlns="http://www.w3.org/2000/svg" viewBox="0 0 1000 1000">
  <defs>
    <style>
      .cls-1 {
        fill: #fff;
      }
    </style>
  </defs>
  <path class="cls-1" d="M400.41,494.9c.15-.67.41-1.4.46-2.14.08-1.21.04-2.43.04-3.65,0-67.6,0-135.21,0-202.81,0-3.1-.04-6.2.07-9.29.33-9.54,1.66-18.92,4.44-28.07,3.56-11.71,9.5-22.11,17.33-31.46,10.15-12.13,21.95-22.44,34.83-31.56,8.41-5.95,17.21-11.27,26.22-16.25,1.98-1.09,3.98-1.69,6.29-1.66,9.52.1,19.04.06,28.55.02,1.83,0,3.43.36,5.01,1.35,12.27,7.73,24.24,15.89,35.47,25.09,7.81,6.4,15.08,13.34,21.16,21.45,6.01,8.01,11.02,16.58,14.33,26.07,2.23,6.39,3.46,12.94,3.84,19.76.99,18.03.54,36.06.56,54.08.08,57.65.03,115.29.03,172.94,0,1.22-.03,2.44.02,3.65.09,2.59.39,2.88,2.86,2.96.77.02,1.55,0,2.32,0,5.53,0,11.07,0,16.6,0,.88,0,1.77-.01,2.65.07.89.08,1.4.59,1.49,1.5.1.99.11,1.99.11,2.98,0,5.64,0,11.29.02,16.93,0,1.1.08,2.21.22,3.3.09.72.6,1.22,1.31,1.32,1.09.14,2.2.22,3.3.23,5.76.02,11.51,0,17.27.01,4.21,0,4.22.02,4.22,4.24,0,5.86.02,11.73,0,17.59-.01,2.86-.2,3.01-2.98,3.07-.77.02-1.55,0-2.32,0-97.4,0-194.79,0-292.19,0-1.22,0-2.44.03-3.65-.04-1.14-.06-1.6-.54-1.71-1.63-.05-.55-.04-1.1-.04-1.66,0-6.09,0-12.17,0-18.26,0-.44-.01-.89.02-1.33.11-1.31.55-1.81,1.81-1.92.88-.08,1.77-.07,2.65-.07,5.76,0,11.51.01,17.27,0,4.3-.02,4.51-.22,4.52-4.49.02-5.97,0-11.95.01-17.92.01-3.83.1-3.9,3.91-3.91,5.98-.01,11.95,0,17.93-.01,1.2,0,2.43.19,3.73-.47ZM595.82,495.01c.57-1.66.39-3.21.39-4.74,0-49.11.1-98.22-.03-147.33-.07-25.99.66-51.98-.58-77.96-.14-2.87-.25-5.72-.61-8.59-1.02-8.23-3.64-15.92-7.45-23.23-6.63-12.71-15.65-23.55-26.41-32.95-12.12-10.59-25.54-19.37-39.22-27.76-1.18-.72-2.4-1.02-3.77-1-2.43.05-4.87.01-7.3.01-4.31,0-8.63,0-12.94.01-.62,0-1.34-.15-1.74.75.47,1.03,1.56,1.38,2.45,1.97,5.71,3.79,11.52,7.44,17.12,11.39,12.24,8.64,23.58,18.32,33.41,29.68,6.32,7.3,11.94,15.08,16.25,23.76,4.78,9.63,7.27,19.9,8.32,30.53.33,3.4.26,6.85.26,10.28.01,69.57,0,139.14.01,208.71,0,1.33-.04,2.66.04,3.98.06.85.32,1.68.48,2.44,2.86.54,18.11.57,21.32.03ZM564.54,301.73c1.17-1.08.9-2.36.88-3.53-.1-7.73.21-15.47-.31-23.21-.3-4.41-.61-8.8-1.31-13.17-2.01-12.5-7.04-23.64-14.77-33.62-11.08-14.31-24.43-26.13-39.52-36.03-2.95-1.94-6.07-3.64-9.07-5.5-1.39-.86-2.67-.89-3.99.1-.44.33-.94.58-1.4.88-5.24,3.5-10.51,6.96-15.7,10.53-12.88,8.87-23.68,19.87-32.94,32.43-3.35,4.55-6.36,9.32-8.65,14.5-3.94,8.91-5.56,18.34-6.07,28-.15,2.87-.26,5.74-.33,8.61-.07,2.54-.08,5.08-.08,7.63,0,.86-.06,1.8.8,2.39.21-.05.5-.03.62-.16.59-.65,1.17-1.31,1.69-2.02,6.67-8.89,14.24-16.88,23.16-23.58,7.17-5.38,14.56-10.43,22.03-15.37,1.93-1.28,3.9-1.86,6.21-1.83,6.52.08,13.05.1,19.57,0,2.54-.04,4.72.62,6.86,1.97,7.02,4.43,13.85,9.13,20.25,14.42,3.92,3.24,7.75,6.6,11.46,10.07,7.41,6.92,13.46,14.93,18.44,23.75.53.94.86,2.05,2.16,2.75ZM541.53,360.19c.33-.63.64-.97.69-1.35.11-.76.12-1.54.11-2.31-.08-5.75.16-11.5-.5-17.23-.42-3.73-.44-7.51-.94-11.22-1.53-11.4-5.88-21.66-12.71-30.94-7.68-10.45-16.99-19.18-27.41-26.81-.62-.46-1.27-.89-1.9-1.34-.81-.58-1.65-.6-2.47-.04-1.74,1.18-3.53,2.29-5.19,3.57-8.66,6.62-16.3,14.28-23.11,22.77-7.35,9.18-11.94,19.59-13.68,31.21-.94,6.24-1.29,12.54-1.33,18.83-.08,12.83-.03,25.66-.03,38.49,0,.88,0,1.77.1,2.65.04.36.35.68.79,1.47.37-1.06.66-1.62.76-2.21,1.99-11.1,6.46-21.09,13.45-29.94,5.67-7.17,12.36-13.25,19.73-18.61,1.24-.9,2.53-1.2,4.02-1.2,7.08.04,14.16.09,21.24-.03,2.46-.04,4.46.61,6.42,2.08,7.76,5.81,14.69,12.42,20.22,20.42.41.59,1,1.04,1.7,1.73ZM500.98,253.21c-.75-1.21-1.8-1.1-2.74-1.11-3.76-.03-7.53.05-11.29-.04-2.32-.06-4.3.61-6.2,1.92-4.46,3.08-8.96,6.1-13.49,9.08-9.69,6.38-18.15,14.11-25.49,23.08-2.73,3.34-5.36,6.75-7.45,10.55-7.23,13.14-10.93,27.21-11.23,42.18-.09,4.42-.09,8.85-.09,13.27,0,46.02,0,92.03,0,138.05,0,1-.03,1.99.04,2.99.05.63.26,1.24.41,1.88.57.12.99.28,1.41.28,5.75.03,11.51.05,17.26.02.61,0,1.21-.32,1.94-.53.03-1.67.09-3.21.09-4.75,0-49.33.02-98.67,0-148,0-9.46,1.26-18.72,3.93-27.79,3.72-12.65,10.19-23.72,19.25-33.27,2.59-2.73,5.35-5.29,8.1-7.86,2.34-2.19,4.66-4.43,7.21-6.36,5.38-4.07,10.9-7.95,16.35-11.93.69-.5,1.31-1.09,1.99-1.66ZM517.59,495.03c.98-1.38.75-2.86.75-4.27.01-31.42.03-62.83-.03-94.25,0-2.86-.22-5.77-.76-8.57-1.81-9.4-5.79-17.83-11.92-25.22-2.23-2.69-2.77-2.73-5.02.04-7.96,9.83-12.67,20.78-12.6,33.74.18,31.42.06,62.83.06,94.25,0,.77-.03,1.55.03,2.32.05.63.22,1.26.35,1.92.57.14.99.32,1.4.32,8.85.02,17.7.02,26.56,0,.42,0,.84-.2,1.18-.29ZM495.53,339.03c-.06,1.77,1.03,2.33,1.78,3.05,4.75,4.49,9.24,9.23,13.18,14.45,4.15,5.49,7.71,11.33,10.31,17.73,2.99,7.36,4.59,14.95,4.58,22.92-.04,30.64-.02,61.28-.01,91.92,0,1.22-.02,2.44.06,3.65.11,1.6.62,2.09,2.26,2.29.44.05.88.08,1.32.07,5.42-.14,10.83-.28,16.25-.44.32,0,.63-.18.93-.27.97-1.42.69-3.01.68-4.53-.12-17.81-.3-35.61-.39-53.42-.08-16.26-.09-32.52-.07-48.78,0-3.68-.52-7.27-1.42-10.81-1.01-3.99-2.67-7.73-4.69-11.3-5.57-9.89-13.09-18.04-22.2-24.77-1.86-1.37-3.82-2.03-6.15-1.97-4.42.11-8.85.02-13.28.04-.98,0-1.95.11-3.16.18ZM599.82,521.02c-2.7-.4-103.59-.67-109.72-.32-.53.03-1.05.18-1.53.27-.18.46-.4.76-.4,1.06-.04,5.86-.07,11.71-.08,17.57,0,.65.15,1.3.25,2.05.65.22,1.24.55,1.86.62,1.1.11,2.21.08,3.31.08,33.72,0,67.44,0,101.16,0,.99,0,2,.05,2.98-.06.74-.08,1.46-.35,2.21-.54.12-.68.31-1.22.31-1.75.01-5.86,0-11.71-.03-17.57,0-.42-.19-.83-.32-1.41ZM400.07,520.76c1.23,1.04,2.48.93,3.69.93,5.42.01,10.84.01,16.26,0,.77,0,1.55-.05,2.31-.18,1.04-.18,1.51-.71,1.67-1.77.08-.54.1-1.1.1-1.65,0-5.53.01-11.06,0-16.58,0-.66-.06-1.33-.2-1.97-.14-.69-.58-1.18-1.32-1.3-.44-.07-.88-.1-1.32-.1-6.19,0-12.39-.03-18.58,0-2.37.02-2.71.4-2.84,2.64-.01.22-.01.44-.01.66,0,5.64-.01,11.28.01,16.92,0,.86.17,1.72.24,2.39Z"/>
  <g>
    <path class="cls-1" d="M893.8,786.41c-.82.88-.95,1.99-.92,3.1.08,2.28-.65,4.36-1.57,6.38-1.88,4.15-4.18,8.05-7.2,11.48-6.68,7.61-14.2,14.26-22.86,19.55-3.31,2.02-6.75,3.71-10.61,4.52-6.17,1.3-11.99.36-17.14-3.1-6.28-4.23-11.08-9.85-13.3-17.27-2.78-9.32-.88-17.71,5.51-25.03,3.46-3.96,7.57-7.1,12.39-9.26.4-.18.85-.44,1.24-.38.32.05.8.52.79.81,0,.52-.25,1.07-.51,1.55-1.86,3.49-2.71,7.26-2.8,11.15-.1,4.11.43,8.19,2.37,11.9,1.33,2.54,2.84,5,4.4,7.41,1.85,2.87,4.45,4.83,7.63,6.13,3.65,1.49,7.35,2.27,11.31,1.91,5.26-.47,10.19-4.43,11.56-9.52,1.09-4.02.92-8.11.48-12.19-1.07-9.88-7.22-16.07-15.34-20.68-4.42-2.51-9.2-4.3-13.98-6.03-7.79-2.83-15.58-5.63-23.32-8.58-2.46-.94-4.89-2.1-7.12-3.49-4.1-2.56-4.52-6.82-1.23-10.38.52-.57,1.11-1.09,1.72-1.55,5.37-4.08,10.76-8.15,16.15-12.2.52-.39,1.1-.8,1.71-.96.41-.11.93.22,1.56.39-.44.92-.76,1.61-1.08,2.29-1.02,2.17-.88,4.29.37,6.32,1.11,1.81,2.61,3.29,4.26,4.6,2.44,1.93,5.14,3.44,7.95,4.76,8.52,3.98,17.29,7.35,26.07,10.66,5.46,2.06,10.28,5.11,14.73,8.8,3.67,3.05,5.78,6.9,5.84,11.77.02,1.33.05,2.67.92,3.8v1.33Z"/>
    <path class="cls-1" d="M270.13,774.15c-.45-.68-.81-1.2-1.23-1.84.73-.58,1.31-1.08,1.93-1.51,5.8-4.05,11.62-8.08,17.42-12.13,1.37-.95,2.71-1.84,4.47-2,2.25-.21,3.86.57,4.95,2.54,1.14,2.07,1.76,4.33,2.1,6.61.62,4.26,1.01,8.55,1.46,12.83.45,4.28.85,8.57,1.29,12.86.04.42.21.83.31,1.18,1.06.39,1.55-.29,2.05-.86,2.47-2.84,4.88-5.73,7.37-8.54,7.93-8.95,16.44-17.32,25.3-25.36,2.83-2.57,5.24-2.09,7.77-.35,2.11,1.44,3.43,3.5,4.14,5.86,2.24,7.41,4.37,14.84,4.47,22.68.03,2.41.38,4.81.61,7.49.76-.28,1.36-.32,1.67-.64.91-.96,1.73-2.01,2.56-3.05,7.94-9.96,16.56-19.3,25.95-27.92,1.7-1.56,3.56-2.99,5.46-4.31,1.76-1.22,3.79-1.7,5.98-1.57,2.47.15,4.2,1.27,5.07,3.58.58,1.55,1.1,3.13,1.54,4.73,1.71,6.29,2.96,12.69,3.99,19.12,1.26,7.85,2.11,15.76,2.8,23.68.27,3.08.71,6.14,1.08,9.21.04.33.07.66.11.99.12,1.2-.21,2.17-1.35,2.77-.68.36-1.34.78-1.98,1.22-3.75,2.54-7.5,5.1-11.25,7.65-.81.55-1.61,1.1-2.67,1.82-.3-.92-.67-1.59-.72-2.29-.68-9.26-2.02-18.44-3.46-27.6-.72-4.58-1.75-9.11-3.31-13.5-.44-1.24-.99-2.48-1.71-3.57-1.81-2.75-4.67-3.68-7.82-2.72-1.82.55-3.46,1.45-4.95,2.62-3.33,2.61-6.2,5.67-8.96,8.84-8.04,9.22-14.4,19.58-20.32,30.22-.38.68-.72,1.37-1.13,2.03-.52.82-1.74.84-2.16-.01-.33-.67-.57-1.44-.64-2.19-.51-5.16-.87-10.34-1.47-15.5-.68-5.82-1.85-11.56-3.34-17.22-.36-1.37-.93-2.74-1.67-3.95-2-3.31-5.28-4.39-8.86-2.93-1.31.54-2.56,1.31-3.72,2.15-4.24,3.06-7.89,6.78-11.19,10.8-8.24,10.05-15.14,20.96-20.62,32.76-.23.5-.5.99-.67,1.51-.42,1.26-1.32,1.67-2.57,1.59-1.12-.07-1.54-.5-1.52-1.69.09-8.29.28-16.58.25-24.87-.02-5.63-.22-11.27-.56-16.9-.15-2.4-.73-4.8-1.36-7.13-.65-2.38-2.03-4.39-3.84-6.1-1.67-1.58-3.52-2.22-5.75-1.36-.3.12-.64.14-1.26.26Z"/>
    <path class="cls-1" d="M126.63,802.18c.45.79.84,1.44,1.19,2.11,2.78,5.41,7.12,9.27,12.38,12.11,4.04,2.18,8.45,2.5,12.91,1.9,1.85-.25,3.73-.61,5.47-1.27,5.13-1.95,8.65-5.55,9.32-11.1.68-5.66-.77-10.82-5.67-14.37-1.78-1.29-3.76-2.33-5.75-3.28-5.21-2.5-10.83-3.8-16.35-5.35-5.74-1.61-11.48-3.21-17.25-4.7-4.77-1.24-8.56-4.06-12.07-7.3-1.84-1.7-2.69-4.03-3.01-6.5-.68-5.23.32-10.11,3.1-14.62,3.23-5.26,7.35-9.68,12.46-13.15,8.79-5.98,18.36-10.12,28.82-12.19,4.82-.95,9.69-1.12,14.53-.74,4.55.36,8.95,1.56,12.51,4.71.82.73,1.65,1.5,2.29,2.39,1.69,2.32,1.26,4.69-1.16,6.2-4.97,3.11-10.1,5.92-15.47,8.65-.59-.56-1.19-1.03-1.66-1.6-1.7-2.06-3.56-3.93-5.7-5.54-3.09-2.33-6.59-3.72-10.39-3.99-4.49-.33-8.82.6-12.62,3.17-3.87,2.62-5.49,6.54-5.83,11.04-.13,1.8.53,3.48,1.43,5.04,1.12,1.95,2.65,3.53,4.47,4.84,3.9,2.81,8.18,4.85,12.79,6.13,7.34,2.04,14.71,3.98,22.07,5.96,3.21.86,6.36,1.87,9.32,3.4,2.79,1.44,5.28,3.27,7.24,5.72,3.15,3.94,4.28,8.35,3.19,13.36-.95,4.34-3.12,8.03-5.76,11.46-6.36,8.25-14.14,14.92-23.12,20.16-6.19,3.61-12.95,5.49-20.02,6.56-3.87.58-7.71.52-11.57.57-2.57.04-5.04-.55-7.52-1.07-5.72-1.21-9.93-4.65-13.47-9.09-.21-.26-.39-.53-.59-.8-1.26-1.74-1.29-3.5.04-5.18.89-1.12,1.81-2.27,2.92-3.15,4.6-3.65,9.52-6.83,14.61-9.76.55-.31,1.19-.46,1.91-.72Z"/>
    <path class="cls-1" d="M792.31,830.76c-.19-.55-.4-.94-.46-1.35-1.38-9.73-2.69-19.47-4.15-29.18-.44-2.94-1.2-5.84-1.97-8.72-.6-2.27-1.8-4.28-3.37-6.03-2.26-2.52-4.6-3.1-7.74-1.91-2.53.96-4.62,2.59-6.59,4.39-3.03,2.76-5.71,5.86-8.26,9.06-7.76,9.76-14.19,20.28-18.73,31.93-.28.72-.59,1.43-.97,2.1-.35.63-.96.85-1.68.87-.93.02-1.53-.4-1.68-1.24-.04-.22-.06-.44-.07-.66-.21-4.08-.41-8.17-.64-12.25-.41-7.39-.8-14.79-1.25-22.18-.19-3.08-.37-6.18-.78-9.24-.29-2.18-.83-4.34-1.49-6.44-.42-1.35-1.11-2.68-1.95-3.81-1.43-1.92-3.37-2.82-5.82-1.97-.94.32-1.87.66-2.83.89-.84.2-1.18-.37-1.37-1.33.27-.29.58-.74,1-1.05,6.93-5.14,13.85-10.29,20.83-15.37,2.66-1.94,4.92-1.49,6.84,1.13,1.4,1.91,2.34,4.07,2.74,6.35.66,3.8,1.16,7.64,1.5,11.49.38,4.29.5,8.61.77,12.91.08,1.29.18,2.61,1.06,3.73,1.34-.25,1.85-1.3,2.52-2.14,3.06-3.78,6.03-7.64,9.16-11.37,5.34-6.36,11.1-12.34,17.16-18.01,1.37-1.28,2.89-2.4,4.4-3.51.7-.51,1.53-.9,2.34-1.22,3.23-1.26,5.94-.4,7.72,2.52.63,1.03,1.06,2.19,1.47,3.32,1.7,4.69,2.75,9.55,3.77,14.41,1.81,8.65,3.19,17.37,4.18,26.16.47,4.17,1.13,8.31,1.69,12.47.1.76.13,1.54.17,2.31.05.96-.29,1.73-1.18,2.2-5.5,2.91-10.41,6.7-15.35,10.42-.16.12-.41.13-1,.29Z"/>
    <path class="cls-1" d="M274.56,819.45c-.4.44-.63.83-.98,1.07-4.9,3.41-9.81,6.8-14.73,10.18-.24.17-.62.15-1.12.25-.28-.57-.58-1.13-.85-1.71-1.54-3.31-3.01-6.65-4.62-9.91-2.23-4.49-5.18-8.46-8.76-12-4.56-4.5-10.13-7.06-16.23-8.5-2.78-.66-5.66-1.01-8.51-1.15-2.07-.1-4.23.12-6.23.66-4,1.09-7.01,4.99-4.04,10.19.32.57.76,1.1,1.23,1.55,3.98,3.76,8.61,6.16,14.16,6.45,4.1.22,8.18.19,12.1-1.32.49-.19,1.07-.21,1.61-.23.51-.02,1.01.84.73,1.25-.3.45-.63.91-1.03,1.28-3.35,3.06-6.65,6.17-10.09,9.11-2.79,2.39-5.87,4.34-9.6,4.97-.76.13-1.52.3-2.28.33-3.77.12-7.49-.41-11.15-1.22-4.02-.89-7.32-3.13-9.95-6.22-3.28-3.85-3.48-8.2-1.58-12.75,1.16-2.79,2.85-5.25,4.87-7.47,6.68-7.33,14.94-11.97,24.54-14.29,3.1-.75,6.19-1.51,9.47-2.31-.13-.8-.07-1.5-.37-1.99-2.71-4.6-5.82-8.89-10.22-12.05-.89-.64-1.86-1.2-2.86-1.66-2.17-.98-4.39-1.44-6.74-.52-.78.31-1.65.4-2.86.68.23-.68.24-1.17.49-1.37,4.82-3.88,9.64-7.77,14.55-11.54,1.38-1.06,3.04-1.79,4.62-2.57,1.83-.9,3.67-.72,5.38.33,1.03.63,2.06,1.33,2.9,2.19,2,2.05,4.04,4.11,5.8,6.36,8.32,10.65,15.62,21.98,22.01,33.89,3.03,5.65,5.98,11.34,8.95,17.02.5.96.92,1.98,1.38,2.99Z"/>
    <path class="cls-1" d="M727.31,819.36c-1.93,2.02-14.08,10.49-16.78,11.69-.25-.43-.54-.87-.76-1.34-1.79-3.8-3.52-7.62-5.36-11.4-1.71-3.5-4.07-6.57-6.67-9.46-4.75-5.28-10.82-8.35-17.6-9.99-2.88-.7-5.88-1.05-8.84-1.19-2.06-.1-4.16.37-6.23.72-.73.12-1.44.56-2.08.98-2.66,1.72-3.55,4.47-2.56,7.48.46,1.42,1.27,2.57,2.34,3.55,4.14,3.77,8.92,6.03,14.62,6.18,3.89.1,7.73-.03,11.43-1.4.41-.15.9-.33,1.28-.23.45.12.83.54,1.19.79-.17.42-.2.68-.34.82-4.02,3.96-8.1,7.84-12.61,11.25-4.76,3.61-10,4.97-15.91,3.7-1.72-.37-3.51-.39-5.23-.74-3.93-.81-7.1-2.98-9.84-5.81-3.24-3.36-3.75-7.4-2.58-11.71.89-3.27,2.8-6.02,5.01-8.51,6.82-7.67,15.31-12.55,25.32-14.83,2.99-.68,5.96-1.48,9.13-2.27-.14-.78-.09-1.47-.38-1.98-2.53-4.46-5.61-8.48-9.68-11.66-.86-.67-1.83-1.24-2.81-1.74-2.44-1.23-4.97-1.79-7.66-.74-.68.27-1.43.38-2.54.66.28-.73.31-1.21.57-1.42,5.1-4.23,9.99-8.74,15.63-12.29,1.21-.76,2.52-1.39,3.83-1.95,1.61-.69,3.28-.61,4.77.33,1.21.76,2.46,1.55,3.43,2.57,2.35,2.49,4.68,5.02,6.77,7.72,8.89,11.49,16.38,23.87,23.16,36.69,2.22,4.2,4.42,8.42,6.61,12.63.5.97.93,1.97,1.36,2.89Z"/>
    <path class="cls-1" d="M464.84,816.18c-1.17,1.09-2.27,2.16-3.42,3.18-3.06,2.72-6.09,5.47-9.22,8.1-2.49,2.08-5.32,3.63-8.55,4.17-5.11.87-16.16-.51-21.09-4.8-5.34-4.64-5.93-10.95-3.37-16.12,2.47-4.99,6.26-8.84,10.6-12.14,5.62-4.26,11.9-7.18,18.83-8.68,2.59-.56,5.15-1.25,7.71-1.91.41-.1.78-.35,1.31-.6-.18-.69-.21-1.37-.51-1.9-2.5-4.35-5.57-8.25-9.49-11.42-.94-.76-2.01-1.38-3.1-1.9-2.35-1.13-4.78-1.7-7.36-.68-.69.27-1.45.34-2.13.49-.44-.81.02-1.19.42-1.53,1.68-1.43,3.38-2.86,5.1-4.25,2.41-1.95,4.77-3.96,7.29-5.76,1.88-1.35,3.91-2.51,5.95-3.6,2.14-1.14,4.25-.86,6.27.47,2.24,1.48,4.22,3.26,5.84,5.37,3.83,5,7.67,10.01,11.29,15.16,5.41,7.7,10.06,15.88,14.48,24.18,2.55,4.78,5.03,9.6,7.54,14.4.36.69.7,1.38,1.01,2.09.29.68.12,1.31-.4,1.81-.32.31-.67.59-1.03.84-4.45,3.09-8.9,6.18-13.36,9.26-.36.25-.77.4-1.37.71-.37-.55-.78-1.03-1.04-1.59-1.49-3.21-2.86-6.47-4.43-9.64-2.77-5.61-6.34-10.67-11.32-14.54-5.45-4.24-11.69-6.61-18.57-7.27-.77-.07-1.55-.1-2.3-.27-2.69-.6-5.34-.04-7.87.57-4.21,1.02-6.94,5.3-3.93,10.16.52.83,1.2,1.6,1.94,2.25,4.14,3.59,8.87,5.68,14.45,5.81,4.02.09,7.95-.13,11.73-1.62.89-.35,1.49-.05,2.1,1.2Z"/>
    <path class="cls-1" d="M566.76,831.17c0-1.81-.01-3,0-4.19.07-6.96.21-13.92.21-20.88,0-4.2-.24-8.39-.27-12.59-.06-9.29-.65-18.54-1.25-27.8-.03-.44-.05-.88-.06-1.32-.24-7.84-.43-15.68-.74-23.52-.1-2.42-.45-4.83-.81-7.24-.13-.85-.5-1.7-.92-2.47-.98-1.78-2.5-2.8-4.58-2.73-.98.03-1.96.24-2.93.4-.86.14-1.71.33-2.43.47-.7-.54-.77-1.09-.31-1.54.62-.62,1.33-1.16,2.05-1.67,5.22-3.72,10.44-7.44,15.68-11.13,1.35-.95,2.72-1.92,4.2-2.66,1.78-.89,3.65-1.53,5.73-.81,1.16.4,1.95,1.09,2.27,2.21.36,1.27.59,2.58.82,3.88.11.65.08,1.32.09,1.99.23,9.94.28,19.89.73,29.82.42,9.28.53,18.56.78,27.83.14,5.08.26,10.16.46,15.24.18,4.52.54,9.04.7,13.57.12,3.31,0,6.63.11,9.95.06,1.87-.69,3-2.29,4-4.97,3.1-9.83,6.37-14.73,9.58-.64.42-1.28.83-2.52,1.63Z"/>
    <path class="cls-1" d="M509.05,831.77c-.06-1.56-.13-2.54-.13-3.52-.01-5.31-.09-10.62.01-15.92.12-6.09-.37-12.15-.86-18.2-.35-4.28-1.15-8.52-1.89-12.76-.26-1.5-.79-3-1.43-4.39-.45-.96-1.22-1.84-2.02-2.56-.95-.85-2.18-1.07-3.42-.6-1.02.39-2.02.85-3.01,1.27-1.5-1.65-1.52-2.09-.17-3.11.62-.46,1.27-.88,1.92-1.31,6.25-4.17,12.51-8.34,18.76-12.51.64-.43,1.31-.83,1.93-1.28,2.1-1.55,5.58-.77,6.66,2.51.51,1.56.73,3.23.88,4.87.21,2.31.23,4.63.32,6.95.05,1.2-.05,2.43.72,3.7.52-.19,1.06-.28,1.45-.57.79-.6,1.51-1.29,2.24-1.97,3.98-3.68,7.9-7.42,11.94-11.03,1.64-1.46,3.47-2.73,5.34-3.89,3.47-2.16,6.16-2.03,8.74,2.44,1.84,3.17,3.12,6.58,4.21,10.07.49,1.57.1,2.73-1.11,3.83-4.43,4.02-9.27,7.51-14.1,11.02-.16.12-.41.1-.86.21-.25-.52-.52-1.08-.78-1.65-1.03-2.23-2.45-4.18-4.14-5.96-3.64-3.84-8.57-2.3-10.06,1.96-1.39,3.98-2.55,7.99-2.55,12.26,0,8.07,0,16.14-.02,24.21-.01,3.83.35,3.5-3.18,5.82-4.25,2.79-8.44,5.68-12.66,8.51-.72.48-1.49.87-2.73,1.6Z"/>
    <path class="cls-1" d="M609,785.31c.82,1.02,1.4,1.81,2.05,2.55,4.68,5.31,9.35,10.63,14.08,15.89,2.07,2.3,4.25,4.51,6.46,6.67,1.02,1,2.19,1.86,3.37,2.67,1.29.87,2.69,1.53,4.32,1.51.44,0,.89.04,1.31.16,1.01.3,1.46,1.66.78,2.42-.51.57-1.11,1.07-1.71,1.56-3.61,2.92-7.23,5.83-10.85,8.73-.6.48-1.28.86-1.9,1.33-2.08,1.58-4.11,1.38-6.06-.19-1.38-1.11-2.73-2.25-4-3.48-3.97-3.86-7.54-8.09-10.98-12.42-4.61-5.8-9.22-11.59-13.82-17.4-.61-.77-1.14-1.61-1.8-2.54.48-.53.86-1.05,1.34-1.45,2.91-2.38,5.84-4.73,8.78-7.08,1.91-1.53,3.73-3.15,5.09-5.19.66-1,1.32-2.09,1.6-3.24.81-3.27-.54-5.91-3.6-7.36-.79-.37-1.65-.61-2.5-.86-1.03-.32-2.07-.59-3.45-.98.8-.75,1.3-1.29,1.87-1.74,4.08-3.21,8.21-6.37,12.25-9.63,1.3-1.05,2.56-1.46,4.25-1.19,4.38.69,8.23,2.56,11.71,5.15,2.67,1.98,3.12,4.49,1.33,7.29-1.18,1.84-2.7,3.5-4.3,5-2.66,2.5-5.49,4.81-8.26,7.18-1.85,1.58-3.72,3.13-5.55,4.73-.57.49-1.04,1.09-1.82,1.92Z"/>
  </g>
  <g>
    <path class="cls-1" d="M542.22,631.1c.35.75.52,1.28.82,1.72,5.51,8.42,10.94,16.9,16.6,25.21,2.55,3.74,5.56,7.16,8.41,10.68.76.94,1.66,1.78,2.58,2.58,1.26,1.1,2.62,1.99,4.44,1.93,1.15-.04,1.16.08,2.39,1.71-.34.35-.65.79-1.07,1.07-5.28,3.44-10.58,6.85-15.89,10.26-.74.47-1.53.9-2.34,1.24-1.5.61-3,.55-4.51-.07-1.67-.69-3.02-1.83-4.3-3.06-2.97-2.85-5.43-6.13-7.76-9.49-5.98-8.65-11.48-17.6-16.15-27.03-1.27-2.57-2.38-5.23-3.55-7.86-.18-.4-.32-.83-.46-1.24-.7-2.06-.59-2.47,1.22-3.49,1.83-1.03,3.7-1.99,5.54-3.01,1.25-.7,2.5-1.43,3.71-2.19,2.27-1.43,4.14-3.31,5.82-5.38,4.92-6.06,4.39-14.71-.41-20.15-3.48-3.95-7.7-6.53-12.94-7.46-4.05-.72-8.11-.94-12.21-.78-.54.02-1.07.16-1.73.26-.17.66-.42,1.27-.47,1.9-.09.99-.05,1.99-.05,2.98,0,20.57-.02,41.15.02,61.72,0,2.64.33,5.29.5,7.93.04.66.06,1.32.11,1.99.08,1.09-.32,1.94-1.23,2.55-.09.06-.17.14-.26.2-6.22,4.22-12.45,8.44-18.68,12.64-.17.11-.42.1-.65.15-.68-.23-.63-.82-.63-1.36.04-10.62.04-21.24.14-31.86.17-17.69.4-35.39.6-53.08.01-1.09-.07-2.19-.12-3.38-.75-.24-1.36-.61-1.96-.6-4.64.03-9.29-.37-13.91.45-1.06.19-2.15.27-3.49-.16.46-.59.73-1.05,1.09-1.4,4.63-4.44,9.29-8.86,13.93-13.28.99-.94,2.1-1.54,3.48-1.76,3.49-.56,6.95-1.23,10.43-1.81.87-.14,1.76-.13,2.65-.13,6.64,0,13.28-.19,19.91.07,6.28.24,12.55.74,18.67,2.47,6.11,1.73,11.39,4.81,15.99,9.08,3.38,3.14,5.3,7.04,5.37,11.73.02,1.44,0,2.88-.08,4.31-.26,4.37-1.88,8.16-5.07,11.2-4,3.81-7.93,7.72-12.73,10.58-.55.33-1.03.8-1.79,1.41Z"/>
    <path class="cls-1" d="M248.24,602.76c-1.23-.51-1.78-1.68-2.6-2.55-2.21-2.35-4.51-4.54-7.4-6.07-5.89-3.13-11.89-3.07-17.89-.54-5.65,2.38-8.97,8.54-8,14.24.25,1.46.82,2.75,1.61,3.96,1.17,1.78,2.67,3.25,4.43,4.43,3.69,2.48,7.65,4.49,11.92,5.7,7.44,2.1,14.92,4.05,22.39,6.05,3.21.86,6.36,1.86,9.33,3.39,2.48,1.28,4.7,2.89,6.64,4.91,3.93,4.11,4.92,9.02,3.87,14.44-.55,2.85-1.79,5.44-3.36,7.89-3.87,6.02-8.8,11.11-14.24,15.66-5.71,4.77-11.86,8.9-18.94,11.44-3.96,1.42-8.07,2.22-12.21,2.94-3.75.65-7.49.52-11.24.61-2.57.06-5.06-.46-7.54-.96-5.83-1.16-10.2-4.59-13.82-9.13-.34-.43-.6-.93-.88-1.41-.94-1.61-.85-3.24.29-4.65,1.03-1.28,2.14-2.57,3.45-3.55,3.1-2.31,6.32-4.47,9.54-6.62,1.92-1.28,3.95-2.41,6.1-3.72.47.67.91,1.15,1.18,1.7,2.6,5.36,6.75,9.23,11.81,12.23,4.4,2.6,9.17,3.08,14.1,2.4,2.06-.29,4.12-.71,6.07-1.59,6.7-3.03,9.68-9.07,8.23-16.28-.95-4.7-3.56-8.01-7.6-10.32-4.15-2.38-8.61-4-13.21-5.27-7.87-2.17-15.72-4.44-23.63-6.5-4.78-1.24-8.62-3.93-12.15-7.17-2.13-1.95-3.12-4.56-3.43-7.37-.43-3.92.13-7.71,1.86-11.3,1.4-2.91,3.15-5.58,5.23-8.04,4.13-4.89,9.22-8.54,14.77-11.64,7.11-3.97,14.65-6.72,22.62-8.33,4.81-.98,9.68-1.11,14.53-.76,4.46.32,8.69,1.59,12.29,4.45,1.4,1.11,2.65,2.33,3.34,4.05.64,1.6.46,2.74-.74,3.92-.39.38-.85.72-1.32.99-4.81,2.72-9.63,5.43-14.45,8.13-.27.15-.62.16-.93.24Z"/>
    <path class="cls-1" d="M757.27,633.32c-.25,1.14-.27,1.79-.53,2.33-1.44,2.9-2.28,5.97-2.77,9.16-.77,5.1.21,9.93,2.32,14.52,1.15,2.5,2.73,4.8,4.24,7.12,1.85,2.86,4.42,4.86,7.61,6.15,3.75,1.51,7.53,2.42,11.61,1.96,5.23-.6,10.18-4.68,11.4-9.73.92-3.79,1.23-7.63.42-11.5-.09-.43-.2-.87-.21-1.31-.08-3.94-1.78-7.23-4.1-10.3-3.53-4.68-7.89-8.3-13.25-10.76-7.35-3.37-14.99-5.95-22.55-8.73-4.35-1.6-8.74-3.12-13.05-4.83-2.25-.89-4.47-1.96-6.52-3.25-4.18-2.62-5.08-6.03-1.24-10.51.5-.58,1.11-1.08,1.73-1.55,5.38-4.08,10.76-8.14,16.15-12.2.44-.33.89-.69,1.39-.89.68-.27,1.31-.12,1.73.81-.21.37-.46.84-.75,1.28-1.5,2.32-1.24,4.6.13,6.86,1.23,2.02,2.87,3.68,4.78,5.01,1.99,1.39,4.03,2.78,6.24,3.75,7.28,3.2,14.65,6.21,21.99,9.27,1.73.72,3.47,1.44,5.25,2.05,5.19,1.81,9.67,4.81,14,8.11,4.34,3.31,6.51,7.7,6.86,13.06.24,3.65.42,7.32-.75,10.85-.69,2.09-1.59,4.12-2.56,6.1-1.57,3.19-3.57,6.12-5.93,8.77-6.73,7.56-14.24,14.23-22.93,19.48-3.31,2-6.77,3.68-10.66,4.41-5.68,1.07-11.14.4-15.97-2.64-7.46-4.7-12.84-11.2-14.7-20.03-1.58-7.49-.33-14.55,4.37-20.74,3.81-5.02,8.6-8.87,14.37-11.47.39-.17.81-.26,1.88-.59Z"/>
    <path class="cls-1" d="M689.28,644.83c-.28-.91-.36-1.69-.72-2.3-2.2-3.73-4.78-7.19-8.04-10.07-1.23-1.09-2.63-2.04-4.07-2.82-2.5-1.35-5.16-1.91-7.96-.82-.67.26-1.41.35-2.09.51-.35-.88.11-1.25.53-1.59,4.57-3.66,9.1-7.38,13.75-10.94,1.56-1.19,3.41-2.04,5.19-2.92,1.69-.83,3.47-.74,5.07.27,1.21.76,2.37,1.63,3.44,2.58,2.57,2.29,4.68,4.99,6.77,7.72,8.41,11.01,15.69,22.74,22.19,34.96,2.54,4.78,5.05,9.58,7.55,14.39.5.96.91,1.97,1.43,3.13-5.04,3.83-10.25,7.16-15.27,10.75-.42.3-.96.44-1.59.73-.33-.6-.6-1.05-.82-1.53-1.79-3.8-3.53-7.62-5.37-11.39-1.66-3.4-3.94-6.39-6.46-9.2-4.89-5.48-11.12-8.64-18.18-10.23-2.68-.6-5.44-.98-8.18-1.11-2.07-.1-4.19.26-6.24.64-1.29.24-2.48.92-3.42,1.93-1.72,1.84-2.4,3.9-1.51,6.39.53,1.5,1.31,2.8,2.48,3.86,4.17,3.74,8.95,5.97,14.65,6.1,3.9.09,7.72-.09,11.43-1.43.86-.31,1.74-.54,2.26.7-.09.24-.13.61-.33.82-4.11,4.02-8.25,8.01-12.88,11.45-4.61,3.43-9.7,4.56-15.34,3.44-1.72-.34-3.51-.38-5.23-.72-3.93-.79-7.14-2.9-9.89-5.73-3.12-3.21-3.88-7.07-2.86-11.35.6-2.52,1.9-4.7,3.41-6.76,5.19-7.09,12.16-11.79,20.22-15.04,3.91-1.58,8.06-2.3,12.12-3.32,1.26-.32,2.51-.68,3.99-1.08Z"/>
    <path class="cls-1" d="M600.11,632.2c-.69,2.26-1.17,3.83-1.63,5.39-.96,3.3-1.78,6.62-1.59,10.1.26,4.68,1.31,9.18,3.2,13.46.53,1.2,1.24,2.36,2.07,3.38,3.92,4.86,8.88,8.29,14.85,10.11,5.08,1.54,9.55-.61,11.73-5.44,1.1-2.45,1.8-5.05,1.71-7.71-.4-12.02-4.93-22.12-14.45-29.68-3.97-3.15-8.57-4.87-13.75-5.11-2.64-.12-5.25-.22-8.15.38.15-.79.1-1.37.36-1.73.38-.52.94-.94,1.49-1.29,3.35-2.14,6.66-4.37,10.11-6.34,4.9-2.8,10.2-4.16,15.9-3.79,2.01.13,3.95.47,5.8,1.26,6.3,2.69,11.3,6.84,14.59,12.95,2.82,5.24,4.61,10.78,4.91,16.72.21,4.25-.72,8.34-2.26,12.29-1.22,3.12-2.93,5.96-5.02,8.56-4.8,5.96-10.09,11.46-16.1,16.22-4.21,3.34-8.89,5.77-14.2,6.85-6.67,1.35-12.81.21-18.02-4.29-5.94-5.12-9.98-11.51-11.8-19.17-.9-3.8-.8-7.7-.16-11.54.54-3.25,2.26-5.98,4.49-8.37,4.55-4.87,9.64-9.08,15.95-13.23Z"/>
    <path class="cls-1" d="M326.14,688.14c.37-11.37.28-22.42.1-33.46-.12-7.29-.65-14.57-1-21.85-.01-.22-.03-.44-.04-.66-.26-7.07-.51-14.14-.78-21.2-.2-5.3-.41-10.6-.68-15.9-.07-1.43-.32-2.86-.62-4.26-.87-4.08-3.51-5.78-7.53-4.9-1.16.25-2.32.55-3.72.89,0-.76-.13-1.3.04-1.72.14-.36.6-.62.96-.87,6.24-4.39,12.47-8.79,18.73-13.16,1.45-1.01,2.97-1.88,4.74-2.32,1.12-.28,2.14-.29,3.25.03,1.29.38,2.11,1.12,2.47,2.42.71,2.57,1.1,5.17,1.11,7.84.04,6.86.05,13.71.2,20.57.17,7.51.31,15.04.79,22.53.43,6.63.21,13.26.46,19.89.26,6.73.81,13.45,1.1,20.18.17,4.08.09,8.18.12,12.27,0,.86-.42,1.46-1.11,1.91-.19.12-.37.24-.56.36-5.64,3.7-11.28,7.4-16.93,11.08-.25.16-.6.19-1.1.34Z"/>
    <path class="cls-1" d="M362.52,688.37c-.27-2.3-.07-4.05-.06-5.79.04-6.18.04-12.37.02-18.55,0-3.43-.03-6.85-.13-10.28-.27-8.94-.56-17.89-.88-26.83-.14-3.97-.38-7.94-.54-11.91-.23-5.85-.38-11.7-.65-17.55-.1-2.09-.43-4.17-.71-6.25-.09-.65-.34-1.28-.59-1.89-1.17-2.86-3.25-4.05-6.31-3.57-1.2.19-2.36.57-3.56.73-.31.04-.77-.31-1-.6-.12-.16.02-.69.22-.87.64-.6,1.33-1.16,2.05-1.67,5.22-3.72,10.44-7.44,15.68-11.13,1.35-.95,2.72-1.91,4.2-2.66,1.78-.9,3.65-1.5,5.73-.8,1.17.39,1.99,1.09,2.25,2.21.4,1.71.79,3.46.86,5.2.15,3.64.03,7.29.13,10.94.21,8.06.49,16.12.74,24.18.18,5.52.38,11.04.54,16.56.24,8.17.29,16.36.74,24.52.35,6.29.73,12.57.68,18.87,0,.55-.06,1.11,0,1.66.25,2.14-.71,3.39-2.55,4.51-4.81,2.94-9.46,6.12-14.17,9.21-.73.48-1.46.95-2.7,1.75Z"/>
    <path class="cls-1" d="M404.93,642.87c.44.58.92,1.31,1.5,1.96,4.9,5.56,9.78,11.13,14.75,16.63,2.15,2.38,4.42,4.66,6.75,6.86,2.12,2,4.48,3.61,7.6,3.58.4,0,.85.22,1.19.46.79.55.91,1.67.26,2.31-.47.47-1,.87-1.52,1.28-3.63,2.9-7.24,5.82-10.9,8.68-1.04.81-2.2,1.47-3.34,2.14-1.03.6-2.14.61-3.16,0-1.04-.62-2.15-1.21-3-2.04-2.92-2.86-5.97-5.64-8.56-8.78-6.62-8.01-13.03-16.2-19.51-24.32-.4-.5-.69-1.09-1.1-1.75.64-.6,1.16-1.15,1.75-1.62,2.74-2.23,5.56-4.39,8.24-6.69,1.67-1.43,3.22-3.02,4.73-4.63.67-.71,1.2-1.6,1.62-2.49,1.62-3.45.37-7-3.03-8.67-.79-.39-1.64-.64-2.49-.9-1.04-.32-2.09-.58-3.09-.86-.16-.84.41-1.1.82-1.42,4.35-3.42,8.73-6.79,13.04-10.25,1.22-.98,2.43-1.27,3.97-1.04,4.39.65,8.24,2.52,11.73,5.1,2.8,2.07,3.21,4.6,1.27,7.55-1.2,1.82-2.73,3.49-4.36,4.95-4.28,3.84-8.71,7.52-13.06,11.27-.82.71-1.87,1.24-2.1,2.69Z"/>
    <path class="cls-1" d="M288.67,688.49c0-1.84,0-2.93,0-4.02-.03-8.73.01-17.46-.12-26.19-.08-4.97-.35-9.93-.71-14.89-.16-2.19-.71-4.35-1.14-6.51-.15-.75-.42-1.49-.72-2.2-1.72-4.09-4.09-5.23-8.42-4.1-.74.19-1.5.32-2.38.51-.37-.56-.72-1.08-1.16-1.74.59-.49,1.03-.99,1.58-1.29,7.43-4.17,14.32-9.18,21.33-14,.72-.49,1.48-1.09,2.3-1.24,3.16-.58,5.79.03,7.02,3.81.2.62.38,1.27.44,1.93.24,2.75.52,5.5.61,8.26.35,10.38.62,20.76.94,31.14.14,4.64.2,9.28.48,13.91.15,2.39-.72,3.79-2.75,5.08-4.94,3.14-9.69,6.57-14.53,9.87-.7.48-1.44.88-2.78,1.69Z"/>
    <path class="cls-1" d="M298.66,585.61c3.92,3.32,6.37,7.84,11.75,9.38-4.47,3.47-8.39,6.69-12.52,9.63-1.88,1.34-4.13,1.74-6.62,1.4-4.74-.65-7.39-3.52-9.34-7.76.58-.63,1.1-1.33,1.74-1.88,4.61-3.96,9.44-7.62,14.98-10.76Z"/>
  </g>
</svg>