<?xml version="1.0" encoding="UTF-8"?>
<svg id="Layer_1" data-name="Layer 1" xmlns="http://www.w3.org/2000/svg" viewBox="0 0 1000 1000">
  <defs>
    <style>
      .cls-1, .cls-2 {
        fill: #fff;
      }

      .cls-2 {
        fill-rule: evenodd;
      }
    </style>
  </defs>
  <path class="cls-2" d="M721.99,514.84c-30.32,0-47.59-4.33-57.76-14.48-13.71-13.67-14.41-36.2-14.41-71.86v-81.14l-15.19-4.34-29.85,14.8v-100.58l-15.97-2.98-83.75,41.59v64.46l-40.36,20.15v75.68c.08,12.87-4.48,24.01-13.53,33.11-16.87,16.97-47.8,25.58-91.91,25.58h-.93v7.03h366.07v-7.03h-2.41ZM545.37,343.03l10.06,1.78v124.5c-.04,1.97-.31,4.37-.73,6.37-2.71,16.87-12.54,37.89-43.96,42.04-1.9.28-3.39.49-5.05.59h-31.82s-.01-.9-.01-.9c27.62-2.17,46.84-8.99,58.43-20.69,13.3-13.4,13.16-29.29,13.09-36.91v-116.79h-.01ZM589.9,257.88l11.54,2.15v227.7c0,9.42-1.83,16.08-5.77,20.96-4.23,5.24-10.92,8.33-20.41,9.4,8.96-4.34,14.65-13.05,14.65-23.14v-237.06h0ZM636.31,428.79c0-62.33.03-76.54.04-81.79l10.12,2.89v78.61c0,36.51.73,59.62,15.38,74.23,8.34,8.32,20.89,12.98,40.42,14.68v.93c-23.65-.14-40.15-1.53-50.32-11.68-11.26-11.22-15.64-33.05-15.64-77.87Z"/>
  <path class="cls-2" d="M281.13,636.26c1.64,3.13,3.74,5.57,6.29,7.33,2.55,1.75,5.31,2.63,8.25,2.63,3.99,0,7.24-1.26,9.73-3.78,2.5-2.51,3.75-5.75,3.75-9.7,0-6.3-5.57-11.75-16.74-16.33l-.16-.05c-6.01-2.47-10.26-5.24-12.78-8.35-2.53-3.09-3.78-7.01-3.78-11.75,0-6.48,2.16-11.81,6.49-15.97,4.33-4.15,9.92-6.24,16.79-6.24,5.15,0,9.65,1.16,13.51,3.47,3.87,2.31,6.73,5.59,8.59,9.85l-4.92,3.29c-1.24-3.51-3.07-6.21-5.54-8.08-2.46-1.88-5.39-2.83-8.78-2.83-3.61,0-6.58,1.17-8.9,3.5-2.31,2.33-3.46,5.38-3.46,9.15,0,2.98.95,5.52,2.85,7.61,1.91,2.1,5.46,4.25,10.68,6.49,8.25,3.54,13.68,6.94,16.31,10.18,2.64,3.24,3.95,7.4,3.95,12.48,0,6.72-2.32,12.26-6.96,16.62-4.65,4.35-10.53,6.54-17.66,6.54-5.15,0-9.58-.99-13.31-2.96-3.73-1.98-6.98-5.04-9.73-9.17l5.54-3.92Z"/>
  <path class="cls-2" d="M327.61,650.47l30.72-76.31,31.95,76.31h-14.78l-7.78-19.91h-25.78l-7.73,19.91h-6.6ZM343.89,625.85h21.77l-10.9-27.3-10.87,27.3Z"/>
  <polygon class="cls-2" points="415.02 652.32 383.95 575.67 398.61 575.67 418.54 626.64 437.44 575.67 444.66 575.67 415.02 652.32"/>
  <rect class="cls-1" x="454.59" y="575.67" width="13.77" height="74.8"/>
  <polygon class="cls-2" points="498.48 650.47 498.48 581.26 478.89 581.26 478.89 575.67 531.81 575.67 531.81 581.26 512.24 581.26 512.24 650.47 498.48 650.47"/>
  <path class="cls-2" d="M543.52,636.26c1.63,3.13,3.74,5.57,6.29,7.33,2.55,1.75,5.31,2.63,8.25,2.63,3.99,0,7.23-1.26,9.73-3.78,2.49-2.51,3.75-5.75,3.75-9.7,0-6.3-5.57-11.75-16.74-16.33l-.16-.05c-6.02-2.47-10.27-5.24-12.78-8.35-2.53-3.09-3.79-7.01-3.79-11.75,0-6.48,2.17-11.81,6.5-15.97,4.33-4.15,9.92-6.24,16.79-6.24,5.15,0,9.65,1.16,13.5,3.47,3.85,2.31,6.73,5.59,8.59,9.85l-4.92,3.29c-1.24-3.51-3.07-6.21-5.55-8.08-2.45-1.88-5.38-2.83-8.77-2.83-3.62,0-6.58,1.17-8.91,3.5-2.3,2.33-3.46,5.38-3.46,9.15,0,2.98.95,5.52,2.85,7.61,1.9,2.1,5.46,4.25,10.68,6.49,8.25,3.54,13.69,6.94,16.31,10.18,2.64,3.24,3.95,7.4,3.95,12.48,0,6.72-2.32,12.26-6.97,16.62-4.64,4.35-10.52,6.54-17.66,6.54-5.14,0-9.58-.99-13.3-2.96-3.73-1.98-6.99-5.04-9.73-9.17l5.54-3.92Z"/>
  <path class="cls-2" d="M600.09,575.67h13.89v74.8h-13.89v-74.8h0ZM614.75,612.98l27.64-37.31h8.56l-23.32,32.05,25.62,42.75h-16.4l-22.1-37.49Z"/>
  <polygon class="cls-2" points="685.53 650.47 685.53 614.28 660.45 575.67 676.86 575.67 695.76 606.38 716.02 575.67 724.4 575.67 699.42 612.31 699.42 650.47 685.53 650.47"/>
  <path class="cls-2" d="M412.1,745.74v-74.8h26.79c7.97,0,14.27,1.99,18.83,5.96,4.57,3.97,6.85,9.39,6.85,16.25s-2.11,11.98-6.32,15.8c-4.21,3.83-10.02,5.74-17.39,5.74h-14.88v31.05h-13.88ZM425.98,710.09h6.15c6.23,0,10.88-1.32,13.96-3.99,3.07-2.67,4.62-6.7,4.62-12.06,0-6.14-1.54-10.73-4.6-13.76-3.05-3.02-7.72-4.53-13.98-4.53h-6.15v34.35Z"/>
  <polygon class="cls-2" points="522.42 740.14 522.42 745.73 476.15 745.73 476.15 670.93 490.02 670.93 490.02 740.14 522.42 740.14"/>
  <path class="cls-2" d="M526.6,745.74l30.71-76.31,31.96,76.31h-14.78l-7.77-19.91h-25.79l-7.72,19.91h-6.6ZM542.88,721.12h21.77l-10.91-27.3-10.86,27.3Z"/>
  <polygon class="cls-2" points="595.18 745.74 637.42 676.53 599.38 676.53 599.38 670.93 656.23 670.93 614.08 740.14 655.43 740.14 655.43 745.74 595.18 745.74"/>
  <path class="cls-2" d="M661.75,745.74l30.71-76.31,31.94,76.31h-14.76l-7.79-19.91h-25.78l-7.73,19.91h-6.59ZM678.02,721.12h21.78l-10.91-27.3-10.87,27.3Z"/>
</svg>