<?xml version="1.0" encoding="UTF-8"?>
<svg id="Layer_1" data-name="Layer 1" xmlns="http://www.w3.org/2000/svg" viewBox="0 0 1000 1000">
  <defs>
    <style>
      .cls-1 {
        fill: #fff;
      }
    </style>
  </defs>
  <path class="cls-1" d="M269.05,569.32c-1.42-1.35,9.48-7.68,11-9.47,8.01-9.35,8.55-27.46,1.42-37.43-5.4-7.55-14.48-9.08-22.91-11.07l-74.4.05-1.04,122.9,58.5.03c14.18-1.88,24.67.86,37.35-7.6,20.24-13.5,17.33-54.91-9.92-57.41ZM254.05,607.79c-5.85,4.21-29.66,1.98-36.95,1.51v-75.95c8.9.56,18.66-.77,27.47,0,1.81.15,6.39,1.25,7.88,2.12,6.63,3.91,4.06,21.86-2.89,21.86h-22.48v23.99h24.48c1.01,0,4.67,3.42,5.36,4.63,3.25,5.7,2.77,17.78-2.87,21.84Z"/>
  <path class="cls-1" d="M556.28,433.4c11.53-1.55,18.96-10.86,18.55-22.5-.81-22.85-28.05-19.39-43.88-17.34l.78,92.17c-.53,1.67-2,1.53-3.37,1.69-9.74,1.15-20.91-1.49-30.51-.05l-.91-21.59,1.34-99.4,1.2-.8c10.28-.18,20.59-.24,30.87-.18,14.51.08,32.76-.71,46.63,3.32,43.63,12.7,38.49,74.3-5.21,81.17,7.65,9.43,21.58,10.88,32.96,12.5v28.98c-15.64-4.93-32.89-9.2-47.28-17.17-2.16-1.2-15.95-10.18-16.73-11.25-2.68-3.67.09-23.78-.93-29.56,5.2-.49,11.44.68,16.48,0Z"/>
  <path class="cls-1" d="M346.98,633.3l-32.96-1.01.99-120.93c28.11,1.73,58.04-3.7,84.91,5.52,31.18,14.28,31.36,60.84.24,75.18l-12.21,4.75c8.77,8.17,21.54,9.72,32.96,11.51v28.98c-23.1-6.4-46.23-14.01-64.94-29.48v-29.48c.73-.27,1.19,1,1.5,1h15.99c.39,0,6.26-2.35,7.17-2.82,12.63-6.39,14.42-28.27,2.03-35.37-1.09-.62-6.44-2.79-7.2-2.79h-26.98l-1.5,1.5v93.45Z"/>
  <path class="cls-1" d="M747.32,402.2c-14.5-44.74-91.08-51.78-113.44-11.11-21.1,38.38-7.81,91.68,39.42,99.14,17.55,2.77,43.09.45,56.73-11.44,20.99-18.3,25.62-50.87,17.29-76.59ZM698.04,465.27c-38.47,10.82-48.54-35.45-33.89-61.89,8.65-15.62,30.62-17.53,43.13-5.61,15.39,14.65,13.67,61.05-9.24,67.5Z"/>
  <path class="cls-1" d="M740.4,511.65c-67.49,7.27-68.57,120.33,2.72,125.63,39.86,2.96,69.2-12.09,73.3-54.58,4.75-49.37-28.55-76.16-76.02-71.05ZM744.16,612.25c-30.01-8.05-27.07-72.17,5.22-75.62,46.53-4.97,44.96,89.08-5.22,75.62Z"/>
  <path class="cls-1" d="M473.86,406.41c-1.18,9.37,1.91,74.21-.99,77.47-.66.74-5.43,2.74-6.78,3.21-17.37,6.04-45.53,3.75-63.18-1.22-40.73-11.45-51.3-62.27-30.76-95.76,16.99-27.69,57.52-29.79,86.71-26.67v25.98s-32.46,0-32.46,0c-1.53,0-9.52,2.68-11.48,3.51-19.12,8.09-24.6,31.67-16.78,49.74,7.64,17.66,24.74,22.01,42.75,21.71-.86-10.3,2.24-21.32,1.04-31.54-.17-1.45-.12-2.57-1.55-3.45h-16.48v-22.99h49.95Z"/>
  <path class="cls-1" d="M558.78,635.29h-31.47c-4.75-5.57.24-20.99-8.99-20.99h-30.47l7.49-22.99h19.98c.92-.72,1.3-1.04,1.33-2.27.06-3.07-10.13-30.64-12.32-32.7-.96-.91-1.46-1.38-2.89-.93-7.54,2.36-27.6,68.8-27.61,79.9l-30.94-1.01c6.58-42.56,20.01-82.86,40.13-120.77,10.17.6,22.46-1.36,32.37-.22,1.43.16,2.64.1,3.36,1.64,19.55,38.28,33.47,77.65,40.05,120.35Z"/>
  <path class="cls-1" d="M306.02,442.39c1.94-1.95-8.74-31.4-11.95-34.52-1.26-1.22-2.14-1.84-3.99-1.41-12.93,24.52-22.05,51.35-26.03,78.91l-31.98-.51c6.97-34.1,15.17-66.49,29.81-98.11,2.23-4.81,7.54-17.2,10.27-20.71,1.21-1.56,1.49-1.45,3.34-1.66,9.28-1.08,20.54.98,30.06-.02l1.57.72c20.01,38.08,35.37,78.28,40.87,121.29l-31.87-.11-3.78-19.94-35.29-.95,6.99-22.98h21.98Z"/>
  <path class="cls-1" d="M679.67,514.36c-3.58,9.15-4.77,19.8-7.46,29.02-9.24,31.72-23.9,61.31-37.4,91.3l-25.58.62-2.39-1.6c-15.68-32.66-30.53-64.87-38.38-100.53-.58-2.62-3.9-17.14-3.6-18.18.88-3.04,10.54-.62,13.36-.58s20.4-1.1,21.02-.11c6.01,22.72,8.11,48.37,18.31,69.69.71,1.49,1.81,5.62,3.67,5.34,1.88.2,1.94-1.3,2.55-2.46,4.63-8.82,10.64-26.47,13.64-36.32,3.61-11.84,5.73-24.1,8.28-36.19h33.97Z"/>
</svg>