<?xml version="1.0" encoding="UTF-8"?>
<svg id="Layer_1" data-name="Layer 1" xmlns="http://www.w3.org/2000/svg" viewBox="0 0 1000 1000">
  <defs>
    <style>
      .cls-1 {
        fill: #fff;
      }
    </style>
  </defs>
  <g>
    <path class="cls-1" d="M205.71,578.99c9.89,0,17.5,1.07,22.84,2.67,5.21,1.47,9.62,4.54,13.09,8.42,3.34,4.01,5.08,8.82,5.08,14.83,0,5.21-1.2,9.75-3.47,13.63-2.41,4.01-5.74,6.81-10.02,8.82-4.41,2.14-12.02,2.54-22.98,2.54h-10.29v21.24c0,4.14-.13,6.28,0,9.49v14.56h-13.76v-96.19h19.5ZM231.76,605.98c0-7.88-1.87-13.76-5.74-17.37-3.87-3.74-10.15-5.61-18.84-5.61-3.21,0-5.61.13-7.21.27v43.42h6.68c5.48,0,9.89-.13,13.23-1.2,3.47-1.07,6.28-2.94,8.55-6.55,2.27-3.47,3.34-7.88,3.34-12.96Z"/>
    <path class="cls-1" d="M290.27,578.99c9.08,0,16.43.53,22.04,2.27,5.61,1.6,10.29,4.01,13.76,7.75,3.47,3.87,5.21,8.42,5.21,13.76,0,6.14-2.27,11.62-6.81,15.9-4.68,4.41-11.36,7.88-20.17,9.08,3.87,1.87,10.29,4.41,19.1,16.3,0,0,7.08,9.62,15.9,31.13h-10.95c-1.07-4.41-15.23-45.69-41.28-45.69h-4.14v45.69h-13.63v-96.19h20.97ZM294.14,626.28c3.74,0,6.95-1.34,9.62-2.14,2.81-.8,5.08-2.67,6.68-4.27,1.74-1.6,3.07-3.74,4.01-6.28,1.07-2.67,1.47-5.74,1.47-9.49,0-6.68-1.6-11.76-4.94-15.76-3.34-4.01-10.95-5.34-22.04-5.34h-6.01v43.28h11.22Z"/>
    <path class="cls-1" d="M391.53,671.84h29.52v3.34h-55.84v-96.19h56.11v3.21h-42.35v40.75h27.79v3.34h-27.79v45.55h12.56Z"/>
    <path class="cls-1" d="M526.32,649.53v-61.32l-38.34,86.97h-3.34l-38.21-86.97v86.97h-3.21v-96.19h13.36l35.27,79.75,35.13-79.75h13.23v96.19h-13.89v-25.65Z"/>
    <path class="cls-1" d="M583.09,578.99v96.19h-13.89v-96.19h13.89Z"/>
    <path class="cls-1" d="M687.96,578.99v54.24c0,8.02-.8,14.03-1.47,18.04-.67,3.87-2.94,7.75-6.01,11.49-2.94,3.74-7.21,6.81-12.69,9.08-5.48,2.27-11.76,3.34-18.84,3.34-8.55,0-15.63-1.47-21.51-4.27-5.74-2.94-9.89-6.68-12.29-11.22-2.54-4.54-4.01-10.69-3.47-18.3l.67-9.75v-52.64h13.63v53.04c0,10.29-.13,17.63.8,22.04,1.07,4.41,3.21,8.15,7.61,11.36,4.41,3.34,10.42,4.94,17.77,4.94,5.74,0,11.09-1.07,15.9-3.34,4.68-2.14,8.42-4.81,10.69-8.02,2.27-3.34,4.01-6.68,4.54-10.15.54-3.34,1.34-8.82,1.34-16.16v-53.7h3.34Z"/>
    <path class="cls-1" d="M799.9,649.53v-61.32l-38.34,86.97h-3.34l-38.21-86.97v86.97h-3.2v-96.19h13.36l35.27,79.75,35.13-79.75h13.23v96.19h-13.89v-25.65Z"/>
  </g>
  <g>
    <path class="cls-1" d="M346.25,768.88c-.61,6.03-3.17,10.63-7.56,14-4.4,3.27-9.91,4.6-16.66,3.88s-15.64-6.13-19.63-12.67l1.94-2.15c5.52,7.87,9.71,10.94,17.07,12.16,4.91.72,8.89-.41,11.96-2.96,2.96-2.45,4.7-5.52,5.01-9,.41-3.47-.41-6.54-2.55-9.2-2.15-2.56-6.24-5.52-12.27-8.89-5.32-3.07-9.3-5.62-12.06-7.77-2.66-2.15-4.6-4.7-5.93-7.77-1.23-3.07-1.74-6.23-1.33-9.51.51-5.01,2.66-9,6.54-11.96,3.78-2.96,8.38-4.09,13.7-3.58,2.96.31,5.62,1.12,8.18,2.35,2.56,1.23,5.01,3.58,7.46,6.85l-2.25,1.84c-.61-.92-1.33-1.84-2.04-2.66-2.96-3.48-6.64-5.42-11.04-5.83-4.19-.51-7.36.31-9.51,2.35-2.25,2.04-3.47,4.4-3.78,7.15-.31,3.17.61,6.03,2.86,8.59,2.15,2.56,6.23,5.52,12.27,9.1,5.72,3.27,9.81,5.93,12.37,7.87,2.66,1.94,4.6,4.4,5.93,7.46,1.33,3.17,1.74,6.54,1.33,10.32Z"/>
    <path class="cls-1" d="M435.17,715.63h-30.66v71.14h-10.63v-71.14h-30.36l.1-2.45h71.55v2.45Z"/>
    <path class="cls-1" d="M498.23,713.18v41.5c0,6.13-.61,10.73-1.12,13.8-.51,2.96-2.25,5.93-4.6,8.79-2.25,2.86-5.52,5.21-9.71,6.95-4.19,1.74-9,2.56-14.41,2.56-6.54,0-11.96-1.12-16.46-3.27-4.4-2.25-7.56-5.11-9.4-8.59-1.94-3.48-3.07-8.18-2.66-14l.51-7.46v-40.27h10.43v40.58c0,7.87-.1,13.49.61,16.87.82,3.37,2.45,6.23,5.83,8.69,3.37,2.55,7.97,3.78,13.59,3.78,4.39,0,8.48-.82,12.16-2.55,3.58-1.64,6.44-3.68,8.18-6.13,1.74-2.55,3.07-5.11,3.48-7.77.41-2.55,1.02-6.75,1.02-12.37v-41.09h2.55Z"/>
    <path class="cls-1" d="M519.39,713.18h20.24c10.73,0,19.22,1.64,25.25,5.01,6.03,3.27,10.53,7.67,13.49,13.39,2.96,5.62,4.5,12.06,4.5,19.52,0,5.32-.82,10.22-2.45,14.62-1.64,4.4-3.78,8.08-6.64,10.94-2.76,2.96-6.03,5.21-9.81,6.75-3.68,1.53-7.15,2.45-10.53,2.76-3.27.41-7.97.61-14,.61h-20.04v-73.59ZM541.16,784.32c6.34,0,11.55-.92,15.64-2.66,4.09-1.74,7.56-5.11,10.22-10.22,2.76-5.11,4.19-11.65,4.19-19.52,0-6.23-.82-11.65-2.45-16.56-1.53-4.8-3.89-8.69-6.85-11.75-2.96-3.07-6.23-5.11-9.81-6.23-3.68-1.02-8.28-1.64-13.9-1.64-2.76,0-5.83.1-8.28.31v68.28h11.24Z"/>
    <path class="cls-1" d="M614.34,713.18v73.59h-10.63v-73.59h10.63Z"/>
    <path class="cls-1" d="M645.72,723.09c7.36-6.64,14-9.91,25.04-9.91s17.89,3.27,25.25,9.81c7.46,6.54,11.14,15.54,11.14,26.88s-3.58,19.93-10.63,26.68c-7.15,6.85-14,10.22-25.65,10.22s-18.09-3.37-25.35-10.22c-7.16-6.75-10.83-15.84-10.83-27.09s3.68-19.73,11.04-26.37ZM653.49,775.53c4.6,5.72,8.99,8.59,18.09,8.59,8.08,0,13.18-2.86,17.79-8.59,4.6-5.72,5.72-14.21,5.72-25.55s-1.02-19.52-5.62-25.35c-4.6-5.93-10.02-8.79-18.71-8.79s-12.67,2.86-17.27,8.59c-4.5,5.72-6.75,14.21-6.75,25.45s2.25,19.93,6.75,25.66Z"/>
  </g>
  <g>
    <polygon class="cls-1" points="382.79 313.15 402.85 313.15 426.32 282.68 511.86 282.68 387.15 474.38 404.56 517.72 565.6 265.27 416.48 265.27 382.79 313.15"/>
    <polygon class="cls-1" points="657.01 417.61 636.95 417.61 613.48 448.08 527.94 448.08 652.65 256.38 635.24 213.04 474.2 465.49 623.32 465.49 657.01 417.61"/>
  </g>
</svg>