<?xml version="1.0" encoding="UTF-8"?>
<svg id="Layer_1" data-name="Layer 1" xmlns="http://www.w3.org/2000/svg" viewBox="0 0 1000 1000">
  <defs>
    <style>
      .cls-1 {
        fill: #fff;
      }
    </style>
  </defs>
  <path class="cls-1" d="M294.76,380.16v148.51c0,33.64-51.18,69.28-77.7,83.38-3.21,1.71-15.4,8.43-18.13,7.75-3.07-.76-13.3-6.56-16.77-8.43-31.32-16.92-74.27-47.24-76.38-86.06l.03-145.14h188.95ZM149.31,394.43h-29.23v30.25l26.98,19.24,2.25.81v-50.3ZM193.49,394.43h-29.91v50.98l29.91-20.73v-30.25ZM280.48,394.43h-73.4v137.97c16.67-24.32,43.37-40.88,73.4-41.46v-96.51ZM149.31,462.4l-29.23-19.71v48.6l26.98,19.24,2.25.81v-48.94ZM193.49,442.69l-20.6,13.72-9.3,7.01v48.6l29.91-20.73v-48.6ZM280.48,505.22c-34.38.69-65.46,27.44-71.73,61.15-1.53,8.22-2.82,24.96-1.68,33,.12.83-.33,1.28,1.03,1.02,2.1-.41,12.6-6.95,15.23-8.57,18.83-11.53,57.15-40.18,57.15-64.51v-22.09ZM149.31,571.14v-41.8l-29.23-20.05v18.69c0,12.7,17.37,34.63,27.18,42.14.68.52.86,1.31,2.04,1.02ZM193.49,509.29l-27.81,18.75-1.96,2.12-.19,52.22.49,1.06c9.69,5.62,18.86,13.37,29.47,16.93v-91.08Z"/>
  <path class="cls-1" d="M625.41,489.58c2.53.36,8.83,3.71,10.86,5.45,10.96,9.41,7.95,27.25-5.08,32.95l19.7,28.89,23.87-67.21,12.18.23,25.12,69.01h-13.59l-5.37-14.53c-.84-1.1-21.26-.09-24.47-.35-.78,2.5-4.01,14.11-5.95,14.78l-25.58-.03c-2.61-.76-13.45-21.09-16.8-24.66-1.05-1.12-5.19-3.74-6.45-3.74h-9.86v27.53c0,.07-.95,1.02-1.02,1.02h-11.89v-69.33h34.32ZM603.33,501.82v15.29c0,.07.95,1.02,1.02,1.02h16.31c3.79,0,9.74-3.63,9.9-7.83s-4.75-8.48-8.54-8.48h-18.69ZM688.28,531.72l-6.8-21.07c-1.47.78-1.95,3.11-2.54,4.59-2.1,5.35-3.98,10.96-5.61,16.48h14.95Z"/>
  <path class="cls-1" d="M465.69,489.58l17.67,47.58,17.33-47.58h16.99v69.33h-11.89c-.07,0-1.02-.95-1.02-1.02v-39.76l-15.27,40.12c-1.5,1.54-8.46.19-10.92.71l-16.63-42.19v42.14h-11.89c-.07,0-1.02-.95-1.02-1.02v-68.31h16.65Z"/>
  <path class="cls-1" d="M769.16,558.91v-69.33h32.96c8.66,0,21.7,12.08,25.15,19.71,9.51,21.04-5.59,49.62-29.23,49.62h-28.89ZM782.08,546h15.97c12.12,0,21-14.67,19.21-26-1-6.32-9.75-17.5-16.49-17.5h-18.69v43.5Z"/>
  <path class="cls-1" d="M436.81,511.33h-12.91c-.27,0-.39-3.62-1.22-5.23-5.16-9.99-31.3-5.61-25.2,6.17,1.53,2.95,6.54,3.92,9.55,4.72,11.24,3.01,29.05,2.58,31.09,17.85,4.4,32.97-57.38,34.36-55.68,1.64h12.91c.18,0-.09,2.59.15,3.58,3.1,12.28,36.22,8.2,28.99-4.52-4.43-7.8-31.57-2.8-38.68-17.05-5.21-10.45-.99-21.02,8.65-26.73,16.26-9.63,43.01-2.11,42.34,19.57Z"/>
  <path class="cls-1" d="M579.54,489.58v11.89c0,.07-.95,1.02-1.02,1.02h-36.36v14.95h29.23v12.91h-29.23v15.63h37.38v11.89c0,.07-.95,1.02-1.02,1.02h-48.26c-.07,0-1.02-.95-1.02-1.02v-68.31h50.3Z"/>
  <path class="cls-1" d="M371.56,489.58v12.91h-37.38v14.95h29.23v12.91h-29.23v14.61c0,.07.95,1.02,1.02,1.02h36.36v11.89c0,.07-.95,1.02-1.02,1.02h-48.6v-69.33h49.62Z"/>
  <path class="cls-1" d="M429.33,459h-13.25l-5.75-13.96c-3.11-.2-23.88-.93-24.57.09l-4.68,13.87h-13.59l25.46-69.37c2.41.51,10.3-.83,11.59.72l24.8,68.66ZM390.59,431.81h14.95c-1.96-6.08-3.9-13.26-6.48-19.03-.33-.74,0-1.74-1.32-1.36-1.04.3-5.86,17.98-7.14,20.39Z"/>
  <path class="cls-1" d="M894.22,558.91h-12.57l-5.71-14.53c-.84-1.09-21.26-.11-24.46-.34-1.7,4.96-2.99,10.49-5.85,14.87h-12.57l25.46-69.37c2.4.51,10.31-.83,11.59.72l24.12,68.66ZM871.11,531.72l-6.8-21.07c-.52-.41-1.45,1.53-1.69,2.04-2.63,5.52-4.43,13.14-6.46,19.03h14.95Z"/>
  <path class="cls-1" d="M334.86,446.08h28.55v12.91h-41.46v-69.33h11.89c.07,0,1.02.95,1.02,1.02v55.39Z"/>
  <polygon class="cls-1" points="731.1 489.58 731.1 546 760.33 546 760.33 558.23 718.87 558.23 718.87 489.58 731.1 489.58"/>
  <path class="cls-1" d="M523.46,583.54c7.73,1.09,9.61,8.6,3.74,13.58,5.36,1.57,6.45,8.54,2.07,11.94-1.08.84-5.39,2.35-6.49,2.35h-11.55c-.07,0-1.02-.95-1.02-1.02v-26.85c4.15.41,9.24-.56,13.25,0ZM523.46,586.94c-2.88-.49-6.83.35-9.86,0v8.84c3.24-.04,12.33.81,13.47-3.22.76-2.68-1.01-5.18-3.62-5.62ZM513.61,608.01c4.11.32,17.95.67,14.46-6.63-.52-1.09-3.67-2.89-4.6-2.89h-9.86v9.52Z"/>
  <path class="cls-1" d="M458.56,582.18v11.55c6.17-6.64,16.87-3.42,17.61,5.87.82,10.21-9.91,15.54-17.28,8.41-.86.5,0,3.07-.34,3.4-.39.37-3.4-.16-3.4-1.02v-28.21h3.4ZM465.18,593.2c-9.22.86-8.89,15.56,1.18,14.85,9.12-.64,8.02-15.71-1.18-14.85Z"/>
  <path class="cls-1" d="M646.14,582.18c5.87-1.48,3.64,6.24,4.08,10.19.46.5,7.94-4.91,12.87-.3.41.38,2.07,3.17,2.07,3.36v15.29h-3.4v-13.25c0-1.97-3.75-3.87-5.76-3.79-1.59.07-5.79,2.75-5.79,3.79v12.91c0,1.35-4.08,1.35-4.08,0v-28.21Z"/>
  <path class="cls-1" d="M627.79,582.18v17.67c4.71-2.78,7.51-10.48,13.59-9.51l-6.7,8.38c1.97,4.4,6.79,7.81,7.38,12.69-2.85,2.74-8.65-8.13-9.52-10.19-4.14,1.43-5.39,6.06-4.75,10.19-.89.22-3.4-.13-3.4-1.02v-28.21h3.4Z"/>
  <path class="cls-1" d="M347,587.02c.64,1.14-.22,2.58-1.62,2.69-1.59.12-4.3-2.52-6.87-2.74-15.36-1.32-16.15,23.11,1.4,20.31,3.18-.51,5.06-4.54,7.14-.89-3.43,5.45-11.8,6.2-17.18,2.86-14.29-8.87-3.97-30.42,12.45-24.68.66.23,4.56,2.22,4.69,2.45Z"/>
  <path class="cls-1" d="M589.87,610.55c-.37-.55.23-1.73-.47-1.86-4.88,4.69-15.09,3.09-13.91-5.05,1.04-7.2,14.17-4.41,14.25-5.5-.59-6.73-8.03-4.79-12.23-2.37-2.14-3.48,1.37-4.71,4.57-5.27,2.98-.52,7.67-.41,9.62,2.3,1.74,2.42,1.99,13.86,1.44,16.91-.38,2.1-2.53,1.96-3.26.84ZM589.74,601.21c-2.59.11-10.3-.72-10.9,2.39-1.46,7.49,12.96,5.34,10.9-2.39Z"/>
  <path class="cls-1" d="M553.03,611.41c-2.4.29-3.53-.15-3.41-2.72-10.92,9.39-22.23-8.29-6.44-10.19,2.06-.25,4.35.15,6.45-.01.4-4.85-3.85-5.32-7.78-4.72-1.01.16-5.8,2.81-5.13-.37.83-3.94,16.31-4.77,16.31,2.03v15.97ZM549.64,601.21c-2.65,0-9.81-.64-10.77,2.52-2.15,7.09,13.35,5.31,10.77-2.52Z"/>
  <path class="cls-1" d="M440.21,601.89h-16.31c-.24,4.51,4.3,6.76,8.46,6.08,1.08-.17,7.14-4.23,5.75.3-.52,1.68-6.59,3.17-8.33,3.09-12.88-.63-13.43-21.07.59-21.08,7.07,0,9.55,5.24,9.85,11.61ZM436.81,599.18c-.38-8.16-12.77-7.99-12.91,0h12.91Z"/>
  <path class="cls-1" d="M417.78,601.89h-16.99c2.28,7.31,7.86,7.15,13.9,4.08,2.95,2.15-.76,3.9-2.86,4.57-16.45,5.32-19.96-20.32-3.9-20.27,7,.02,9.4,5.44,9.85,11.61ZM414.38,599.18c-.78-8.41-12.02-7.73-13.59,0h13.59Z"/>
  <path class="cls-1" d="M687.6,610.73c-2.38.04-3.59.71-3.73-2.04-17.37,9.67-20.1-14.12.33-10.2-.44-4.95-3.41-5.38-7.78-4.72-1.36.21-2.85,1.61-4.05,1.3-.94-.25-1.49-2.01-1.05-2.66.98-1.46,8.3-2.29,10.35-1.91,2.29.42,5.94,3.3,5.94,5.61v14.61ZM684.21,601.21c-2.89.21-8.94-.86-10.82,1.76-4.47,6.26,13.03,7.85,10.82-1.76Z"/>
  <path class="cls-1" d="M693.72,590.34h3.4s0,3.4,0,3.4c1.05.04.77-1.27,1.77-1.96,3.22-2.22,9.81-2.23,12.14,1.3.4.61,1.72,3.95,1.72,4.4v12.91c0,1.35-4.08,1.35-4.08,0v-13.59c0-3.61-10.39-5.04-11.52,2.08-.65,4.11,2.27,13.55-3.44,12.54v-21.07Z"/>
  <path class="cls-1" d="M564.59,606.65l6.18-16.24,3.33-.07c.15.96-.09,1.81-.33,2.72-.98,3.68-7.15,19.26-9.04,22.23-1.73,2.71-7.38,5.29-9.35,2.26-2.61-4.03,3.01-2.15,5.11-3.09,1-.45,2.67-2.8,2.57-3.95l-8-20.16c1.21.04,2.83-.41,3.74.67,1.85,2.21,4.38,12.39,5.78,15.63Z"/>
  <path class="cls-1" d="M357.1,590.5c16.33-3,17.48,20.17,3.15,20.87-13.06.63-14.84-18.72-3.15-20.87ZM354.78,606.44c7.37,6.82,17.18-5.39,9.66-11.36-8.15-6.47-16.03,5.47-9.66,11.36Z"/>
  <path class="cls-1" d="M480.19,590.45c1.01.61,4.69,13.7,6.57,15.51,1.62-1.95,5-14.81,5.85-15.55.22-.19,2.98-.38,3.33.27.1,1.42-7.99,21.83-9.27,24.04-2.49,4.32-6.28,5.1-10.48,2.4.15-4.63,7.3,0,8.19-5.41.73-4.41-6.73-15.36-7.49-20.36-.25-1.65,2.7-1.26,3.29-.9Z"/>
  <path class="cls-1" d="M724.81,590.51c17.83-3.02,15.93,25.62-1.33,20.03-10.14-3.28-8.52-18.36,1.33-20.03ZM721.82,595.33c-5.69,5.56,1.83,17.42,9.63,11.33,8.19-6.4-2.25-18.54-9.63-11.33Z"/>
  <path class="cls-1" d="M599.25,590.34h3.4s0,3.4,0,3.4c5.36-5.57,14.38-4.91,15.57,3.8.27,1.95.4,12.91-.58,13.58-.76.52-1.89.26-2.76.3v-12.57c0-4.92-6.41-6.62-9.88-3.76-.45.37-2.35,3.54-2.35,3.76v11.89h-3.4v-20.39Z"/>
  <path class="cls-1" d="M387.87,593.74c-.39-.36-2.74,1.23-2.06-2.38.12-.62,1.59-.1,1.93-.42.78-.74-.08-6.62,3.7-8.24,2.69-1.15,8.59-1.17,7.31,2.88-5.37-.18-7.64-.95-6.8,5.44h5.44c2.02,4.37-5.44,2.28-5.44,2.72v16.99h-4.08c-.47-2.23.62-16.41,0-16.99Z"/>
  <path class="cls-1" d="M375.64,593.74c-.67-.62-3.63,1.66-2.72-2.72,4.25.54,2.16-.91,2.76-3.7,1.16-5.39,6.14-6.16,10.82-4.43-.09,5.74-2.27,1.83-5.62,2.82-2.24.66-1.93,3.43-1.85,5.32h5.44c2.02,4.37-5.44,2.28-5.44,2.72v16.65c0,.89-2.51,1.24-3.4,1.02-.49-2.3.65-17.07,0-17.67Z"/>
  <path class="cls-1" d="M741.88,590.44c.73.45,4.92,14.13,5.54,16.22.97-.08,1.07-1,1.38-1.67,1.26-2.74,3.87-12.54,5.06-13.97.91-1.09,2.57-.61,3.75-.66-.9,2.7-7.4,20.61-8.58,21.01-.75.25-1.62.09-2.31-.27-1.02-.53-8.95-19.96-8.14-20.75.93.13,2.63-.33,3.3.09Z"/>
  <path class="cls-1" d="M238.97,408.08c1.41,1.65-3.94,10.67-3.93,13.2,0,3.84,5.57,12,5.33,15.59s-5.32,11.35-5.33,14.99c0,3.49,5.26,11.24,5.26,14.95,0,.93-5.53,17.23-6.44,17.38l-12.55-4.57c-.7-2.96,4.08-10.11,4.07-12.81s-4.7-10.5-5.26-13.77c-.79-4.61,5.32-12.58,5.11-16.71-.17-3.36-4.25-9.68-4.96-13.33-.95-4.94,4.98-13.73,5.86-19.05l12.83,4.11Z"/>
  <path class="cls-1" d="M268.88,408.07c1.5,1.75-3.9,10.84-3.95,13.19-.08,3.44,5.51,11.6,5.33,15.59-.17,3.84-5.41,11.77-5.33,15.03.08,3.3,5.41,11.41,5.41,14.94,0,.93-5.66,17.24-6.58,17.39l-12.55-4.56c-.59-2.86,4.04-9.63,4.04-12.82,0-3.62-5.58-11.76-5.33-15.59.22-3.36,5.62-11.86,5.41-14.94-.22-3.45-5.53-11.56-5.41-14.94.16-4.39,5.59-12.48,6.12-17.38,1.71.67,12.39,3.6,12.83,4.11Z"/>
</svg>