<?xml version="1.0" encoding="UTF-8"?>
<svg id="Layer_1" data-name="Layer 1" xmlns="http://www.w3.org/2000/svg" viewBox="0 0 1000 1000">
  <defs>
    <style>
      .cls-1 {
        fill: #fff;
      }
    </style>
  </defs>
  <g>
    <path class="cls-1" d="M78.64,657.51v-64.9c0-3.55-1.07-7.22-2.84-9h19.9c-1.78,1.78-2.96,5.45-2.96,9v64.9c0,3.55,1.18,7.22,2.96,9h-19.9c1.78-1.78,2.84-5.45,2.84-9Z"/>
    <path class="cls-1" d="M164.26,666.51c.71-2.01-.24-5.33-2.25-8.41l-25.11-34.82-9.83,9.12v25.11c0,3.55,1.18,7.22,2.96,9h-19.9c1.78-1.78,2.84-5.45,2.84-9v-64.9c0-3.55-1.07-7.22-2.84-9h19.9c-1.78,1.78-2.96,5.45-2.96,9v36.12l35.65-33.28c3.67-3.32,4.26-7.93,1.78-11.84h19.42c-3.55,1.18-10.42,5.57-16.7,11.49l-20.49,18.95,31.86,44.41c2.49,3.43,5.33,6.63,7.22,8.05h-21.55Z"/>
    <path class="cls-1" d="M266.82,666.51h-15.16c-3.32-1.78-6.28-4.74-8.17-8.17l-11.13-21.55c-1.3-2.49-3.43-4.62-6.28-5.8h-16.94v26.53c0,3.55,1.18,7.22,2.96,9h-19.9c1.78-1.78,2.84-5.45,2.84-9v-64.9c0-3.55-1.07-7.22-2.84-9h36.83c17.29,0,30.55,9.95,30.55,23.69,0,12.2-10.42,21.44-24.99,23.33,6.51,1.42,11.96,4.62,14.45,9.83l9.36,17.05c2.01,3.79,5.33,7.46,8.41,9ZM209.15,628.61h16.82c11.49,0,19.07-8.41,19.07-21.32s-7.58-21.32-19.07-21.32h-16.82v42.63Z"/>
    <path class="cls-1" d="M269.43,625.06c0-24.28,18.71-42.63,43.7-42.63s43.7,18.36,43.7,42.63-18.83,42.63-43.7,42.63-43.7-18.36-43.7-42.63ZM342.26,625.06c0-24.28-11.61-40.27-29.13-40.27s-29.13,15.99-29.13,40.27,11.61,40.27,29.13,40.27,29.13-15.99,29.13-40.27Z"/>
    <path class="cls-1" d="M457.02,657.51c0,3.55,1.18,7.22,2.84,9h-19.78c1.78-1.78,2.84-5.45,2.84-9v-67.86l-33.16,76.86h-2.37l-33.04-76.86v64.54c0,4.97,2.37,9.83,6.16,12.32h-15.28c3.79-2.49,6.28-7.34,6.28-12.32v-61.58c0-3.55-1.66-7.22-4.14-9h19.19l27.83,64.19,27.83-64.19h17.65c-1.66,1.78-2.84,5.45-2.84,9v64.9Z"/>
    <path class="cls-1" d="M585.39,625.06c0,23.57-19.3,41.45-44.77,41.45h-35.06c1.78-1.78,2.84-5.45,2.84-9v-64.9c0-3.55-1.07-7.22-2.84-9h35.06c25.46,0,44.77,17.88,44.77,41.45ZM570.82,625.06c0-23.57-12.91-39.08-32.33-39.08h-15.99v78.16h15.99c19.42,0,32.33-15.51,32.33-39.08Z"/>
    <path class="cls-1" d="M659.64,650.05v16.46h-62.65c1.78-1.78,2.84-5.45,2.84-9v-64.9c0-3.55-1.07-7.22-2.84-9h61.47v16.34c-3.79-8.41-11.25-13.97-18.83-13.97h-25.7v37.31h20.49c5.8,0,11.61-3.2,14.57-8.05v18.48c-2.96-4.86-8.76-8.05-14.57-8.05h-20.49v38.49h26.88c7.58,0,15.04-5.57,18.83-14.09Z"/>
    <path class="cls-1" d="M666.5,625.06c0-23.92,18.71-42.63,44.06-42.63,18.12,0,32.33,9.71,32.33,20.84,0,5.21-3.32,8.88-8.29,8.88s-8.53-3.55-8.53-8.29c5.21,0,8.76-2.61,8.76-6.4,0-5.8-8.53-11.61-20.61-11.61-20.01,0-33.16,15.04-33.16,39.08s13.15,39.32,33.28,39.32c12.2,0,21.79-5.68,26.77-14.57l2.61,1.66c-5.09,9.36-17.53,16.34-33.04,16.34-24.63,0-44.17-18.12-44.17-42.63Z"/>
    <path class="cls-1" d="M750.59,625.06c0-24.28,18.71-42.63,43.7-42.63s43.7,18.36,43.7,42.63-18.83,42.63-43.7,42.63-43.7-18.36-43.7-42.63ZM823.42,625.06c0-24.28-11.61-40.27-29.13-40.27s-29.13,15.99-29.13,40.27,11.61,40.27,29.13,40.27,29.13-15.99,29.13-40.27Z"/>
    <path class="cls-1" d="M924.2,666.51h-15.16c-3.32-1.78-6.28-4.74-8.17-8.17l-11.13-21.55c-1.3-2.49-3.43-4.62-6.28-5.8h-16.94v26.53c0,3.55,1.18,7.22,2.96,9h-19.9c1.78-1.78,2.84-5.45,2.84-9v-64.9c0-3.55-1.07-7.22-2.84-9h36.83c17.29,0,30.55,9.95,30.55,23.69,0,12.2-10.42,21.44-24.99,23.33,6.51,1.42,11.96,4.62,14.45,9.83l9.36,17.05c2.01,3.79,5.33,7.46,8.41,9ZM866.53,628.61h16.82c11.49,0,19.07-8.41,19.07-21.32s-7.58-21.32-19.07-21.32h-16.82v42.63Z"/>
  </g>
  <g>
    <g>
      <path class="cls-1" d="M436.61,517.81c-2.26-2.54-2.9-5.13-1.01-8.16-2.12-1.92-4.43-3.48-6.26-5.58-2.69-3.06-3.77-6.56-3.19-10.57.69-4.81,4.77-8.49,9.61-8.71,3.73-.17,7.48,1.32,10.7,4.29-6.53.44-8.45,5.5-7.1,9.49,1.76,5.24,8.97,8.96,14.58,7.5-1.08-1.04-1.2-3.88-1.08-4.92.26-2.23,1.11-4.33,2.59-5.17,1.29,9.05,8.12,11.53,13.8,11.04,7.9-.67,10.77-1.99,15.95-9.75,1.57-2.36,1.29-5.17.23-7.13-6.14.98-6.23.96-9.48-1.62,5.86-1.64,7.81-5.79,7.6-11.36-.18-4.89-1.74-7.16-6.4-8.97.74,1,.84,2.27.28,3.21-.72,1.22-2.21,1.28-2.59,1.29-1.11.05-2.69-.41-3.29-1.73-.81-1.77.82-3.61,1-3.83.8-.97,2.09-1.54,3.85-1.7,3.06-.28,6.04,1.04,8.2,3.22,4.64,4.68,6.39,10.63,7.18,16.9.55,4.39-.2,8.8-1.46,13.02-3.25,10.87-11.42,15.81-21.98,17.61-5.81.99-11.61,1.01-17.49.27-4.74-.59-9.63-1.13-14.24,1.35Z"/>
      <path class="cls-1" d="M446.26,445.76c.12-.13.34-.14.47-.02,1.95,1.91,2.55,4.31,2.79,6.59.58,5.71,3.87,9.29,8.47,12.04,3.53,2.11,6.93,4.37,9.59,7.59,4.12,5.02,4.81,13.1,1.47,18.08-1.83,2.72-4.29,4.32-7.69,4.31-3.97,0-7.29-2.8-6.9-6.34.94-8.44,8.04-7.66,11.25-6.11.2.1.44-.05.44-.28,0-3.07-1.65-5.06-3.56-5.59-3.66-1.01-6.08-.22-9.01,3.78-.06.08-.16.14-.26.14-1.73-.01-2.57-1.06-2.5-2.7.15-3.5,5.64-5.36,5.64-5.36,0,0-6.15-1.41-8.22,1.59-1.01,1.47-2.1,2.55-3.26,3.29-5.83,3.7-11.69-5.05-6.19-9.23,1.28-.97,2.93-1.98,5-3.09.18-.1.23-.34.09-.49-1.46-1.56-3.61-2.63-3.7-5.09-.04-1.26.11-2.44.58-3.54s1.61-1.9,2.84-2.06h0c.14-.02.25-.13.26-.27.22-2.61.57-5.14,2.41-7.26Z"/>
      <path class="cls-1" d="M420.54,478.34c.24-1.02.31-1.76.59-2.4,1.02-2.39,3.16-3.3,5.29-2.33,2.09.96,2.71,3.22,1.53,5.61-1.29,2.62-4.96,4.42-8.17,3.96-4.83-.7-8.45-3.8-10.86-9.83-3.02-7.55-.57-16.3,5.87-21.26,4.25-3.27,9.1-5.18,14.4-5.92,3.15-.44,5.49.03,7.23,1.45,1.92,1.57,2.44,4.4,1.27,6.59-.51.96-1.14,1.47-2.1,1.68-2.23.49-4.4-1.16-4.75-3.42-.06-.39-.12-.85-.19-1.45-3.24-1.64-7.55-.31-8.76,1.28,2.5,1,2.5,3.59,1.76,4.92-1.04,1.87-4.83,1.13-5.97,3.88.25-.04,2.83-.04,2.31,2.74-3.28,1.07-6.02,2.86-5.98,6.79.04,3.53,2.35,6.26,6.52,7.71Z"/>
      <path class="cls-1" d="M496.5,296.39l-.07-.07s.04-.03.05-.04c0,.04,0,.08.02.11Z"/>
      <path class="cls-1" d="M490.61,513.44c-3.25,9.59-2.44,10.16,1.79,11.75-.13.34-.71,1.77-2.23,2.44-1.68.75-3.27.03-3.84-.23-1.93-.87-2.71-2.59-2.91-3.07-.32.66-.95,1.74-2.1,2.69-.75.63-2.11,1.76-4.08,1.71-2.13-.05-3.53-1.45-3.87-1.81-7.77,3.22-14.44.29-20.98-3.78,13.73.74,27.32,1.25,38.22-9.72Z"/>
      <path class="cls-1" d="M388.54,466.32c2.71,6.6,6.86,10.3,12.21,12.84,4.36,2.07,9,3.54,13.01,6.32,1.69,1.17,3.37,2.31,4.62,4,.95,1.28,1.52,2.58,1.52,3.91,0,2.37-2.5,4.03-4.73,3.23-.01,0-.03,0-.04-.01-2.53-1.57-1.8-3.63-.72-5.57-2.16-2.46-5.04-2.83-7.64-3.63-3.66-1.13-7.29-2.29-10.41-4.55-5.25-3.8-8.75-8.57-7.84-16.53Z"/>
      <path class="cls-1" d="M408.88,495.52c1.06,1.2,1.93,2.58,3.06,3.7,3.41,3.34,5.31,3.62,9.8,1.64,1.22.43.09,4.18.09,4.18,0,0,3.61.13,3.8,1.56-1.74,2.17-5.1,2.32-7.68,1.03-1.88-.94-14.37-10.06-17.33-15.97,0,0,6.07,1.36,8.27,3.87Z"/>
      <path class="cls-1" d="M402.99,463.11c.29,4.68.82,9,3.28,13.32-3.56-.87-6.3-2.25-8.94-4.42,1.09-1.55,2.35-2.83,2.21-4.99-.12-1.81,1.4-3.04,3.45-3.92Z"/>
      <g>
        <path class="cls-1" d="M366.68,411.42c1.27-3.15,3.31-4.88,6.86-4.53.77-2.76,1.15-5.52,2.21-8.09,1.54-3.77,4.2-6.3,8.05-7.57,4.62-1.52,9.73.5,12.08,4.73,1.81,3.26,2.15,7.28.92,11.5-3.3-5.65-8.68-5.12-11.66-2.14-3.91,3.91-4.03,12.02-.23,16.4.45-1.43,2.95-2.8,3.93-3.15,2.11-.76,4.38-.93,5.78.01-7.53,5.19-6.71,12.4-3.75,17.27,4.12,6.78,6.58,8.76,15.83,9.94,2.82.36,5.21-1.14,6.48-2.96-3.6-5.06-3.63-5.15-2.76-9.21,4.07,4.52,8.66,4.41,13.56,1.75,4.3-2.34,5.64-4.74,5.18-9.72-.57,1.11-1.66,1.77-2.75,1.68-1.41-.11-2.13-1.41-2.31-1.74-.54-.97-.83-2.59.09-3.72,1.23-1.51,3.6-.87,3.87-.81,1.22.29,2.31,1.18,3.24,2.69,1.62,2.62,1.76,5.87.76,8.78-2.13,6.23-6.68,10.46-11.94,13.95-3.69,2.45-7.97,3.74-12.31,4.49-11.18,1.93-19.24-3.19-25.55-11.85-3.47-4.76-6.07-9.94-8.02-15.54-1.57-4.51-3.27-9.13-7.55-12.15Z"/>
        <path class="cls-1" d="M435.49,388c.17.04.28.24.23.41-.84,2.6-2.72,4.2-4.66,5.43-4.86,3.06-6.59,7.6-7.01,12.95-.32,4.1-.82,8.15-2.54,11.96-2.66,5.92-9.6,10.14-15.54,9.36-3.25-.42-5.78-1.92-7.28-4.96-1.76-3.56-.74-7.78,2.61-9,7.98-2.91,10.44,3.79,10.47,7.35,0,.23.24.38.44.27,2.75-1.37,3.8-3.73,3.42-5.68-.73-3.73-2.51-5.55-7.4-6.39-.1-.02-.2-.09-.24-.18-.76-1.56-.2-2.78,1.31-3.44,3.2-1.42,7.3,2.66,7.3,2.66,0,0-1.47-6.14-5.08-6.65-1.77-.25-3.22-.74-4.4-1.46-5.91-3.57-.68-12.72,5.51-9.65,1.44.71,3.08,1.75,4.99,3.1.16.12.41.06.48-.13.75-2.01.75-4.4,2.91-5.57,1.11-.6,2.23-.99,3.43-1.06s2.41.59,3.11,1.62h0c.08.12.23.16.36.11,2.44-.96,4.86-1.78,7.58-1.07Z"/>
        <path class="cls-1" d="M394.88,379.46c1.02-.24,1.71-.5,2.42-.54,2.59-.15,4.36,1.36,4.44,3.7.08,2.3-1.68,3.86-4.34,3.87-2.92,0-6.17-2.47-7.18-5.55-1.52-4.64-.36-9.26,3.97-14.1,5.42-6.06,14.35-7.76,21.66-4.2,4.82,2.35,8.69,5.85,11.71,10.26,1.8,2.63,2.42,4.93,1.92,7.12-.55,2.42-2.85,4.14-5.33,4.07-1.09-.03-1.82-.37-2.44-1.14-1.43-1.78-.92-4.46.95-5.77.32-.22.71-.48,1.21-.81.03-3.63-3.09-6.9-5.04-7.28.22,2.69-2.1,3.84-3.62,3.76-2.14-.1-3.16-3.82-6.13-3.62.14.2,1.3,2.52-1.43,3.29-2.42-2.47-5.24-4.12-8.74-2.34-3.14,1.6-4.56,4.89-4,9.27Z"/>
        <path class="cls-1" d="M394.62,457.83c-10.03,1.36-10.19,2.33-9.73,6.83-.36.04-1.9.15-3.18-.91-1.42-1.17-1.48-2.91-1.5-3.54-.07-2.11,1.11-3.58,1.45-3.98-.74,0-1.98-.08-3.34-.68-.89-.4-2.51-1.11-3.35-2.89-.9-1.93-.28-3.81-.11-4.27-6.34-5.53-6.69-12.8-5.95-20.47,5.45,12.63,11.03,25.02,25.71,29.91Z"/>
        <path class="cls-1" d="M391.4,345.46c-4.7,5.36-6.17,10.73-6.07,16.65.09,4.82.84,9.63.13,14.47-.3,2.03-.57,4.05-1.52,5.92-.73,1.42-1.64,2.51-2.82,3.11-2.12,1.06-4.73-.45-5-2.8,0-.01,0-.03,0-.04.28-2.96,2.45-3.23,4.67-3.12,1.24-3.03.29-5.77-.15-8.46-.61-3.78-1.19-7.54-.56-11.34,1.07-6.4,3.78-11.64,11.31-14.37Z"/>
        <path class="cls-1" d="M374.29,376.67c-.61,1.48-1.46,2.87-1.95,4.39-1.47,4.54-.88,6.36,2.89,9.5.16,1.28-3.7,1.94-3.7,1.94,0,0,1.49,3.3.3,4.1-2.72-.6-4.35-3.53-4.34-6.42,0-2.1,2.62-17.34,6.59-22.63,0,0,1.48,6.04.21,9.13Z"/>
        <path class="cls-1" d="M400.71,356.97c-4.06,2.34-7.69,4.74-10.47,8.87-.8-3.57-.79-6.65-.02-9.98,1.87.29,3.58.84,5.45-.24,1.57-.91,3.35-.1,5.04,1.35Z"/>
      </g>
      <g>
        <path class="cls-1" d="M425.95,297.79c3.36-.49,5.88.4,7.37,3.64,2.77-.72,5.34-1.78,8.1-2.17,4.03-.56,7.56.45,10.59,3.14,3.64,3.22,4.47,8.65,2,12.82-1.91,3.21-5.21,5.52-9.47,6.58,3.22-5.7.05-10.08-4.03-11.15-5.35-1.41-12.41,2.57-14.28,8.06,1.46-.33,3.9,1.13,4.7,1.8,1.72,1.44,3.01,3.31,2.9,5-8.27-3.89-14.09.45-16.81,5.46-3.78,6.97-4.26,10.09-.62,18.68,1.11,2.61,3.61,3.92,5.83,4.11,2.56-5.66,2.62-5.73,6.56-7.03-1.85,5.79.55,9.71,5.32,12.6,4.19,2.54,6.94,2.48,11.01-.42-1.24.06-2.36-.54-2.84-1.53-.62-1.27.14-2.54.34-2.87.57-.95,1.82-2.02,3.26-1.8,1.93.3,2.57,2.67,2.65,2.94.36,1.2.14,2.59-.69,4.15-1.45,2.71-4.18,4.47-7.2,5.08-6.46,1.3-12.4-.5-18.07-3.29-3.97-1.95-7.25-5-10.07-8.37-7.3-8.69-6.93-18.22-2.64-28.04,2.36-5.4,5.53-10.25,9.38-14.76,3.1-3.63,6.24-7.43,6.7-12.64Z"/>
        <path class="cls-1" d="M480.85,345.43c.05.17-.07.36-.24.4-2.67.58-5-.23-7.04-1.29-5.09-2.65-9.89-1.87-14.72.46-3.7,1.79-7.46,3.39-11.61,3.84-6.46.69-13.59-3.18-15.92-8.71-1.27-3.02-1.25-5.96.62-8.79,2.19-3.32,6.35-4.55,9.09-2.28,6.53,5.43,1.98,10.93-1.08,12.75-.2.12-.2.4-.01.52,2.57,1.68,5.13,1.4,6.63.09,2.85-2.5,3.53-4.96,1.79-9.61-.04-.09-.02-.21.03-.3.96-1.44,2.3-1.57,3.63-.61,2.84,2.05,1.38,7.65,1.38,7.65,0,0,4.56-4.36,3.19-7.74-.67-1.65-.98-3.15-.96-4.53.11-6.9,10.65-6.99,11.11-.11.11,1.6.04,3.54-.17,5.88-.02.2.16.38.36.35,2.11-.36,4.18-1.57,6.28-.29,1.08.65,1.98,1.43,2.64,2.43s.7,2.38.16,3.5h0c-.06.13-.02.28.09.37,2.06,1.62,3.98,3.3,4.74,6.01Z"/>
        <path class="cls-1" d="M467.77,306.05c.72.76,1.3,1.23,1.69,1.81,1.43,2.17,1.02,4.45-.96,5.7-1.95,1.22-4.18.5-5.53-1.8-1.48-2.52-.97-6.57,1.18-9,3.24-3.65,7.82-4.97,14.18-3.67,7.97,1.63,13.93,8.48,14.54,16.59.4,5.34-.67,10.45-2.97,15.29-1.36,2.87-3.04,4.57-5.19,5.24-2.37.74-5.01-.38-6.2-2.56-.52-.96-.6-1.76-.24-2.68.82-2.13,3.39-3.04,5.46-2.09.35.16.77.37,1.31.64,3.15-1.81,4.41-6.14,3.75-8.02-2.21,1.54-4.37.12-5.08-1.23-.99-1.9,1.71-4.66.04-7.12-.1.23-1.52,2.39-3.56.42.91-3.33.92-6.6-2.38-8.73-2.97-1.91-6.52-1.47-10.02,1.21Z"/>
        <path class="cls-1" d="M399.94,345.3c-6.23-7.98-7.15-7.63-10.8-4.96-.21-.29-1.09-1.56-.82-3.21.3-1.82,1.77-2.75,2.3-3.08,1.79-1.13,3.66-.84,4.17-.75-.38-.63-.93-1.75-1.1-3.23-.11-.97-.31-2.73.81-4.35,1.21-1.75,3.15-2.16,3.64-2.24,1.58-8.27,7.69-12.23,14.68-15.45-8.17,11.07-16.06,22.14-12.88,37.27Z"/>
        <path class="cls-1" d="M495.39,285.91c-7-1.36-12.38.07-17.44,3.14-4.12,2.5-7.9,5.58-12.43,7.4-1.91.77-3.79,1.55-5.88,1.67-1.6.09-3-.15-4.11-.88-1.98-1.3-1.99-4.31-.09-5.73.01,0,.02-.02.03-.02,2.7-1.25,4.02.49,5.05,2.46,3.24-.46,5.13-2.66,7.23-4.39,2.95-2.43,5.92-4.83,9.52-6.2,6.06-2.3,11.96-2.6,18.11,2.53Z"/>
        <path class="cls-1" d="M459.81,286.86c-1.58.22-3.22.19-4.77.53-4.66,1.01-5.94,2.45-6.75,7.29-1.03.78-3.54-2.22-3.54-2.22,0,0-2.1,2.95-3.39,2.32-.85-2.65.86-5.53,3.36-6.98,1.82-1.05,16.3-6.47,22.87-5.71,0,0-4.47,4.32-7.77,4.78Z"/>
        <path class="cls-1" d="M490.13,299.75c-4.07-2.33-7.97-4.26-12.93-4.58,2.68-2.49,5.34-4.03,8.61-5.04.7,1.76,1.08,3.52,2.95,4.58,1.58.9,1.77,2.84,1.37,5.04Z"/>
      </g>
      <path class="cls-1" d="M400.5,348.32c.13.03.36.07.36.1-.01.29-.13.23-.29-.17l-.07.07Z"/>
    </g>
    <path class="cls-1" d="M619.7,427.43c3.29-4.32,5.61-9.14,5.64-14.62.02-3.52-.26-7.21-1.32-10.53-2.32-7.35-4.49-14.6-1.73-22.58-5.17,3.68-6.75,8.85-5.66,17.94-2.09-.23-4.08-.07-5.2,2.29,4.72,2.67,8.86,5.79,9.45,11.56.55,5.42-1.37,10.19-4.17,14.51-2.17-1.18-4.06-2.22-6.1-3.33.11-.49.29-1.11.38-1.74.8-5.51-.75-10.27-4.9-13.98-2.17-1.95-4.64-1.34-5.58,1.43-1.01,2.95-2.66,5.33-5.29,7.16-2.9,2.01-5.58,4.3-8.24,6.61-2.64,2.29-4.37,2.79-6.5,1.58-3.59-2.03-5.2-6.33-2.97-9.45,1.45-2.03,4.13-2.76,6.52-2.07,1.37.39,2.7.95,4.07,1.42-.38-3.73-1.87-5.56-5.26-6.55,1.21-2.32,1.1-3.95-.35-5.12-1.35-1.08-3.43-.87-5.24.52-1.86,1.42-2,3.19-.27,5.53.79,1.07,1.35,2.26.07,2.92-.66.35-2.33-.21-2.88-.89-2.14-2.62-3.27-5.89-2.84-9.16,1-7.5,5.72-12.96,10.76-18.27.56.47.94.71,1.21,1.04,2.61,3.13,4.44,6.63,4.92,10.73.54,4.64,3.94,7.82,8.42,7.85,4.4.03,7.81-2.99,8.49-7.52.06-.41.19-.8.29-1.24,3.78.04,6.62-1.46,8.36-4.72,1.73-3.27,1.13-6.46-.79-9.46,5.98-3.06,8.26-7.53,6.69-12.95-1.87-6.45-5.76-8.8-13.48-8.05-.24-3.56-1.7-6.46-5.01-8.08-3.4-1.66-6.63-1.01-9.67,1.21-.58-.63-1.03-1.22-1.57-1.68-3.13-2.65-7.71-2.66-10.86-.06-3.09,2.54-3.77,6.84-2.16,10.51,1.21,2.75,2.01,5.72,2.66,8.67.34,1.53-.06,3.21-.14,4.99-6.27-1.05-11.83-2.59-16.78-5.89-3.65-2.44-5.42-6.02-5.98-10.22-.21-1.53-.48-3.66,1.68-3.88,2.16-.21,1.65,1.83,1.8,3.21.19,1.9.98,3.35,3.16,3.54,2.27.19,4.37-.84,4.83-2.55.58-2.14-.51-3.46-2.4-4.28-.1-.04-.14-.23-.22-.36,2.53-2.6,1.71-5.37.49-8.33-1.03,1.41-1.89,2.81-2.91,4.03-1.71,2.04-4.65,2.78-6.99,1.52-3-1.61-3.95-5.64-2.36-9.12.97-2.14,2.71-2.86,5.93-2.52,2.53.27,5.08.82,7.58.65,4.5-.3,8.67,0,12.41,2.92,1.67,1.3,3.38.66,4.25-1.32.4-.91.65-1.95.72-2.95.39-5.63-1.61-10.26-5.9-13.67,1.03-2.14,2.03-4.19,3.05-6.3,4.82,2.07,9.19,4.66,11.86,9.29,2.91,5.06,1.32,10.09-.82,14.98,2.34,1.18,3.96.17,5.5-1.17,5.14,8.31,9.53,11.59,14.7,11.02-6.46-6.4-8.4-9.16-10.23-15.82-2.93-10.7-9.1-18.21-20.01-21.41-.6-.18-1.16-.81-1.28-1.43-.76-4.12-2.74-7.63-5.33-10.83-.52-.66-1.21-1.31-1.98-1.62-3.81-1.58-7.77-2.51-11.93-1.94-1.35.19-2.07-.2-2.84-1.3-4.11-5.93-9.59-10-16.78-11.22-3.49-.59-7.1-.53-10.65-.61-5.95-.14-11.55-1.35-16.48-4.88-.12-.08-.33-.05-.7-.1,2.95,6.76,8.18,9.82,15.43,10.47-.94,2.17-1.28,4.08.5,5.76,9.94-9.74,19.65-5.51,25.88,2.58-1.54,1.77-3.01,3.44-4.56,5.21-.15-.09-.5-.34-.88-.55-4.82-2.68-9.75-2.77-14.65-.4-3.31,1.6-3.98,4.11-.69,6.65,1.9,1.47,3.37,3.79,4.42,6.02,1.7,3.59,2.99,7.38,4.24,11.16.48,1.44.91,3.3.4,4.59-.83,2.08-2.68,3.13-4.79,3.54-2.54.49-5.24-.46-6.66-2.62-1.52-2.31-.83-4.43.55-6.4.8-1.14,1.74-2.2,2.76-3.48-3.42-.27-6.34-.16-7.92,3.2-2-1.98-3.67-2.36-5.18-1.24-1.38,1.02-1.77,3.43-.87,5.42.87,1.94,2.44,2.48,5.21,1.56,1.23-.41,2.38-.4,2.64.87.14.67-.78,1.61-1.32,2.36-.18.25-.64.34-.99.42-3.2.74-6.43.85-9.41-.64-6.66-3.33-10.21-9.39-13.63-15.56,3.06-2.18,9.21-3.22,13.05-2.33,4.25.98,8.38-1.15,9.93-5.13,1.67-4.3-.27-9-4.69-10.96l-.57-1.15c.84-3.35.28-6.29-2.17-8.79-2.58-2.65-5.79-2.98-9.2-2.22-1.13-6.55-4.67-10.09-10.14-10.33-.24-.01-.49-.02-.73-.02v6.97c0,2.53,1.18,4.85,3,6.62,1.99,1.92,3.04,5.63,2.41,9.4,7.3-.55,11.27,1.98,12.31,7.94-2.37.12-4.74.18-7.1.36-2.5.18-4.62,1.14-6.15,3.24-1.21,1.65-2.47,3.25-4.14,4.77-.11-.13-.22-.26-.34-.39v8.84c.65.04,1.3.33,1.92.86.7.61,1.39,1.34,1.82,2.15,5.37,10.08,14.13,14.42,25.14,14.28,5.4-.07,10.78-1.15,16.05-1.76.5,3.47.66,7.58,1.75,11.43,1.21,4.22,2.91,8.39,5.07,12.21,3.57,6.32,9.47,9.67,16.45,11.21.07.01.14.03.21.04,1.98.35,4.04.78,4.75,2.93.7,2.15-.74,3.7-2.09,5.19-4.78,5.3-7.56,11.42-7.05,18.66.55,8.01,3.34,15.29,7.86,21.92.37.54.71,1.09,1.05,1.64.03.05,0,.14,0,.32-6.36,2.15-12.24,5.23-17.3,9.77-7.05,6.33-10.33,14.09-9.08,23.6.04.29.06.58.07.87.15,4.26-2.15,5.81-6.16,4.27-2.43-.93-4.89-1.91-7.42-2.49-6.28-1.43-12.12.09-17.65,3.12-5.52,3.01-10.09,7.13-13.98,12.03-.48.6-.95,1.21-1.42,1.81v10.55c3.57.04,6.46,1.91,7.69,5.5,1.32,3.86,3.88,6.39,7.46,8.06.25.12.47.3.7.45-2.28,3.35-4.44,3.95-8.92,2.78-.93,2.8-1.26,5.96-2.88,8.23l-.06.08c-2.6,3.66-4,8.04-4,12.53v1.51c.25,0,.49-.04.73-.1,4.16-1.02,7.97-2.68,11.2-5.62.53-.48,1.63-.63,2.39-.5,2.57.43,5.09,1.32,7.67,1.57,7.7.76,14.25-2.14,20.16-6.8,5.21-4.12,10.97-6.85,17.73-7.08.14,0,.28-.17.6-.37-6.43-3.73-12.5-2.89-18.49.65-.53-2.27-1.31-4.04-3.81-4.27-2.11,12.44-10.75,16.2-22.58,13.02.4-3.85.3-2.89.69-6.75,6.12-.51,10.76-3.37,13.45-8.96,1.54-3.21.22-4.81-3.28-5.25-2.41-.3-4.79-.9-6.94-2.04-3.7-1.95-7.15-4.41-10.57-6.85-1.18-.84-2.53-2.05-2.88-3.33-.61-2.23.29-4.19,1.79-5.79,1.66-1.77,4.86-2.63,7.09-1.69,2.46,1.04,3.08,3.18,3.14,5.56.03,1.34-.15,2.69-.26,4.37,2.91-1.76,5.07-3.61,4.75-7.07.29-.06.43-.12.56-.1,1.95.25,3.51-.3,4.2-2.27.59-1.66-.76-4.02-2.74-4.97-1.84-.88-3.23-.11-4.41,1.28-.33.38-.51,1.01-.91,1.2-.64.3-1.52.59-2.09.37-.43-.17-.75-1.16-.74-1.78,0-.59.38-1.27.79-1.75,2.32-2.74,5.11-4.84,8.77-5.26,6.95-.81,13.17,1.6,19.18,4.71.1.05.12.25.27.59-2.08,3.92-5.13,7.04-9.28,8.96-4.05,1.88-6.1,6.11-4.85,10.28,1.25,4.14,5.35,6.62,9.72,5.88.42-.07.83-.12,1.22-.18,2.73,7.5,10.96,8.91,16,2.99,5.75,4.93,10.11,5.4,15.2,1.66,2.08-1.52,3.51-3.44,4.19-5.94.85-3.14.04-5.99-1.65-8.76,3.49-1.36,5.76-3.68,6.28-7.33.55-3.76-1.21-6.57-4.04-8.76,2.59-5.08,1.84-9.5-1.98-12.17-3.86-2.7-7.78-1.6-12.05,2.11-2.64,2.3-6.25,3.53-9.49,5.09-1.16.55-1.92-.1-1.96-1.46-.1-3.42-.41-6.84-.28-10.24.14-3.5.84-7,3.04-9.88,1.98-2.6,4.5-4.63,7.8-5.2.71-.13,1.59.79,2.4,1.22-.5.67-.91,1.45-1.53,1.99-.46.41-1.21.47-1.78.79-1.61.89-2.23,2.22-1.69,4.03.64,2.14,2.26,3.63,3.94,3.51,1.87-.13,2.84-1.29,3.21-3.04.06-.27.11-.55.17-.83,3.29,1.1,5.37.52,8.12-2.25-1.57-.46-3.11-.82-4.59-1.36-1.94-.72-3.38-1.95-3.71-4.17-.5-3.37,1.71-6.27,5.4-7,3.78-.75,5.83.54,6.74,4.31.68,2.82.99,5.78,2.04,8.45,1.56,3.94,2.3,7.73.87,11.87-.77,2.23.38,3.66,2.75,3.91.71.07,1.46.02,2.17-.13,5.8-1.2,9.72-4.65,11.85-9.99,2.31.32,4.51.63,6.83.95-.31,5.13-1.52,9.97-4.92,13.95-3.91,4.57-9.29,4.51-14.67,4.06-.53,2.64,1.23,3.8,2.89,5.02-5.38,4.68-7.87,10.23-6.09,17.29,2.34-6.41,6.61-11.22,12.2-14.88,9.14-5.98,14.17-14.15,13.95-25.27-.01-.69.44-1.57,1.04-1.9,3.69-2.03,6.39-5.02,8.63-8.48.38-.59.79-1.28.84-1.96.31-4.26.1-8.49-1.89-12.36-.63-1.22-.36-1.92.36-2.86ZM585.98,363.09c-.51-1.66-1.04-3.3-1.57-4.97,6.23-.76,9.93,2.24,11.43,9.38.45-.25.87-.46,1.26-.7,3.33-2.02,8.33-1.11,10.63,2.02.31.43.35,1.23.22,1.8-1.01,4.65-3.47,6.76-8.24,7.15-.12.01-.23.13-.34.2,2.62,7.23,1.78,10.53-3.83,14.41-.55-1.66-1.05-3.28-1.61-4.87-1.15-3.27-3.06-5.6-6.4-7.22-6.11-2.95-5.79-1.77-2.53-7.82,1.72-3.19,1.96-6.12.97-9.39ZM552.28,333.66c-2.98-2.03-4.37-4.97-3.46-8.31,1.21-4.5.92-8.6-1.54-12.53,3.78-1.55,6.22-.63,9.3,3.47.49-.64.95-1.26,1.43-1.85,2.51-3.07,5.82-4.46,9.72-4.67,1.29-.07,1.79.44,2.08,1.63,1.11,4.55.35,8.66-2.91,12.42,3.96,1.11,6.59,3.2,6.35,7.83-4.58-1.06-8.53-.23-12.34,2.35-2.7,1.84-5.81,1.58-8.63-.35ZM556.84,474.62c3.63.61,6.58-.08,9.43-2.07,1.37-.95,2.7-1.96,4.16-3.02,2.43,6.25.93,10.03-5.51,13.96,4.13,2.71,4.47,6.44,2.94,10.68-.43,1.18-1.11,1.7-2.39,1.77-4.65.26-7.26-1.35-9.37-6.1-2.25,2.27-4.74,4.35-8.07,3.83-2.34-.36-4.56-1.49-7.31-2.43,2.34-1.8,4.09-3.06,5.75-4.43,2.22-1.83,3.27-4.13,3.72-7.09,1.12-7.31-.03-6.22,6.65-5.09ZM609.95,441.54c-3.92,2.26-7.93,2.67-12.33.83.13,4.18-1.15,7.29-5.52,8.49-.36-4.56-2.23-8.06-5.84-10.85-2.71-2.1-3.59-5.19-2.51-8.64,1.1-3.52,3.56-5.65,7.11-5.81,4.51-.2,8.18-1.73,11.13-5.37,2.59,3.43,2.49,5.51-.39,10.12,4.46,1.09,7.57,3.74,9.41,7.93.69,1.57.44,2.43-1.07,3.31Z"/>
    <path class="cls-1" d="M468.9,433.43v-59.68c0-3.27-.98-6.64-2.61-8.28h18.3c-1.63,1.63-2.72,5.01-2.72,8.28v59.68c0,3.27,1.09,6.64,2.72,8.28h-18.3c1.63-1.63,2.61-5.01,2.61-8.28Z"/>
    <path class="cls-1" d="M501.98,365.44h-10.18c0,.73,0,1.45,0,2.18h8.21c17.86,0,29.73,14.27,29.73,35.94s-11.87,35.94-29.73,35.94h-7.52c0,.73.02,1.45.03,2.18h9.45c23.41,0,41.17-16.44,41.17-38.12s-17.75-38.12-41.17-38.12Z"/>
  </g>
  <g>
    <path class="cls-1" d="M290.74,697.19v19.4h-3.55v-16.35h-7.65l-.17,4.85c-.09,2.72-.31,4.92-.66,6.61-.35,1.69-.91,2.98-1.69,3.85-.78.88-1.85,1.32-3.22,1.32-.48,0-1.14-.09-1.97-.28l.25-3.13c.24.07.52.11.83.11,1.13,0,1.93-.67,2.4-2.01.47-1.34.76-3.45.87-6.33l.28-8.04h14.27Z"/>
    <path class="cls-1" d="M310.75,713.57v3.02h-14.55v-19.4h14.16v3.02h-10.56v5.04h9.37v2.97h-9.37v5.35h10.95Z"/>
    <path class="cls-1" d="M331.95,697.19v19.4h-3.55v-16.35h-10.06v16.35h-3.55v-19.4h17.15Z"/>
    <path class="cls-1" d="M354.65,697.19v19.4h-3.6v-8.31h-10.03v8.31h-3.6v-19.4h3.6v8.01h10.03v-8.01h3.6Z"/>
    <path class="cls-1" d="M363.71,715.58c-1.59-.86-2.84-2.05-3.74-3.58-.91-1.52-1.36-3.23-1.36-5.11s.45-3.59,1.36-5.11c.9-1.52,2.15-2.72,3.74-3.58,1.59-.86,3.37-1.29,5.35-1.29s3.76.43,5.35,1.29c1.59.86,2.84,2.05,3.74,3.56.91,1.52,1.36,3.22,1.36,5.13s-.45,3.61-1.36,5.13c-.9,1.52-2.15,2.7-3.74,3.56-1.59.86-3.37,1.29-5.35,1.29s-3.76-.43-5.35-1.29ZM372.55,712.84c1.03-.58,1.85-1.4,2.44-2.44.59-1.04.89-2.21.89-3.51s-.3-2.46-.89-3.51c-.59-1.04-1.4-1.86-2.44-2.44-1.04-.58-2.2-.87-3.49-.87s-2.46.29-3.49.87c-1.04.58-1.85,1.4-2.44,2.44-.59,1.04-.89,2.21-.89,3.51s.29,2.46.89,3.51c.59,1.04,1.4,1.86,2.44,2.44,1.03.58,2.2.87,3.49.87s2.46-.29,3.49-.87Z"/>
    <path class="cls-1" d="M383.52,697.19h3.55v13.77l10.42-13.77h3.35v19.4h-3.55v-13.75l-10.42,13.75h-3.35v-19.4ZM388.39,694.87c-.84-.68-1.27-1.68-1.29-2.99h2.52c.02.68.24,1.21.66,1.58.43.37,1.04.55,1.86.55s1.42-.18,1.87-.55c.45-.37.69-.9.71-1.58h2.49c-.02,1.29-.46,2.29-1.32,2.98-.86.69-2.11,1.04-3.76,1.04s-2.92-.34-3.76-1.03Z"/>
    <path class="cls-1" d="M433.16,713.55v7.18h-3.33v-4.13h-14.88v4.13h-3.35l.03-7.18h.83c1.22-.06,2.07-.96,2.56-2.7.49-1.75.79-4.24.9-7.5l.22-6.15h14.22v16.35h2.8ZM418.47,709.96c-.31,1.67-.81,2.87-1.5,3.59h9.84v-13.3h-7.59l-.14,3.44c-.09,2.51-.3,4.61-.61,6.28Z"/>
    <path class="cls-1" d="M451.09,713.57v3.02h-14.55v-19.4h14.16v3.02h-10.56v5.04h9.37v2.97h-9.37v5.35h10.95Z"/>
    <path class="cls-1" d="M462.26,708.42h-3.6v8.18h-3.55v-19.4h3.55v8.12h3.71l5.57-8.12h3.82l-6.62,9.4,6.87,10h-4.07l-5.68-8.18Z"/>
    <path class="cls-1" d="M478.05,715.58c-1.59-.86-2.84-2.05-3.74-3.58-.91-1.52-1.36-3.23-1.36-5.11s.45-3.59,1.36-5.11c.9-1.52,2.15-2.72,3.74-3.58,1.59-.86,3.37-1.29,5.35-1.29s3.76.43,5.35,1.29c1.59.86,2.84,2.05,3.74,3.56.91,1.52,1.36,3.22,1.36,5.13s-.45,3.61-1.36,5.13c-.9,1.52-2.15,2.7-3.74,3.56-1.59.86-3.37,1.29-5.35,1.29s-3.76-.43-5.35-1.29ZM486.9,712.84c1.03-.58,1.85-1.4,2.44-2.44.59-1.04.89-2.21.89-3.51s-.3-2.46-.89-3.51c-.59-1.04-1.4-1.86-2.44-2.44-1.04-.58-2.2-.87-3.49-.87s-2.46.29-3.49.87c-1.04.58-1.85,1.4-2.44,2.44-.59,1.04-.89,2.21-.89,3.51s.29,2.46.89,3.51c.59,1.04,1.4,1.86,2.44,2.44,1.03.58,2.2.87,3.49.87s2.46-.29,3.49-.87Z"/>
    <path class="cls-1" d="M510.22,698.02c1.25.55,2.2,1.35,2.87,2.38.66,1.04,1,2.26,1,3.69s-.33,2.63-1,3.67c-.66,1.04-1.62,1.84-2.87,2.4-1.25.55-2.71.83-4.39.83h-4.38v5.6h-3.6v-19.4h7.98c1.68,0,3.15.28,4.39.83ZM509.23,706.95c.81-.66,1.22-1.62,1.22-2.85s-.41-2.19-1.22-2.85-2-1-3.58-1h-4.21v7.7h4.21c1.57,0,2.76-.33,3.58-1Z"/>
    <path class="cls-1" d="M525.44,697.19h3.55v13.77l10.42-13.77h3.35v19.4h-3.55v-13.75l-10.42,13.75h-3.35v-19.4Z"/>
    <path class="cls-1" d="M563,708.42h-3.6v8.18h-3.55v-19.4h3.55v8.12h3.71l5.57-8.12h3.82l-6.62,9.4,6.87,10h-4.07l-5.68-8.18Z"/>
    <path class="cls-1" d="M589.77,713.57v3.02h-14.55v-19.4h14.16v3.02h-10.56v5.04h9.37v2.97h-9.37v5.35h10.95Z"/>
    <path class="cls-1" d="M606.16,698.02c1.25.55,2.2,1.35,2.87,2.38.66,1.04,1,2.26,1,3.69s-.33,2.63-1,3.67-1.62,1.84-2.87,2.4c-1.25.55-2.71.83-4.39.83h-4.38v5.6h-3.6v-19.4h7.98c1.68,0,3.15.28,4.39.83ZM605.18,706.95c.81-.66,1.22-1.62,1.22-2.85s-.41-2.19-1.22-2.85-2-1-3.58-1h-4.21v7.7h4.21c1.57,0,2.76-.33,3.58-1Z"/>
    <path class="cls-1" d="M625.32,712.1h-9.7l-1.91,4.49h-3.71l8.73-19.4h3.55l8.76,19.4h-3.77l-1.94-4.49ZM624.13,709.28l-3.66-8.48-3.63,8.48h7.29Z"/>
    <path class="cls-1" d="M651.82,716.59l-.03-12.86-6.37,10.64h-1.61l-6.37-10.48v12.69h-3.41v-19.4h2.96l7.68,12.83,7.59-12.83h2.94l.06,19.4h-3.44Z"/>
    <path class="cls-1" d="M660.72,697.19h3.55v13.77l10.42-13.77h3.35v19.4h-3.55v-13.75l-10.42,13.75h-3.35v-19.4Z"/>
    <path class="cls-1" d="M690.62,708.42h-3.6v8.18h-3.55v-19.4h3.55v8.12h3.71l5.57-8.12h3.82l-6.62,9.4,6.87,10h-4.07l-5.68-8.18Z"/>
    <path class="cls-1" d="M715.37,712.1h-9.7l-1.91,4.49h-3.71l8.73-19.4h3.55l8.76,19.4h-3.77l-1.94-4.49ZM714.17,709.28l-3.66-8.48-3.63,8.48h7.29Z"/>
  </g>
</svg>