<?xml version="1.0" encoding="UTF-8"?>
<svg id="Layer_1" data-name="Layer 1" xmlns="http://www.w3.org/2000/svg" viewBox="0 0 1000 1000">
  <defs>
    <style>
      .cls-1, .cls-2 {
        fill: #fff;
      }

      .cls-2 {
        fill-rule: evenodd;
      }
    </style>
  </defs>
  <path class="cls-2" d="M399.03,554.08c-2.14-2.55-4.99-3.83-8.56-3.83-3.57-.04-6.34.85-8.29,2.65-.88.75-1.61,1.57-2.21,2.46v-15.81h-3.57v40.82h3.57v-5.01c.42.55.88,1.13,1.36,1.74,2.04,2.42,4.8,3.63,8.3,3.63,3.5-.03,6.37-1.21,8.61-3.53,2.91-3.03,4.35-7.13,4.35-12.28,0-4.33-1.19-7.94-3.57-10.85ZM396.04,574.55c-1.82,1.8-4.08,2.71-6.77,2.71-2.38-.03-4.66-1.26-6.83-3.69-1.43-1.7-2.26-3.87-2.47-6.49v-3.17c.28-3.27,1.14-5.7,2.58-7.27,1.86-1.94,4.03-2.91,6.51-2.91,3.01,0,5.33.92,6.93,2.76,2.04,2.28,3.05,5.1,3.05,8.43,0,4.4-.99,7.61-2.99,9.62Z"/>
  <path class="cls-2" d="M421.27,577.57l-12.81-26.91h3.57l10.97,22.82,9.87-22.82h3.57l-12.13,27.93c-1.5,3.3-2.94,5.35-4.3,6.16-1.19.74-2.52,1.11-3.99,1.11h-4.31v-3.48h4.15c2.06.03,3.73-1.23,4.99-3.79l.42-1.02Z"/>
  <path class="cls-2" d="M482.02,580.38v-18.37c0-2.83-.58-4.91-1.73-6.24-1.19-1.43-3.06-2.15-5.62-2.15-1.61,0-2.96.39-4.04,1.18-1.23.96-2.12,2.13-2.68,3.53-.46,1.16-.74,2.56-.84,4.2v17.85h-3.57v-29.77h3.57v3.89c.63-1.09,1.29-1.87,2-2.35,1.89-1.4,4.1-2.1,6.62-2.1,1.89,0,3.62.41,5.2,1.23,1.37.75,2.49,1.82,3.36,3.22.11.17.23.41.37.72.91-1.43,1.66-2.37,2.26-2.81,2.17-1.6,4.57-2.39,7.19-2.35,1.96,0,3.69.41,5.2,1.23,1.44.75,2.57,1.82,3.41,3.22.91,1.37,1.35,3.87,1.31,7.52v18.37h-3.57v-18.37c0-2.83-.58-4.91-1.73-6.24-1.23-1.43-3.12-2.15-5.67-2.15-1.54,0-2.85.39-3.94,1.18-1.3.96-2.19,2.13-2.68,3.53-.46,1.16-.74,2.56-.84,4.2v17.85h-3.57Z"/>
  <path class="cls-2" d="M514.97,539.55v4.3h3.94v-4.3h-3.94ZM515.19,550.6v29.77h3.57v-29.77h-3.57Z"/>
  <path class="cls-2" d="M529.28,580.38v-29.77h3.57v3.73c.74-.99,1.38-1.64,1.94-1.94,2.38-1.6,5.06-2.39,8.04-2.35,2.17,0,4.1.41,5.78,1.23,1.57.75,2.84,1.82,3.78,3.22,1.02,1.37,1.51,3.87,1.47,7.52v18.37h-3.57v-18.37c0-2.83-.68-4.91-2.05-6.24-1.4-1.43-3.61-2.15-6.62-2.15-1.82,0-3.38.39-4.67,1.18-1.44.96-2.47,2.13-3.1,3.53-.49,1.16-.82,2.59-1,4.3v17.75h-3.57Z"/>
  <path class="cls-2" d="M574.26,577.57l-12.81-26.91h3.57l10.98,22.82,9.87-22.82h3.57l-12.13,27.93c-1.51,3.3-2.94,5.35-4.31,6.16-1.19.74-2.52,1.11-3.99,1.11h-4.31v-3.48h4.15c2.07.03,3.73-1.23,4.99-3.79l.42-1.02Z"/>
  <path class="cls-2" d="M620.86,556.38c-1.05-1.87-2.63-3.39-4.73-4.55-1.89-1.06-4.18-1.58-6.88-1.58-3.02,0-5.41.56-7.2,1.68-2.14,1.33-3.77,2.95-4.89,4.86-1.33,2.32-1.99,5.1-1.99,8.33.03,3.52.61,6.4,1.73,8.65,1.15,2.15,2.71,3.82,4.68,5.02,2.2,1.29,4.71,1.94,7.51,1.94,3.18,0,5.9-.74,8.14-2.2,1.82-1.19,3.27-2.94,4.35-5.22.95-2.01,1.43-4.64,1.43-7.88,0-3.55-.72-6.56-2.15-9.06ZM618.39,571.79c-.67,1.61-1.76,2.9-3.3,3.88-1.5,1.06-3.5,1.59-5.98,1.59-2.07-.04-3.87-.53-5.41-1.49-1.43-.96-2.61-2.23-3.52-3.84-.95-1.8-1.42-4.07-1.42-6.81.03-2.79.54-5.03,1.52-6.7.95-1.53,2.12-2.69,3.52-3.48,1.4-.82,3.23-1.23,5.47-1.23,2.03,0,3.87.49,5.51,1.48,1.22.75,2.33,1.93,3.3,3.53.91,1.53,1.37,3.77,1.37,6.7,0,2.59-.35,4.71-1.06,6.34Z"/>
  <path class="cls-2" d="M656.07,550.61v29.77h-3.57v-5.47c-.77,1.36-1.96,2.64-3.57,3.84-1.75,1.3-4.15,1.96-7.2,2-3.4,0-5.92-.89-7.56-2.66-1.75-1.94-2.64-4.89-2.68-8.85v-18.62h3.57v18.62c0,2.52.61,4.49,1.84,5.88,1.23,1.4,3.17,2.11,5.83,2.15,2.59,0,4.74-.77,6.46-2.3,2.21-2.01,3.31-4.61,3.31-7.78v-16.58h3.57Z"/>
  <path class="cls-2" d="M666.22,580.38v-29.77h3.57v3.73c.74-.99,1.38-1.64,1.94-1.94,2.38-1.6,5.06-2.39,8.04-2.35,2.17,0,4.1.41,5.78,1.23,1.57.75,2.84,1.82,3.78,3.22,1.02,1.37,1.51,3.87,1.47,7.52v18.37h-3.57v-18.37c0-2.83-.68-4.91-2.05-6.24-1.4-1.43-3.61-2.15-6.62-2.15-1.82,0-3.38.39-4.67,1.18-1.44.96-2.47,2.13-3.1,3.53-.49,1.16-.82,2.59-1,4.3v17.75h-3.57Z"/>
  <path class="cls-2" d="M704.62,556.28c0,.81-.45,1.2-1.36,1.17h-2.14v-2.32h2.29c.78.02,1.18.41,1.21,1.14Z"/>
  <path class="cls-2" d="M702.91,551.54c-3.44,0-6.23,2.79-6.23,6.23s2.79,6.23,6.23,6.23,6.23-2.79,6.23-6.23-2.79-6.23-6.23-6.23ZM705.83,561.14h-1.14c-.05-.12-.09-.34-.11-.66-.02-.34-.04-.69-.04-1.03.02-.81-.38-1.21-1.21-1.21h-2.21v2.91h-.92v-6.73h3.12c1.47.02,2.22.63,2.25,1.81,0,.76-.32,1.3-.96,1.61.52.17.78.6.81,1.29l.07,1.21c-.05.37.06.59.34.66v.15Z"/>
  <path class="cls-2" d="M341.74,362.81c2.04.56,17.8-.69,22.48-1.46,4.68-.77,14.69-2.7,16.5-3.39,1.8-.69,1.5-2.72,1.72-4.55.23-1.83,0-2.67-1.81-3.06-5.38-1.15-11.8-2.8-21.43-5.52-13.65-3.86-18.28-6.28-22.12-5.74-5.77.81-4.24,5.93-2.34,11.65,1.9,5.73,3.5,11.1,7,12.06Z"/>
  <path class="cls-2" d="M669.98,346.06c3.32.28,9.78,5.34,12.22,9.23,2.44,3.89,5.31,7.21,3.2,18.68-2.02,10.96-9.52,61.67-9.57,72.92-.06,13.16-1.35,14.89-4.26,15.18-2.91.29-15.07-8.87-16.71-10-2.23-1.53-3.07-3.78-2.23-12.6.84-8.82,11.02-77.47,12.24-86.95.79-6.14,2.69-6.67,5.12-6.46Z"/>
  <path class="cls-2" d="M647.97,483.04c1.26-1.59,3.09-3.37,5.41-2.51,2.49.92,7.72,3.21,11.91,6.46,4.19,3.25,13.16,9.6,4.12,18.19-.84.8-10.46,4.02-19.71-11.81-1.89-3.23-3.41-8.2-1.73-10.33Z"/>
  <path class="cls-2" d="M190.5,243.53c-5.25-2.47-8.67-3.67-11.16-3.68-1.22-.01-2.21.26-3.08.8-1.38.86-2.63,3.37-4.06,6.38-8.35,17.58-24.75,60.1-32.64,95.08-2.29,10.16-7.74,37.04-7.71,67.32.03,32.23,6.27,68.32,29.12,92.17,9.35,9.76,27.57,24.07,57.63,24.13,6.94.01,14.5-.73,22.74-2.47,31.61-6.66,78.59-53.54,78.59-53.54,0,0,7.43,41.36,42.56,43.81,38.66,2.7,91.38-35.23,93.17-36.22,1.79-.98,2.48-1.78,3.99-.33,1.51,1.45,4.91,21.27,23.41,25.16,18.52,3.89,35.94-3.81,41.6-7.03,1.45-.83,3.7-2.48,4.81-1.97,2.28,1.04,4.3,6.62,11.43,12.75,8.59,7.39,29.99,9.76,49.43-4.18,20.11-14.43,39.86-34.63,31.26-41.91-.95-.8-4.5-4.04-11.79,1.27-7.28,5.32-35.09,27.49-48.58,33.12-6.13,2.56-12.98,3.41-14.93-3.15-1.84-6.18,10.05-20.76,13.26-24.62,3.2-3.86,7.84-8.31,8.52-11,.65-2.58-.29-6.48-5.25-10.78-4.95-4.3-9.43-4.95-11.94-2.91-2.5,2.04-11.32,12.67-17.11,17.63-4.18,3.59-26.74,23.41-43.84,27.45-2.4.57-5.37.67-7.79-1.75-2.14-2.14-1.58-11.98,7.34-21.59,9.22-9.95,20.3-18.09,34.61-24.87,14.31-6.78,22.35-9.85,24.65-13.56,2.3-3.7,3.25-9.24-3.53-13.17-6.43-3.73-9.61-4.22-20.1.07-10.49,4.3-51.79,29.18-59.17,33.32-7.03,3.95-43.47,24.89-58.12,33.43-8.59,5-37.71,20.82-50.79,16.81-14.9-4.57-14.42-24.78-11.94-33.81,2.48-9.03,14.56-29.2,15.59-30.81,1.02-1.6.78-4.63-1.18-6.52-1.96-1.89-12.73-11.36-17.23-10.02-4.73,1.41-14.35,9.4-21.42,15.81-6.79,6.16-28.04,25.27-39.65,35.4-10.38,9.05-39.73,37.07-65.83,40.34-10.19,1.28-22.01,2.34-35.31-6.27-12.76-8.26-19.88-27.6-23.9-47.3-6.84-33.57,3.84-96.28,12.71-122.89,12.53-37.58,26.58-64.49,29.86-71.97.97-2.21,2.39-4.96,1.37-7.13-1.04-2.21-3.17-3.79-9.56-6.8Z"/>
  <path class="cls-2" d="M388.34,732.85v-2.27h-4.32v-6.73h-2.6v6.73h-4.71v2.27h4.71v10.03l-5.02,1.39.66,2.19,4.36-1.27v11.38c-.03.72-.44,1.08-1.23,1.08h-2.65l.75,2.26h2.33c2.26-.02,3.39-1.01,3.39-2.96v-12.49l4.14-1.16v-2.26l-4.14,1.11v-9.3h4.32ZM400.58,733.97v-4.96h2.38v-2.27h-2.38v-2.88h-2.59v2.88h-3.92v-2.88h-2.6v2.88h-2.42v2.27h2.42v4.96h-2.95v2.27h15.15v-2.27h-3.09ZM397.98,733.97h-3.92v-4.96h3.92v4.96ZM389.17,739.04v21.11h2.6v-7.31h8.68v3.73c-.03.72-.45,1.08-1.24,1.08h-3.34l.74,2.26h3.04c2.26-.02,3.4-1.01,3.4-2.96v-17.92h-13.88ZM400.46,750.58h-8.68v-3.42h8.68v3.42ZM400.46,744.88h-8.68v-3.57h8.68v3.57ZM413.32,750.04l.57-1.46c1.47-4.21,2.21-9.22,2.21-15.04v-3h1.5v-2.27h-8.29l.62-4.34-2.47-.23c-.79,5.87-2.29,10.56-4.5,14.07l2.08,1.65c.91-1.49,1.68-3.02,2.33-4.61.32,4.82.96,8.73,1.9,11.73l1.28,3.42c-1.47,3.1-3.79,6-6.96,8.68l2.38,1.27c2.47-2.2,4.42-4.56,5.86-7.07,1.09,2.2,2.4,4.6,3.92,7.19l2.25-1.35c-1.97-3.2-3.53-6.08-4.68-8.65ZM411.42,745.2c-1.11-3.56-1.72-8.45-1.8-14.65h3.88v3c0,4.87-.56,9.18-1.68,12.92l-.4-1.27Z"/>
  <path class="cls-2" d="M425.36,748.85v2.35h30.35v-2.35h-30.35ZM456.6,740.69l4.36-14.46.22-1.23h-32.12v2.35h28.77l-4.01,13.34h-16.83l3.34-8.96-2.69-.42-4.23,11.73h28.19v8.5c-.02,3.95-2.82,5.92-8.36,5.92-2.21-.05-4.36-.18-6.48-.38l.96,2.69h5.73c7.22,0,10.84-2.22,10.84-6.66v-12.42h-7.71Z"/>
  <path class="cls-2" d="M481.34,742.54c-1,2.26-2.21,4.25-3.62,6-1.41,1.79-3.17,3.42-5.29,4.89l2.73,1.46c2-1.56,3.69-3.29,5.07-5.19,1.44-1.95,2.62-4.03,3.52-6.23l-2.42-.92ZM508.47,729.31h-25.33l1.72-4.57-2.56-.7c-.82,2.75-1.93,5.23-3.34,7.46-1.44,2.23-3.29,4.35-5.55,6.34l2.91,1.23c2.11-2.08,3.87-4.29,5.25-6.65l.39-.77h24.76c-.67,1.97-1.85,3.92-3.52,5.84l2.42,1.35c2.15-2.65,3.56-5.4,4.23-8.27l-1.36-1.27ZM491.47,735.23v20.77c-.02.87-.52,1.31-1.5,1.31h-5.07l.97,2.34h4.58c2.47-.02,3.7-1.1,3.7-3.23v-21.19h-2.69ZM503.81,742.85l-2.03,1.58c2.7,2.12,5.79,5.29,9.25,9.5l2.11-1.5c-3.26-4.05-6.37-7.24-9.33-9.58Z"/>
  <path class="cls-2" d="M541.93,748.58v-6.19h15.07v-2.26h-32.25v2.26h14.58v6.19h-18.98v2.27h18.98v9.3h2.6v-9.3h18.94v-2.27h-18.94ZM560.08,731.39v-6.04h-38.9v8.19h2.6v-5.92h20.31v7c.03,1.79.85,2.69,2.47,2.69h8.68c2.06-.02,3.09-1.01,3.09-2.96v-1.57l-2.6-.66v1.85c-.03.72-.44,1.07-1.23,1.07h-6.7c-.74-.05-1.1-.37-1.1-.96v-6.46h10.79v3.77h2.6ZM533.96,728.27c-1.53,2.08-3.12,3.64-4.8,4.69-1.71,1.08-3.92,2-6.66,2.77l1.24,2.08c2.97-.95,5.32-1.99,7.05-3.12,1.79-1.23,3.51-2.94,5.15-5.15l-1.98-1.27Z"/>
  <path class="cls-2" d="M569.88,725.66v28.8h2.6v-3h11.64v-25.8h-14.24ZM581.52,749.19h-9.04v-9.42h9.04v9.42ZM581.52,737.51h-9.04v-9.58h9.04v9.58ZM588.21,724.89v20.19c0,3.26-.67,5.96-1.98,8.11-1.32,2.18-4.06,3.8-8.2,4.85l1.85,1.88c4.03-1.15,6.84-2.87,8.47-5.15,1.5-2.18,2.3-5.03,2.42-8.54h13.83v10.35c-.02.72-.44,1.08-1.23,1.08h-6.7l.74,2.26h6.39c2.26-.02,3.39-1.01,3.39-2.96v-32.07h-18.98ZM604.6,743.97h-13.78v-6.96h13.78v6.96ZM604.6,734.73h-13.78v-7.57h13.78v7.57Z"/>
  <path class="cls-2" d="M637.93,744.27v-6.96h13.66v-2.26h-30.67v2.26h14.41v6.96h-19.52v2.27h19.52v9.49c0,1.08-.62,1.62-1.85,1.62h-6.26l.75,2.26h5.64c2.87-.02,4.32-1.28,4.32-3.77v-9.61h18.59v-2.27h-18.59ZM637.57,727.82v-3.96h-2.6v3.96h-18.33v9.57h2.6v-7.31h34.05v7.31h2.6v-9.57h-18.33Z"/>
  <path class="cls-2" d="M664.11,726.09v2.34h39.69v-2.34h-39.69ZM667.07,732.54v27.46h2.69v-25.11h9.3v20.96c-.03.87-.53,1.31-1.5,1.31h-3.66l.97,2.35h3.17c2.47-.03,3.7-1.1,3.7-3.23v-23.73h-14.67ZM674.6,739.89l-2.65.58c.92,2.15,1.64,5.11,2.21,8.88l2.69-.42c-.53-3.61-1.28-6.63-2.25-9.04ZM685.92,732.54v27.46h2.69v-25.11h9.82v20.96c-.02.87-.52,1.31-1.5,1.31h-3.66l.97,2.35h3.17c2.47-.03,3.7-1.1,3.7-3.23v-23.73h-15.2ZM693.63,739.89l-2.64.58c.91,2.2,1.64,5.22,2.2,9.04l2.69-.42c-.52-3.7-1.28-6.76-2.25-9.19Z"/>
  <path class="cls-2" d="M723.34,739.66v-12.19h3.44v-2.26h-14.98v2.26h8.94v12.19h-6.34l2.03-9.77-2.6-.42-2.51,12.45h8.11l-2.81,5.08c-1.12,1.77-3,4.1-5.65,6.99l1.24,2.39c2.64-2.77,4.61-5.15,5.9-7.12l2.64-4.73v12.04c-.03.72-.44,1.08-1.23,1.08h-4.23l.74,2.26h3.92c2.26-.02,3.39-1.01,3.39-2.96v-15.04h3.62v-2.26h-3.62ZM752.15,732.39v-2.27h-9.38l1.63-5.5-2.51-.66-1.86,6.16h-7.97c.82-1.87,1.48-3.83,1.98-5.88l-2.38-.5c-1.64,5.41-3.74,9.64-6.3,12.69l1.76,1.89c.88-1.05,1.69-2.17,2.42-3.34v25.03h2.6v-1.76h20v-2.27h-9.43v-6.19h8.02v-2.27h-8.02v-6.49h8.02v-2.27h-8.02v-6.34h9.43ZM740.13,755.96h-7.98v-6.19h7.98v6.19ZM740.13,747.5h-7.98v-6.49h7.98v6.49ZM740.13,738.74h-7.98v-6.34h7.98v6.34Z"/>
  <path class="cls-2" d="M784.47,736.62l-3.74-2-1.41,1.73,3.66,2.08,3.61,2.54,1.72-1.81-3.84-2.54ZM786.63,745.5c-2.03,5.15-4.41,9.14-7.13,11.96l1.63,1.97c3.44-3.44,6.06-7.86,7.89-13.27l-2.38-.66ZM786.11,726.78l-3.22-1.85-1.46,1.73,3.09,1.85,3.13,2.26,1.72-1.76-3.26-2.23ZM820.34,727.62v-2.27h-29.78v2.27h9.65v4.96h-8.29v27.42h2.6v-2.23h22.07v2.23h2.6v-27.42h-8.63v-4.96h9.78ZM802.81,727.62h5.15v4.96h-5.15v-4.96ZM816.59,755.5h-22.07v-4.19h22.07v4.19ZM816.59,749.04h-22.07v-14.19h5.69v3.16c0,1.43-.31,2.69-.92,3.77-.65,1.07-1.9,2.08-3.74,3l2.07,1.65c2.02-1.13,3.38-2.33,4.05-3.62.77-1.38,1.15-2.98,1.15-4.8v-3.16h5.15v7.85c.02,1.43.85,2.15,2.47,2.15h6.16v4.2ZM816.59,734.85v7.73h-5.42c-.41-.02-.61-.2-.61-.54v-7.19h6.03Z"/>
  <path class="cls-2" d="M850.44,726.89v-3.04h-2.59v3.04h-17.63v18.95c0,2.26-.2,4.39-.61,6.38-.42,2-1.18,4.12-2.29,6.35l2.29,1.46c1.26-2.56,2.1-4.97,2.51-7.23.47-2.36.7-4.68.7-6.96v-16.69h35.33v-2.26h-17.71ZM867.27,738.54v-2.26h-16.83v-5.04h-2.59v13.04h-11.64v15.88h2.6v-2.39h24.72v2.39h2.6v-15.88h-15.69v-5.73h16.83ZM863.53,746.54v8.96h-24.72v-8.96h24.72Z"/>
  <path class="cls-2" d="M766.37,730.82c0,1.08-.6,1.61-1.82,1.57h-2.85v-3.09h3.05c1.05.03,1.59.54,1.62,1.53Z"/>
  <path class="cls-2" d="M764.1,724.49c-4.6,0-8.32,3.73-8.32,8.32s3.72,8.32,8.32,8.32,8.32-3.72,8.32-8.32-3.73-8.32-8.32-8.32ZM768,737.3h-1.53c-.06-.16-.12-.46-.15-.88-.03-.46-.05-.92-.05-1.38.03-1.08-.51-1.62-1.62-1.62h-2.95v3.88h-1.23v-9h4.18c1.97.04,2.96.84,3,2.41,0,1.02-.43,1.74-1.28,2.16.69.23,1.05.81,1.09,1.72l.09,1.62c-.06.49.08.78.45.88v.2Z"/>
  <path class="cls-2" d="M394.99,617.56c-.17-4.29-3.46-6.21-7.42-6.21-3.08,0-6.71,1.21-6.71,4.89,0,3.02,3.46,4.18,5.88,4.78l4.62,1.05c3.96.6,8.08,2.91,8.08,7.86,0,6.16-6.1,8.52-11.38,8.52-6.65,0-11.05-3.02-11.66-10.01h3.47c.27,4.67,3.74,7.09,8.36,7.09,3.3,0,7.75-1.43,7.75-5.39,0-3.3-3.08-4.4-6.21-5.17l-4.45-.99c-4.51-1.15-7.92-2.8-7.92-7.59,0-5.77,5.66-7.97,10.67-7.97,5.72,0,10.12,2.97,10.39,9.13h-3.46Z"/>
  <path class="cls-2" d="M415.44,609.25h5.77v2.92h-5.77v19.13c0,2.25.33,3.57,2.8,3.74.99,0,1.98-.06,2.97-.17v2.97c-1.04,0-2.03.11-3.08.11-4.62,0-6.21-1.54-6.16-6.38v-19.41h-4.95v-2.92h4.95v-8.52h3.46v8.52Z"/>
  <path class="cls-2" d="M455.36,634.71c-1.38,0-2.04-.71-2.04-2.09v-15.07c0-7.64-5.44-9.12-10.45-9.12-6.55,0-11.11,2.86-11.5,9.51h3.47c.16-4.61,3.24-6.59,7.59-6.59,4.12,0,7.42,1.15,7.42,5.83,0,3.08-1.59,3.57-4.45,3.85-7.48.88-15.23,1.21-15.23,9.12,0,5.72,4.24,8.3,9.51,8.3s7.86-2.09,10.34-5.77h.11c0,2.91.56,4.95,4.07,4.95.93,0,1.43-.05,2.26-.22v-2.91c-.38.16-.71.22-1.1.22ZM449.85,626.63c0,5.55-4.56,8.9-9.89,8.9-3.3,0-6.33-2.15-6.33-5.61,0-5.5,7.31-5.5,13.2-6.55.94-.16,2.47-.44,2.91-1.26h.11v4.51Z"/>
  <path class="cls-2" d="M465.74,609.25h3.19v6.65h.11c1.76-4.62,5.61-7.26,10.72-7.04v3.46c-6.27-.28-10.56,4.23-10.56,10.17v15.12h-3.46v-28.37Z"/>
  <path class="cls-2" d="M505.54,617.56c-.17-4.29-3.46-6.21-7.42-6.21-3.08,0-6.71,1.21-6.71,4.89,0,3.02,3.46,4.18,5.88,4.78l4.62,1.05c3.96.6,8.08,2.91,8.08,7.86,0,6.16-6.1,8.52-11.38,8.52-6.65,0-11.05-3.02-11.66-10.01h3.46c.27,4.67,3.74,7.09,8.36,7.09,3.3,0,7.75-1.43,7.75-5.39,0-3.3-3.08-4.4-6.21-5.17l-4.45-.99c-4.51-1.15-7.92-2.8-7.92-7.59,0-5.77,5.66-7.97,10.67-7.97,5.72,0,10.12,2.97,10.39,9.13h-3.46Z"/>
  <path class="cls-2" d="M553.26,608.43c-8.63,0-13.41,6.88-13.41,15.01s4.78,15,13.41,15,13.42-6.87,13.42-15-4.78-15.01-13.42-15.01ZM553.26,635.53c-6.59,0-9.95-6.1-9.95-12.09s3.35-12.1,9.95-12.1,9.95,6.1,9.95,12.1-3.35,12.09-9.95,12.09Z"/>
  <path class="cls-2" d="M588.29,612.17h-5.61v25.46h-3.46v-25.46h-4.84v-2.92h4.84v-2.58c0-4.89,1.26-8.3,6.87-8.3,1.04,0,1.81.06,2.91.22v2.97c-.93-.16-1.7-.27-2.53-.27-3.79,0-3.79,2.47-3.79,5.5v2.47h5.61v2.92Z"/>
  <path class="cls-2" d="M640.85,637.62h-3.19v-5.11h-.11c-1.81,3.79-5.55,5.94-9.79,5.94-7.2,0-9.95-4.12-9.95-10.78v-18.42h3.46v18.47c.17,5.11,2.09,7.81,7.59,7.81,5.94,0,8.52-5.61,8.52-11.38v-14.9h3.46v28.37Z"/>
  <rect class="cls-1" x="652.94" y="598.37" width="3.46" height="39.26"/>
  <path class="cls-2" d="M691.54,637.62h-3.19v-5.11h-.11c-1.81,3.79-5.55,5.94-9.79,5.94-7.2,0-9.95-4.12-9.95-10.78v-18.42h3.46v18.47c.17,5.11,2.09,7.81,7.59,7.81,5.94,0,8.52-5.61,8.52-11.38v-14.9h3.46v28.37Z"/>
  <path class="cls-2" d="M724.09,609.25v4.89h-.11c-1.38-3.13-4.84-5.72-9.02-5.72-8.19,0-12.81,6.48-12.81,14.29s3.74,14.57,12.81,14.57c4.13,0,7.42-2.31,9.02-5.83h.11v3.85c0,6.99-2.69,10.72-9.13,10.72-3.79,0-7.59-1.48-8.3-5.66h-3.46c.44,5.99,6.1,8.58,11.76,8.58,9.19,0,12.59-5.11,12.59-13.63v-26.06h-3.46ZM714.95,634.38c-6.43,0-9.34-5.56-9.34-11.28s2.75-11.76,9.34-11.76,9.13,6.21,9.13,11.76-3.13,11.28-9.13,11.28Z"/>
  <path class="cls-2" d="M753.05,608.43c-4.17,0-8.41,2.15-9.84,6.21h-.1v-16.27h-3.47v39.26h3.19v-5.39h.11c1.6,3.9,5.5,6.21,10.12,6.21,8.64,0,12.76-6.92,12.76-15s-4.12-15.01-12.76-15.01ZM753.05,635.53c-7.31,0-9.95-6.21-9.95-12.09s2.64-12.1,9.95-12.1c6.6,0,9.3,6.21,9.3,12.1s-2.69,12.09-9.3,12.09Z"/>
  <path class="cls-2" d="M788.07,608.43c-9.01,0-12.81,7.53-12.81,15.01,0,8.08,3.8,15,12.81,15,7.2,0,10.89-3.74,12.37-10.17h-3.46c-1.1,4.35-3.85,7.26-8.91,7.26-6.59,0-9.34-6.1-9.34-11.16h21.83c.27-7.97-3.41-15.94-12.48-15.94ZM778.73,621.46c.6-5.17,3.63-10.12,9.34-10.12s8.86,4.89,9.02,10.12h-18.36Z"/>
  <polygon class="cls-2" points="810.73 598.37 814.19 598.37 814.19 623 829.92 609.25 834.53 609.25 822.44 619.75 835.36 637.62 831.02 637.62 819.8 622.17 814.19 626.85 814.19 637.62 810.73 637.62 810.73 598.37"/>
  <path class="cls-2" d="M394.99,675.87c-.17-4.29-3.46-6.21-7.42-6.21-3.08,0-6.71,1.21-6.71,4.89,0,3.02,3.46,4.18,5.88,4.78l4.62,1.05c3.96.6,8.08,2.91,8.08,7.86,0,6.16-6.1,8.52-11.38,8.52-6.65,0-11.05-3.02-11.66-10.01h3.47c.27,4.67,3.74,7.09,8.36,7.09,3.3,0,7.75-1.43,7.75-5.39,0-3.3-3.08-4.4-6.21-5.17l-4.45-.99c-4.51-1.15-7.92-2.8-7.92-7.59,0-5.77,5.66-7.97,10.67-7.97,5.72,0,10.12,2.97,10.39,9.13h-3.46Z"/>
  <path class="cls-2" d="M433.58,693.02c-1.38,0-2.04-.71-2.04-2.09v-15.07c0-7.64-5.44-9.12-10.45-9.12-6.55,0-11.11,2.86-11.5,9.52h3.47c.16-4.62,3.24-6.6,7.59-6.6,4.12,0,7.42,1.16,7.42,5.83,0,3.08-1.59,3.58-4.45,3.85-7.48.88-15.23,1.21-15.23,9.12,0,5.72,4.23,8.3,9.51,8.3s7.86-2.08,10.34-5.77h.12c0,2.91.55,4.95,4.06,4.95.93,0,1.43-.05,2.26-.22v-2.91c-.38.16-.71.22-1.1.22ZM428.08,684.94c0,5.55-4.56,8.9-9.89,8.9-3.3,0-6.33-2.14-6.33-5.61,0-5.5,7.31-5.5,13.2-6.54.94-.17,2.47-.45,2.91-1.27h.11v4.51Z"/>
  <path class="cls-2" d="M443.97,667.57h3.19v4.78h.17c1.81-3.47,4.73-5.61,9.29-5.61,3.74,0,7.09,1.81,8.14,5.55,1.7-3.74,5.28-5.55,9.02-5.55,6.27,0,9.4,3.3,9.4,9.95v19.24h-3.47v-19.08c0-4.67-1.7-7.2-6.71-7.2-5.99,0-7.7,4.95-7.7,10.23v16.06h-3.46v-19.24c0-3.85-1.48-7.04-5.94-7.04-5.94,0-8.47,4.51-8.47,10.45v15.84h-3.46v-28.37Z"/>
  <path class="cls-2" d="M518.91,693.02c-1.37,0-2.04-.71-2.04-2.09v-15.07c0-7.64-5.44-9.12-10.45-9.12-6.54,0-11.1,2.86-11.49,9.52h3.46c.16-4.62,3.24-6.6,7.59-6.6s7.42,1.16,7.42,5.83c0,3.08-1.6,3.58-4.46,3.85-7.48.88-15.23,1.21-15.23,9.12,0,5.72,4.24,8.3,9.52,8.3s7.86-2.08,10.34-5.77h.11c0,2.91.55,4.95,4.07,4.95.93,0,1.43-.05,2.26-.22v-2.91c-.39.16-.72.22-1.1.22ZM513.41,684.94c0,5.55-4.57,8.9-9.9,8.9-3.3,0-6.32-2.14-6.32-5.61,0-5.5,7.31-5.5,13.2-6.54.93-.17,2.47-.45,2.91-1.27h.11v4.51Z"/>
  <path class="cls-2" d="M529.29,667.57h3.19v6.65h.11c1.76-4.62,5.61-7.26,10.72-7.04v3.46c-6.27-.27-10.56,4.23-10.56,10.17v15.12h-3.46v-28.37Z"/>
  <polygon class="cls-2" points="552.11 656.68 555.57 656.68 555.57 681.31 571.3 667.57 575.92 667.57 563.82 678.07 576.74 695.94 572.4 695.94 561.18 680.49 555.57 685.16 555.57 695.94 552.11 695.94 552.11 656.68"/>
  <path class="cls-2" d="M608.74,693.02c-1.37,0-2.04-.71-2.04-2.09v-15.07c0-7.64-5.44-9.12-10.45-9.12-6.54,0-11.1,2.86-11.49,9.52h3.46c.17-4.62,3.25-6.6,7.59-6.6s7.42,1.16,7.42,5.83c0,3.08-1.59,3.58-4.46,3.85-7.47.88-15.22,1.21-15.22,9.12,0,5.72,4.23,8.3,9.51,8.3s7.86-2.08,10.34-5.77h.11c0,2.91.55,4.95,4.07,4.95.93,0,1.43-.05,2.26-.22v-2.91c-.38.16-.71.22-1.1.22ZM603.24,684.94c0,5.55-4.56,8.9-9.9,8.9-3.3,0-6.32-2.14-6.32-5.61,0-5.5,7.31-5.5,13.2-6.54.93-.17,2.47-.45,2.91-1.27h.11v4.51Z"/>
  <path class="cls-2" d="M619.07,667.57h3.46v4.89h.11c1.32-3.41,5.06-5.72,9.07-5.72,7.97,0,10.39,4.18,10.39,10.94v18.26h-3.46v-17.7c0-4.84-1.6-8.58-7.2-8.58s-8.74,4.18-8.91,9.73v16.55h-3.46v-28.37Z"/>
  <path class="cls-2" d="M675.65,656.68v16.27h-.11c-1.43-4.06-5.66-6.21-9.84-6.21-8.63,0-12.76,6.93-12.76,15.01s4.13,15,12.76,15c4.13,0,8.63-2.47,10.12-6.21h.11v5.39h3.19v-39.26h-3.46ZM665.7,693.85c-6.59,0-9.29-6.21-9.29-12.09s2.69-12.1,9.29-12.1c7.31,0,9.95,6.21,9.95,12.1s-2.64,12.09-9.95,12.09Z"/>
</svg>