<?xml version="1.0" encoding="UTF-8"?>
<svg id="Layer_1" data-name="Layer 1" xmlns="http://www.w3.org/2000/svg" viewBox="0 0 1000 1000">
  <defs>
    <style>
      .cls-1 {
        fill: #fff;
      }
    </style>
  </defs>
  <path class="cls-1" d="M383.15,415.75c-.32-3.82-.64-7.64-1.28-11.15-1.28-8.6-3.5-16.88-8.28-24.53-7.96-12.1-18.79-21.66-31.22-29.62-2.23-1.28-2.23-2.23-.32-3.82,6.37-6.37,12.11-12.74,14.65-21.66.64-2.23.64-4.14,0-6.05-.32-.64-.63-.96-.63-1.59-1.91-7.33-5.74-13.38-11.79-17.84-4.78-3.5-10.2-4.78-15.61-5.73h-17.52c-4.77,0-9.24.32-14.01.32-1.91.32-4.14.32-6.37.32-.95-.32-1.91-.32-2.87-.32-1.28,0-2.23,0-3.5.32-4.46,0-9.24.32-14.02.32-1.91.32-3.82.32-6.05.32-.96-.32-1.59-.32-2.55-.32-1.27,0-2.23,0-3.5.32-4.46,0-9.24,0-14.02.32-1.28.32-2.23.32-3.5.32-.32-.32-.96-.32-1.59-.32s-1.28,0-1.91.32c-3.18.32-5.09,1.91-6.69,5.1-1.59,3.82-1.59,7.96-.96,11.79,1.59,6.37,4.14,7.64,10.83,6.05,4.14-1.28,8.6-1.91,13.38-3.19-1.27,2.23-.96,4.14-.96,6.05v124.87c.64,1.59.64,3.18.64,4.78,0,3.19.64,6.37,1.28,9.56,1.91,8.28,4.46,11.15,11.79,12.1.31.32.63.32.63.32h1.59c.32.32.32,0,.64-.32,4.78-1.59,3.83-5.73,4.46-9.56.32-2.55.32-5.1,0-7.96.32-1.59-1.59-2.55-1.91-4.14-.32-.64-.32-1.59-.32-2.55,0-1.59.32-3.19.32-4.78,0-.96,0-1.91-.32-2.87v-58.29c0-.32.32-.64.32-.96l.64-.64c13.69-5.41,27.71-9.87,41.73-14.33,4.77-1.28,9.55-2.55,14.33-.32,7.33,3.18,13.69,7.96,19.43,13.38,10.19,9.24,13.38,21.98,14.65,35.04.64,2.55.64,5.1,0,7.96,0,1.59,0,3.19-.32,4.78,0,.32-.31.32,0,.64.32.32.32.95,0,1.27,0,.32,0,.96-.31,1.27-.96,5.74-1.91,11.79-4.14,17.2-3.5,8.28-9.24,14.65-16.25,20.07-12.1,9.56-26.44,13.7-41.41,14.65-1.28.64-2.87.64-4.14.64-2.23,0-4.78.32-7.01,0-5.1.64-9.88.64-14.97,0h-8.28c-1.59,0-3.19,0-4.78-.64h-3.5c-.64,0-.96,0-1.59-.32-.64,0-.96,0-1.59-.32-11.15-.64-22.3-2.55-33.45-3.82-.31-.32-.63-.64-1.27-.32h-2.55c-1.28-.32-2.55-.32-4.14-.32-.63-.32-1.27-.32-1.91-.32s-.95,0-1.27.32c-.96,0-1.91,0-3.19-.32h-5.73c-.96.32-2.23.32-3.19.32-1.91.64-4.14.64-5.73,2.23-5.73,5.41-5.41,16.25-2.23,21.98,1.59,3.18,4.14,5.1,7.96,5.1,3.19,0,6.37-.32,9.56-.95,2.87-.96,5.42-2.23,8.6-1.59,1.59-.64,2.87-.32,4.14,0,2.55,0,5.1,0,7.33.32h3.18c.64,0,1.28,0,1.91.32h5.41c1.59,0,3.19,0,4.78.64h5.09c.32,0,.96,0,1.28.32,1.28-.32,2.55-.32,3.82.32h9.24c6.69.32,13.38.32,19.75,0h6.69c1.59-.64,3.18-.64,4.46-.64,4.78-.32,9.24-.32,13.7-1.27,13.06-2.87,25.8-6.37,37.59-12.74,10.19-5.73,18.47-13.38,25.17-22.94,8.6-11.79,12.1-25.16,13.69-39.5.32-.95.64-2.23.32-3.5v-6.37c.32-1.27,0-2.55-.32-3.5ZM333.46,331.34c-3.82,5.42-8.6,9.24-14.01,12.42-13.38,7.96-28.35,12.42-43.64,15.93-4.46,1.28-4.46.96-4.78-3.5v-40.77c-.32-1.91.64-2.23,1.91-2.23,14.97-1.28,29.62-1.59,44.59-1.28,3.83,0,7.64.64,11.15,2.55,7.33,3.5,9.24,10.19,4.77,16.88Z"/>
  <path class="cls-1" d="M253.28,706.03c-1.39.06-2.79.11-4.18.17-5.57.31-11.15.33-16.72,0-1.57-.06-3.14-.12-4.71-.17-1.07-.5-2.29.01-3.36-.46-7.5-.55-14.82-2.04-21.93-4.42-11.04-3.7-21.19-8.84-30.23-16.47-7.21-6.09-12.62-13.07-15.67-21.92-1.05-3.04-1.64-6.21-1.81-9.44-.47-1.28.13-2.67-.44-3.94.56-1.78-.27-3.62.31-5.44,1.54-4.81,4.56-6.78,10.52-6.71,7.92.1,11.3,3.33,11.37,11.21.06,7.01,2.69,12.93,7.29,18.02,10.08,11.15,22.55,18.14,37.32,20.96,1.2.23,2.46.09,3.7.12,1.03.56,2.23-.02,3.27.47,1.36.05,2.73.11,4.09.16,5.32.41,10.64.43,15.96,0,13.1-.55,24.82-5.08,35.48-12.49,5.43-3.78,9.4-8.56,11.21-15.29,1.92-7.13-2.42-14.11-7.11-17.7-9.88-7.57-21.56-11.52-32.93-15.97-11.5-4.51-23.29-8.29-34.91-12.5-12.36-4.48-24.71-9.05-35.43-16.94-5.04-3.71-9.78-7.94-13.13-13.2-2.61-4.1-3.44-9.02-3.94-14-1.08-10.8,4.74-17.61,12.65-23.28,5.6-4.01,12.31-4.87,18.92-5.89,1.68-.57,3.49.18,5.16-.47,9.28.03,18.57.07,27.85.08,19.4.01,38.81,0,58.21,0,8.24,0,11.74,2.97,13.14,11.05.29,1.23.3,2.46,0,3.69-.44,2.62-.97,5.2-2.36,7.53-1.99,3.34-5.17,4.17-8.93,3.47-7.95-1.47-15.14-5.51-23.13-6.59-4.07-.55-8.13-1.58-12.29-1.33-1.66.1-3.08-1.2-4.77-.62-1.01-.59-2.19,0-3.22-.46-1.17-.06-2.35-.12-3.52-.18-1.47-.61-3.07.08-4.55-.46-7.04-.34-14.09-.28-21.13,0-1.68.55-3.47-.19-5.14.46-6.62.91-13.34,1.29-18.98,5.67-6.3,4.89-6.91,10.86-1.58,16.83,5.93,6.64,13.7,10.48,21.74,13.53,17.16,6.51,34.55,12.4,51.78,18.71,11.31,4.14,22.77,8.07,32.56,15.43,8.1,6.09,13.68,13.81,15.24,24.07.14.9.46,1.78.69,2.67.33,3.3.36,6.6-.01,9.9-3.51,15.29-14.51,24.19-27.2,31.44-9.85,5.63-20.47,9.22-31.85,10.27-1.04.47-2.23-.1-3.27.46Z"/>
  <path class="cls-1" d="M651.78,419.33c.68-11.52,5.28-21.81,9.83-32.17,3.44-7.83,7.27-15.48,10.43-23.45,1.44-3.65,3.51-7.07,5.54-10.45,2.17-3.63,6.06-3.73,9.7-4.2,1.85-.31,3.7-.31,5.55,0,6,1.69,7.32,4.97,3.7,10.26-10.65,15.59-17.54,32.87-23.06,50.78-1.21,3.93-2.05,7.92-1.78,12.07-.4,2.01-.41,4.03,0,6.04-.11,9.48,5.97,16.31,14.89,19.61,3.33,1.23,6.79,2.21,10.43,1.97,2.09.68,4.28-.12,6.37.46.22,0,.44,0,.65,0,4.19-.61,8.42.26,12.61-.46,1.59-.05,3.18-.11,4.77-.16,1.27-.51,2.67.12,3.93-.46,2.91.3,5.74-.48,8.6-.77,2.48-.25,4.22-1.66,4.86-4.18.55-1.08.28-2.23.28-3.35.02-27.16.01-54.31.02-81.47,0-1.13-.17-2.27.18-3.38.3-4.74,3.6-6.21,7.58-6.93,1.64-.35,3.29-.32,4.93-.03,1.4.27,2.83.46,4.21.84,3.45.96,5.74,4.19,4.5,7.51-4.24,11.45-3.18,23.3-3.21,35.08-.07,27.91-.07,55.81-.1,83.72,0,.41.09.82.13,1.22-.65,1.89.1,3.9-.45,5.8-1.7,12.98-3.14,26.05-8.28,38.23-3.89,9.21-8.57,18.17-17.24,23.85-6.9,4.52-14.81,6.66-23.01,7.58-1.05.44-2.24-.1-3.28.44-13.2,0-26.4-.14-39.59.05-7.34.11-11.28-3.85-11.82-10.55-.33-1.23-.31-2.46-.01-3.69.3-2.47.33-4.93,1.65-7.25,1.9-3.33,4.11-4.66,7.97-4.02,5.98.99,11.47,3.6,17.28,5.19,3.55.97,7.06,2,10.8,1.79,3.49.41,6.98.41,10.47,0,11.86-.23,20.26-6.5,26.45-15.91,4.52-6.88,7.48-14.48,8.2-22.89.22-2.53.7-5.12,1.13-7.68.59-1.01-.03-2.21.48-3.24.05-.96.1-1.92.16-2.88.57-1.27-.04-2.67.45-3.94.06-2,.11-4,.17-5.99.35-2.1.51-4.19-.07-6.28-7.96-.06-15.91-.14-23.87-.17-9.4-.03-18.88.73-28.19-.19-14.6-1.43-26.63-7.66-32.54-22.17-1.27-3.12-2.37-6.43-2.38-9.93-.5-1.27.13-2.66-.45-3.92,0-1.72,0-3.44,0-5.17.64-1.68-.09-3.47.45-5.16Z"/>
  <path class="cls-1" d="M533.5,611.65c-1.91-14.65-8.28-21.34-21.98-22.94-.64,0-1.59,0-2.23-.32h-.64c-.96.32-1.91.32-2.87,0l-.31-.32c-.64.32-.96,0-1.59,0-.32.32-.96.32-1.59.32-18.16,0-36.63,0-55.11-.32-3.19,0-6.37.64-9.24,1.59-2.87.64-4.46,2.55-5.09,5.41-.96,7.33,4.77,15.61,12.42,16.25.96.64,1.91.64,3.19,0,7.33-3.82,14.97-5.1,23.25-5.73h1.91v-.32q.31-.32.63,0c.32,0,.96,0,1.28-.32,11.15-.32,21.98-.32,32.49,1.59,2.87.64,4.78,3.19,5.1,7.01.32,2.87-2.23,2.55-3.83,3.18-3.82,1.27-7.64,2.55-11.47,3.82-17.2,6.05-34.72,11.15-50.01,21.02-9.88,6.69-17.84,14.33-18.8,27.39-.32.32-.64.64-.32,1.27v2.55c-.32.64,0,1.27.32,1.59.32,2.87.32,5.41.96,8.28,1.59,7.64,5.1,13.7,12.42,17.2,6.69,3.51,14.02,4.78,21.34,5.1.64.32,1.28.64,1.91.32h55.74c.63.32,1.27,0,1.91-.32,3.5-.64,6.05-2.55,7.96-5.73,1.91-2.87,1.91-6.37,2.23-9.87v-76.77h.32c0-.64-.32-.95-.32-.95ZM453.54,683.95c-7.33-4.78-8.92-13.38-2.87-20.07,3.82-4.78,8.92-7.96,14.34-10.51,15.93-7.96,32.81-13.7,50.33-19.43v46.51c0,5.41-.64,6.69-6.05,7.33-14.97,1.59-29.94,2.87-44.91.32-3.83-.64-7.33-2.23-10.83-4.14Z"/>
  <path class="cls-1" d="M754.87,611.01c-2.23-14.97-8.28-20.71-21.66-22.3-.64,0-1.59,0-2.23-.32-.32.32-.63.32-.95,0-.96.32-1.59.32-2.55,0l-.32-.32c-.64.32-.96,0-1.59,0-.64.32-.96.32-1.59.32-18.15,0-36.63,0-54.79-.32-3.5,0-6.69.64-9.88,1.28-2.86.95-4.46,3.18-4.77,5.73-.96,7.01,4.77,15.61,12.1,16.25h3.18c7.33-3.5,15.29-5.42,23.25-5.73h2.23v-.32s.32-.32.64,0c.32,0,.95,0,1.27-.32,7.33-.32,14.34-.32,21.66,0,.32.32.96.64,1.28.32.63-.32.95,0,1.27.32h.64c1.59-.32,2.87.32,4.14.64,2.23.32,4.46.32,6.37,1.91,1.91,1.59,2.23,3.82,2.23,6.05,0,1.91-2.23,1.91-3.51,2.55-1.91.96-4.46,1.27-6.69,1.91-18.47,6.37-37.27,12.1-53.83,22.3-11.15,6.69-19.75,15.29-20.39,29.3v2.87c.63,2.87.32,6.05.95,8.92,1.59,8.28,5.74,14.65,13.38,18.48,6.37,2.87,13.38,4.14,20.7,4.46.32.32,1.28.64,1.91.32h55.74c.64.32,1.28,0,1.91-.32,6.69-1.91,9.24-5.42,9.87-14.33.32-.32.32-.64.32-.96v-76.45c0-.64,0-1.28-.32-2.23ZM674.92,683.63c-7.01-4.46-8.6-13.06-2.86-19.75,3.5-4.46,8.28-7.33,13.38-10.19,16.25-8.28,33.45-13.7,50.65-19.43h.95v46.51c0,5.1-.63,6.37-5.74,7.01-15.29,1.59-30.26,2.87-45.55.32-3.82-.64-7.33-2.23-10.83-4.46Z"/>
  <path class="cls-1" d="M613.96,366.15c-.05,1.44-.13,2.88-.13,4.32,0,38.74.02,77.48-.04,116.22,0,5.59.64,10.98,2.5,16.3,2.39,6.83.5,9.71-6.63,10.8-2.27.27-4.53.34-6.79-.03-4.01-.23-6.11-2.58-6.95-6.31-.37-1.22-.18-2.47-.18-3.7-.01-42.7,0-85.41-.02-128.11,0-1.22.26-2.48-.25-3.68-.01-4.1-3.37-4.48-6.05-4.74-2.68-.26-5.34-1.15-8.09-.72-2.51-.7-5.11.14-7.63-.46-6.01-.24-12.02-.33-18.03,0-1.24.52-2.63-.15-3.87.47-6.96.83-13.64,2.39-18.61,7.87-3.04,3.35-4.97,7.22-4.87,11.88-.45,2.6-.41,5.21,0,7.81,1.65,16.92,7.15,31.87,21.26,42.6,6.6,5.02,13.48,9.2,22.09,9.39,1.44.66,3.02-.08,4.47.47,1.05,0,2.09,0,3.14,0,3.72-.29,7.43-.39,11.14.04,2.3.9,3.26,2.82,3.82,5.04.36,2.05.3,4.11.04,6.17-2.3,5.6-7.19,7.34-12.51,7.86-16.74,1.65-30.68-5.16-43.46-15.03-9.17-7.09-16.23-16.01-21.33-26.37-3.83-7.79-6.51-16.05-8.33-24.56-.27-1.28-.17-2.64-.24-3.96-.54-1.25.13-2.65-.47-3.9,0-2.55,0-5.1,0-7.65.53-1.05-.03-2.26.47-3.32,2.79-18.56,14.87-28.16,32.48-30.42,2.03-.26,4.06-.49,6.09-.74,1.11-.37,2.25-.19,3.37-.19,17.39-.01,34.79-.01,52.18,0,1.12,0,2.26-.19,3.37.19,4.18,1.22,5.65,4.65,6.77,8.35.35,1.16.53,2.37.79,3.56.54,1.48-.15,3.08.46,4.55Z"/>
  <path class="cls-1" d="M506.74,399.5c-.32-.64-.64-1.27-.64-1.91-.95-6.37-2.55-12.1-5.74-17.52-10.83-19.75-27.39-30.9-50.33-32.81-2.55-.32-5.42-.32-8.28-.32-.96,0-1.91,0-2.87.32-.96.32-2.23.64-3.5.64-15.29,2.55-28.03,9.87-37.27,22.3-7.64,9.87-12.42,21.34-12.42,34.08,0,1.91,0,3.82-.32,5.73.32,10.19,2.55,20.07,7.96,28.99,10.19,16.56,24.53,26.12,43.95,28.67q.32,0,.64.32c0,.32.32,0,.32,0,.64-.32,1.59,0,2.23.32h9.24c6.69,0,13.38-1.28,19.74-4.14,21.34-9.56,34.4-26.12,37.27-49.69.32-1.28.32-2.55.32-3.82v-7.33c0-1.27,0-2.55-.32-3.82ZM445.58,451.11c-23.25-.32-42.36-19.75-42.36-43.32s20.07-43,43.32-43,43,20.07,42.69,43.64c0,23.57-19.75,42.68-43.64,42.68Z"/>
  <path class="cls-1" d="M549.5,704.93c-5.59-1.63-6.69-3.04-6.69-8.83,0-43.65-.06-87.29.06-130.94.01-5.56-1.26-10.87-2.19-16.23-.82-4.73.62-7.22,5.42-7.99,2.27-.36,4.44-.36,6.72-.03,3.97.57,6.62,2.51,7.93,6.29.47,5.64.14,11.3.19,16.94.06,7.2,0,14.4.03,21.6,0,1-.28,2.06.31,3.01h0c4.45.73,8.93.14,13.4.34,1.52.07,3.06-.22,4.57.2,2.64.05,5.28.1,7.91.15,1.03.57,2.22-.01,3.26.46,17.68,4.56,31.99,14.23,42.63,28.99,6.49,9,9.91,19.43,11.97,30.29.54,2.82.91,5.66,1.36,8.5.53,1.48-.15,3.09.46,4.56.29,11.63-1.09,23.31,1.22,34.9.85,4.25-1.07,6.62-5.52,7.8-2.26.34-4.53.3-6.79.02-3.95-.46-6.36-2.66-6.96-6.34-.44-10.97-.06-21.95-.2-32.92-.02-1.53.26-3.08-.24-4.58-.19-5.41-1.67-10.59-3.3-15.66-2.06-6.38-4.04-12.9-8.6-18.14-8.16-9.39-17.6-16.77-30.12-19.38-1.07-.51-2.27.01-3.34-.45-3.88-.05-7.77-.1-11.65-.15-3.23-.45-6.45-.43-9.68-.01l-.24-.06-.17.18c-.52.75-.31,1.6-.31,2.41-.01,25.34-.01,50.69,0,76.03,0,.82-.14,1.66.25,2.44-.33,2.79.31,5.5.81,8.2.9,4.86-.82,7.49-5.73,8.43-2.27.26-4.53.34-6.79-.04Z"/>
  <path class="cls-1" d="M339.67,689.51c-.32,2.59.54,5.06.75,7.59.42,5.03-1.14,7.5-5.68,7.86-2.27.27-4.53.33-6.79-.03-5.54-.77-6.81-4.39-6.8-9.43.08-38.77.04-77.55.05-116.32,0-10.1.49-20.23-2.07-30.15-.27-1.23-.32-2.46.03-3.69.52-4.53,4.19-4.49,7.32-4.7,5.21-.35,11.26.6,12.74,7.19.44,9.97.03,19.95.21,29.93.06,3.69-.37,7.39.28,11.06h-.02c4.47.63,8.96.11,13.43.29,1.32.05,2.66-.19,3.96.18,2.84.06,5.68.12,8.52.18,1.04.56,2.23-.02,3.28.46,21.52,6.02,38.11,18.26,48.01,38.65,4.54,9.36,6.66,19.47,7.96,29.75.57,1.91-.19,3.92.46,5.82.09,11.01-1.08,22.05,1.17,33,.68,3.3-.77,7.18-5.47,7.82-2.26.36-4.52.29-6.79.04-3.72-.21-6.55-2.68-6.93-5.73-.51-8.15-.05-16.31-.23-24.47-.09-4.33.33-8.67-.25-12.98-.07-3.71-.85-7.34-1.85-10.85-1.96-6.9-3.92-13.78-7.7-20.08-4.19-6.99-10.27-11.72-16.78-16.2-4.81-3.31-9.91-5.78-15.7-6.73-1.06-.52-2.26.01-3.32-.45-3.89-.05-7.78-.1-11.67-.15-3.23-.46-6.45-.43-9.68-.02l-.21-.09-.17.15c-.52.75-.31,1.6-.31,2.41-.01,25.76-.01,51.51,0,77.27,0,.82-.17,1.66.26,2.44Z"/>
  <path class="cls-1" d="M766.59,609.89c.39-4.02.03-8.09,1.2-12.07,1.92-6.52,4.33-8.44,11.13-8.31.41,0,.82-.04,1.23-.07,1.04.55,2.24-.02,3.29.46.98.05,1.96.1,2.95.15,2.83.44,5.66.42,8.49,0,3.65-.06,7.29-.11,10.94-.17,3.16-.6,6.38.24,9.54-.45,5.47,0,10.95-.05,16.42.05,2.25.04,4.53.22,6.74.66,5.64,1.11,8.26,5.19,6.92,10.91-1.6,6.84-9.25,14.03-17.85,10.28-9.26-4.04-19.08-6.09-29.31-5.22-1.13.1-2.27.17-3.38.38-7.6,1.47-10.22,4.59-10.24,12.29-.03,11.89,0,23.79,0,35.68,0,7.14.19,14.28-.06,21.41-.22,6.2.88,12.12,2.58,18,2.12,7.37,1.22,8.95-6.21,11.05-2.47.36-4.95.36-7.42,0-5.25-1.47-6.4-2.72-6.95-7.55-.28-.69-.19-1.42-.19-2.14,0-27.74,0-55.47,0-83.21,0-.72-.1-1.45.19-2.14Z"/>
  <path class="cls-1" d="M635.11,349.05c7.21,1.38,9.19,3.76,9.2,11.07.04,29.98.08,59.97.12,89.95,0,2.38.53,4.67,1.05,6.97,1.15,5.07-1.16,8.31-6.33,8.69-2.16.16-4.37.3-6.49,0-3.44-.49-5.61-2.6-6.29-6.09-.42-1.1-.21-2.25-.21-3.38-.01-28.62,0-57.24-.02-85.86,0-1.12.26-2.27-.27-3.36-.1-3.49-1.79-6.69-1.77-10.24.03-6.07.63-6.88,6.72-7.76,1.44-.29,2.87-.29,4.31,0Z"/>
  <path class="cls-1" d="M620.74,321.25c1.26-8.98,7.81-12.36,14.77-12.21,7.44.16,13.86,6.96,13.64,14.38-.26,8.7-6.21,13.58-14.75,14.29-6.01.51-12.21-3.75-13.63-12.78-.35-1.23-.31-2.46-.03-3.69Z"/>
  <path class="cls-1" d="M595.47,371.95c.65,1.27.37,2.64.37,3.96.02,40.95.01,81.89.02,122.84,0,2.89.04,5.79.07,8.68-.76-.77-.51-1.75-.51-2.65,0-43.86,0-87.73,0-131.59,0-.41.04-.83.06-1.24Z"/>
  <path class="cls-1" d="M625.86,367.05c.74,1.46.45,3.04.45,4.57.03,29.34.04,58.68.05,88.02-.71-.65-.54-1.52-.54-2.33,0-30.09.03-60.18.04-90.27Z"/>
  <path class="cls-1" d="M739.27,356.02c0,28.3.02,56.59,0,84.89,0,1.12.19,2.29-.49,3.31-.01-28.52-.02-57.03-.02-85.55,0-.9-.25-1.88.5-2.65Z"/>
  <path class="cls-1" d="M766.59,609.89c0,29.16,0,58.33,0,87.49-.87-.98-.5-2.17-.5-3.27-.02-26.98-.02-53.97,0-80.95,0-1.1-.37-2.29.5-3.27Z"/>
  <path class="cls-1" d="M339.67,689.51c-.72-1.68-.48-3.46-.48-5.2-.02-24.69-.02-49.39.01-74.08,0-.94-.56-2.07.53-2.84-.02,27.37-.04,54.74-.06,82.12Z"/>
  <path class="cls-1" d="M561.21,688.34c-.63-1.27-.42-2.63-.42-3.96-.02-24.78-.02-49.57,0-74.35,0-.85-.46-1.87.48-2.57-.02,26.96-.04,53.92-.07,80.89Z"/>
  <path class="cls-1" d="M755.02,690.55c0-26.47,0-52.95,0-79.42.82.87.51,1.96.51,2.96.02,24.5.02,49,0,73.5,0,1,.31,2.09-.5,2.96Z"/>
  <path class="cls-1" d="M533.45,689.31c0-25.85,0-51.71,0-77.56.83.87.51,1.96.51,2.96.02,23.88.02,47.76,0,71.64,0,1,.32,2.09-.51,2.96Z"/>
  <path class="cls-1" d="M463.86,704.97c16.75.02,33.5.05,50.24.06,3.1,0,6.2-.06,9.3-.1-.75.79-1.73.54-2.64.54-18.08.01-36.17.01-54.25,0-.9,0-1.88.25-2.65-.5Z"/>
  <path class="cls-1" d="M685.41,704.96c16.54.02,33.08.05,49.62.07,3.31,0,6.61-.06,9.92-.1-.75.79-1.74.53-2.64.53-18.08.01-36.17.01-54.25,0-.9,0-1.88.25-2.65-.5Z"/>
  <path class="cls-1" d="M605.94,349.69c-19.64,0-39.28,0-58.92,0,.77-.76,1.75-.51,2.65-.51,17.88-.01,35.75-.01,53.63,0,.9,0,1.88-.25,2.64.52Z"/>
  <path class="cls-1" d="M271.56,436.68c.01-18.03.02-36.06.06-54.09,0-.34.3-.69.46-1.03,0,17.29,0,34.58-.02,51.86,0,1.09.37,2.28-.5,3.25Z"/>
  <path class="cls-1" d="M561.28,588.76c-1.02-.93-.47-2.14-.48-3.19-.05-12.79-.05-25.58-.06-38.37.89.97.51,2.16.52,3.25.03,12.77.02,25.54.02,38.31Z"/>
  <path class="cls-1" d="M339.7,588.81c-.84-.46-.52-1.27-.52-1.94,0-13.02.02-26.03.03-39.05.76.77.51,1.74.51,2.64,0,12.78,0,25.56-.02,38.34Z"/>
  <path class="cls-1" d="M628.37,661.12c.68,1.36.42,2.82.42,4.24.03,11.09.02,22.18.02,33.26-.6-.56-.52-1.3-.52-2.02.02-11.83.05-23.66.07-35.48Z"/>
  <path class="cls-1" d="M406.81,661.8c.68,2.02.33,4.1.35,6.15.08,10.43.09,20.87.13,31.3-.62-.55-.55-1.29-.55-2,.02-11.82.04-23.63.07-35.45Z"/>
  <path class="cls-1" d="M262.17,506.32c6.61,0,13.22,0,19.82,0-4.76,1.14-9.6.31-14.4.46-1.79.06-3.7.6-5.42-.47Z"/>
  <path class="cls-1" d="M579.26,589.3c-5.98-.42-12,.3-17.96-.53,5.01,0,10.03-.01,15.04.02.99,0,2.07-.31,2.92.52Z"/>
  <path class="cls-1" d="M357.08,589.27c-5.79-.39-11.61.29-17.4-.48,4.92-.01,9.84-.03,14.76-.02.9,0,1.87-.24,2.63.5Z"/>
  <path class="cls-1" d="M328.54,293.82c-5.78,0-11.56,0-17.34-.01,5.78-.85,11.56-.88,17.34.01Z"/>
  <path class="cls-1" d="M232.38,706.19c5.57,0,11.15,0,16.72,0-5.57.84-11.15.85-16.72,0Z"/>
  <path class="cls-1" d="M248.06,688.15c-5.32.87-10.64.77-15.96,0,5.32,0,10.64,0,15.96,0Z"/>
  <path class="cls-1" d="M506.77,414.33c.03-4.96.38-9.91-.04-14.87.94,4.95.88,9.91.04,14.87Z"/>
  <path class="cls-1" d="M289.1,483.31c-4.92.65-9.85.57-14.78,0,4.92,0,9.85,0,14.78,0Z"/>
  <path class="cls-1" d="M383.26,429.23c0-4.54,0-9.08,0-13.62.86,4.54.86,9.08,0,13.62Z"/>
  <path class="cls-1" d="M716.64,449.79c-4.18.79-8.4.53-12.61.46,4.17-1.09,8.4-.31,12.61-.46Z"/>
  <path class="cls-1" d="M297.15,293.99c-4.2.69-8.42.48-12.65.45,4.18-1.1,8.43-.32,12.65-.45Z"/>
  <path class="cls-1" d="M270.48,294.61c-3.99.72-8.02.46-12.04.45,3.98-1.13,8.03-.28,12.04-.45Z"/>
  <path class="cls-1" d="M590.43,446.57c-3.71-.53-7.43.18-11.14-.04,3.72-.82,7.43-.9,11.14.04Z"/>
  <path class="cls-1" d="M450.17,347.2c-3.71,0-7.42,0-11.14,0,3.71-.84,7.42-.84,11.14,0Z"/>
  <path class="cls-1" d="M272.03,451.11c-.98-3.31-.42-6.7-.47-10.06,1.07,3.31.32,6.71.47,10.06Z"/>
  <path class="cls-1" d="M701.8,534.84c-3.49.76-6.98.8-10.47,0,3.49,0,6.98,0,10.47,0Z"/>
  <path class="cls-1" d="M315.6,663.87c0-3.3,0-6.6.01-9.9.84,3.3.86,6.6-.01,9.9Z"/>
  <path class="cls-1" d="M815.35,589.46c-3.15.68-6.35.48-9.54.45,3.13-1.12,6.36-.3,9.54-.45Z"/>
  <path class="cls-1" d="M340.11,607.33c3.23-.63,6.46-.86,9.68.02-3.23,0-6.45-.01-9.68-.02Z"/>
  <path class="cls-1" d="M561.68,607.33c3.23-.62,6.45-.87,9.68.01-3.23,0-6.45,0-9.68-.01Z"/>
  <path class="cls-1" d="M794.87,590.08c-2.83.54-5.66.72-8.48,0,2.83,0,5.66,0,8.48,0Z"/>
  <path class="cls-1" d="M274.05,463.37c0-2.68,0-5.36,0-8.04.85,2.68.84,5.36,0,8.04Z"/>
  <path class="cls-1" d="M528.32,394.06c-.69-2.6-.74-5.21,0-7.81,0,2.6,0,5.21,0,7.81Z"/>
  <path class="cls-1" d="M733.17,588.67c-2.57,0-5.15.18-7.68-.46,2.56.14,5.18-.64,7.68.46Z"/>
  <path class="cls-1" d="M511.61,588.67c-2.57,0-5.15.18-7.69-.46,2.56.14,5.18-.64,7.69.46Z"/>
  <path class="cls-1" d="M362.74,414.77c.58,2.63.61,5.27,0,7.9,0-2.63,0-5.27,0-7.9Z"/>
  <path class="cls-1" d="M573.7,366.03c2.56-.05,5.12-.22,7.63.46-2.54-.15-5.14.63-7.63-.46Z"/>
  <path class="cls-1" d="M773.53,704.93c2.47,0,4.95,0,7.42,0-2.47.87-4.95.87-7.42,0Z"/>
  <path class="cls-1" d="M244.4,295.23c-2.32.63-4.7.35-7.06.44,2.3-1.04,4.7-.33,7.06-.44Z"/>
  <path class="cls-1" d="M602.87,513.74c2.26.01,4.53.02,6.79.03-2.27.8-4.53.85-6.79-.03Z"/>
  <path class="cls-1" d="M327.95,704.93c2.26.01,4.53.02,6.79.03-2.27.8-4.53.85-6.79-.03Z"/>
  <path class="cls-1" d="M414.22,704.98c2.26-.01,4.53-.02,6.79-.04-2.26.87-4.52.82-6.79.04Z"/>
  <path class="cls-1" d="M549.5,704.93c2.26.01,4.53.03,6.79.04-2.27.79-4.53.85-6.79-.04Z"/>
  <path class="cls-1" d="M635.77,704.97c2.26,0,4.53-.01,6.79-.02-2.26.85-4.52.83-6.79.02Z"/>
  <path class="cls-1" d="M213.1,477.55c-2.16,0-4.33.18-6.45-.45,2.15.13,4.36-.63,6.45.45Z"/>
  <path class="cls-1" d="M356.58,324.94c0-2.06,0-4.12,0-6.18.87,2.06.86,4.12,0,6.18Z"/>
  <path class="cls-1" d="M703.38,450.24c-2.14.07-4.29.29-6.37-.46,2.13.11,4.31-.57,6.37.46Z"/>
  <path class="cls-1" d="M594.3,457.77c-.01-2.06-.03-4.11-.04-6.17.88,2.05.83,4.11.04,6.17Z"/>
  <path class="cls-1" d="M738.76,466.02c1.02,2.08.42,4.18.07,6.28-.02-2.09-.05-4.19-.07-6.28Z"/>
  <path class="cls-1" d="M428.98,668.87c0,1.85,0,3.7,0,5.55-.8-1.85-.8-3.7,0-5.55Z"/>
  <path class="cls-1" d="M385.55,404.43c0,1.85,0,3.7-.01,5.55-.8-1.85-.81-3.7.01-5.55Z"/>
  <path class="cls-1" d="M425.3,664.13c-.57-1.91-.49-3.86-.46-5.82,1.04,1.87.35,3.88.46,5.82Z"/>
  <path class="cls-1" d="M756.87,483.23c-.02-1.94-.15-3.9.45-5.8-.11,1.93.56,3.93-.45,5.8Z"/>
  <path class="cls-1" d="M671.68,428.21c-.62-2.01-.59-4.02,0-6.04,0,2.01,0,4.03,0,6.04Z"/>
  <path class="cls-1" d="M692.83,349.06c-1.85,0-3.7,0-5.55,0,1.85-.81,3.7-.81,5.55,0Z"/>
  <path class="cls-1" d="M247.89,505.7c1.95-.03,3.91-.19,5.8.45-1.94-.11-3.93.57-5.8-.45Z"/>
  <path class="cls-1" d="M214.17,557.06c1.67-.64,3.41-.54,5.14-.46-1.64,1.03-3.42.35-5.14.46Z"/>
  <path class="cls-1" d="M204.03,540.42c-1.68.59-3.43.48-5.16.47,1.64-1.06,3.44-.36,5.16-.47Z"/>
  <path class="cls-1" d="M751.78,349.05c-1.64,0-3.29.02-4.93.03,1.64-.86,3.28-.83,4.93-.03Z"/>
  <path class="cls-1" d="M651.78,419.33c.03,1.73.11,3.47-.45,5.16.11-1.72-.58-3.52.45-5.16Z"/>
  <path class="cls-1" d="M227.41,504.46c1.74-.06,3.49-.19,5.18.44-1.73-.1-3.53.58-5.18-.44Z"/>
  <path class="cls-1" d="M288.62,506.15c1.47-.6,3.01-.49,4.54-.45-1.43,1-3.02.36-4.54.45Z"/>
  <path class="cls-1" d="M635.11,349.05c-1.44,0-2.87,0-4.31,0,1.44-.78,2.87-.78,4.31,0Z"/>
  <path class="cls-1" d="M265.86,483.15c-1.54.06-3.08.21-4.55-.46,1.52.09,3.12-.55,4.55.46Z"/>
  <path class="cls-1" d="M237.96,505.09c1.54-.05,3.1-.18,4.58.44-1.53-.09-3.13.55-4.58-.44Z"/>
  <path class="cls-1" d="M576.15,446.52c-1.52.08-3.04.23-4.47-.47,1.5.11,3.07-.53,4.47.47Z"/>
  <path class="cls-1" d="M252.9,446.43c.59,1.46.5,2.99.46,4.52-1.01-1.42-.36-3.01-.46-4.52Z"/>
  <path class="cls-1" d="M613.96,366.15c-.57-1.47-.49-3.01-.46-4.55,1.02,1.43.37,3.03.46,4.55Z"/>
  <path class="cls-1" d="M240.44,556.59c1.54-.06,3.08-.21,4.55.46-1.52-.09-3.12.55-4.55-.46Z"/>
  <path class="cls-1" d="M646.85,662.25c-.58-1.48-.49-3.02-.46-4.56,1.01,1.43.36,3.04.46,4.56Z"/>
  <path class="cls-1" d="M620.74,321.25c0,1.23.02,2.46.03,3.69-.83-1.22-.8-2.45-.03-3.69Z"/>
  <path class="cls-1" d="M653.64,539.13c0,1.23,0,2.46.01,3.69-.81-1.23-.8-2.46-.01-3.69Z"/>
  <path class="cls-1" d="M693.2,605.46c1.27-.65,2.63-.5,3.97-.44-1.24.95-2.64.37-3.97.44Z"/>
  <path class="cls-1" d="M319.16,545.33c-.01,1.23-.02,2.46-.03,3.69-.77-1.24-.8-2.47.03-3.69Z"/>
  <path class="cls-1" d="M303.22,555.23c0-1.23,0-2.46,0-3.69.78,1.23.78,2.46,0,3.69Z"/>
  <path class="cls-1" d="M221.17,478.19c-1.33.07-2.65.1-3.9-.47,1.31.07,2.7-.5,3.9.47Z"/>
  <path class="cls-1" d="M651.32,429.65c.52,1.26.5,2.59.45,3.92-.96-1.21-.38-2.6-.45-3.92Z"/>
  <path class="cls-1" d="M507.96,391.81c.54,1.25.52,2.58.47,3.9-.98-1.2-.4-2.59-.47-3.9Z"/>
  <path class="cls-1" d="M471.64,605.46c1.27-.65,2.63-.51,3.98-.44-1.24.95-2.64.37-3.98.44Z"/>
  <path class="cls-1" d="M725.34,449.17c-1.26.61-2.59.53-3.93.46,1.22-.97,2.61-.39,3.93-.46Z"/>
  <path class="cls-1" d="M738.66,478.3c.07,1.34.18,2.68-.45,3.94.07-1.32-.51-2.72.45-3.94Z"/>
  <path class="cls-1" d="M300.19,482.68c-1.24.59-2.56.52-3.89.45,1.2-.93,2.58-.37,3.89-.45Z"/>
  <path class="cls-1" d="M551.81,366.5c1.23-.61,2.55-.57,3.87-.47-1.19.96-2.57.39-3.87.47Z"/>
  <path class="cls-1" d="M215.97,504.29c1.4-.53,2.8-.44,4.2,0-1.4,0-2.8,0-4.2,0Z"/>
  <path class="cls-1" d="M705.06,553.33c1.04-.52,2.16-.5,3.28-.44-.99.87-2.17.41-3.28.44Z"/>
  <path class="cls-1" d="M248.51,557.23c1.11-.08,2.21-.09,3.22.46-1.09-.06-2.25.42-3.22-.46Z"/>
  <path class="cls-1" d="M583.01,607.49c1.14-.09,2.29-.19,3.34.45-1.13-.04-2.33.45-3.34-.45Z"/>
  <path class="cls-1" d="M437.17,467.83c1.11-.07,2.21-.06,3.24.47-1.09-.05-2.26.43-3.24-.47Z"/>
  <path class="cls-1" d="M445.25,611.24c1.02,0,2.04,0,3.06.01-1.02.73-2.04.74-3.06-.01Z"/>
  <path class="cls-1" d="M783.43,589.92c-1.13.09-2.25.1-3.29-.46,1.11.04,2.3-.44,3.29.46Z"/>
  <path class="cls-1" d="M266.51,472.78c1.02,0,2.05.02,3.07.03-1.03.76-2.05.78-3.07-.03Z"/>
  <path class="cls-1" d="M200.94,477.11c-1.06.49-2.19.48-3.32.44,1.01-.88,2.2-.41,3.32-.44Z"/>
  <path class="cls-1" d="M362.58,427.4c.08,1.11.12,2.22-.47,3.24.05-1.09-.42-2.26.47-3.24Z"/>
  <path class="cls-1" d="M228,688c-1.12.08-2.24.1-3.27-.47,1.1.05,2.28-.44,3.27.47Z"/>
  <path class="cls-1" d="M718.92,605.01c1.11-.09,2.21-.1,3.22.47-1.09-.06-2.26.42-3.22-.47Z"/>
  <path class="cls-1" d="M361.46,607.49c1.14-.08,2.28-.18,3.32.45-1.12-.03-2.32.45-3.32-.45Z"/>
  <path class="cls-1" d="M257.79,482.52c-1.12.08-2.24.11-3.27-.46,1.1.04,2.28-.43,3.27.46Z"/>
  <path class="cls-1" d="M738.06,485.12c.09,1.11.11,2.22-.48,3.23.06-1.09-.43-2.27.48-3.23Z"/>
  <path class="cls-1" d="M508.44,380.84c.06,1.14.08,2.27-.47,3.32.04-1.12-.46-2.32.47-3.32Z"/>
  <path class="cls-1" d="M590.43,589.91c-1.12.07-2.22.04-3.26-.46,1.1.05,2.28-.43,3.26.46Z"/>
  <path class="cls-1" d="M650.54,670.1c0,1.02,0,2.05,0,3.07-.77-1.02-.77-2.05,0-3.07Z"/>
  <path class="cls-1" d="M368.88,589.92c-1.12.08-2.23.04-3.28-.46,1.11.04,2.29-.44,3.28.46Z"/>
  <path class="cls-1" d="M224.31,705.56c1.15-.07,2.3-.15,3.36.46-1.13-.04-2.35.46-3.36-.46Z"/>
  <path class="cls-1" d="M253.28,706.03c1.03-.55,2.15-.52,3.27-.46-.99.89-2.16.41-3.27.46Z"/>
  <path class="cls-1" d="M666.8,611.23c1.02.01,2.04.02,3.05.03-1.03.71-2.04.73-3.05-.03Z"/>
</svg>