<?xml version="1.0" encoding="UTF-8"?>
<svg id="Layer_1" data-name="Layer 1" xmlns="http://www.w3.org/2000/svg" viewBox="0 0 1000 1000">
  <defs>
    <style>
      .cls-1 {
        fill: #fff;
      }
    </style>
  </defs>
  <path class="cls-1" d="M271.65,530.31c-3.13,9.9-6.26,19.84-10.96,29.15-6.01,12.01-15.98,18.82-29.26,20.75-10.26,1.49-20.6,1.06-30.94.69-6.48-.22-12.89-.91-19.18-2.51-1.31-.33-2.58-.84-3.89-1.16-1.02-.25-1.02-.73-.69-1.6,3.6-10.34,7.17-20.67,10.74-31.01,2.26-6.48,4.51-12.96,6.73-19.44.33-.95.73-1.31,1.78-1.27,4.91.07,9.83.04,14.74.04s9.83.04,14.74-.04c1.35-.04,1.42.33,1.02,1.49-3.6,10.12-7.13,20.27-10.74,30.39-.8,2.22-.36,4.04,1.31,5.57,1.75,1.57,3.71,1.64,5.75.76,1.82-.8,3.17-2.15,4.04-3.89,4.29-8.7,7.83-17.62,9.43-27.26.4-2.4-.15-4.44-1.71-6.26-1.67-1.93-3.64-3.57-5.68-5.13-5.5-4.11-11.03-8.19-15.47-13.54-1.38-1.64-2.62-3.39-3.75-5.24-2.18-3.6-2.58-7.46-1.31-11.43,3.68-11.47,7.72-22.86,14.92-32.72,6.84-9.39,16.23-14.41,27.95-15.07,11.28-.62,22.57-.58,33.81.4,4.91.4,9.75,1.06,14.52,2.33,1.16.33,1.35.73.95,1.86-5.5,15.4-10.92,30.83-16.34,46.23-.36,1.02-.8,1.38-1.89,1.38-9.65-.07-19.29-.07-28.9,0-1.35,0-1.49-.33-1.02-1.53,2.8-7.28,5.71-14.49,8.23-21.88.18-.55.33-1.06.44-1.6.69-3.09-.25-5.06-3.02-6.15-2.55-1.06-5.97-.15-7.06,2.37-2.91,6.73-6.15,13.39-7.17,20.75-.51,3.75,1.24,6.88,3.97,9.32,6.01,5.39,11.94,10.85,18.16,16.02,3.42,2.84,6.08,6.22,6.77,10.81.4,2.91-.15,5.71-1.02,8.44Z"/>
  <path class="cls-1" d="M350.92,526.05c-5.68,15.14-11.36,30.32-17,45.5-.44,1.2-.98,1.64-2.33,1.64-10.34-.07-20.67-.07-31.01,0-1.27,0-1.53-.29-1.35-1.6,1.93-14.63,3.82-29.26,5.71-43.9,1.06-8.23,2.11-16.49,3.13-24.71-.11-.11-.22-.22-.33-.33-8.34,23.04-16.67,46.04-24.93,69.08-.47,1.24-1.02,1.57-2.26,1.57-5.5-.07-11.03-.11-16.56-.04-1.38.04-1.56-.25-1.09-1.53,8.41-22.28,16.74-44.55,25.11-66.83,6.66-17.73,13.32-35.45,19.95-53.21.36-.95.73-1.38,1.89-1.38,10.66.04,21.37.04,32.03,0,1.24,0,1.53.33,1.35,1.49-2,14.01-3.97,28.06-5.9,42.08-1.27,9.1-2.51,18.24-3.75,27.37.11.18.22.4.29.62,5.13-14.3,10.26-28.61,15.36-42.91,3.24-9.1,6.52-18.2,9.72-27.3.33-1.02.8-1.35,1.89-1.35,5.64.07,11.25.11,16.85,0,1.53,0,1.46.47,1.02,1.6-9.28,24.71-18.53,49.43-27.81,74.14Z"/>
  <path class="cls-1" d="M419.39,451.62c-15.18,40.11-30.28,80.22-45.39,120.37-.4.98-.87,1.2-1.86,1.2-9.28-.04-18.56-.04-27.84,0-1.27,0-1.38-.29-.98-1.42,14.78-40.04,29.48-80.11,44.19-120.15.36-.95.76-1.31,1.82-1.31,4.8.07,9.61.04,14.45.04v-.04c4.84,0,9.72,0,14.6-.04,1.09,0,1.49.11,1.02,1.35Z"/>
  <path class="cls-1" d="M459.9,553.1c-4.59,11.61-13.43,18.64-25.7,20.6-11.61,1.86-23.29,1.71-34.72-1.6-1.46-.44-2.84-.98-4.26-1.46-4.33-1.42-6.12-4.59-6.15-8.92-.07-4.91,1.35-9.5,3.06-14.01,9.9-26.39,19.84-52.78,29.81-79.17,3.6-9.54,11.1-14.78,20.38-17.87,4.33-1.46,8.92-1.78,13.5-1.82,9.17-.07,18.34-.15,27.52.87,3.79.44,7.46,1.27,10.96,2.98,1.06.51,1.38,1.02.95,2.26-5.46,14.45-10.88,28.94-16.23,43.42-.4,1.02-.91,1.31-1.97,1.31-4.22-.07-8.44-.04-12.63-.04s-8.55-.04-12.81,0c-1.2.04-1.31-.25-.87-1.31,2.88-7.46,5.68-14.96,8.52-22.46.25-.69.51-1.38.66-2.11.62-2.73-.33-4.73-2.62-5.75-2.51-1.06-4.99-.44-6.51,1.75-.73.98-1.16,2.11-1.57,3.24-9.46,25.41-18.89,50.78-28.35,76.18-1.31,3.57-.4,6.04,2.73,7.24,2.8,1.06,5.79-.51,6.99-3.71,2.26-5.86,4.44-11.68,6.62-17.54,1.82-4.88,3.64-9.75,5.39-14.63.36-.98.8-1.31,1.86-1.27,8.88.04,17.76.04,26.64,0,1.16,0,1.27.25.87,1.31-4,10.85-7.79,21.77-12.05,32.5Z"/>
  <path class="cls-1" d="M600.14,555.83c-2.07,5.53-4.11,11.06-6.15,16.6-.22.62-.58.87-1.24.8-.22-.04-.47,0-.73,0-26.64,0-53.29-.04-79.93.04-1.42,0-1.78-.36-1.86-1.78-.95-17.4-1.97-34.8-2.98-52.3-.4.33-.44.76-.58,1.13-5.71,17.03-11.43,34.03-17.11,51.07-.47,1.42-1.09,1.86-2.58,1.86-9.03-.15-18.09-.11-27.12-.15-.36-.04-.76-.07-1.27-.11,1.71-4.99,3.42-9.9,5.13-14.78,12.34-35.31,24.64-70.61,36.94-105.92.4-1.2.91-1.6,2.18-1.6,9.1.11,18.16.11,27.26.11,1.27,0,1.6.15,1.06,1.53-5.93,15.58-11.79,31.23-17.69,46.84-.07.22-.15.47-.22.73.11.11.26.22.36.33,13.18-16.09,26.39-32.14,39.56-48.23.76-.95,1.53-1.35,2.77-1.35,7.72.07,15.43.04,23.19.04h1.86c-18.09,20.64-35.96,40.95-53.94,61.4,2.66.76,3.86,2.77,4.84,4.95,2.07,4.59,2.98,9.5,3.71,14.45,1.89,13.07,2.29,26.24,2.4,39.42,0,.51,0,.98.22,1.53.44-1.13.87-2.26,1.27-3.42,14.23-39.02,28.5-78.04,42.69-117.06.44-1.16.91-1.6,2.22-1.6,17.54.07,35.12.04,52.67.07h1.53c-.76,1.97-1.42,3.75-2.11,5.57-1.42,3.68-2.84,7.39-4.19,11.1-.33.91-.73,1.27-1.78,1.27-7.64-.15-15.25-.18-22.86-.29-.91,0-1.42.15-1.78,1.13-3.71,10.56-7.46,21.11-11.21,31.67-.11.33-.18.66-.29,1.13h20.09c-1.64,4.11-3.2,8.04-4.8,11.98-.65,1.67-1.38,3.31-1.97,5.02-.29.87-.76,1.09-1.64,1.09-5.71-.04-11.43,0-17.18,0-.8,0-1.31.15-1.64,1.06-3.82,10.96-7.68,21.88-11.54,32.83-.07.25-.11.58-.18.87,5.93,0,11.79.04,17.69,0,2.04,0,4.11,0,6.15-.04.8,0,1.09.15.76,1.02Z"/>
  <path class="cls-1" d="M710.29,459.37c-1.17-5.21-4.2-8.06-9.4-8.73-3.19-.5-6.21-.5-9.4-.5h-42.15c-1.01-.17-1.51.17-2.02,1.34-14.61,39.96-29.05,80.1-43.66,120.06-.5,1.51-.17,1.68,1.17,1.68,8.9-.17,17.97-.17,26.87,0,1.18,0,1.68-.5,2.18-1.51,5.88-16.96,11.76-33.92,17.8-50.88.5-1.51,1.34-2.01,3.02-1.85,2.01.34,3.36,1.51,3.7,3.53.67,2.52,0,4.87-.67,7.22-4.03,11.25-8.06,22.67-11.92,33.92-1.01,2.35-1.51,4.87-1.18,7.39.17,1.85.5,2.18,2.35,2.18h27.87c1.17,0,1.51-.34,1.17-1.51-.67-2.69-.67-5.37,0-8.06,1.17-4.7,2.86-9.24,4.53-13.94,2.86-8.06,6.04-15.95,7.56-24.35.5-3.19.5-6.05-1.18-8.73-1.34-2.35-3.02-4.2-5.71-5.54,1.01-.34,1.85-.67,2.52-1.01,6.04-2.18,10.74-6.21,13.77-11.75,5.04-9.57,9.07-19.48,11.92-29.89.84-3.02,1.34-5.88.84-9.07ZM676.03,482.71c-1.34,3.36-2.35,7.05-4.03,10.41-.5,1.18-1.01,2.18-1.51,3.19-1.85,3.69-4.87,5.04-8.23,4.53q-4.03,0-2.86-3.36c3.53-9.57,7.22-19.31,10.75-28.88.34-1.18,1.01-1.68,2.18-1.51.33.17.67,0,1.01,0,3.69.17,5.88,2.69,5.37,6.38-.5,3.19-1.34,6.21-2.69,9.24Z"/>
  <path class="cls-1" d="M776.67,529.33c-3.06,10.19-6.41,20.35-11.1,29.92-6.19,12.67-16.71,19.69-30.68,21.22-14.63,1.64-29.23,1.27-43.79-.87-3.02-.44-5.97-1.27-8.88-2.18-.98-.33-1.16-.73-.8-1.67,4.73-13.61,9.43-27.23,14.16-40.8,1.13-3.28,2.29-6.52,3.38-9.79.29-.84.62-1.16,1.56-1.16,9.94.04,19.87.04,29.77,0,1.42,0,1.27.47.95,1.46-3.6,10.08-7.17,20.16-10.7,30.25-.95,2.69-.44,4.51,1.49,6.04,1.71,1.38,4.19,1.42,6.33.07,1.38-.84,2.51-2,3.2-3.49,4.04-8.19,7.32-16.63,9.21-25.62.84-4.04-.26-6.99-3.17-9.61-2.91-2.62-6.12-4.91-9.21-7.28-4.51-3.46-8.63-7.32-12.05-11.9-.98-1.31-1.86-2.73-2.62-4.19-1.78-3.38-1.64-6.84-.66-10.37,1.93-7.17,5.06-13.9,8.01-20.67,3.24-7.39,7.46-14.05,13.83-19.18,5.53-4.4,11.79-6.99,18.82-7.53,14.23-1.16,28.46-.91,42.62.91,2.8.36,5.53.91,8.26,1.71.73.22,1.06.4.73,1.31-5.57,15.69-11.1,31.38-16.63,47.06-.18.62-.4.98-1.2.98-10.19-.04-20.38-.04-30.57-.04-.07,0-.15-.07-.36-.15,1.67-4.33,3.35-8.66,4.95-12.99,1.46-3.89,3.17-7.68,4.19-11.72.76-3.17-.26-5.24-3.02-6.33-2.62-1.02-6.01,0-7.13,2.58-2.77,6.44-5.79,12.88-6.99,19.87-.69,4,.91,7.35,3.79,9.97,5.93,5.31,11.83,10.7,17.94,15.8,3.2,2.69,5.9,5.75,6.84,9.97.65,2.84.36,5.71-.47,8.44Z"/>
  <path class="cls-1" d="M230.88,419.74c-6.55,0-12.93.5-19.31,2.01-11.08,3.02-20.65,8.06-28.21,17.13-5.54,6.55-9.57,14.11-12.59,22-18.3,47.02-35.93,94.2-53.73,141.39-.17.34-.5.67-.17,1.18h635.56c5.88,0,11.59-.34,17.13-1.85,19.65-4.87,33.25-16.62,40.64-35.43,17.46-45.84,35.09-91.68,52.56-137.36,1.18-3.02,2.35-6.05,3.53-9.07H230.88ZM757.14,583.97c-5.88,2.85-12.09,3.86-18.64,3.86H162.54q-2.52,0-1.68-2.35c14.11-39.63,28.21-79.42,42.65-118.88,2.01-5.37,4.2-10.24,7.39-14.94,5.71-8.73,13.77-13.43,23.85-15.45,4.36-.84,8.56-.84,12.93-.84h574.95c-2.01,5.54-3.86,10.92-5.88,16.29-13.1,36.44-26.36,72.71-39.46,109.15-3.7,10.41-10.07,18.3-20.15,23.17Z"/>
  <path class="cls-1" d="M867.46,440.56c-4.53,0-7.72,3.19-7.72,7.72s3.19,7.72,7.72,7.72,7.72-3.19,7.72-7.72-3.19-7.72-7.72-7.72ZM867.63,454.17c-3.19,0-5.54-2.52-5.54-5.88-.17-3.36,2.19-5.88,5.37-5.88s5.54,2.69,5.54,5.88c-.17,3.36-2.52,5.88-5.37,5.88Z"/>
  <path class="cls-1" d="M870.98,446.27c-.17-1.34-1.18-2.01-2.52-2.01-1.01-.17-2.19-.17-3.19-.17-.84,0-1.01.34-.84,1.01v6.21c-.17.84,0,1.18.84,1.18s1.01-.34,1.01-1.01v-1.34c0-.5-.34-1.01.34-1.01.5-.17.67.34.84.67.17.34.5.67.67,1.18.34,1.51,1.34,1.68,2.85,1.34-.67-1.18-1.18-2.18-2.01-3.36,1.68-.34,2.18-1.34,2.01-2.69ZM867.46,447.62c-.84,0-1.34-.17-1.34-1.01.17-.84.34-1.18,1.18-1.01.67,0,1.51-.17,1.68.84,0,1.18-.84,1.01-1.51,1.18Z"/>
  <path class="cls-1" d="M271.65,530.31c-3.13,9.9-6.26,19.84-10.96,29.15-6.01,12.01-15.98,18.82-29.26,20.75-10.26,1.49-20.6,1.06-30.94.69-6.48-.22-12.89-.91-19.18-2.51-1.31-.33-2.58-.84-3.89-1.16-1.02-.25-1.02-.73-.69-1.6,3.6-10.34,7.17-20.67,10.74-31.01,2.26-6.48,4.51-12.96,6.73-19.44.33-.95.73-1.31,1.78-1.27,4.91.07,9.83.04,14.74.04s9.83.04,14.74-.04c1.35-.04,1.42.33,1.02,1.49-3.6,10.12-7.13,20.27-10.74,30.39-.8,2.22-.36,4.04,1.31,5.57,1.75,1.57,3.71,1.64,5.75.76,1.82-.8,3.17-2.15,4.04-3.89,4.29-8.7,7.83-17.62,9.43-27.26.4-2.4-.15-4.44-1.71-6.26-1.67-1.93-3.64-3.57-5.68-5.13-5.5-4.11-11.03-8.19-15.47-13.54-1.38-1.64-2.62-3.39-3.75-5.24-2.18-3.6-2.58-7.46-1.31-11.43,3.68-11.47,7.72-22.86,14.92-32.72,6.84-9.39,16.23-14.41,27.95-15.07,11.28-.62,22.57-.58,33.81.4,4.91.4,9.75,1.06,14.52,2.33,1.16.33,1.35.73.95,1.86-5.5,15.4-10.92,30.83-16.34,46.23-.36,1.02-.8,1.38-1.89,1.38-9.65-.07-19.29-.07-28.9,0-1.35,0-1.49-.33-1.02-1.53,2.8-7.28,5.71-14.49,8.23-21.88.18-.55.33-1.06.44-1.6.69-3.09-.25-5.06-3.02-6.15-2.55-1.06-5.97-.15-7.06,2.37-2.91,6.73-6.15,13.39-7.17,20.75-.51,3.75,1.24,6.88,3.97,9.32,6.01,5.39,11.94,10.85,18.16,16.02,3.42,2.84,6.08,6.22,6.77,10.81.4,2.91-.15,5.71-1.02,8.44Z"/>
  <path class="cls-1" d="M350.92,526.05c-5.68,15.14-11.36,30.32-17,45.5-.44,1.2-.98,1.64-2.33,1.64-10.34-.07-20.67-.07-31.01,0-1.27,0-1.53-.29-1.35-1.6,1.93-14.63,3.82-29.26,5.71-43.9,1.06-8.23,2.11-16.49,3.13-24.71-.11-.11-.22-.22-.33-.33-8.34,23.04-16.67,46.04-24.93,69.08-.47,1.24-1.02,1.57-2.26,1.57-5.5-.07-11.03-.11-16.56-.04-1.38.04-1.56-.25-1.09-1.53,8.41-22.28,16.74-44.55,25.11-66.83,6.66-17.73,13.32-35.45,19.95-53.21.36-.95.73-1.38,1.89-1.38,10.66.04,21.37.04,32.03,0,1.24,0,1.53.33,1.35,1.49-2,14.01-3.97,28.06-5.9,42.08-1.27,9.1-2.51,18.24-3.75,27.37.11.18.22.4.29.62,5.13-14.3,10.26-28.61,15.36-42.91,3.24-9.1,6.52-18.2,9.72-27.3.33-1.02.8-1.35,1.89-1.35,5.64.07,11.25.11,16.85,0,1.53,0,1.46.47,1.02,1.6-9.28,24.71-18.53,49.43-27.81,74.14Z"/>
  <path class="cls-1" d="M419.39,451.62c-15.18,40.11-30.28,80.22-45.39,120.37-.4.98-.87,1.2-1.86,1.2-9.28-.04-18.56-.04-27.84,0-1.27,0-1.38-.29-.98-1.42,14.78-40.04,29.48-80.11,44.19-120.15.36-.95.76-1.31,1.82-1.31,4.8.07,9.61.04,14.45.04v-.04c4.84,0,9.72,0,14.6-.04,1.09,0,1.49.11,1.02,1.35Z"/>
  <path class="cls-1" d="M459.9,553.1c-4.59,11.61-13.43,18.64-25.7,20.6-11.61,1.86-23.29,1.71-34.72-1.6-1.46-.44-2.84-.98-4.26-1.46-4.33-1.42-6.12-4.59-6.15-8.92-.07-4.91,1.35-9.5,3.06-14.01,9.9-26.39,19.84-52.78,29.81-79.17,3.6-9.54,11.1-14.78,20.38-17.87,4.33-1.46,8.92-1.78,13.5-1.82,9.17-.07,18.34-.15,27.52.87,3.79.44,7.46,1.27,10.96,2.98,1.06.51,1.38,1.02.95,2.26-5.46,14.45-10.88,28.94-16.23,43.42-.4,1.02-.91,1.31-1.97,1.31-4.22-.07-8.44-.04-12.63-.04s-8.55-.04-12.81,0c-1.2.04-1.31-.25-.87-1.31,2.88-7.46,5.68-14.96,8.52-22.46.25-.69.51-1.38.66-2.11.62-2.73-.33-4.73-2.62-5.75-2.51-1.06-4.99-.44-6.51,1.75-.73.98-1.16,2.11-1.57,3.24-9.46,25.41-18.89,50.78-28.35,76.18-1.31,3.57-.4,6.04,2.73,7.24,2.8,1.06,5.79-.51,6.99-3.71,2.26-5.86,4.44-11.68,6.62-17.54,1.82-4.88,3.64-9.75,5.39-14.63.36-.98.8-1.31,1.86-1.27,8.88.04,17.76.04,26.64,0,1.16,0,1.27.25.87,1.31-4,10.85-7.79,21.77-12.05,32.5Z"/>
  <path class="cls-1" d="M600.14,555.83c-2.07,5.53-4.11,11.06-6.15,16.6-.22.62-.58.87-1.24.8-.22-.04-.47,0-.73,0-26.64,0-53.29-.04-79.93.04-1.42,0-1.78-.36-1.86-1.78-.95-17.4-1.97-34.8-2.98-52.3-.4.33-.44.76-.58,1.13-5.71,17.03-11.43,34.03-17.11,51.07-.47,1.42-1.09,1.86-2.58,1.86-9.03-.15-18.09-.11-27.12-.15-.36-.04-.76-.07-1.27-.11,1.71-4.99,3.42-9.9,5.13-14.78,12.34-35.31,24.64-70.61,36.94-105.92.4-1.2.91-1.6,2.18-1.6,9.1.11,18.16.11,27.26.11,1.27,0,1.6.15,1.06,1.53-5.93,15.58-11.79,31.23-17.69,46.84-.07.22-.15.47-.22.73.11.11.26.22.36.33,13.18-16.09,26.39-32.14,39.56-48.23.76-.95,1.53-1.35,2.77-1.35,7.72.07,15.43.04,23.19.04h1.86c-18.09,20.64-35.96,40.95-53.94,61.4,2.66.76,3.86,2.77,4.84,4.95,2.07,4.59,2.98,9.5,3.71,14.45,1.89,13.07,2.29,26.24,2.4,39.42,0,.51,0,.98.22,1.53.44-1.13.87-2.26,1.27-3.42,14.23-39.02,28.5-78.04,42.69-117.06.44-1.16.91-1.6,2.22-1.6,17.54.07,35.12.04,52.67.07h1.53c-.76,1.97-1.42,3.75-2.11,5.57-1.42,3.68-2.84,7.39-4.19,11.1-.33.91-.73,1.27-1.78,1.27-7.64-.15-15.25-.18-22.86-.29-.91,0-1.42.15-1.78,1.13-3.71,10.56-7.46,21.11-11.21,31.67-.11.33-.18.66-.29,1.13h20.09c-1.64,4.11-3.2,8.04-4.8,11.98-.65,1.67-1.38,3.31-1.97,5.02-.29.87-.76,1.09-1.64,1.09-5.71-.04-11.43,0-17.18,0-.8,0-1.31.15-1.64,1.06-3.82,10.96-7.68,21.88-11.54,32.83-.07.25-.11.58-.18.87,5.93,0,11.79.04,17.69,0,2.04,0,4.11,0,6.15-.04.8,0,1.09.15.76,1.02Z"/>
  <path class="cls-1" d="M710.29,459.37c-1.17-5.21-4.2-8.06-9.4-8.73-3.19-.5-6.21-.5-9.4-.5h-42.15c-1.01-.17-1.51.17-2.02,1.34-14.61,39.96-29.05,80.1-43.66,120.06-.5,1.51-.17,1.68,1.17,1.68,8.9-.17,17.97-.17,26.87,0,1.18,0,1.68-.5,2.18-1.51,5.88-16.96,11.76-33.92,17.8-50.88.5-1.51,1.34-2.01,3.02-1.85,2.01.34,3.36,1.51,3.7,3.53.67,2.52,0,4.87-.67,7.22-4.03,11.25-8.06,22.67-11.92,33.92-1.01,2.35-1.51,4.87-1.18,7.39.17,1.85.5,2.18,2.35,2.18h27.87c1.17,0,1.51-.34,1.17-1.51-.67-2.69-.67-5.37,0-8.06,1.17-4.7,2.86-9.24,4.53-13.94,2.86-8.06,6.04-15.95,7.56-24.35.5-3.19.5-6.05-1.18-8.73-1.34-2.35-3.02-4.2-5.71-5.54,1.01-.34,1.85-.67,2.52-1.01,6.04-2.18,10.74-6.21,13.77-11.75,5.04-9.57,9.07-19.48,11.92-29.89.84-3.02,1.34-5.88.84-9.07ZM676.03,482.71c-1.34,3.36-2.35,7.05-4.03,10.41-.5,1.18-1.01,2.18-1.51,3.19-1.85,3.69-4.87,5.04-8.23,4.53q-4.03,0-2.86-3.36c3.53-9.57,7.22-19.31,10.75-28.88.34-1.18,1.01-1.68,2.18-1.51.33.17.67,0,1.01,0,3.69.17,5.88,2.69,5.37,6.38-.5,3.19-1.34,6.21-2.69,9.24Z"/>
  <path class="cls-1" d="M805.35,445.87c-5.57,15.69-11.1,31.38-16.63,47.06-.18.62-.4.98-1.2.98-10.19-.04-20.38-.04-30.57-.04-.07,0-.15-.07-.36-.15,1.67-4.33,3.35-8.66,4.95-12.99,1.46-3.89,3.17-7.68,4.19-11.72.76-3.17-.26-5.24-3.02-6.33-2.62-1.02-6.01,0-7.13,2.58-2.77,6.44-5.79,12.88-6.99,19.87-.69,4,.91,7.35,3.79,9.97,5.93,5.31,11.83,10.7,17.94,15.8,3.2,2.69,5.9,5.75,6.84,9.97.65,2.84.36,5.71-.47,8.44-3.06,10.19-6.41,20.35-11.1,29.92-6.19,12.67-16.71,19.69-30.68,21.22-14.63,1.64-29.23,1.27-43.79-.87-3.02-.44-5.97-1.27-8.88-2.18-.98-.33-1.16-.73-.8-1.67,4.73-13.61,9.43-27.23,14.16-40.8,1.13-3.28,2.29-6.52,3.38-9.79.29-.84.62-1.16,1.56-1.16,9.94.04,19.87.04,29.77,0,1.42,0,1.27.47.95,1.46-3.6,10.08-7.17,20.16-10.7,30.25-.95,2.69-.44,4.51,1.49,6.04,1.71,1.38,4.19,1.42,6.33.07,1.38-.84,2.51-2,3.2-3.49,4.04-8.19,7.32-16.63,9.21-25.62.84-4.04-.26-6.99-3.17-9.61-2.91-2.62-6.12-4.91-9.21-7.28-4.51-3.46-8.63-7.32-12.05-11.9-.98-1.31-1.86-2.73-2.62-4.19-1.78-3.38-1.64-6.84-.66-10.37,1.93-7.17,5.06-13.9,8.01-20.67,3.24-7.39,7.46-14.05,13.83-19.18,5.53-4.4,11.79-6.99,18.82-7.53,14.23-1.16,28.46-.91,42.62.91,2.8.36,5.53.91,8.26,1.71.73.22,1.06.4.73,1.31Z"/>
  <path class="cls-1" d="M853.86,426.8H230.05c-4.87,0-9.74.34-14.61,1.34-11.42,2.52-21.16,7.72-28.38,17.13-4.87,6.38-8.06,13.6-10.92,20.99-16.46,42.65-32.58,85.47-48.7,128.12q-.84,2.01,1.34,2.01h626.83c3.86-.17,7.56-.5,11.25-1.34,17.8-4.03,30.06-14.27,36.6-31.23,17.3-45,34.59-90,51.72-135.01q.84-2.01-1.34-2.01ZM816.75,451.65c-13.1,36.44-26.36,72.71-39.46,109.15-3.7,10.41-10.07,18.3-20.15,23.17-5.88,2.85-12.09,3.86-18.64,3.86H162.54q-2.52,0-1.68-2.35c14.11-39.63,28.21-79.42,42.65-118.88,2.01-5.37,4.2-10.24,7.39-14.94,5.71-8.73,13.77-13.43,23.85-15.45,4.36-.84,8.56-.84,12.93-.84h574.95c-2.01,5.54-3.86,10.92-5.88,16.29Z"/>
  <path class="cls-1" d="M870.98,446.27c-.17-1.34-1.18-2.01-2.52-2.01-1.01-.17-2.19-.17-3.19-.17-.84,0-1.01.34-.84,1.01v6.21c-.17.84,0,1.18.84,1.18s1.01-.34,1.01-1.01v-1.34c0-.5-.34-1.01.34-1.01.5-.17.67.34.84.67.17.34.5.67.67,1.18.34,1.51,1.34,1.68,2.85,1.34-.67-1.18-1.18-2.18-2.01-3.36,1.68-.34,2.18-1.34,2.01-2.69ZM867.46,447.62c-.84,0-1.34-.17-1.34-1.01.17-.84.34-1.18,1.18-1.01.67,0,1.51-.17,1.68.84,0,1.18-.84,1.01-1.51,1.18Z"/>
  <path class="cls-1" d="M271.65,530.31c-3.13,9.9-6.26,19.84-10.96,29.15-6.01,12.01-15.98,18.82-29.26,20.75-10.26,1.49-20.6,1.06-30.94.69-6.48-.22-12.89-.91-19.18-2.51-1.31-.33-2.58-.84-3.89-1.16-1.02-.25-1.02-.73-.69-1.6,3.6-10.34,7.17-20.67,10.74-31.01,2.26-6.48,4.51-12.96,6.73-19.44.33-.95.73-1.31,1.78-1.27,4.91.07,9.83.04,14.74.04s9.83.04,14.74-.04c1.35-.04,1.42.33,1.02,1.49-3.6,10.12-7.13,20.27-10.74,30.39-.8,2.22-.36,4.04,1.31,5.57,1.75,1.57,3.71,1.64,5.75.76,1.82-.8,3.17-2.15,4.04-3.89,4.29-8.7,7.83-17.62,9.43-27.26.4-2.4-.15-4.44-1.71-6.26-1.67-1.93-3.64-3.57-5.68-5.13-5.5-4.11-11.03-8.19-15.47-13.54-1.38-1.64-2.62-3.39-3.75-5.24-2.18-3.6-2.58-7.46-1.31-11.43,3.68-11.47,7.72-22.86,14.92-32.72,6.84-9.39,16.23-14.41,27.95-15.07,11.28-.62,22.57-.58,33.81.4,4.91.4,9.75,1.06,14.52,2.33,1.16.33,1.35.73.95,1.86-5.5,15.4-10.92,30.83-16.34,46.23-.36,1.02-.8,1.38-1.89,1.38-9.65-.07-19.29-.07-28.9,0-1.35,0-1.49-.33-1.02-1.53,2.8-7.28,5.71-14.49,8.23-21.88.18-.55.33-1.06.44-1.6.69-3.09-.25-5.06-3.02-6.15-2.55-1.06-5.97-.15-7.06,2.37-2.91,6.73-6.15,13.39-7.17,20.75-.51,3.75,1.24,6.88,3.97,9.32,6.01,5.39,11.94,10.85,18.16,16.02,3.42,2.84,6.08,6.22,6.77,10.81.4,2.91-.15,5.71-1.02,8.44Z"/>
  <path class="cls-1" d="M350.92,526.05c-5.68,15.14-11.36,30.32-17,45.5-.44,1.2-.98,1.64-2.33,1.64-10.34-.07-20.67-.07-31.01,0-1.27,0-1.53-.29-1.35-1.6,1.93-14.63,3.82-29.26,5.71-43.9,1.06-8.23,2.11-16.49,3.13-24.71-.11-.11-.22-.22-.33-.33-8.34,23.04-16.67,46.04-24.93,69.08-.47,1.24-1.02,1.57-2.26,1.57-5.5-.07-11.03-.11-16.56-.04-1.38.04-1.56-.25-1.09-1.53,8.41-22.28,16.74-44.55,25.11-66.83,6.66-17.73,13.32-35.45,19.95-53.21.36-.95.73-1.38,1.89-1.38,10.66.04,21.37.04,32.03,0,1.24,0,1.53.33,1.35,1.49-2,14.01-3.97,28.06-5.9,42.08-1.27,9.1-2.51,18.24-3.75,27.37.11.18.22.4.29.62,5.13-14.3,10.26-28.61,15.36-42.91,3.24-9.1,6.52-18.2,9.72-27.3.33-1.02.8-1.35,1.89-1.35,5.64.07,11.25.11,16.85,0,1.53,0,1.46.47,1.02,1.6-9.28,24.71-18.53,49.43-27.81,74.14Z"/>
  <path class="cls-1" d="M419.39,451.62c-15.18,40.11-30.28,80.22-45.39,120.37-.4.98-.87,1.2-1.86,1.2-9.28-.04-18.56-.04-27.84,0-1.27,0-1.38-.29-.98-1.42,14.78-40.04,29.48-80.11,44.19-120.15.36-.95.76-1.31,1.82-1.31,4.8.07,9.61.04,14.45.04v-.04c4.84,0,9.72,0,14.6-.04,1.09,0,1.49.11,1.02,1.35Z"/>
  <path class="cls-1" d="M459.9,553.1c-4.59,11.61-13.43,18.64-25.7,20.6-11.61,1.86-23.29,1.71-34.72-1.6-1.46-.44-2.84-.98-4.26-1.46-4.33-1.42-6.12-4.59-6.15-8.92-.07-4.91,1.35-9.5,3.06-14.01,9.9-26.39,19.84-52.78,29.81-79.17,3.6-9.54,11.1-14.78,20.38-17.87,4.33-1.46,8.92-1.78,13.5-1.82,9.17-.07,18.34-.15,27.52.87,3.79.44,7.46,1.27,10.96,2.98,1.06.51,1.38,1.02.95,2.26-5.46,14.45-10.88,28.94-16.23,43.42-.4,1.02-.91,1.31-1.97,1.31-4.22-.07-8.44-.04-12.63-.04s-8.55-.04-12.81,0c-1.2.04-1.31-.25-.87-1.31,2.88-7.46,5.68-14.96,8.52-22.46.25-.69.51-1.38.66-2.11.62-2.73-.33-4.73-2.62-5.75-2.51-1.06-4.99-.44-6.51,1.75-.73.98-1.16,2.11-1.57,3.24-9.46,25.41-18.89,50.78-28.35,76.18-1.31,3.57-.4,6.04,2.73,7.24,2.8,1.06,5.79-.51,6.99-3.71,2.26-5.86,4.44-11.68,6.62-17.54,1.82-4.88,3.64-9.75,5.39-14.63.36-.98.8-1.31,1.86-1.27,8.88.04,17.76.04,26.64,0,1.16,0,1.27.25.87,1.31-4,10.85-7.79,21.77-12.05,32.5Z"/>
  <path class="cls-1" d="M600.14,555.83c-2.07,5.53-4.11,11.06-6.15,16.6-.22.62-.58.87-1.24.8-.22-.04-.47,0-.73,0-26.64,0-53.29-.04-79.93.04-1.42,0-1.78-.36-1.86-1.78-.95-17.4-1.97-34.8-2.98-52.3-.4.33-.44.76-.58,1.13-5.71,17.03-11.43,34.03-17.11,51.07-.47,1.42-1.09,1.86-2.58,1.86-9.03-.15-18.09-.11-27.12-.15-.36-.04-.76-.07-1.27-.11,1.71-4.99,3.42-9.9,5.13-14.78,12.34-35.31,24.64-70.61,36.94-105.92.4-1.2.91-1.6,2.18-1.6,9.1.11,18.16.11,27.26.11,1.27,0,1.6.15,1.06,1.53-5.93,15.58-11.79,31.23-17.69,46.84-.07.22-.15.47-.22.73.11.11.26.22.36.33,13.18-16.09,26.39-32.14,39.56-48.23.76-.95,1.53-1.35,2.77-1.35,7.72.07,15.43.04,23.19.04h1.86c-18.09,20.64-35.96,40.95-53.94,61.4,2.66.76,3.86,2.77,4.84,4.95,2.07,4.59,2.98,9.5,3.71,14.45,1.89,13.07,2.29,26.24,2.4,39.42,0,.51,0,.98.22,1.53.44-1.13.87-2.26,1.27-3.42,14.23-39.02,28.5-78.04,42.69-117.06.44-1.16.91-1.6,2.22-1.6,17.54.07,35.12.04,52.67.07h1.53c-.76,1.97-1.42,3.75-2.11,5.57-1.42,3.68-2.84,7.39-4.19,11.1-.33.91-.73,1.27-1.78,1.27-7.64-.15-15.25-.18-22.86-.29-.91,0-1.42.15-1.78,1.13-3.71,10.56-7.46,21.11-11.21,31.67-.11.33-.18.66-.29,1.13h20.09c-1.64,4.11-3.2,8.04-4.8,11.98-.65,1.67-1.38,3.31-1.97,5.02-.29.87-.76,1.09-1.64,1.09-5.71-.04-11.43,0-17.18,0-.8,0-1.31.15-1.64,1.06-3.82,10.96-7.68,21.88-11.54,32.83-.07.25-.11.58-.18.87,5.93,0,11.79.04,17.69,0,2.04,0,4.11,0,6.15-.04.8,0,1.09.15.76,1.02Z"/>
  <path class="cls-1" d="M710.29,459.37c-1.17-5.21-4.2-8.06-9.4-8.73-3.19-.5-6.21-.5-9.4-.5h-42.15c-1.01-.17-1.51.17-2.02,1.34-14.61,39.96-29.05,80.1-43.66,120.06-.5,1.51-.17,1.68,1.17,1.68,8.9-.17,17.97-.17,26.87,0,1.18,0,1.68-.5,2.18-1.51,5.88-16.96,11.76-33.92,17.8-50.88.5-1.51,1.34-2.01,3.02-1.85,2.01.34,3.36,1.51,3.7,3.53.67,2.52,0,4.87-.67,7.22-4.03,11.25-8.06,22.67-11.92,33.92-1.01,2.35-1.51,4.87-1.18,7.39.17,1.85.5,2.18,2.35,2.18h27.87c1.17,0,1.51-.34,1.17-1.51-.67-2.69-.67-5.37,0-8.06,1.17-4.7,2.86-9.24,4.53-13.94,2.86-8.06,6.04-15.95,7.56-24.35.5-3.19.5-6.05-1.18-8.73-1.34-2.35-3.02-4.2-5.71-5.54,1.01-.34,1.85-.67,2.52-1.01,6.04-2.18,10.74-6.21,13.77-11.75,5.04-9.57,9.07-19.48,11.92-29.89.84-3.02,1.34-5.88.84-9.07ZM676.03,482.71c-1.34,3.36-2.35,7.05-4.03,10.41-.5,1.18-1.01,2.18-1.51,3.19-1.85,3.69-4.87,5.04-8.23,4.53q-4.03,0-2.86-3.36c3.53-9.57,7.22-19.31,10.75-28.88.34-1.18,1.01-1.68,2.18-1.51.33.17.67,0,1.01,0,3.69.17,5.88,2.69,5.37,6.38-.5,3.19-1.34,6.21-2.69,9.24Z"/>
  <path class="cls-1" d="M805.35,445.87c-5.57,15.69-11.1,31.38-16.63,47.06-.18.62-.4.98-1.2.98-10.19-.04-20.38-.04-30.57-.04-.07,0-.15-.07-.36-.15,1.67-4.33,3.35-8.66,4.95-12.99,1.46-3.89,3.17-7.68,4.19-11.72.76-3.17-.26-5.24-3.02-6.33-2.62-1.02-6.01,0-7.13,2.58-2.77,6.44-5.79,12.88-6.99,19.87-.69,4,.91,7.35,3.79,9.97,5.93,5.31,11.83,10.7,17.94,15.8,3.2,2.69,5.9,5.75,6.84,9.97.65,2.84.36,5.71-.47,8.44-3.06,10.19-6.41,20.35-11.1,29.92-6.19,12.67-16.71,19.69-30.68,21.22-14.63,1.64-29.23,1.27-43.79-.87-3.02-.44-5.97-1.27-8.88-2.18-.98-.33-1.16-.73-.8-1.67,4.73-13.61,9.43-27.23,14.16-40.8,1.13-3.28,2.29-6.52,3.38-9.79.29-.84.62-1.16,1.56-1.16,9.94.04,19.87.04,29.77,0,1.42,0,1.27.47.95,1.46-3.6,10.08-7.17,20.16-10.7,30.25-.95,2.69-.44,4.51,1.49,6.04,1.71,1.38,4.19,1.42,6.33.07,1.38-.84,2.51-2,3.2-3.49,4.04-8.19,7.32-16.63,9.21-25.62.84-4.04-.26-6.99-3.17-9.61-2.91-2.62-6.12-4.91-9.21-7.28-4.51-3.46-8.63-7.32-12.05-11.9-.98-1.31-1.86-2.73-2.62-4.19-1.78-3.38-1.64-6.84-.66-10.37,1.93-7.17,5.06-13.9,8.01-20.67,3.24-7.39,7.46-14.05,13.83-19.18,5.53-4.4,11.79-6.99,18.82-7.53,14.23-1.16,28.46-.91,42.62.91,2.8.36,5.53.91,8.26,1.71.73.22,1.06.4.73,1.31Z"/>
  <path class="cls-1" d="M870.98,446.27c-.17-1.34-1.18-2.01-2.52-2.01-1.01-.17-2.19-.17-3.19-.17-.84,0-1.01.34-.84,1.01v6.21c-.17.84,0,1.18.84,1.18s1.01-.34,1.01-1.01v-1.34c0-.5-.34-1.01.34-1.01.5-.17.67.34.84.67.17.34.5.67.67,1.18.34,1.51,1.34,1.68,2.85,1.34-.67-1.18-1.18-2.18-2.01-3.36,1.68-.34,2.18-1.34,2.01-2.69ZM867.46,447.62c-.84,0-1.34-.17-1.34-1.01.17-.84.34-1.18,1.18-1.01.67,0,1.51-.17,1.68.84,0,1.18-.84,1.01-1.51,1.18Z"/>
  <path class="cls-1" d="M638.61,450.42c-.76,1.97-1.42,3.75-2.11,5.57-1.42,3.68-2.84,7.39-4.19,11.1-.33.91-.73,1.27-1.78,1.27-7.64-.15-15.25-.18-22.86-.29-.91,0-1.42.15-1.78,1.13-3.71,10.56-7.46,21.11-11.21,31.67-.11.33-.18.66-.29,1.13h20.09c-1.64,4.11-3.2,8.04-4.8,11.98-.65,1.67-1.38,3.31-1.97,5.02-.29.87-.76,1.09-1.64,1.09-5.71-.04-11.43,0-17.18,0-.8,0-1.31.15-1.64,1.06-3.82,10.96-7.68,21.88-11.54,32.83-.07.25-.11.58-.18.87,5.93,0,11.79.04,17.69,0,2.04,0,4.11,0,6.15-.04.8,0,1.09.15.76,1.02-2.07,5.53-4.11,11.06-6.15,16.6-.22.62-.58.87-1.24.8-.22-.04-.47,0-.73,0-26.64,0-53.29-.04-79.93.04-1.42,0-1.78-.36-1.86-1.78-.95-17.4-1.97-34.8-2.98-52.3-.4.33-.44.76-.58,1.13-5.71,17.03-11.43,34.03-17.11,51.07-.47,1.42-1.09,1.86-2.58,1.86-9.03-.15-18.09-.11-27.12-.15-.36-.04-.76-.07-1.27-.11,1.71-4.99,3.42-9.9,5.13-14.78,12.34-35.31,24.64-70.61,36.94-105.92.4-1.2.91-1.6,2.18-1.6,9.1.11,18.16.11,27.26.11,1.27,0,1.6.15,1.06,1.53-5.93,15.58-11.79,31.23-17.69,46.84-.07.22-.15.47-.22.73-.04.25-.15.62.36.33,13.18-16.09,26.39-32.14,39.56-48.23.76-.95,1.53-1.35,2.77-1.35,7.72.07,15.43.04,23.19.04h1.86c-18.09,20.64-35.96,40.95-53.94,61.4,2.66.76,3.86,2.77,4.84,4.95,2.07,4.59,2.98,9.5,3.71,14.45,1.89,13.07,2.29,26.24,2.4,39.42,0,.51,0,.98.22,1.53.44-1.13.87-2.26,1.27-3.42,14.23-39.02,28.5-78.04,42.69-117.06.44-1.16.91-1.6,2.22-1.6,17.54.07,35.12.04,52.67.07h1.53Z"/>
  <path class="cls-1" d="M805.35,445.87c-5.57,15.69-11.1,31.38-16.63,47.06-.18.62-.4.98-1.2.98-10.19-.04-20.38-.04-30.57-.04-.07,0-.15-.07-.36-.15,1.67-4.33,3.35-8.66,4.95-12.99,1.46-3.89,3.17-7.68,4.19-11.72.76-3.17-.26-5.24-3.02-6.33-2.62-1.02-6.01,0-7.13,2.58-2.77,6.44-5.79,12.88-6.99,19.87-.69,4,.91,7.35,3.79,9.97,5.93,5.31,11.83,10.7,17.94,15.8,3.2,2.69,5.9,5.75,6.84,9.97.65,2.84.36,5.71-.47,8.44-3.06,10.19-6.41,20.35-11.1,29.92-6.19,12.67-16.71,19.69-30.68,21.22-14.63,1.64-29.23,1.27-43.79-.87-3.02-.44-5.97-1.27-8.88-2.18-.98-.33-1.16-.73-.8-1.67,4.73-13.61,9.43-27.23,14.16-40.8,1.13-3.28,2.29-6.52,3.38-9.79.29-.84.62-1.16,1.56-1.16,9.94.04,19.87.04,29.77,0,1.42,0,1.27.47.95,1.46-3.6,10.08-7.17,20.16-10.7,30.25-.95,2.69-.44,4.51,1.49,6.04,1.71,1.38,4.19,1.42,6.33.07,1.38-.84,2.51-2,3.2-3.49,4.04-8.19,7.32-16.63,9.21-25.62.84-4.04-.26-6.99-3.17-9.61-2.91-2.62-6.12-4.91-9.21-7.28-4.51-3.46-8.63-7.32-12.05-11.9-.98-1.31-1.86-2.73-2.62-4.19-1.78-3.38-1.64-6.84-.66-10.37,1.93-7.17,5.06-13.9,8.01-20.67,3.24-7.39,7.46-14.05,13.83-19.18,5.53-4.4,11.79-6.99,18.82-7.53,14.23-1.16,28.46-.91,42.62.91,2.8.36,5.53.91,8.26,1.71.73.22,1.06.4.73,1.31Z"/>
  <path class="cls-1" d="M300.51,446.16c-5.5,15.4-10.92,30.83-16.34,46.23-.36,1.02-.8,1.38-1.89,1.38-9.65-.07-19.29-.07-28.9,0-1.35,0-1.49-.33-1.02-1.53,2.8-7.28,5.71-14.49,8.23-21.88.18-.55.33-1.06.44-1.6.69-3.09-.25-5.06-3.02-6.15-2.55-1.06-5.97-.15-7.06,2.37-2.91,6.73-6.15,13.39-7.17,20.75-.51,3.75,1.24,6.88,3.97,9.32,6.01,5.39,11.94,10.85,18.16,16.02,3.42,2.84,6.08,6.22,6.77,10.81.4,2.91-.15,5.71-1.02,8.44-3.13,9.9-6.26,19.84-10.96,29.15-6.01,12.01-15.98,18.82-29.26,20.75-10.26,1.49-20.6,1.06-30.94.69-6.48-.22-12.89-.91-19.18-2.51-1.31-.33-2.58-.84-3.89-1.16-1.02-.25-1.02-.73-.69-1.6,3.6-10.34,7.17-20.67,10.74-31.01,2.26-6.48,4.51-12.96,6.73-19.44.33-.95.73-1.31,1.78-1.27,4.91.07,9.83.04,14.74.04s9.83.04,14.74-.04c1.35-.04,1.42.33,1.02,1.49-3.6,10.12-7.13,20.27-10.74,30.39-.8,2.22-.36,4.04,1.31,5.57,1.75,1.57,3.71,1.64,5.75.76,1.82-.8,3.17-2.15,4.04-3.89,4.29-8.7,7.83-17.62,9.43-27.26.4-2.4-.15-4.44-1.71-6.26-1.67-1.93-3.64-3.57-5.68-5.13-5.5-4.11-11.03-8.19-15.47-13.54-1.38-1.64-2.62-3.39-3.75-5.24-2.18-3.6-2.58-7.46-1.31-11.43,3.68-11.47,7.72-22.86,14.92-32.72,6.84-9.39,16.23-14.41,27.95-15.07,11.28-.62,22.57-.58,33.81.4,4.91.4,9.75,1.06,14.52,2.33,1.16.33,1.35.73.95,1.86Z"/>
  <path class="cls-1" d="M378.73,451.91c-9.28,24.71-18.53,49.43-27.81,74.14-5.68,15.14-11.36,30.32-17,45.5-.44,1.2-.98,1.64-2.33,1.64-10.34-.07-20.67-.07-31.01,0-1.27,0-1.53-.29-1.35-1.6,1.93-14.63,3.82-29.26,5.71-43.9,1.06-8.23,2.11-16.49,3.13-24.71.04-.36,0-.8.07-1.09-.07.22-.15.55-.4.76-8.34,23.04-16.67,46.04-24.93,69.08-.47,1.24-1.02,1.57-2.26,1.57-5.5-.07-11.03-.11-16.56-.04-1.38.04-1.56-.25-1.09-1.53,8.41-22.28,16.74-44.55,25.11-66.83,6.66-17.73,13.32-35.45,19.95-53.21.36-.95.73-1.38,1.89-1.38,10.66.04,21.37.04,32.03,0,1.24,0,1.53.33,1.35,1.49-2,14.01-3.97,28.06-5.9,42.08-1.27,9.1-2.51,18.24-3.75,27.37-.06.1-.07.23-.11.34,0,.07,0,.14.03.21.07.15-.11.36.11.4.07,0,.15-.22.25-.33,5.13-14.3,10.26-28.61,15.36-42.91,3.24-9.1,6.52-18.2,9.72-27.3.33-1.02.8-1.35,1.89-1.35,5.64.07,11.25.11,16.85,0,1.53,0,1.46.47,1.02,1.6Z"/>
  <path class="cls-1" d="M710.29,459.37c-1.17-5.21-4.2-8.06-9.4-8.73-3.19-.5-6.21-.5-9.4-.5h-42.15c-1.01-.17-1.51.17-2.02,1.34-14.61,39.96-29.05,80.1-43.66,120.06-.5,1.51-.17,1.68,1.17,1.68,8.9-.17,17.97-.17,26.87,0,1.18,0,1.68-.5,2.18-1.51,5.88-16.96,11.76-33.92,17.8-50.88.5-1.51,1.34-2.01,3.02-1.85,2.01.34,3.36,1.51,3.7,3.53.67,2.52,0,4.87-.67,7.22-4.03,11.25-8.06,22.67-11.92,33.92-1.01,2.35-1.51,4.87-1.18,7.39.17,1.85.5,2.18,2.35,2.18h27.87c1.17,0,1.51-.34,1.17-1.51-.67-2.69-.67-5.37,0-8.06,1.17-4.7,2.86-9.24,4.53-13.94,2.86-8.06,6.04-15.95,7.56-24.35.5-3.19.5-6.05-1.18-8.73-1.34-2.35-3.02-4.2-5.71-5.54,1.01-.34,1.85-.67,2.52-1.01,6.04-2.18,10.74-6.21,13.77-11.75,5.04-9.57,9.07-19.48,11.92-29.89.84-3.02,1.34-5.88.84-9.07ZM676.03,482.71c-1.34,3.36-2.35,7.05-4.03,10.41-.5,1.18-1.01,2.18-1.51,3.19-1.85,3.69-4.87,5.04-8.23,4.53q-4.03,0-2.86-3.36c3.53-9.57,7.22-19.31,10.75-28.88.34-1.18,1.01-1.68,2.18-1.51.33.17.67,0,1.01,0,3.69.17,5.88,2.69,5.37,6.38-.5,3.19-1.34,6.21-2.69,9.24Z"/>
  <path class="cls-1" d="M495.24,454.97c-5.46,14.45-10.88,28.94-16.23,43.42-.4,1.02-.91,1.31-1.97,1.31-4.22-.07-8.44-.04-12.63-.04s-8.55-.04-12.81,0c-1.2.04-1.31-.25-.87-1.31,2.88-7.46,5.68-14.96,8.52-22.46.25-.69.51-1.38.66-2.11.62-2.73-.33-4.73-2.62-5.75-2.51-1.06-4.99-.44-6.51,1.75-.73.98-1.16,2.11-1.57,3.24-9.46,25.41-18.89,50.78-28.35,76.18-1.31,3.57-.4,6.04,2.73,7.24,2.8,1.06,5.79-.51,6.99-3.71,2.26-5.86,4.44-11.68,6.62-17.54,1.82-4.88,3.64-9.75,5.39-14.63.36-.98.8-1.31,1.86-1.27,8.88.04,17.76.04,26.64,0,1.16,0,1.27.25.87,1.31-4,10.85-7.79,21.77-12.05,32.5-4.59,11.61-13.43,18.64-25.7,20.6-11.61,1.86-23.29,1.71-34.72-1.6-1.46-.44-2.84-.98-4.26-1.46-4.33-1.42-6.12-4.59-6.15-8.92-.07-4.91,1.35-9.5,3.06-14.01,9.9-26.39,19.84-52.78,29.81-79.17,3.6-9.54,11.1-14.78,20.38-17.87,4.33-1.46,8.92-1.78,13.5-1.82,9.17-.07,18.34-.15,27.52.87,3.79.44,7.46,1.27,10.96,2.98,1.06.51,1.38,1.02.95,2.26Z"/>
  <path class="cls-1" d="M419.39,451.62c-15.18,40.11-30.28,80.22-45.39,120.37-.4.98-.87,1.2-1.86,1.2-9.28-.04-18.56-.04-27.84,0-1.27,0-1.38-.29-.98-1.42,14.78-40.04,29.48-80.11,44.19-120.15.36-.95.76-1.31,1.82-1.31,4.8.07,9.61.04,14.45.04v-.04c4.84,0,9.72,0,14.6-.04,1.09,0,1.49.11,1.02,1.35Z"/>
  <path class="cls-1" d="M308.08,502.98c-.11-.11-.22-.22-.33-.33.11-.4.22-.8.33-1.24.04.07.07.18.11.25.18.44.18.87-.11,1.31Z"/>
  <path class="cls-1" d="M333.89,521.87c-.07.33-.18.69-.4,1.38-.2-.75-.15-1.23,0-1.66,0-.12.04-.25.11-.34.11.18.22.4.29.62Z"/>
  <path class="cls-1" d="M513.62,500.21c-.15.36-.36.66-.76.8-.04-.44.11-.84.4-1.13.11.11.26.22.36.33Z"/>
</svg>