<?xml version="1.0" encoding="UTF-8"?>
<svg id="Layer_1" data-name="Layer 1" xmlns="http://www.w3.org/2000/svg" viewBox="0 0 1000 1000">
  <defs>
    <style>
      .cls-1 {
        fill: #fff;
      }
    </style>
  </defs>
  <path class="cls-1" d="M89.81,394.34c-2.19-5.29-4.39-8.47-6.58-9.53-2.19-1.07-4.31-1.6-6.34-1.6v-1.2h22.22l41.45,96.52,41.58-96.52h18.6v1.2c-6.29.32-9.43,3.61-9.43,9.86,0,1.34.16,3.18.48,5.53l12.4,89.39c.75,4.46,1.59,7.3,2.52,8.55.93,1.25,2.87,2,5.8,2.27v1.2h-26.48v-1.2c3.53.11,5.29-1.59,5.29-5.09,0-.79-.16-2.36-.48-4.69l-12.1-86.67-42.25,97.65h-.8l-42.49-97.49-3.4-8.17Z"/>
  <path class="cls-1" d="M303.35,382v1.2c-1.55-.16-3.27.08-5.16.72-1.89.64-3.01,1.57-3.36,2.8-.35,1.23-.52,4.14-.52,8.72v90.54c0,4.91.2,7.91.6,9.01.4,1.09,1.17,2,2.32,2.72,1.15.72,3.19,1.08,6.12,1.08v1.2h-31.45v-1.2c3.95,0,6.4-.76,7.36-2.28.96-1.52,1.44-4.98,1.44-10.37v-89.66c0-5.6-.53-9.27-1.6-11.01-1.07-1.74-3.47-2.5-7.2-2.28v-1.2h31.45Z"/>
  <path class="cls-1" d="M536.1,382l41.49,102.94c0,.52,1.04,2.96,3.13,7.34,2.09,4.37,5.27,6.56,9.54,6.56v1.16h-26.65v-1.16c2.43,0,3.64-.96,3.64-2.87,0-1.29-.6-3.36-1.78-6.2-.2-.21-.39-.54-.54-1.01-.1-.51-.18-.78-.23-.78l-16.33-40.56-33.01-.97.61-1.24,30.86-.97-17-42.93,6.26-19.3Z"/>
  <path class="cls-1" d="M470.21,490.64c-5.07,3.01-9.57,4.52-13.47,4.52s-8.06-1.17-12.29-3.53c-4.23-2.35-10.21-8.9-17.95-19.63-7.74-10.73-12.51-17.68-14.31-20.85l-8.24-12.69c6.5-3.7,11.53-8.24,15.1-13.62,3.56-5.38,5.35-11.03,5.35-16.96,0-5.19-1.01-9.57-3.01-13.14-2.01-3.58-4.98-6.41-8.92-8.5-3.94-2.09-7.78-3.32-11.53-3.69-3.75-.37-9.84-.61-18.23-.21-2.47.12-9.84.59-9.84.59v1.24s6.13.39,8.19.51c11.52.65,19.6,3.63,24.18,10.06,4.58,6.43,6.87,13.24,6.87,20.43s-2.33,13.38-6.99,17.93c-4.66,4.55-11.82,6.43-21.45,6.82-2.71.11-10.81.88-10.81.88v1.24s6.27.57,8.29.65c2.6.1,10.14-.07,10.14-.07l11.73,18.08c0,.11.05.21.16.32,12.05,17.98,20.5,28.97,25.36,32.97,4.86,4,10.67,6.01,17.42,6.01,10.14,0,18.37-2.59,24.71-7.78l-.48-1.58Z"/>
  <path class="cls-1" d="M765.69,461.47c.18-.3.42-.54.65-.78,1.27-1.13,3.44-1.73,6.63-1.73v-1.24h-31.35v1.24c2.74-.16,4.85.37,6.33,1.61,1.41,1.18,2.13,3.44,2.2,6.74v3.78c0,.17.03.3.03.48v14.59c0,.18-.02.31-.03.48v3.78c-.07,3.29-.78,5.56-2.2,6.74-1.48,1.24-3.59,1.77-6.33,1.61v1.24h31.35v-1.24c-3.19,0-5.37-.6-6.63-1.73-.23-.24-.47-.48-.65-.78-1.01-1.67-1.52-4.43-1.52-8.27v-18.25c0-3.84.51-6.59,1.52-8.27Z"/>
  <path class="cls-1" d="M731.6,382.01h-6.58v1.24h0c3.42,0,6.8.62,10.13,1.42,3.75.9,6.48,1.94,6.48,1.94,1.47.55,2.94,1.11,4.36,1.79,7.32,3.54,13.09,8.01,17.31,13.39h1.21l-5.02-14.01c-2.26-.9-4.5-1.71-6.72-2.45-6.79-2.26-14.01-3.42-21.16-3.32Z"/>
  <path class="cls-1" d="M694.09,493.32c-4.98-2.84-9.7-6.95-14.23-12.47-4.53-5.52-7.61-11.12-9.26-16.81-1.65-5.69-2.47-12.16-2.47-19.41,0-17.47,4.99-38,14.97-49.78,1.34-1.58,2.73-3.03,4.17-4.4v-2.19c-.4.22-.8.41-1.19.63-10.48,6.02-18.56,13.83-24.24,23.44-5.68,9.61-8.52,19.25-8.52,28.92,0,8.85,2.26,17.5,6.79,25.96,4.53,8.46,10.45,15.53,17.78,21.21,4.3,3.34,8.55,6.05,12.76,8.12,4.83,2.39,10.21,3.45,15.6,3.45h8.2v-1.24c-5.76,0-11.63-1.42-16.92-3.69-1.23-.53-2.35-1.14-3.44-1.76Z"/>
  <path class="cls-1" d="M285.43,590.6c1.89,1.4,3.07,3.27,3.54,5.62l-3.31.76c-.31-1.71-1.12-3.06-2.43-4.07-1.32-1.01-2.94-1.51-4.87-1.51s-3.44.47-4.62,1.41c-1.17.94-1.76,2.16-1.76,3.67,0,1.2.36,2.13,1.07,2.79.71.65,1.77,1.12,3.17,1.4l6.13,1.38c4.73,1.01,7.09,3.44,7.09,7.3,0,2.54-.95,4.58-2.85,6.08-1.9,1.51-4.43,2.27-7.6,2.27s-5.63-.74-7.74-2.24c-2.11-1.5-3.34-3.54-3.67-6.15l3.48-.71c.31,1.95,1.21,3.48,2.69,4.55,1.48,1.07,3.33,1.61,5.54,1.61s3.8-.48,5.01-1.45c1.21-.96,1.83-2.23,1.83-3.8,0-1.29-.36-2.25-1.07-2.9-.71-.64-1.88-1.15-3.5-1.51l-6.33-1.38c-4.5-1-6.75-3.4-6.75-7.18,0-2.41.91-4.35,2.74-5.83,1.84-1.48,4.25-2.22,7.24-2.22,2.77,0,5.1.7,6.99,2.1Z"/>
  <path class="cls-1" d="M316.05,589.04c2.97,0,5.34.8,7.12,2.42,1.77,1.61,2.66,3.71,2.66,6.31s-.89,4.71-2.66,6.32c-1.78,1.61-4.15,2.41-7.12,2.41h-8.94v10.66h-3.31v-28.12h12.25ZM316.05,603.52c1.99,0,3.57-.53,4.74-1.59,1.18-1.06,1.76-2.45,1.76-4.16s-.58-3.09-1.76-4.15c-1.17-1.06-2.75-1.59-4.74-1.59h-8.94v11.5h8.94Z"/>
  <path class="cls-1" d="M357.57,617.16l-3.15-7.13h-14.81l-3.15,7.13h-3.57l12.59-28.12h3.06l12.59,28.12h-3.57ZM347.03,593.16l-6.12,13.89h12.21l-6.08-13.89Z"/>
  <path class="cls-1" d="M411.09,613.97c-2.32,2.49-5.34,3.73-9.07,3.73-3.13,0-5.65-.77-7.55-2.31-1.9-1.54-2.85-3.57-2.85-6.08,0-1.68.49-3.17,1.47-4.49.98-1.32,2.29-2.37,3.94-3.15-1.59-1.85-2.39-3.78-2.39-5.79,0-2.18.75-3.96,2.27-5.33,1.51-1.37,3.45-2.06,5.83-2.06s4.16.66,5.6,1.97c1.44,1.32,2.32,3.12,2.62,5.41l-3.02.59c-.17-1.79-.71-3.11-1.64-3.97-.92-.85-2.11-1.28-3.57-1.28s-2.69.43-3.61,1.28c-.93.85-1.39,2-1.39,3.42,0,1.32.45,2.55,1.34,3.71.9,1.16,2.48,2.67,4.75,4.51l6.63,5.54c.67-1.48,1.01-3.15,1.01-5v-1.8h2.85v1.8c0,2.63-.53,4.94-1.59,6.92l5,4.16-1.89,2.22-4.74-4.03ZM408.83,612.08l-7.43-6.29-2.52-2.14c-1.31.58-2.33,1.37-3.06,2.35-.73.98-1.09,2.08-1.09,3.32,0,1.71.67,3.07,2.01,4.09,1.34,1.02,3.11,1.53,5.28,1.53,2.72,0,4.98-.95,6.8-2.85Z"/>
  <path class="cls-1" d="M476.79,617.16h-3.48l-7.13-22.83-7.18,22.83h-3.44l-8.65-28.12h3.44l7.01,23.04,7.18-23.04h3.23l7.18,23.04,7.01-23.04h3.48l-8.64,28.12Z"/>
  <path class="cls-1" d="M518.78,617.16h-20.52v-28.12h20.47v2.98h-17.16v9.52h15.95v2.98h-15.95v9.6h17.2v3.02Z"/>
  <path class="cls-1" d="M552.82,617.16h-19.43v-28.12h3.32v25.09h16.11v3.02Z"/>
  <path class="cls-1" d="M585.82,617.16h-19.42v-28.12h3.31v25.09h16.11v3.02Z"/>
  <path class="cls-1" d="M623.94,617.16h-2.85l-18.38-22.32v22.32h-3.32v-28.12h2.85l18.38,22.58v-22.58h3.32v28.12Z"/>
  <path class="cls-1" d="M660.21,617.16h-20.52v-28.12h20.48v2.98h-17.16v9.52h15.95v2.98h-15.95v9.6h17.2v3.02Z"/>
  <path class="cls-1" d="M691.17,590.6c1.89,1.4,3.07,3.27,3.54,5.62l-3.31.76c-.31-1.71-1.12-3.06-2.43-4.07-1.32-1.01-2.94-1.51-4.87-1.51s-3.44.47-4.62,1.41c-1.17.94-1.76,2.16-1.76,3.67,0,1.2.36,2.13,1.07,2.79.71.65,1.77,1.12,3.17,1.4l6.13,1.38c4.73,1.01,7.09,3.44,7.09,7.3,0,2.54-.95,4.58-2.85,6.08-1.9,1.51-4.43,2.27-7.6,2.27s-5.63-.74-7.74-2.24c-2.11-1.5-3.34-3.54-3.67-6.15l3.48-.71c.31,1.95,1.21,3.48,2.69,4.55,1.48,1.07,3.33,1.61,5.54,1.61s3.8-.48,5.01-1.45c1.21-.96,1.83-2.23,1.83-3.8,0-1.29-.36-2.25-1.07-2.9-.71-.64-1.88-1.15-3.5-1.51l-6.33-1.38c-4.5-1-6.75-3.4-6.75-7.18,0-2.41.91-4.35,2.74-5.83,1.84-1.48,4.25-2.22,7.24-2.22,2.77,0,5.1.7,6.99,2.1Z"/>
  <path class="cls-1" d="M725.05,590.6c1.89,1.4,3.07,3.27,3.54,5.62l-3.31.76c-.31-1.71-1.12-3.06-2.43-4.07-1.32-1.01-2.94-1.51-4.87-1.51s-3.44.47-4.62,1.41c-1.17.94-1.76,2.16-1.76,3.67,0,1.2.36,2.13,1.07,2.79.71.65,1.77,1.12,3.17,1.4l6.13,1.38c4.73,1.01,7.09,3.44,7.09,7.3,0,2.54-.95,4.58-2.85,6.08-1.9,1.51-4.43,2.27-7.6,2.27s-5.63-.74-7.74-2.24c-2.11-1.5-3.34-3.54-3.67-6.15l3.48-.71c.31,1.95,1.21,3.48,2.69,4.55,1.48,1.07,3.33,1.61,5.54,1.61s3.8-.48,5.01-1.45c1.21-.96,1.83-2.23,1.83-3.8,0-1.29-.36-2.25-1.07-2.9-.71-.64-1.88-1.15-3.5-1.51l-6.33-1.38c-4.5-1-6.75-3.4-6.75-7.18,0-2.41.91-4.35,2.74-5.83,1.84-1.48,4.25-2.22,7.24-2.22,2.77,0,5.1.7,6.99,2.1Z"/>
  <path class="cls-1" d="M861.23,382h-21.76v1.36c4.06,0,6.46.88,7.21,2.64.75,1.76,1.12,4.8,1.12,9.12v95.27c0,3.68-.71,5.96-2.12,6.84-1.42.88-3.49,1.4-6.21,1.56v1.2h21.76v-118Z"/>
  <path class="cls-1" d="M920.4,482.4l-.11.7c-.81,5.37-1.92,9.12-2.7,9.94-1.14,1.21-2.56,2.03-4.21,2.43-1.74.43-24.97,3.28-24.97,3.28v1.24h34.7v-17.6h-2.71Z"/>
  <path class="cls-1" d="M906,442.75c.75.4,1.22,2.21,1.44,3.49l.12.68h2.7v-12.62h-2.8l-.03.79c-.04,1-.41,2.63-1.15,3.14-.45.31-1.87.5-6.23.84-2.93.23-11.63.92-11.63.92v1.24s9.4.6,12.57.83c3.08.22,4.43.38,5.01.69Z"/>
  <path class="cls-1" d="M914.08,399.68h2.64v-17.68h-28.31v1.24s19.02,2.42,21.14,4.54c2.43,2.43,2.46,4.1,4.37,11.3l.16.61Z"/>
</svg>