<?xml version="1.0" encoding="UTF-8"?>
<svg id="Layer_1" data-name="Layer 1" xmlns="http://www.w3.org/2000/svg" viewBox="0 0 1000 1000">
  <defs>
    <style>
      .cls-1 {
        fill: #fff;
      }
    </style>
  </defs>
  <g>
    <path class="cls-1" d="M114.33,539.55l67.43-99.47c2.37-3.5,2.62-8,.64-11.74-1.98-3.74-5.84-6.06-10.07-6.06h-74.8c-5.26,0-9.55,4.28-9.55,9.55s4.28,9.55,9.55,9.55h60.29l-59.29,87.46c-1.43,2.11-1.95,4.65-1.47,7.16.48,2.5,1.91,4.67,4.02,6.1,1.59,1.08,3.44,1.65,5.35,1.65,3.17,0,6.13-1.57,7.91-4.19Z"/>
    <path class="cls-1" d="M199.09,558.62h-69.35l58.34-86.07c1.43-2.11,1.95-4.65,1.47-7.16-.48-2.5-1.91-4.67-4.02-6.1-1.59-1.08-3.44-1.65-5.35-1.65-3.17,0-6.13,1.57-7.91,4.19l-66.49,98.08c-2.37,3.5-2.62,8-.64,11.74,1.98,3.74,5.84,6.06,10.07,6.06h83.85c5.26,0,9.55-4.28,9.55-9.55s-4.28-9.55-9.55-9.55Z"/>
  </g>
  <g>
    <g>
      <path class="cls-1" d="M277.43,479.26v-11.92l28.95-27.34h-28.29v-11.92h44.74v11.92l-28.95,27.34h28.95v11.92h-45.4Z"/>
      <path class="cls-1" d="M387.01,479.26l-2.7-6.43h-24.56l-2.7,6.43h-14.18l21.86-51.17h14.62l21.78,51.17h-14.11ZM364.2,462.08h15.64l-7.82-18.93-7.82,18.93Z"/>
      <path class="cls-1" d="M472.25,479.26h-13.52l-7.16-13.74h-15.64v13.74h-13.6v-51.17h28.44c14.26,0,20.25,8.04,20.25,18.79,0,6.73-2.34,12.35-7.6,15.57l8.85,16.81ZM435.92,440.08v13.45h13.3c6.07,0,8.19-2.56,8.19-6.65,0-4.31-2.12-6.8-8.19-6.8h-13.3Z"/>
      <path class="cls-1" d="M535.04,479.26l-2.7-6.43h-24.56l-2.7,6.43h-14.18l21.86-51.17h14.62l21.78,51.17h-14.11ZM512.24,462.08h15.64l-7.82-18.93-7.82,18.93Z"/>
      <path class="cls-1" d="M614.51,440.08h-30.56v10.6h29.39v11.92h-29.39v16.67h-13.6v-51.17h44.15v11.99Z"/>
      <path class="cls-1" d="M660.05,480.36c-11.7,0-22.44-2.41-23.25-17.03h12.57c.95,4.68,5.26,6.07,11.48,6.07,7.68,0,10.53-1.97,10.53-5.56,0-2.92-1.61-4.31-6.21-4.68l-10.16-.8c-11.77-.95-17.4-6.21-17.4-15.42,0-10.23,6.87-15.94,24.05-15.94,11.33,0,22.08,2.34,22.88,17.18h-12.57c-1.24-4.75-4.39-6.07-10.82-6.07-7.68,0-9.87,1.75-9.87,4.68,0,2.56,1.46,4.09,5.85,4.46l10.09.88c12.13.95,18.06,5.48,18.06,15.35,0,10.97-7.38,16.89-25.15,16.89h-.07Z"/>
      <path class="cls-1" d="M745.94,428.09h13.6v51.17h-13.6v-18.49h-24.42v18.49h-13.6v-51.17h13.6v21.27h24.42v-21.27Z"/>
      <path class="cls-1" d="M782.13,453.68c0-14.99,10.31-26.68,27.85-26.68s27.85,11.7,27.85,26.68-10.31,26.68-27.85,26.68-27.85-11.7-27.85-26.68ZM824.09,453.68c0-8.41-4.97-14.33-14.11-14.33s-14.11,5.92-14.11,14.33,4.97,14.33,14.11,14.33,14.11-5.92,14.11-14.33Z"/>
      <path class="cls-1" d="M860.42,479.26v-51.17h17.62l19.66,35.53h.8l-.07-6.07v-29.46h13.6v51.17h-17.62l-19.66-35.53h-.8l.07,6.07v29.46h-13.6Z"/>
    </g>
    <g>
      <path class="cls-1" d="M276.95,546.4c0-14.99,10.53-26.76,27.71-26.76,14.18,0,22.88,7.75,24.49,19.15h-13.3c-1.46-4.82-5.41-6.8-10.82-6.8-9.21,0-14.33,5.92-14.33,14.47s4.75,14.84,15.72,14.84c3.29,0,6.8-.51,9.72-2.85v-4.82h-11.7v-10.16h24.71v20.03c-6.43,7.31-15.28,9.5-23.47,9.5-18.71,0-28.73-11.62-28.73-26.61Z"/>
      <path class="cls-1" d="M403.49,571.91h-13.52l-7.16-13.74h-15.64v13.74h-13.6v-51.17h28.44c14.25,0,20.25,8.04,20.25,18.79,0,6.73-2.34,12.35-7.6,15.57l8.85,16.81ZM367.16,532.73v13.45h13.3c6.07,0,8.19-2.56,8.19-6.65,0-4.31-2.12-6.8-8.19-6.8h-13.3Z"/>
      <path class="cls-1" d="M423.23,546.32c0-14.99,10.31-26.68,27.85-26.68s27.85,11.7,27.85,26.68-10.31,26.68-27.85,26.68-27.85-11.7-27.85-26.68ZM465.19,546.32c0-8.41-4.97-14.33-14.11-14.33s-14.11,5.92-14.11,14.33,4.97,14.33,14.11,14.33,14.11-5.92,14.11-14.33Z"/>
      <path class="cls-1" d="M501.52,548.88v-28.14h13.6v28.14c0,7.97,3.66,11.77,11.18,11.77s11.26-3.8,11.26-11.77v-28.14h13.52v28.14c0,14.99-6.87,24.12-24.78,24.12s-24.78-9.14-24.78-24.12Z"/>
      <path class="cls-1" d="M624.26,540.62c0,11.11-5.99,19.81-20.4,19.81h-14.69v11.48h-13.6v-51.17h28.29c14.4,0,20.4,8.77,20.4,19.88ZM602.41,548.52c6.07,0,8.26-3,8.26-7.89s-2.19-7.9-8.26-7.9h-13.23v15.79h13.23Z"/>
    </g>
  </g>
  <path class="cls-1" d="M243.25,427.72c-1.69,0-3.06,1.37-3.06,3.06v138.44c0,1.69,1.37,3.06,3.06,3.06s3.06-1.37,3.06-3.06v-138.44c0-1.69-1.37-3.06-3.06-3.06Z"/>
</svg>