<?xml version="1.0" encoding="UTF-8"?>
<svg id="Layer_1" data-name="Layer 1" xmlns="http://www.w3.org/2000/svg" viewBox="0 0 1000 1000">
  <defs>
    <style>
      .cls-1 {
        fill: #fff;
      }
    </style>
  </defs>
  <path class="cls-1" d="M189.72,659.96c-3.44,0-4.31-.63-4.31-4.07l-.14-49.47c0-3.55-1.13-5.83-3.04-5.83-1.01,0-2.14.52-3.04,1.01l-10.79,6.58c-3.04,1.9-3.42,3.92-2.29,6.2h.9c2.66,0,3.93,1.15,3.93,3.55v37.95c0,3.43-.9,4.07-4.43,4.07h-.52c-.9,3.15-.9,5.17,2.54,5.17h19.15c3.42,0,3.42-2.02,2.4-5.17h-.38Z"/>
  <path class="cls-1" d="M325.32,612.26c-15.36-7.1-23.09-10.5-23.09-18.99,0-6.84,5.06-11.52,14.06-11.52,8.39,0,18.4,8.11,25.51,23.03l5.32.12-3.56-27.57c-.52-3.81-4.45-4.18-8.13-3.06l.52,1.79c.49,1.9.12,3.03-1.27,3.03-3.42,0-9-5.05-21.18-5.05s-23.35,8.34-23.35,20.75c0,15.82,11.54,23.52,26.64,30.62,9.89,4.68,20.66,9.87,20.66,19.98,0,6.96-4.55,12.41-11.92,12.41-13.05,0-29.54-10.76-33.85-32.01h-4.08v34.03c0,3.92,1.53,5.19,4.45,5.19h3.16v-2.28c0-3.41,1.53-4.82,3.7-4.82,6.6,0,14.84,7.99,28.91,7.99,14.98,0,23.86-10.88,23.86-22.4,0-15.96-12.7-24.93-26.38-31.26Z"/>
  <path class="cls-1" d="M916.43,657.54c-6.2,2.02-8.48-1.65-8.48-11.37l.12-66.18c0-3.55-1.15-5.83-3.04-5.83-1.01,0-2.17.52-3.06,1.01l-10.88,6.58c-3.06,1.9-3.44,3.92-2.29,6.2h1.39c2.14,0,3.42,1.13,3.42,3.55l-.02,16.9c-5.28-5.48-11.52-8.04-18.99-8.04-14.61,0-24.99,12.9-24.99,32.01,0,24.68,13.45,33.54,25.11,33.54,8.36,0,13.83-3.55,18.78-9.49v.63c0,7.45,3.02,9.8,8.74,9.73,8.67-.09,15.36-3.92,15.36-6.32,0-.89-.26-1.9-1.15-2.91ZM893.5,645.86c-3.16,6.84-8.06,11.68-13.36,11.68-8.62,0-15.34-10.25-15.34-24.79,0-12.78,5.44-24.16,14.46-24.16,4.62,0,10.46,4.09,14.28,11.42l-.05,25.85Z"/>
  <path class="cls-1" d="M836.78,650.7l-4.31-32.76c-2.03-15.18-6.71-17.08-11.43-17.08-7.19,0-16.18,5.83-20.78,10.22l-.02-4.65c0-3.55-1.13-5.83-3.04-5.83-1.01,0-2.14.52-3.04,1.01l-10.91,6.58c-3.04,1.9-3.42,3.92-2.29,6.2h1.39c2.17,0,3.44,1.15,3.44,3.55l.12,37.95c0,3.43-.9,4.07-4.43,4.07h-.52c-.89,3.15-.89,5.17,2.54,5.17h19.15c3.42,0,3.42-2.02,2.4-5.17h-.38c-3.44,0-4.31-.63-4.31-4.07l-.12-37.48c3.37-4.51,7.92-7.05,10.77-7.05,4.19,0,6.6,2.66,8.13,15.7l3.16,28.2c1.15,10.39,4.71,11.16,10.04,11.14,6.2,0,13.19-2.91,13.05-5.31,0-.89-.38-2.28-1.27-3.17-5.96,2.04-6.6-1.76-7.35-7.21Z"/>
  <path class="cls-1" d="M770.82,658.55c-2.29-1.13-3.42-5.43-4.69-11.75l-5.7-27.59c-2.92-13.91-9.14-17.98-17.27-17.98-10.27,0-19.53,4.44-27.37,9.12-3.32,1.9-3.56,3.92-2.29,6.06l1.39,2.28c4.95-3.15,13.05-7.21,19.41-7.21,4.43,0,9.38,1.53,11.78,13.16.19.85.54,2.35.99,4.25-2.99-1.03-7.59-1.34-10.37-1.34-11.66,0-23.98,6.2-23.98,19.74,0,14.43,11.05,19.48,20.42,19.48s16.66-4.72,21.01-8.7c1.79,5.83,4.24,8.53,9.26,8.53,6.86,0,12.98-3.62,12.98-5.9,0-1.01-.64-2.28-1.51-3.03-1.27,1.01-3.18,1.25-4.08.87ZM739.37,658.69c-7.75,0-11.66-5.57-11.66-11.52,0-6.72,4.17-12.78,12.93-12.78,2.12,0,5.49.26,8.25,2.07,1.27,5.36,2.71,11.23,3.6,15.06-3.3,4.3-8.22,7.17-13.12,7.17Z"/>
  <path class="cls-1" d="M704.85,657.92c-2.29-.75-4.17-4.3-6.34-8.34l-14.06-26.79v-.02l10.01-11.28c2.92-3.29,3.79-4.42,8.25-4.42h.64c.75-3.17.64-5.19-2.29-5.19h-16.49c-2.92,0-2.92,2.16-2.17,5.19h1.65c1.53,0,2.43.49,2.43,1.53,0,.61-.26,1.76-1.79,3.53l-18.8,22.28-.09-53.28c0-3.55-1.13-5.83-3.04-5.83-1.01,0-2.17.52-3.04,1.03l-10.79,6.56c-3.04,1.9-3.42,3.92-2.29,6.2h1.39c2.17,0,3.44,1.15,3.44,3.55v63.26c0,3.43-.9,4.07-4.45,4.07h-.49c-.9,3.15-.9,5.17,2.52,5.17h19.15c3.44,0,3.44-2.02,2.43-5.17h-.38c-3.44,0-4.31-.63-4.31-4.07l-.02-12.15,8.36-9.45,10.93,21.1c3.56,6.82,6.97,10.74,13.69,10.74s11.69-3.78,11.69-6.06c0-1.27-.78-2.28-1.53-3.03-1.27,1.01-2.78,1.39-4.19.87Z"/>
  <path class="cls-1" d="M618.8,621.52l-.05-15.09c0-3.55-1.15-5.83-3.06-5.83-1.01,0-2.14.52-3.04,1.01l-10.91,6.58c-3.04,1.9-3.42,3.92-2.29,6.2h1.01c2.54,0,3.82,1.15,3.82,3.55l.12,37.95c0,3.43-.9,4.07-4.43,4.07h-.52c-.9,3.15-.9,5.17,2.54,5.17h22.95c3.44,0,3.44-2.02,2.43-5.17h-.4c-6.45,0-8.1-.63-8.1-4.07l-.05-20.94v-.12c.8-13.11,7.23-20.7,12.34-20.7,2.54,0,4.95,2.16,6.97,8.23h1.65l5.72-19.11c-1.79-1.88-4.71-3.03-7.87-3.03-7.09,0-14.68,10.69-18.85,21.29Z"/>
  <path class="cls-1" d="M589.94,658.06c-2.29-1.01-3.42-5.31-4.69-11.66l-5.7-27.57c-2.92-13.94-9.14-17.98-17.24-17.98-10.29,0-19.55,4.44-27.4,9.12-3.3,1.88-3.56,3.92-2.29,6.06l1.39,2.28c4.95-3.15,13.05-7.21,19.41-7.21,4.43,0,9.38,1.53,11.78,13.16.19.85.54,2.35.99,4.25-2.99-1.03-7.59-1.34-10.37-1.34-11.66,0-23.98,6.2-23.98,19.74,0,14.55,11.05,19.48,20.42,19.48s16.63-4.72,20.99-8.72c1.84,5.88,4.36,8.77,9.38,8.77,6.86,0,12.89-3.83,12.89-6.11,0-1.01-.64-2.28-1.51-3.06-1.27,1.03-3.18,1.27-4.08.78ZM558.49,658.32c-7.73,0-11.66-5.57-11.66-11.52,0-6.72,4.17-12.78,12.93-12.78,2.12,0,5.51.26,8.27,2.09,1.27,5.33,2.69,11.19,3.6,15.02-3.3,4.32-8.25,7.19-13.15,7.19Z"/>
  <path class="cls-1" d="M519.81,657.54c-1.91-1.27-3.04-4.68-3.56-11.14l-2.03-27.82c-1.15-15.7-6.34-17.72-11.43-17.72s-12.32,2.44-19.91,7.85c-.61-4.35-2.59-7.85-9-7.85-7.49,0-17.74,5.66-23.58,10.13l-.02-4.56c0-3.55-1.13-5.83-3.04-5.83-1.01,0-2.14.52-3.04,1.01l-10.79,6.58c-3.04,1.9-3.42,3.92-2.29,6.2h1.39c2.17,0,3.44,1.15,3.44,3.55v37.95c0,3.43-.9,4.07-4.45,4.07h-.49c-.9,3.15-.9,5.17,2.54,5.17h19.15c3.42,0,3.42-2.02,2.4-5.17h-.38c-3.44,0-4.31-.63-4.31-4.07l-.12-38.07c5.18-4.11,11.8-7.1,14.7-7.1,3.3,0,3.56,3.41,3.56,6.7v38.47c0,3.43-1.01,4.07-4.45,4.07h-.49c-.9,3.41-.78,5.17,2.66,5.17h19.15c3.3,0,3.3-1.9,2.4-5.17h-.64c-3.42,0-4.19-.89-4.19-4.07l.14-39.86v-.99c3.58-2.82,8.15-3.95,10.77-3.95,3.82,0,5.72,2.66,6.22,10.25l2.17,31.63c.75,10.5,3.02,13.42,11.03,13.42,6.6,0,12.82-3.67,12.82-5.83,0-1.13-.49-2.4-1.39-3.29-2.4,1.03-3.82,1.03-4.95.26Z"/>
  <path class="cls-1" d="M421.24,657.68c-2.29-1.15-3.42-5.45-4.69-11.77l-5.7-27.59c-2.92-13.91-9.14-17.95-17.24-17.95-10.29,0-19.55,4.42-27.4,9.09-3.3,1.9-3.56,3.92-2.29,6.09l1.39,2.28c4.95-3.17,13.05-7.21,19.41-7.21,4.43,0,9.38,1.5,11.78,13.16.19.85.54,2.35.99,4.25-2.99-1.03-7.59-1.36-10.37-1.36-11.66,0-23.98,6.2-23.98,19.74,0,14.43,11.05,19.51,20.42,19.51s16.66-4.77,21.01-8.74c1.81,5.88,4.41,8.77,9.42,8.77,6.86,0,12.82-3.83,12.82-6.11,0-1.01-.64-2.28-1.51-3.03-1.27,1.01-3.18,1.27-4.08.89ZM389.79,657.8c-7.73,0-11.66-5.57-11.66-11.52,0-6.58,4.31-12.78,12.93-12.78,2.12,0,5.49.26,8.25,2.09,1.27,5.33,2.71,11.21,3.63,15.04-3.3,4.32-8.25,7.17-13.15,7.17Z"/>
  <path class="cls-1" d="M221.59,621.52l-.05-15.09c0-3.55-1.13-5.83-3.04-5.83-1.01,0-2.14.52-3.04,1.01l-10.91,6.58c-3.04,1.9-3.44,3.92-2.29,6.2h1.01c2.54,0,3.82,1.15,3.82,3.55l.12,37.95c0,3.43-.9,4.07-4.45,4.07h-.49c-.9,3.15-.9,5.17,2.54,5.17h22.95c3.42,0,3.42-2.02,2.4-5.17h-.38c-6.45,0-8.1-.63-8.1-4.07l-.07-21.06s.02-.07,0-.12c.82-13.04,7.26-20.59,12.37-20.59,3.04,0,5.44,2.16,7.49,8.23h1.65l5.7-19.11c-1.77-1.88-4.69-3.03-7.87-3.03-7.07,0-15.17,10.69-19.36,21.29Z"/>
  <path class="cls-1" d="M158.5,659.96c-2.4,0-4.43-2.28-6.34-8.25l-22.33-71.86c-.61-1.88-.75-2.66-2.9-2.66h-17.39c-3.18,0-3.42,2.66-2.54,5.31h.52c4.19,0,5.06,2.66,3.68,6.72l-20.8,62.49c-2.4,7.36-4.43,8.25-7.23,8.25h-.26c-.87,3.15-.87,5.17,2.54,5.17h14.32c3.3,0,3.3-2.02,2.43-5.17h-.38c-5.35,0-4.45-1.9-2.69-6.98l3.72-12.01h30.06l4.29,13.91c1.01,3.29,0,5.08-3.3,5.08h-.52c-.75,3.15-.24,5.17,2.54,5.17h20.42c3.16,0,3.3-2.14,2.54-5.17h-.4ZM104.98,634.14l12.93-41.76,12.89,41.76h-25.82Z"/>
  <path class="cls-1" d="M176.17,596.45c-1.93-5-5.87-8.92-10.88-10.85-1.19-.46-1.19-2.16,0-2.62,5.01-1.93,8.94-5.85,10.88-10.85.46-1.19,2.17-1.19,2.63,0,1.93,5,5.87,8.92,10.88,10.85,1.19.46,1.19,2.16,0,2.62-5.01,1.93-8.94,5.85-10.88,10.85-.46,1.19-2.17,1.19-2.63,0Z"/>
  <path class="cls-1" d="M588.35,419.23c-17.69,0-34.04-5.28-47.8-14.5,3.32-16.1,11.06-31.58,23.59-43.99l-3.32-3.32c-12.16,12.16-27.4,20.4-43.99,23.59-9.22-13.76-14.5-30.1-14.5-47.8h-4.67c0,17.69-5.28,34.04-14.5,47.8-16.59-3.19-31.82-11.43-43.99-23.59l-3.32,3.32c12.53,12.41,20.4,27.89,23.59,43.99-13.76,9.22-30.1,14.5-47.8,14.5v4.67c17.69,0,34.04,5.28,47.8,14.5-3.19,16.1-11.06,31.58-23.59,43.99l3.32,3.32c12.16-12.16,27.4-20.27,43.99-23.59,9.22,13.76,14.5,30.1,14.5,47.8h4.67c0-17.69,5.28-34.04,14.5-47.8,16.59,3.32,31.83,11.43,43.99,23.59l3.32-3.32c-12.53-12.41-20.27-27.89-23.59-43.99,13.76-9.22,30.1-14.5,47.8-14.5v-4.67ZM548.04,373.52c-5.53,8.85-9.34,18.43-11.55,28.26-6.27-4.79-11.92-10.32-16.71-16.71,10.08-2.21,19.54-6.02,28.26-11.55ZM451.96,373.52c8.72,5.53,18.19,9.34,28.26,11.55-4.79,6.39-10.44,11.92-16.71,16.71-2.21-9.83-6.02-19.41-11.55-28.26ZM451.96,469.61c5.53-8.85,9.34-18.43,11.55-28.26,6.27,4.79,11.92,10.32,16.71,16.71-10.08,2.21-19.54,6.02-28.26,11.55ZM548.04,469.61c-8.72-5.53-18.19-9.34-28.26-11.55,4.79-6.39,10.44-11.92,16.71-16.71,2.21,9.83,6.02,19.41,11.55,28.26Z"/>
</svg>