<?xml version="1.0" encoding="UTF-8"?>
<svg id="Layer_1" data-name="Layer 1" xmlns="http://www.w3.org/2000/svg" viewBox="0 0 1000 1000">
  <defs>
    <style>
      .cls-1 {
        fill: #fff;
      }
    </style>
  </defs>
  <path class="cls-1" d="M148.32,343.49c44.78,2.25,97.07-8.49,136.4,17.97,20.92,14.08,35.05,40.66,34.45,65.99l-42.83,2.86c-2.45-11.49-4.26-21.31-11.71-30.77-19.03-24.18-46.2-22.35-74.35-22.07v61.47c-1.24,1.4-2.99,1.9-4.74,2.26-12.15,2.47-24.97,3.25-37.22,5.24v-102.95Z"/>
  <path class="cls-1" d="M148.32,472.42c6.32-.95,37.32-9.12,41.03-6.56l.36,38.57c1.12,1.53,23.31,1.21,27.04.96,6.46-.43,14.99-1.96,21.25-3.73,21.87-6.18,35.51-26.05,38.33-48.11l41.43-4.07,1.95.91c1.26,20.21-6.93,41.77-20.01,57.03-20.26,23.64-53.01,30.58-82.89,32.01-17.33.83-48.54,1.95-65.03,0-1.45-.17-2.57-.12-3.45-1.55v-65.47Z"/>
  <path class="cls-1" d="M815.71,465.44c-.37,1.53.23,1.6,1.06,2.42,2.52,2.52,5.32,3.8,7.77,7.22.98,1.36,5.72,8.76,2.64,9.34l-90.25-27.13.3-63.89c.46-.67,13.52-1.86,16.01-1.98,16.79-.8,49.64-1.48,64.75,4.27,30.93,11.76,31.71,61.1-2.27,69.75ZM768.75,454.43h21.48c.7,0,7.79-2.53,8.84-3.15,13.16-7.61,12.55-28.43-2.15-33.53-.99-.34-9.19-2.3-9.69-2.3h-17.98c-.43,0-1.68,1.57-1.45,2.4l.95,36.58Z"/>
  <path class="cls-1" d="M379.11,450.43h52.45l1.5,1.5v21.99c0,.18-2.32,2.5-2.5,2.5h-51.45v34.48l1.5,1.5h57.45v25.99l-87.3.71c-.96-.05-3.62-1.71-3.62-2.21v-86.95l1.69-1.31c7.54-1.67,15.13-.94,22.78-1.19,3.64-.12,7.52-3.45,7.5,3Z"/>
  <path class="cls-1" d="M550.96,500.41c2.57.28,1.59,0,2.02-1.46,4.73-16.06,7.39-32.85,14.91-48.06l28.02,1.54-29.47,84.96-28.82,1.04-31.63-91.99c5.94,2.48,26.29-1.24,29.42,3.04,6.18,16.66,12.33,33.38,15.54,50.93Z"/>
  <path class="cls-1" d="M494,446.44v91.95h-30.97v-91.95c3.87-1.98,6.82-.03,10.45.05,6.83.14,13.7-.2,20.52-.05Z"/>
  <path class="cls-1" d="M438.06,418.45h-49.45c-1.88,0-6.51,2.09-9.5.99l.04,5.32c-.2.66-2.26,1.68-2.53,1.68h-27.97l-1.5-1.5v-30.98c0-.18,2.32-2.5,2.5-2.5h86.92l1.5,1.5v25.49Z"/>
  <path class="cls-1" d="M609.9,538.39l-.86-82.32c.83-2.53,8-1.77,10.34-1.63,4.59.27,13.58,1.18,17.97,2.01,1.1.21,3.52,1.73,3.52,2.47v77.96c0,2.88-3.93,1.5-4.5,1.5h-26.48Z"/>
  <path class="cls-1" d="M640.87,437.94l-1.65,1.34-29.18-2.97c-1.93-5.28-1.5-11.45-.14-16.85-2.61-.49-1.76.5-2.45,1.99-1.45,3.1-3.17,13.13-6.22,13.85l-26.29-2.86,14.49-40.97h49.95l1.5,1.5v44.98Z"/>
  <path class="cls-1" d="M700.81,538.39h-30.97v-76.96c10.04,1.11,21.9,1.16,30.97,5.5v71.46Z"/>
  <path class="cls-1" d="M767.52,478.65l.73,58.74c-.92,1.67-2.25,1.82-3.96,2.04-7.85,1.01-18.47-.47-26.58-.48-3.12-2.17-1.87-57.77-1.5-65.59,1-1.43,3.38-.97,4.92-.84,2.79.22,25.41,5.19,26.39,6.13Z"/>
  <path class="cls-1" d="M513.49,391.46c2.81,2.23,3.68,5.84,4.95,9.04,3.23,8.14,5.98,16.96,8.71,25.29.32.98,1.46.95-.15,2.17l-26.28-.75c-4.09-.68-3.9-4.45-4.73-7.77-4.2-.81-.03,5.67-3.62,6.85l-29.33-.86v-32.48l1.5-1.5h48.95Z"/>
  <path class="cls-1" d="M296.19,627.34v27.49c-2.71,2.86-7.65,1.03-11.32,1.54-1.06-.25-1.44-2.64-1.56-3.62-1.81-14.76-1.18-45.57-.14-60.93.17-2.54,1.11-4.91,1.04-7.46h21.48c4.4,0,10.74,7.15,11.42,11.56,1.19,7.69.98,20.01-5.91,24.92,10.21,8.01,4.18,22.42,6.86,33.84-.87,2.61-9.29,2.18-11.39.67-5.46-5.4,5.53-30.91-10.47-28.01ZM296.19,596.36v18.99c11.67,2.53,10.29-11.36,7.03-18.53l-7.03-.46Z"/>
  <path class="cls-1" d="M434.83,583.62c12.35-1.53,19.06,6.7,20.2,18.24.89,8.98.97,35.5-1.43,43.52-4.97,16.57-31.02,14.98-33.44-3.64-1.07-8.24-1.19-36.73.15-44.65,1.23-7.21,7.37-12.59,14.52-13.48ZM434.3,644.08c.99,1.01,3.42,1.54,4.74.8,2.03-1.59,2.74-3.54,3.04-6.03.95-8.1.93-29.9,0-38.02-.27-2.36-.78-5.1-3.55-5.53-2.61-.34-5.04.77-5.43,3.58.93,6.79-1.85,42.1,1.21,45.2Z"/>
  <polygon class="cls-1" points="700.81 449.43 669.84 444.44 669.84 392.96 671.34 391.46 699.31 391.46 700.81 392.96 700.81 449.43"/>
  <path class="cls-1" d="M816.96,538.13l-21.8-50.68,1.09-2.04,37.98,11.96,17.45,39.57-1.63,2.37c-6.41-3.41-29.36,2.37-33.09-1.18Z"/>
  <path class="cls-1" d="M169.8,584.36c6.9,1.41,10.82,9.01,11.48,15.5,1.67,16.42-.86,31.78-20.97,29.47v24.49c0,.28-1.02,2.33-1.68,2.53-3.38-.4-7.86,1.21-10.3-1.53v-70.46c6.28.88,15.64-1.19,21.48,0ZM160.31,617.35c2.23-.27,5.88.91,7.52-.99.95-1.1,1.41-16.31.74-17.76-1.72-3.69-8.26-4.11-8.26-1.74v20.49Z"/>
  <path class="cls-1" d="M570.93,615.35l13.05.44c4.18,13.66-2.05,11.87-13.06,11.55l-.13,27.35c-1,3.05-9.13,1.14-11.85,1.64v-71.96l27.71-.28c3.42,1.45,3.16,8.95.77,11.27h-14.99l-1.5,1.5v18.49Z"/>
  <path class="cls-1" d="M819.7,585.86c.82-2.66,9.59-1.12,11.99-1.5l-.05,57.44c-.07.84,1.01,2.53,1.55,2.53h14.99l1.34,1.66c.29.91.13,1.87.21,2.79.21,2.48.49,6.01-1.55,7.55h-26.98l-1.5-1.5v-68.96Z"/>
  <polygon class="cls-1" points="714.8 584.36 714.72 656.25 703.25 655.39 702.81 586.86 704.45 584.5 714.8 584.36"/>
</svg>