<?xml version="1.0" encoding="UTF-8"?>
<svg id="Layer_1" data-name="Layer 1" xmlns="http://www.w3.org/2000/svg" viewBox="0 0 1000 1000">
  <defs>
    <style>
      .cls-1, .cls-2 {
        fill: #fff;
      }

      .cls-2 {
        font-family: BreeSerifRUS-, 'Bree Serif RUS';
        font-size: 53.07px;
      }
    </style>
  </defs>
  <path class="cls-1" d="M150.9,336.06v131.24h132.74v-131.24h-132.74ZM157.55,343.48c.3-.43,1.8-.3,2.79-.13,5.16.96,11.98,1.8,11.98,1.8,13.84.77,20.26.96,29.41,9.18,0,0,15.54,14.67,12.38,29.48-.2.33-.17.37-.33.57-2.06,1.9-4.72,1.6-6.29-.53-.1-.13-.17-.37-.13-.7,1.7-9.55-6.65-20.56-6.65-20.56-8.28-10.01-24.69-13.04-36.46-12.34-.77,11.78,2.26,28.11,12.28,36.46,0,0,15.44,12.58,25.62,4.76,0,0-8.15-7.29-14.11-13.31-5.62-5.62-8.32-9.15-9.15-10.88-.27-.63-.03-.96.07-1.16,0,0,.63-1.13,1.6-1.36.27-.1.57-.03.73.03,1.2.3,6.49,4.46,11.05,9.12,4.46,4.56,16.07,15.74,16.73,17.73.37,1.16-.9,2.63-.9,2.63-17.47,17.4-39.89-6.55-39.89-6.55-8.18-9.18-8.38-15.6-9.08-29.44,0,0-.83-6.85-1.76-12.01-.17-1-.27-2.46.13-2.76ZM178.28,360.95c.03,1.73-1.33,3.19-3.06,3.23-1.73.07-3.16-1.33-3.23-3.03-.03-1.76,1.33-3.19,3.06-3.23,1.73-.07,3.16,1.33,3.23,3.03ZM201.83,449.78c-9.15,8.15-15.6,8.35-29.44,9.05,0,0-6.82.83-11.98,1.76-1,.17-2.46.3-2.76-.13-.43-.3-.3-1.76-.13-2.76.93-5.16,1.8-12.01,1.8-12.01.73-13.84.96-20.26,9.18-29.41,0,0,14.64-15.54,29.48-12.34.33.2.37.17.57.3,1.9,2.1,1.6,4.76-.53,6.29-.13.1-.4.2-.7.13-9.55-1.7-20.59,6.65-20.59,6.65-9.98,8.28-13.01,24.69-12.31,36.46,11.74.77,28.11-2.26,36.43-12.24,0,0,12.61-15.47,4.76-25.65,0,0-7.29,8.15-13.27,14.11-5.66,5.62-9.15,8.32-10.88,9.15-.63.27-.96.03-1.16-.03,0,0-1.13-.67-1.4-1.63-.07-.27,0-.57.03-.73.33-1.2,4.46-6.49,9.15-11.05,4.52-4.46,15.74-16.07,17.7-16.7,1.2-.4,2.66.87,2.66.87,17.4,17.47-6.59,39.92-6.59,39.92ZM178.34,442.79c.03,1.73-1.33,3.19-3.06,3.23-1.73.03-3.16-1.33-3.19-3.06-.07-1.73,1.3-3.16,3.03-3.19,1.73-.07,3.16,1.3,3.23,3.03ZM230.34,354.1c9.15-8.18,15.6-8.38,29.41-9.08,0,0,6.85-.8,12.01-1.73,1-.2,2.46-.3,2.76.13.43.3.3,1.76.13,2.76-.96,5.16-1.8,11.98-1.8,11.98-.77,13.84-.96,20.29-9.18,29.41,0,0-14.67,15.57-29.48,12.38-.33-.2-.37-.17-.57-.33-1.9-2.06-1.6-4.72.53-6.25.13-.13.37-.2.7-.17,9.55,1.7,20.59-6.65,20.59-6.65,9.98-8.28,13.01-24.69,12.31-36.43-11.78-.77-28.11,2.23-36.46,12.24,0,0-12.58,15.44-4.72,25.62,0,0,7.29-8.12,13.24-14.11,5.69-5.62,9.18-8.32,10.91-9.12.63-.3.96-.07,1.16.03,0,0,1.13.67,1.4,1.63.07.27,0,.53-.03.7-.33,1.2-4.49,6.49-9.15,11.05-4.52,4.46-15.74,16.07-17.73,16.73-1.16.4-2.63-.9-2.63-.9-17.4-17.47,6.59-39.89,6.59-39.89ZM253.83,361.05c-.03-1.73,1.33-3.16,3.06-3.23,1.73-.03,3.16,1.33,3.19,3.06.07,1.73-1.3,3.16-3.03,3.23-1.73.03-3.16-1.33-3.23-3.06ZM274.59,460.35c-.27.43-1.76.33-2.76.13-5.16-.93-11.98-1.8-11.98-1.8-13.84-.73-20.26-.96-29.41-9.18,0,0-15.54-14.67-12.38-29.48.2-.33.17-.37.33-.53,2.06-1.9,4.72-1.6,6.29.5.1.13.2.4.13.7-1.7,9.55,6.65,20.59,6.65,20.59,8.28,10.01,24.69,13.01,36.46,12.31.73-11.74-2.26-28.08-12.28-36.43,0,0-15.44-12.61-25.62-4.76,0,0,8.15,7.29,14.11,13.27,5.62,5.66,8.32,9.15,9.15,10.88.27.63.03,1-.07,1.16,0,0-.63,1.16-1.6,1.4-.3.1-.57,0-.73-.03-1.2-.33-6.49-4.46-11.04-9.15-4.46-4.52-16.07-15.74-16.73-17.7-.37-1.2.9-2.66.9-2.66,17.47-17.4,39.89,6.59,39.89,6.59,8.18,9.15,8.38,15.6,9.08,29.44,0,0,.83,6.82,1.73,11.98.2,1,.3,2.5-.13,2.76ZM253.93,442.89c-.07-1.73,1.3-3.16,3.03-3.23,1.73-.03,3.16,1.33,3.23,3.06.03,1.73-1.33,3.16-3.06,3.19-1.73.07-3.16-1.3-3.19-3.03Z"/>
  <path class="cls-1" d="M150.23,335.4v132.57h134.07v-132.57h-134.07ZM176.71,417.31c-9.98,8.28-13.01,24.69-12.31,36.46,11.74.77,28.11-2.26,36.43-12.24,0,0,12.61-15.47,4.76-25.65,0,0-7.29,8.15-13.27,14.11-5.66,5.62-9.15,8.32-10.88,9.15-.63.27-.96.03-1.16-.03,0,0-1.13-.67-1.4-1.63-.07-.27,0-.57.03-.73.33-1.2,4.46-6.49,9.15-11.05,4.52-4.46,15.74-16.07,17.7-16.7,1.2-.4,2.66.87,2.66.87,17.4,17.47-6.59,39.92-6.59,39.92-9.15,8.15-15.6,8.35-29.44,9.05,0,0-6.82.83-11.98,1.76-1,.17-2.46.3-2.76-.13-.43-.3-.3-1.76-.13-2.76.93-5.16,1.8-12.01,1.8-12.01.73-13.84.96-20.26,9.18-29.41,0,0,14.64-15.54,29.48-12.34.33.2.37.17.57.3,1.9,2.1,1.6,4.76-.53,6.29-.13.1-.4.2-.7.13-9.55-1.7-20.59,6.65-20.59,6.65ZM178.34,442.79c.03,1.73-1.33,3.19-3.06,3.23-1.73.03-3.16-1.33-3.19-3.06-.07-1.73,1.3-3.16,3.03-3.19,1.73-.07,3.16,1.3,3.23,3.03ZM214.11,383.8c-.2.33-.17.37-.33.57-2.06,1.9-4.72,1.6-6.29-.53-.1-.13-.17-.37-.13-.7,1.7-9.55-6.65-20.56-6.65-20.56-8.28-10.01-24.69-13.04-36.46-12.34-.77,11.78,2.26,28.11,12.28,36.46,0,0,15.44,12.58,25.62,4.76,0,0-8.15-7.29-14.11-13.31-5.62-5.62-8.32-9.15-9.15-10.88-.27-.63-.03-.96.07-1.16,0,0,.63-1.13,1.6-1.36.27-.1.57-.03.73.03,1.2.3,6.49,4.46,11.05,9.12,4.46,4.56,16.07,15.74,16.73,17.73.37,1.16-.9,2.63-.9,2.63-17.47,17.4-39.89-6.55-39.89-6.55-8.18-9.18-8.38-15.6-9.08-29.44,0,0-.83-6.85-1.76-12.01-.17-1-.27-2.46.13-2.76.3-.43,1.8-.3,2.79-.13,5.16.96,11.98,1.8,11.98,1.8,13.84.77,20.26.96,29.41,9.18,0,0,15.54,14.67,12.38,29.48ZM178.28,360.95c.03,1.73-1.33,3.19-3.06,3.23-1.73.07-3.16-1.33-3.23-3.03-.03-1.76,1.33-3.19,3.06-3.23,1.73-.07,3.16,1.33,3.23,3.03ZM255.46,386.53c9.98-8.28,13.01-24.69,12.31-36.43-11.78-.77-28.11,2.23-36.46,12.24,0,0-12.58,15.44-4.72,25.62,0,0,7.29-8.12,13.24-14.11,5.69-5.62,9.18-8.32,10.91-9.12.63-.3.96-.07,1.16.03,0,0,1.13.67,1.4,1.63.07.27,0,.53-.03.7-.33,1.2-4.49,6.49-9.15,11.05-4.52,4.46-15.74,16.07-17.73,16.73-1.16.4-2.63-.9-2.63-.9-17.4-17.47,6.59-39.89,6.59-39.89,9.15-8.18,15.6-8.38,29.41-9.08,0,0,6.85-.8,12.01-1.73,1-.2,2.46-.3,2.76.13.43.3.3,1.76.13,2.76-.96,5.16-1.8,11.98-1.8,11.98-.77,13.84-.96,20.29-9.18,29.41,0,0-14.67,15.57-29.48,12.38-.33-.2-.37-.17-.57-.33-1.9-2.06-1.6-4.72.53-6.25.13-.13.37-.2.7-.17,9.55,1.7,20.59-6.65,20.59-6.65ZM253.83,361.05c-.03-1.73,1.33-3.16,3.06-3.23,1.73-.03,3.16,1.33,3.19,3.06.07,1.73-1.3,3.16-3.03,3.23-1.73.03-3.16-1.33-3.23-3.06ZM274.59,460.35c-.27.43-1.76.33-2.76.13-5.16-.93-11.98-1.8-11.98-1.8-13.84-.73-20.26-.96-29.41-9.18,0,0-15.54-14.67-12.38-29.48.2-.33.17-.37.33-.53,2.06-1.9,4.72-1.6,6.29.5.1.13.2.4.13.7-1.7,9.55,6.65,20.59,6.65,20.59,8.28,10.01,24.69,13.01,36.46,12.31.73-11.74-2.26-28.08-12.28-36.43,0,0-15.44-12.61-25.62-4.76,0,0,8.15,7.29,14.11,13.27,5.62,5.66,8.32,9.15,9.15,10.88.27.63.03,1-.07,1.16,0,0-.63,1.16-1.6,1.4-.3.1-.57,0-.73-.03-1.2-.33-6.49-4.46-11.04-9.15-4.46-4.52-16.07-15.74-16.73-17.7-.37-1.2.9-2.66.9-2.66,17.47-17.4,39.89,6.59,39.89,6.59,8.18,9.15,8.38,15.6,9.08,29.44,0,0,.83,6.82,1.73,11.98.2,1,.3,2.5-.13,2.76ZM253.93,442.89c-.07-1.73,1.3-3.16,3.03-3.23,1.73-.03,3.16,1.33,3.23,3.06.03,1.73-1.33,3.16-3.06,3.19-1.73.07-3.16-1.3-3.19-3.03Z"/>
  <path class="cls-1" d="M191.05,534.21v5.26h13.54v23.75c0,3.29-.77,4.96-2.93,7.52-3.46,3.79-6.79,4.42-11.78,4.42-11.78,0-16.37-7.72-17.9-18.13-1.43-8.55-1.8-17.3-1.8-25.88s.37-18.53,2.96-27.05c2.79-9.88,10.35-14.07,20.46-14.07,16.2,0,19.13,7.98,21.56,21.96h5.32v-25.15h-3.16l-5.86,4.32c-6.12-3.59-11.84-5.76-19.16-5.76-10.61,0-20.99,3.23-29.04,10.31-11.48,10.05-15.44,23.12-15.44,37.99,0,25.32,13.81,45.44,41.02,45.44,15.64,0,25.68-4.86,35.6-16.43v-23.25h8.42v-5.26h-41.82Z"/>
  <path class="cls-1" d="M293.99,573.07v-42.38c0-8.55-2.06-13.41-10.35-16.97-4.72-2.1-10.48-2.86-15.47-2.86-9.98,0-27.25,4.26-27.25,16.9,0,4.99,3.73,8.55,8.68,8.55s8.85-3.69,8.85-8.68c0-3.59-3.09-5.86-3.09-8.28,0-3.46,7.05-4.49,9.35-4.49,9.08,0,10.88,3.59,10.88,11.74v12.28c-10.11,1-22.66,2.16-31.07,8.42-5.22,3.83-8.92,9.45-8.92,16.2,0,10.75,8.28,15.54,18.23,15.54,9.08,0,16.4-3.93,22.29-10.65.63,1.5,1.26,3.03,2.16,4.33,3.29,4.46,10.71,4.69,15.7,4.69h10.31v-4.32h-10.31ZM275.59,555.07c0,4.72-.5,8.82-4.36,12.01-1.9,1.53-4.36,2.56-6.79,2.56-6.79,0-10.61-4.99-10.61-11.38,0-12.91,11.51-14.44,21.76-15.07v11.88Z"/>
  <path class="cls-1" d="M356.86,510.56c-9.98,0-14.44,6.12-19.3,13.74v-11.71h-30.11v4.46h10.45v55.89h-10.45v4.46h42.88v-4.46h-12.91v-29.24c0-7.39,1.66-15.4,6.25-21.29,1.03-1.4,4.99-6.39,7.05-6.39.9,0,2.16.53,2.16,1.53s-2.69,3.19-2.69,7.29c0,5.49,4.59,9.05,9.85,9.05,6.25,0,10.31-4.19,10.31-10.45,0-7.92-5.86-12.87-13.51-12.87Z"/>
  <path class="cls-1" d="M443.39,572.9v-87.1h-29.91v4.32h10.25v30.81c-5.39-6.49-11.14-10.08-19.86-10.08-4.36,0-8.72,1.26-12.41,3.19-11.84,6.25-17.17,18.73-17.17,31.74,0,18.33,11.31,33.37,30.34,33.37,9.75,0,13.97-4.09,19.1-11.61v9.68h29.88v-4.32h-10.21ZM422.47,562.22c-2.33,5.46-7.82,11.84-14.24,11.84-12.81,0-13.47-20.16-13.47-29.18s.4-28.78,13.74-28.78c5.62,0,10.61,4.56,13.04,9.28,2.83,5.49,2.83,14.01,2.83,20.13,0,4.59-.13,12.21-1.9,16.7Z"/>
  <path class="cls-1" d="M491.2,574.37c-15.07,0-16.1-14.07-16.1-25.55v-8.05h44.31c-1.3-8.18-2.56-14.17-8.32-20.43-5.86-6.35-14.54-9.51-23.09-9.51-19.66,0-34.17,14.24-34.17,33.9s15.27,34.43,35.46,34.43c14.54,0,22.96-7.35,29.34-19.63l-3.83-1.93c-5.62,9.08-12.01,16.77-23.62,16.77ZM488.01,514.35c8.68,0,10.98,5.36,10.98,12.87v9.05h-23.49c.13-10.18-1.4-21.92,12.51-21.92Z"/>
  <path class="cls-1" d="M598.76,573.07v-41.32c0-9.95-2.53-16.83-13.14-19.89-2.79-.77-5.89-1.3-8.82-1.3-3.96,0-8.02.9-11.74,2.43-5.72,2.3-8.42,4.86-12.38,9.55v-9.91h-29.84v4.46h10.48v55.99h-10.48v4.32h39.79v-4.32h-9.95v-31.51c0-3.19-.1-6.62.67-9.81,1.76-6.75,8.78-14.04,16.17-14.04,9.48,0,9.48,8.82,9.48,15.97v39.39h-8.72v4.32h38.69v-4.32h-10.21Z"/>
  <path class="cls-1" d="M672.25,491.79v-4.46h-41.75v4.46h10.71v81.14h-10.71v4.46h41.75v-4.46h-10.71v-81.14h10.71Z"/>
  <path class="cls-1" d="M752.56,573.07v-41.32c0-9.95-2.53-16.83-13.14-19.89-2.79-.77-5.86-1.3-8.78-1.3-3.99,0-8.05.9-11.74,2.43-5.76,2.3-8.42,4.86-12.38,9.55v-9.91h-29.84v4.46h10.48v55.99h-10.48v4.32h39.79v-4.32h-9.95v-31.51c0-3.19-.13-6.62.63-9.81,1.76-6.75,8.78-14.04,16.2-14.04,9.42,0,9.42,8.82,9.42,15.97v39.39h-8.65v4.32h38.66v-4.32h-10.21Z"/>
  <path class="cls-1" d="M841.95,573.07v-41.32c0-9.95-2.56-16.83-13.14-19.89-2.83-.77-5.89-1.3-8.82-1.3-3.96,0-8.05.9-11.74,2.43-5.76,2.3-8.45,4.86-12.38,9.55v-9.91h-29.81v4.46h10.45v55.99h-10.45v4.32h39.76v-4.32h-9.95v-31.51c0-3.19-.13-6.62.63-9.81,1.8-6.75,8.82-14.04,16.2-14.04,9.45,0,9.45,8.82,9.45,15.97v39.39h-8.68v4.32h38.69v-4.32h-10.21Z"/>
  <path class="cls-1" d="M432.05,342.22v-6.62h-44.58v6.62l9.61,1.2v49.57h-56.99v-49.57l8.78-1.2v-6.62h-43.78v6.62l8.78,1.2v115.97l-8.78,1.2v6.79h43.78v-6.79l-8.78-1.2v-52.8h56.99v52.8l-9.61,1.2v6.79h44.58v-6.79l-8.98-1.2v-115.97l8.98-1.2Z"/>
  <path class="cls-1" d="M483.85,460.19v-86.6h-32.6v6.02l8.42,1.2v79.38l-8.42,1.2v5.99h40.99v-5.99l-8.38-1.2ZM472.64,329.61c-8.38,0-14.17,6.59-14.17,15s5.79,14.8,14.17,14.8,14.21-6.62,14.21-15.4c0-7.82-5.99-14.41-14.21-14.41Z"/>
  <path class="cls-1" d="M542.63,460.19v-128.58h-32.6v5.99l8.22,1.2v121.4l-8.22,1.2v5.99h40.99v-5.99l-8.38-1.2Z"/>
  <path class="cls-1" d="M616.79,457.19c-12.97,0-15.97-4.62-15.97-19v-55.79h21.99v-8.82h-21.99v-26.78l-23.82,7.19v19.6h-17.8v8.82h17.2v61.18c0,16.4,4.42,24.98,23.22,24.98,8.38,0,18.4-1.8,30.17-5.99v-6.39c-3.99,1-8.18,1-13.01,1Z"/>
  <path class="cls-1" d="M684.19,371c-30.81,0-50.4,20.19-50.4,50.4,0,36,19,48.77,48.8,48.77s50.37-19.6,50.37-48.77c0-32.2-18.4-50.4-48.77-50.4ZM683.19,462.98c-13.81,0-22.59-12.41-22.59-42.18s8.78-42.62,22.59-42.62,22.99,13.01,22.99,42.62-8.18,42.18-22.99,42.18Z"/>
  <path class="cls-1" d="M841.35,460.19v-56.39c0-21.19-8.22-32-26.61-32-13.77,0-23.59,6.62-33.8,14.8v-13.01h-32.77v6.62l8.38,1.2v78.78l-8.38,1.2v5.99h41.19v-5.99l-8.42-1.2v-67c6.02-4.19,14.21-7.78,19.4-7.78,11.21,0,16.6,6.59,16.6,21.39v53.4l-8.18,1.2v5.99h40.99v-5.99l-8.38-1.2Z"/>
  <path class="cls-1" d="M613.27,654.76h-1.16v-13.53h1.97c1.43,6.46,5.3,12.44,12.51,12.44,5.37,0,10.13-3.94,10.13-9.52,0-6.33-5.65-7.55-10.74-9.32-1.36-.48-2.72-.95-4.08-1.36-6.32-1.9-9.45-6.66-9.45-13.12,0-7.14,5.3-12.44,12.37-12.44,3.94,0,6.8.96,9.93,3.4l2.58-2.72h1.22v12.85h-2.18c-.75-6.46-4.96-11.83-11.77-11.83-4.35,0-8.43,3.2-8.43,7.75,0,5.23,3.6,5.78,7.82,6.93,1.7.48,3.06.96,4.21,1.29,1.36.41,3.06.88,4.49,1.56,5.71,2.72,7.75,7.21,7.75,13.33,0,8.57-5.57,14.89-14.34,14.89-3.2,0-7.28-1.29-9.66-3.47l-3.2,2.86Z"/>
  <path class="cls-1" d="M662.08,627.01c7.68,0,14.28,6.73,14.28,14.35s-6.6,14.01-14.28,14.01-14.28-6.39-14.28-14.01,6.6-14.35,14.28-14.35ZM662.08,628.38c-6.66,0-6.19,5.3-6.19,12.99,0,8.84.14,12.65,6.19,12.65s6.18-3.81,6.18-12.65c0-7.68.48-12.99-6.18-12.99Z"/>
  <path class="cls-1" d="M698.94,650.4c3.2,0,5.58-.48,7.48,2.18,1.02,1.43,1.29,3.2,1.29,4.9,0,8.77-7.35,12.78-15.23,12.78-4.63,0-11.15-2.18-11.15-7.82,0-2.65,2.04-4.83,4.35-5.71-2.72-1.02-4.42-3.13-4.42-6.19,0-4.08,2.52-5.91,6.12-6.93-2.58-1.63-4.55-3.88-4.55-7.07,0-5.98,4.76-9.52,10.33-9.52,3.13,0,5.44,1.02,7.75,3.06,1.36-1.63,2.59-3.33,4.96-3.33,1.63,0,2.99,1.09,2.99,2.79s-.82,2.45-2.45,2.45-2.24-2.31-2.79-2.31c-.75,0-1.36.96-1.83,1.43,1.16,1.36,1.63,3.13,1.63,5.03,0,3.06-1.63,6.32-4.35,7.89-2.79,1.56-6.26,1.09-9.11,1.09-1.97,0-6.53.14-6.53,3.06,0,1.7,1.22,2.24,2.72,2.24h12.78ZM688.4,656.8c-2.38,0-2.72,3.26-2.72,5.1,0,4.28,2.99,6.66,7.07,6.66,5.51,0,10.61-1.63,12.38-7.55,1.15-3.88-1.63-4.21-5.17-4.21h-11.56ZM689.42,640.61c0,2.45,1.02,3.4,3.6,3.4,2.93,0,3.88-.61,3.88-3.4v-9.45c0-2.24-1.29-2.79-3.61-2.79-2.85,0-3.87,1.36-3.87,2.79v9.45Z"/>
  <path class="cls-1" d="M732.44,649.72h-.14c-1.63,3.61-4.83,5.65-9.11,5.65-3.61,0-5.44-1.29-8.02-3.53-2.72-2.38-4.08-6.94-4.08-10.47,0-6.73,5.91-14.35,12.99-14.35,4.42,0,7.41,2.59,8.23,5.78h.14v-22.17h-4.9v-1.7c4.15.13,8.23-.27,12.24-1.02v44.74h4.9v1.7c-3.94,0-7.89-.21-12.24.54v-5.17ZM719.39,647.89c0,3.26,1.16,6.12,4.9,6.12,4.15,0,8.16-4.42,8.16-8.5v-7.2c0-4.29-2.79-9.93-8.03-9.93-4.48,0-5.03,3.53-5.03,7.41v12.1Z"/>
  <path class="cls-1" d="M255.49,654.41v-1.71h5.53l16.32-44.93h2.32l15.64,44.93h5.46v1.71h-21.64v-1.71h7.1l-4.16-12.09h-14.75l-4.23,12.09h6.96v1.71h-14.54ZM268.05,638.91h13.31l-6.42-19.05-6.89,19.05Z"/>
  <path class="cls-1" d="M317.01,627.38h6.49v1.7h-6.49v23.63h5.87v1.71h-18.57v-1.71h5.33v-23.63h-5.46v-1.7h5.46c0-6.83,1.29-16.05,8.94-18.92,1.09-.41,2.25-.68,3.48-.68,3.14,0,6.89,1.71,6.89,5.4,0,2.12-1.57,3.55-3.69,3.55-1.85,0-3.21-1.23-3.21-3.07,0-1.3.75-2.12,1.78-2.8.54-.34,0-1.71-1.85-1.71-3.21,0-4.98,5.26-4.98,7.58v10.65Z"/>
  <path class="cls-1" d="M340.32,634.68c2.18-3.75,4.57-7.72,9.56-7.72,2.66,0,5.46,1.37,5.46,4.44,0,2.66-1.85,3.82-4.3,3.82-1.64,0-3.28-1.43-3.28-3.14,0-.28.07-.68.14-1.02.2-1.09.27-1.5-.48-1.5-1.29,0-1.98.68-2.86,1.57-2.6,2.59-4.23,6.28-4.23,15.23v6.35h6.14v1.71h-17.55v-1.71h4.03v-23.63h-4.51v-1.7c3.55.13,7.72-.14,11.88-.28v7.58Z"/>
  <path class="cls-1" d="M373.28,626.96c7.72,0,14.34,6.76,14.34,14.41s-6.62,14.06-14.34,14.06-14.34-6.42-14.34-14.06,6.62-14.41,14.34-14.41ZM373.28,628.33c-6.69,0-6.21,5.32-6.21,13.04,0,8.88.14,12.7,6.21,12.7s6.21-3.82,6.21-12.7c0-7.72.48-13.04-6.21-13.04Z"/>
  <path class="cls-1" d="M394.75,654.41h-1.09v-9.76h1.84c.68,4.85,3.48,9.42,8.67,9.42,3.01,0,6.21-2.05,6.21-5.46s-3.14-3.75-6.69-4.24c-7.03-.95-9.69-3.82-9.69-9.08s3.55-8.33,8.6-8.33c2.39,0,4.78.75,6.69,2.18l1.09-1.77h1.16v8.06h-1.78c-.41-3.69-3.35-7.1-7.17-7.1-2.66,0-5.53,1.57-5.53,4.71,0,2.05.34,2.8,6.49,3.82,6.21,1.02,9.76,2.12,9.76,9.15,0,6.55-3.62,9.42-9.76,9.42-2.25,0-5.19-1.3-6.83-2.87l-1.98,1.85Z"/>
  <path class="cls-1" d="M417.37,654.41v-1.71h4.98v-23.63h-4.98v-1.7c4.03.13,8.2-.14,12.36-.28v25.6h5.05v1.71h-17.41ZM425.5,618.64c-2.12,0-3.69-2.12-3.69-4.1,0-1.85,1.85-3.69,3.69-3.69,1.98,0,4.03,1.64,4.03,3.69,0,2.32-1.71,4.1-4.03,4.1Z"/>
  <path class="cls-1" d="M439.21,629.08h-3.35v-1.7h15.63v1.7h-4.37l7.58,16.59,6.49-16.59h-4.92v-1.7h10.72v1.7h-3.75l-12.02,30.79c-1.44,3.62-4.17,10.52-8.74,10.52-1.91,0-3.76-1.57-3.76-3.48s1.37-3.48,3.28-3.48c1.71,0,2.32.41,3.35,1.63.48.62.68,1.91,2.87-3,1.16-2.52,2.25-5.12,3.01-7.65l-12.02-25.33Z"/>
  <path class="cls-1" d="M483.47,626.96c7.72,0,14.34,6.76,14.34,14.41s-6.62,14.06-14.34,14.06-14.34-6.42-14.34-14.06,6.62-14.41,14.34-14.41ZM483.47,628.33c-6.69,0-6.21,5.32-6.21,13.04,0,8.88.14,12.7,6.21,12.7s6.21-3.82,6.21-12.7c0-7.72.48-13.04-6.21-13.04Z"/>
  <path class="cls-1" d="M505.65,610.51h-4.92v-1.7c4.16.13,8.26-.28,12.29-1.03v24.24c1.78-3.01,4.65-5.05,8.13-5.05,7.72,0,13.18,7.24,13.18,14.55s-5.33,13.93-12.98,13.93c-3.35,0-6.55-1.98-8.33-4.71v4.23c-4.16-.75-8.26-.55-12.29-.55v-1.71h4.92v-42.2ZM526.26,634.68c0-3.35-1.57-6.35-5.19-6.35-4.3,0-7.72,3.89-8.06,8.12v9.56c0,4.24,3.83,8.06,7.99,8.06,3.89,0,5.26-2.94,5.26-6.42v-12.97Z"/>
  <text class="cls-2" transform="translate(548.56 654.01)"><tspan x="0" y="0">&amp;</tspan></text>
</svg>