<?xml version="1.0" encoding="UTF-8"?>
<svg id="Layer_1" data-name="Layer 1" xmlns="http://www.w3.org/2000/svg" viewBox="0 0 1000 1000">
  <defs>
    <style>
      .cls-1 {
        fill: #fff;
      }
    </style>
  </defs>
  <path class="cls-1" d="M58.73,623.76l54.43,49.74v-46.23h15.22v79l-53.84-49.74v45.94c-.51.84-1.17.81-2.02.91-3.94.46-9.87.06-13.78-.61v-79Z"/>
  <polygon class="cls-1" points="904.99 641.02 904.99 655.65 905.86 656.54 936.59 656.54 936.59 668.54 935.71 669.4 904.99 669.4 904.99 689.02 907.01 689.92 938.35 689.89 938.35 702.77 890.36 703.34 890.36 627.27 938.35 627.27 938.35 640.15 907.01 640.12 904.99 641.02"/>
  <path class="cls-1" d="M385.29,788.2c-4.52-2.17-10.33-4.98-11.04-10.45l4.84-2.47c1.84,7.69,16.99,10.05,14.87.47-1.41-6.36-18.56-5.55-17.99-17.02.63-12.74,20.89-12.9,24.51-1.89l-4.83,2.64c-1.43-.89-1.67-2.36-3.12-3.37-3.37-2.36-10.61-2.03-9.47,3.58,1.16,5.68,15.72,4.88,17.78,14.44,1.58,7.36-2.99,11.4-9.1,14.08h-6.44Z"/>
  <path class="cls-1" d="M663.28,788.2c-3.95-1.88-6.88-3.51-9.6-7.08-2.8-3.68.05-4.4,3.39-5.84,1.52,5.24,12.04,10.4,14.68,4.13,4.11-9.77-15.23-8.16-17.11-17.39-3.13-15.31,18.34-17.44,23.9-5.71,0,1.25-3.26,2.88-4.45,3.22-1.16-.04-1.97-2.24-3.23-3.19-5.58-4.24-13.43.36-8.45,5.52,4.21,4.37,14.77,3.56,16.54,12.13,1.5,7.26-3.05,11.72-9.23,14.21h-6.44Z"/>
  <polygon class="cls-1" points="294 567 498.25 211.8 548.9 298.45 410.46 538.91 442.94 538.91 566.12 327.08 581.48 354.16 581.68 356.93 460.79 567 360.13 567 514.98 299 514.57 296.42 499.41 269.73 327.36 567 294 567"/>
  <polygon class="cls-1" points="493.56 567 598.62 385.01 704.25 567 560.28 567 576.08 538.91 653.92 538.91 598.33 442.95 526.63 567 493.56 567"/>
  <polygon class="cls-1" points="262.39 627.28 278.49 673.51 299.56 623.78 320.62 673.5 336.72 627.28 355.45 627.28 322.97 706.86 299.56 657.7 275.28 706.86 243.67 627.28 262.39 627.28"/>
  <polygon class="cls-1" points="742.29 673.51 742.29 627.28 757.5 627.28 757.5 706.28 703.66 656.54 703.66 702.47 702.78 703.35 689.32 703.35 688.45 702.47 688.45 623.76 742.29 673.51"/>
  <path class="cls-1" d="M810.18,627.28v51.79c0,1.02,1.58,5.47,2.22,6.56,4.85,8.24,19.13,7.87,23.27-.97.31-.65,1.43-3.44,1.43-3.83v-53.54h15.8v55.3c0,1.57-2.17,7.6-3.03,9.26-9.22,17.88-41.31,18.48-51.41,1.29-.94-1.6-3.5-7.29-3.5-8.79v-57.06h15.22Z"/>
  <polygon class="cls-1" points="651.58 627.28 651.58 640.15 619.1 640.15 618.22 641.03 618.22 655.66 619.1 656.54 649.24 656.54 649.24 669.41 618.22 669.41 618.22 689.89 651.58 689.89 651.58 702.47 650.7 703.35 603.88 703.35 603 702.47 603 627.28 651.58 627.28"/>
  <polygon class="cls-1" points="214.4 627.28 214.4 640.15 181.63 640.15 181.63 656.54 212.65 656.54 212.65 668.53 211.77 669.41 181.63 669.41 181.63 689.89 214.4 689.89 214.4 703.35 166.42 703.35 166.42 627.28 214.4 627.28"/>
  <path class="cls-1" d="M447.05,623.17l-37.76,80.17h16.68c3.5-4.19,4.88-12.62,7.96-16.61.71-.91.88-.85,1.96-.97,2.51-.3,23.29-.32,24.33.31l8.48,17.27h16.67l-38.32-80.17ZM437.97,673.5c3.55-6.79,5.5-14.85,9.94-21.07l8.79,21.07h-18.73Z"/>
  <polygon class="cls-1" points="514.34 627.28 534.54 675.85 555.01 627.28 573.74 627.28 535.4 706.86 496.49 627.28 514.34 627.28"/>
  <path class="cls-1" d="M619.97,749.58c-.22,1.93.73,4.46-.88,5.85h-16.09v8.78h15.8v5.85h-15.8v10.83l.88.88h16.09v5.27h-23.41v-37.45h23.41Z"/>
  <path class="cls-1" d="M341.99,749.58c-.22,1.93.73,4.46-.88,5.85h-16.09v8.78h15.8c-.22,1.93.73,4.46-.88,5.85h-14.92v10.83l.88.88h16.09v5.27h-23.41v-37.45h23.41Z"/>
  <path class="cls-1" d="M497.65,747.82l-1.3.74-17.42,38.46,7.03-.28,4.03-8.71,13.73-.29,4.46,9,7.03.28-17.56-39.2ZM492.4,771.81c1.23-3.1,2.4-6.34,3.83-9.36.33-.69-.08-1.43,1.14-1.18l4.39,10.54h-9.36Z"/>
  <polygon class="cls-1" points="456.69 749.58 456.69 755.43 446.74 755.43 446.74 787.03 440.31 787.03 440.31 755.43 430.36 755.43 430.36 749.58 456.69 749.58"/>
  <polygon class="cls-1" points="565.55 749.58 565.55 755.43 555.6 755.43 555.6 787.03 549.16 787.03 549.16 755.43 539.21 755.43 539.21 749.58 565.55 749.58"/>
</svg>