<?xml version="1.0" encoding="UTF-8"?>
<svg id="Layer_1" data-name="Layer 1" xmlns="http://www.w3.org/2000/svg" viewBox="0 0 1000 1000">
  <defs>
    <style>
      .cls-1, .cls-2 {
        fill: #fff;
      }

      .cls-2 {
        fill-rule: evenodd;
      }
    </style>
  </defs>
  <path class="cls-2" d="M504.46,326.06c21.64,0,39.25-17.61,39.25-39.25s-17.61-39.26-39.25-39.26-39.25,17.61-39.25,39.26,17.6,39.25,39.25,39.25h0ZM504.46,250.59c19.96,0,36.2,16.24,36.2,36.21s-16.24,36.2-36.2,36.2-36.2-16.24-36.2-36.2,16.24-36.21,36.2-36.21Z"/>
  <path class="cls-2" d="M510.82,313.09l.26-.03c9.85-2.48,17.43-10.17,19.74-20.06l-.8-1.28-.24-.03-1.03.82c-2.1,8.99-9.24,16.24-18.19,18.49l-.65.48-.12.81,1.03.8Z"/>
  <path class="cls-2" d="M504.46,319.66c18.12,0,32.85-14.74,32.85-32.85s-14.74-32.85-32.85-32.85c-4.91,0-9.61,1.05-14.01,3.13l-.56,1.58,1.08.68.5-.11c4.07-1.92,8.45-2.9,12.99-2.9,16.8,0,30.47,13.67,30.47,30.47s-13.67,30.47-30.47,30.47-30.47-13.67-30.47-30.47c0-9.2,4.08-17.8,11.21-23.62l.43-.8-.26-.88-.92-.44-.74.27c-7.68,6.28-12.09,15.55-12.09,25.46,0,18.12,14.74,32.85,32.85,32.85Z"/>
  <path class="cls-2" d="M460.94,374.84l-.13.06c-1.38.54-6.11,2.77-8.99,8.58-2.74,5.56-4.46,23.98,20.31,42.06,2.65,1.93,5.49,3.72,8.41,5.36l.12-.02v-.12c-5.74-5.09-11.23-11.29-15-17.49-6.4-10.49-8.4-19.4-8.43-19.49l.16-.89.73-.5.24-.03,1.15.93c.02.07,2,8.93,8.04,18.86,4.88,8.02,12.15,15.97,19.87,21.85l.13-.02v-.12c-18.69-17.43-24.45-45.9-25.4-51.53l.16-.88.73-.51.24-.03,1.16,1.03c.63,3.63,6.64,35.96,27.62,53.96l.75.33c-20.17-26.59-22.31-65.61-22.52-70.15l.26-.86.9-.42,1.18,1.19c.28,4.66,3.36,46.31,23.12,71.06l1.63.48c-4.87-11.74-8.97-26.32-11.85-42.69-3.5-19.93-3.25-37.06-3.25-37.22l1.2-1.15.81.36.34.83c0,.71-.17,17.55,3.22,36.77,2.98,17,7,31.69,11.82,43.61l1.81.37c-1.1-5.39-3.91-20.83-4.63-46.31-.79-27.65-.25-45.29-.22-46.03l1.21-1.13.81.36.32.85c0,.17-.55,17.86.25,45.92.84,29.28,4.3,46.11,4.3,46.68l.91.1.9-.1c.01-.57,3.47-17.4,4.3-46.68.8-28.06.26-45.75.25-45.92l.32-.85.81-.36,1.21,1.13c.03.75.57,18.38-.22,46.03-.71,25.48-3.53,40.92-4.62,46.31l1.8-.37c4.82-11.92,8.83-26.61,11.82-43.61,3.39-19.22,3.24-36.06,3.23-36.77l.33-.83.82-.36,1.19,1.15c0,.16.26,17.29-3.25,37.22-2.88,16.37-6.98,30.94-11.84,42.69l1.64-.48c19.76-24.76,22.83-66.4,23.12-71.06l1.16-1.19.9.42.27.86c-.21,4.54-2.36,43.56-22.52,70.15l.73-.33c20.98-17.99,27.01-50.32,27.62-53.96l1.16-1.03.25.03.73.51.16.88c-.96,5.63-6.73,34.1-25.39,51.53l-.02.12.13.02c7.74-5.88,14.99-13.83,19.89-21.85,6.04-9.93,8.02-18.79,8.04-18.86l1.14-.93.25.03.74.5.15.89c-.02.09-2.03,9-8.43,19.49-3.78,6.2-9.26,12.4-14.99,17.49v.12s.11.02.11.02c2.92-1.64,5.76-3.42,8.4-5.36,24.78-18.08,23.07-36.5,20.31-42.06-2.87-5.81-7.6-8.04-8.99-8.58l-.13-.06.03-.13c.53-2.33,1.78-10.41-4.32-17.16-5.3-5.88-11.7-6.76-15.03-6.76-1.11,0-1.98.1-2.52.18l-.14.02-.03-.14c-.45-1.48-2.37-6.63-7.99-10.71-5.07-3.67-12.13-3.89-13.5-3.89s-8.44.22-13.5,3.89c-5.63,4.08-7.54,9.23-7.99,10.71l-.04.14-.13-.02c-.54-.08-1.42-.18-2.53-.18-3.33,0-9.72.88-15.03,6.76-6.09,6.75-4.85,14.84-4.32,17.16l.03.13Z"/>
  <path class="cls-2" d="M559.19,290.34c0,.78.25,2.89,2.47,5.41,1.21,1.37,4.25,3.32,6.26,4.61l1.53,1c1.52,1.08,3.38,2.5,4.51,3.48l.43.36,1.14.96.78.27-.19-.77c-5.44-7.25-10.16-10.96-12.03-12.28l-.25-1.26.77-.4.56.19c2.13,1.34,9.55,6.55,15.87,17.73l.45.3.24-.05.26-.55c-1.98-6.45-5.03-11.9-9.32-16.66-10.84-12.03-21.97-13.45-22.08-13.46h-.06l.02.03c2.41,7.02,7.92,10.57,8.63,11.08Z"/>
  <path class="cls-2" d="M551.69,322.93c-1.74,4.99-1.85,8.52-1.65,10.58.36,3.56,1.86,8.25,4.5,13.97l.16.37c2.26,5.07,6.47,14.51,7.51,27.35,1.1,13.75-1.97,22.91-2.97,25.93-2.82,8.35-8.99,16.26-16.84,22.33l-.03.11.11.05c1.24-.3,2.38-.72,2.39-.72.92-.32,1.78-.65,2.79-1.09,20.93-18.48,21.84-43.84,21.25-53.89-1.18-20.47-11.53-37.02-11.63-37.19l-.16-.88.52-.74.63-.17.99.55c.11.16,10.79,17.52,11.99,38.3,1.17,20.1-5.31,37.57-18.82,51.87v.12s.11.02.11.02l1.45-.66c1.47-1.06,6.69-5.09,11.93-12.63,5.6-8.04,12.28-21.81,12.35-41.71.1-28.23-16.69-49.41-17.4-50.29l-.25-.87.43-.78.74-.27.91.44c.18.22,18.03,22.41,17.93,51.77-.09,24.83-10.56,40.96-19.21,50.13v.11s.11.03.11.03c1.21-.72,2.39-1.46,3.54-2.23,15.4-15.55,22.65-35.86,20.97-58.74-1.54-20.92-9.96-34.87-10.05-35.02l-.14-.89.53-.72.6-.17,1,.56c.36.58,8.82,14.55,10.4,36.08,1.56,21.26-4.1,38.51-17.24,54.28v.12h.12c.97-.76,4.35-3.51,7.4-6.59l1.08-1.11.16-.19c10.04-15.19,13.89-34.33,13.21-45.68-.86-14.44-5.2-24.9-5.24-25l.63-1.54.45-.1,1.08.72c.19.44,4.49,10.91,5.43,25.77.62,10.06-3.22,27.91-11.03,40.96v.11s.16,0,.16,0c6.67-7.8,12.02-21.68,13.33-30.59,3.66-24.87-6.93-42.4-11.33-47.07-6.54-6.94-12.6-8.09-12.74-8.13-.07-.07-5.75-5.51-9.92-7.02-1.25-.45-2.49-.69-3.71-.69-2.3,0-4.58.82-6.75,2.44-3.13,2.31-4.53,5.27-4.29,9.03.25,3.95,2.03,7.98,2.56,9.29Z"/>
  <path class="cls-2" d="M596.48,378.84c-.75,1.93-1.82,4.19-3.29,6.88l.02.12h.11c8.68-5.76,17.12-7.54,17.53-7.55l1.15,1.01-1,1.33c-.1.01-10.96,1.66-20.22,9.46-.84,1.35-1.98,3.02-3.17,4.54v.11l.11.02c16.11-10.06,30.54-11.17,34.6-11.17l1.5.04.78.43.26.86-1.28,1.05c-.07,0-.75-.07-1.94-.07-6.05,0-21.9,1.39-38.42,14.19-1.03,1.12-3.82,4.05-7.51,7.05l-.02.12.12.03c4.55-2.41,19.21-11.54,30.1-14.21,4.6-1.12,9.1-1.69,13.39-1.69,6.79,0,10.75,1.45,10.92,1.51l.68,1.51-1.1.76-.42-.07s-3.83-1.35-10.29-1.35c-4.11,0-8.35.54-12.61,1.6-8.67,2.16-15.48,5.76-24.09,10.31l-.22.12c-3.92,2.07-11.67,6.29-13.53,7.3l-.25.13c-3.19,2.25-8.67,5.45-12.49,7.25l-.06.11.12.06c7.67-2.02,18.47-7.21,21.58-8.7,10.69-5.11,21.75-10.4,36.37-10.4,5.87,0,11.83.86,18.21,2.6l.81,1.44-1.13.86-.31-.04c-6.17-1.69-11.95-2.51-17.68-2.51-13.99,0-24.92,5.04-35.48,9.91-4.65,2.14-9.05,4.17-13.68,5.77-8.28,2.87-14.66,3.99-15.53,4.14l-2.03.78c-2.48.87-5.09,1.54-7.8,1.95l-.48.37-.57.36c1.69,0,7.9-.13,16.87-1.84,6.85-1.31,13.24-3.84,20.02-6.53l1.6-.64c9.52-3.79,19.37-7.7,30.92-7.7,6.46,0,12.93,1.19,19.75,3.65l.7,1.51-1.11.77-.39-.07c-6.52-2.35-12.72-3.5-18.92-3.5-11.19,0-20.81,3.83-30.09,7.52l-1.64.65c-6.56,2.61-13.37,5.3-20.41,6.65-7.21,1.37-13.04,1.66-16.67,1.66-1.83,0-3.06-.08-3.39-.14l-2.1,1.36-1.29.75c.22.03,7.28.95,12.74.95,12.69,0,23.21-3.51,33.4-6.91l2.04-.68c7.75-2.6,14.43-4.86,22.52-4.86l1.47.03c7.09.24,11.07,1.52,14.27,2.55,2.24.72,4.17,1.35,6.63,1.47h.42c2.21.01,4.52-.86,5.6-2.11,1.61-1.85,1.35-3.75,1.35-3.78l-.02-.14.14-.03c.07-.01,6.53-1.49,8.23-8.3,2.17-8.73-5.04-13.54-5.11-13.58l-.11-.08.04-.12c.02-.06,2.02-5.68-2.44-11.33-4.47-5.66-11.24-6.33-13.94-6.33h-1.01s-2.92-4.05-9.47-4.05c-1.48,0-3.04.2-4.66.6-4.6,1.14-7.51,3.81-7.53,3.81l-.2.49Z"/>
  <path class="cls-2" d="M565.44,458.04l-.94-.47c-.12-.18-13.48-17.57-42.41-21.27l-2.2.87-1.81.63c.12.02,12.38,2.47,22.42,7.53,8.14,4.1,11.68,7.62,14.36,10.61,4.23,4.74,7.58,6.51,12.3,6.51h.06c6.97,0,10.71-3.73,10.74-3.78l.09-.09.11.07s2.56,1.51,5.8,1.51c2.63,0,4.96-.96,6.95-2.87,4.95-4.74,1.13-10.97,1.1-11.03l-.07-.11.09-.09c.07-.08,6.39-6.88.76-14.08-3.23-4.15-11.03-5.5-11.03-5.51l-1.16.38-2.21.74-2.21.68-.05.1.07.08c7.47,1.82,12.46,5.44,12.5,5.49l.43.78-.25.86-.91.44-.73-.26c-.25-.2-6.18-4.83-14.96-6.16-1.48.47-2.99.92-4.5,1.29l-.07.1.07.09c13.23,3.52,21.27,11.06,21.34,11.14l.35.82-.33.83-.83.35-.82-.34c-.1-.09-9.6-9.28-23.99-11.8-1.92.46-3.85.86-5.75,1.14l-.07.09.07.1c5.14,1.71,20.31,6.64,29.62,18.73l.22.87-.44.77-.71.25-.93-.46c-10.29-13.39-28.81-18.65-32.47-19.61-4.43.53-9.04.4-9.04.4l-.09.07.06.11c13.71,4.52,24.47,10.88,32.13,19.52l-.11,1.65-.77.3-.88-.39c-17.26-19.44-43.95-22.45-45.08-22.56l-.19-.03c-1.16.63-2.28,1.19-3.48,1.7,28.27,4.84,40.72,21.3,40.84,21.47l-.24,1.63-.7.23Z"/>
  <path class="cls-2" d="M427.2,309.9l.23.06.45-.31c6.32-11.18,13.75-16.4,15.87-17.73l.57-.19.77.41-.26,1.26c-1.87,1.32-6.59,5.03-12.03,12.28l-.19.76.79-.26,1.14-.97.42-.36c1.13-.98,3-2.41,4.52-3.48l1.52-1c2.01-1.29,5.05-3.23,6.26-4.61,2.23-2.53,2.47-4.63,2.48-5.41.69-.52,6.2-4.07,8.61-11.09l.02-.03h-.04c-.11,0-11.25,1.44-22.09,13.46-4.29,4.75-7.33,10.21-9.32,16.66l.27.55Z"/>
  <path class="cls-2" d="M424.38,395.68h.13s.02-.11.02-.11c-7.82-13.06-11.66-30.89-11.03-40.95.93-14.86,5.25-25.33,5.42-25.77l1.09-.72.45.1.63,1.54c-.04.09-4.39,10.56-5.24,24.99-.68,11.36,3.17,30.49,13.21,45.69l.18.19,1.06,1.11c3.05,3.08,6.43,5.84,7.4,6.6h.13v-.14c-13.15-15.76-18.8-33.01-17.24-54.27,1.58-21.52,10.03-35.49,10.39-36.07l1-.56.61.18.53.72-.14.89c-.09.14-8.52,14.1-10.05,35.02-1.68,22.87,5.57,43.18,20.97,58.74,1.14.77,2.33,1.5,3.53,2.23l.12-.03v-.11c-8.67-9.16-19.14-25.3-19.22-50.13-.1-29.36,17.75-51.55,17.93-51.77l.9-.44.73.27.43.78-.25.86c-.71.89-17.49,22.07-17.4,50.3.08,19.9,6.75,33.67,12.35,41.71,5.24,7.54,10.46,11.57,11.94,12.63l1.45.66.11-.03v-.11c-13.51-14.3-20-31.77-18.83-51.87,1.21-20.78,11.89-38.13,11.99-38.3l1-.55.62.18.53.73-.16.88c-.11.16-10.45,16.73-11.64,37.19-.58,10.05.32,35.41,21.24,53.89,1.01.45,1.88.77,2.79,1.1.02,0,1.16.43,2.39.72l.11-.06-.02-.11c-7.86-6.07-14.03-13.99-16.86-22.33-1.01-3.02-4.07-12.18-2.96-25.93,1.02-12.84,5.23-22.28,7.51-27.35l.16-.36c2.63-5.72,4.13-10.41,4.49-13.97.21-2.06.09-5.58-1.65-10.58.53-1.32,2.31-5.34,2.56-9.29.24-3.76-1.16-6.72-4.28-9.03-2.18-1.61-4.45-2.44-6.75-2.44-1.22,0-2.47.23-3.72.69-4.16,1.51-9.85,6.96-9.91,7.02-.14.04-6.21,1.2-12.75,8.13-4.4,4.67-15,22.2-11.34,47.07,1.32,8.91,6.67,22.79,13.34,30.59Z"/>
  <path class="cls-2" d="M376.24,417.72l.14.03-.02.14s-.26,1.92,1.36,3.77c1.08,1.25,3.38,2.12,5.59,2.12h.43c2.44-.13,4.38-.76,6.62-1.47,3.19-1.03,7.18-2.31,14.27-2.56l1.46-.02c8.09,0,14.78,2.24,22.52,4.85l2.05.68c10.2,3.4,20.72,6.91,33.39,6.91,5.47,0,12.52-.92,12.74-.95l-1.29-.75-2.08-1.36c-.34.07-1.56.14-3.4.14-3.62,0-9.46-.29-16.66-1.66-7.06-1.35-13.85-4.04-20.42-6.64l-1.63-.66c-9.29-3.69-18.91-7.52-30.09-7.52-6.21,0-12.4,1.15-18.93,3.5l-.4.07-1.1-.77.7-1.5c6.82-2.46,13.28-3.65,19.75-3.65,11.54,0,21.4,3.92,30.92,7.7l1.6.64c6.77,2.69,13.16,5.22,20,6.53,8.98,1.71,15.19,1.84,16.88,1.84l-.57-.36-.49-.37c-2.71-.43-5.31-1.09-7.8-1.95l-2.03-.78c-.87-.14-7.23-1.26-15.52-4.14-4.64-1.6-9.03-3.63-13.68-5.77-10.57-4.87-21.48-9.91-35.48-9.91-5.73,0-11.51.82-17.69,2.51l-.31.04-1.13-.86.82-1.45c6.37-1.74,12.32-2.59,18.21-2.59,14.61,0,25.67,5.29,36.37,10.4,3.1,1.49,13.9,6.68,21.58,8.7l.11-.05-.06-.11c-3.82-1.8-9.29-5-12.48-7.25l-.26-.13c-1.84-1.01-9.6-5.22-13.53-7.3l-.22-.12c-8.6-4.55-15.4-8.15-24.09-10.31-4.26-1.05-8.5-1.6-12.61-1.6-6.45,0-10.26,1.34-10.29,1.35l-.42.08-1.09-.76.67-1.51c.16-.07,4.14-1.51,10.93-1.51,4.29,0,8.79.57,13.38,1.69,10.9,2.67,25.54,11.8,30.1,14.21l.12-.03v-.12c-3.71-3-6.49-5.93-7.53-7.05-16.51-12.79-32.36-14.18-38.41-14.18-1.2,0-1.89.06-1.94.06h-.02l-1.26-1.04.25-.86.79-.43,1.49-.04c4.07,0,18.49,1.11,34.6,11.17l.12-.02v-.11c-1.19-1.52-2.33-3.19-3.17-4.54-9.27-7.8-20.13-9.45-20.23-9.46l-1-1.33,1.16-1.01c.4.01,8.86,1.79,17.53,7.55h.11s.01-.12.01-.12c-1.47-2.69-2.54-4.95-3.29-6.88l-.19-.49s-2.93-2.67-7.54-3.81c-1.61-.41-3.18-.61-4.65-.61-6.55,0-9.47,4.06-9.47,4.06h-1.02c-2.7-.01-9.46.66-13.94,6.32-4.44,5.64-2.46,11.27-2.44,11.32l.04.12-.1.07c-.08.06-7.3,4.87-5.13,13.6,1.7,6.81,8.17,8.29,8.23,8.3Z"/>
  <path class="cls-2" d="M454.07,455.93c2.67-2.99,6.2-6.51,14.34-10.61,10.04-5.06,22.31-7.51,22.43-7.53l-1.81-.63-2.19-.87c-28.94,3.7-42.29,21.09-42.43,21.27l-.94.47-.69-.23-.24-1.63c.12-.16,12.56-16.63,40.84-21.47-1.21-.51-2.33-1.07-3.49-1.7l-.19.03c-1.13.11-27.81,3.12-45.07,22.56l-.88.39-.78-.3-.1-1.65c7.66-8.64,18.41-15,32.12-19.52l.06-.11-.09-.07s-4.61.12-9.03-.4c-3.66.95-22.18,6.22-32.48,19.61l-.92.46-.72-.25-.45-.77.23-.87c9.3-12.09,24.47-17.02,29.62-18.73l.06-.1-.08-.09c-1.9-.28-3.83-.68-5.74-1.14-14.4,2.51-23.9,11.71-23.99,11.81l-.82.33-.83-.35-.34-.83.35-.81c.08-.09,8.11-7.62,21.34-11.15l.07-.09-.07-.1c-1.52-.37-3.02-.82-4.51-1.29-8.78,1.33-14.7,5.96-14.95,6.16l-.75.26-.9-.43-.26-.87.43-.78s5.04-3.66,12.5-5.49l.08-.08-.07-.1-2.21-.68-2.2-.74-1.18-.38s-7.79,1.36-11.03,5.51c-5.63,7.2.7,14.01.77,14.08l.09.09-.07.11c-.03.05-3.84,6.29,1.09,11.03,1.99,1.91,4.32,2.87,6.96,2.87,3.24,0,5.77-1.49,5.8-1.51l.11-.07.09.09s3.77,3.78,10.74,3.78h.04c4.73,0,8.07-1.77,12.31-6.51Z"/>
  <path class="cls-2" d="M469.64,458.99l.11.03v.12c-.04,2.48.66,7.12,5.77,10.31,2.17,1.35,4.54,2.04,7.06,2.04s4.37-.66,5.3-1.04l.12-.06.07.11c5.02,7.53,14.37,7.9,16.2,7.9h.38c1.82,0,11.18-.37,16.2-7.9l.08-.11.12.06c.92.38,2.83,1.04,5.3,1.04s4.87-.69,7.04-2.04c5.11-3.19,5.82-7.84,5.79-10.31v-.12s.11-.03.11-.03c.3-.1,2.97-1.01,4.71-3.03,1.66-1.94,1.94-4.72,2.02-4.72l-.48-.34c-1.79-1.25-3.77-2.42-6.05-3.6-1.79-.92-3.62-1.77-5.57-2.64l-.1.03v.11c1.44,1.65,3.65,3.48,6.67,5.97l.2,1.66-.91.45-.76-.27c-5.87-4.93-8.77-9.19-8.83-9.34-1.82-.66-3.85-1.32-5.67-1.89,1.87,3.06,5.47,8.01,11.24,13.82l.34.83-.35.82-.82.35-.82-.35c-8.1-8.16-11.89-15.41-12.18-16.12-1.61-.4-3.32-.78-4.82-1.11,2.11,5.2,6.82,14.21,12.86,22.41l.21.87-.46.77-.69.23-.94-.47c-7.12-9.67-12.05-21.02-13.31-24.17l-.88-.09-1.92.52c.91,3.69,4.29,15.64,8.52,25.9v.89s-.65.64-.65.64l-.44.09-1.09-.73c-4.26-10.36-7.44-22.55-8.37-26.29l-2.36.48c.08,2.02.57,7.28,1.5,14.46,1.32,10.19,2.57,15.8,2.58,15.86l-.88,1.4-.26.02-1.14-.91c-.01-.05-1.3-5.75-2.63-16.08-.88-6.85-1.17-12.25-1.26-14.43l-.74.1h-.27s-.27,0-.27,0l-.73-.1c-.09,2.18-.39,7.58-1.28,14.43-1.32,10.33-2.6,16.02-2.61,16.08l-1.14.91-.26-.02-.89-1.4c.03-.06,1.28-5.66,2.59-15.86.92-7.19,1.42-12.45,1.5-14.46l-2.37-.48c-.93,3.74-4.12,15.93-8.37,26.29l-1.08.73-.45-.09-.63-.64v-.89c4.21-10.26,7.59-22.21,8.51-25.9l-1.92-.52-.89.09c-1.25,3.15-6.18,14.5-13.31,24.17l-.93.47-.7-.23-.46-.77.22-.87c6.04-8.2,10.74-17.2,12.85-22.41-1.51.33-3.2.7-4.81,1.11-.31.71-4.09,7.96-12.18,16.12l-.83.35-.81-.35-.35-.82.34-.83c5.76-5.81,9.36-10.76,11.24-13.82-1.82.57-3.85,1.23-5.67,1.89-.07.15-2.96,4.41-8.85,9.34l-.75.27-.92-.45.2-1.66c3.03-2.49,5.25-4.32,6.68-5.97v-.11l-.11-.03c-1.95.88-3.79,1.72-5.58,2.64-2.27,1.18-4.25,2.35-6.03,3.6l-.48.34c.08,0,.36,2.77,2.02,4.72,1.72,2.02,4.4,2.93,4.71,3.03Z"/>
  <path class="cls-2" d="M238.7,674.07c0,4.77,3.55,6.69,7.91,6.69,4.82,0,6.61-2.4,6.61-4.73s-1.31-3.36-2.58-3.84c-2.23-.83-4.98-1.41-9.32-2.58-5.38-1.41-6.91-4.68-6.91-7.92,0-6.3,5.78-9.19,11.42-9.19,6.46,0,11.99,3.46,11.99,9.98h-5.48c-.3-4.03-2.93-5.51-6.73-5.51-2.54,0-5.73.91-5.73,4.06,0,2.24,1.48,3.37,3.71,4.03.48.13,7.4,1.92,9.02,2.4,4.06,1.27,6.07,4.64,6.07,7.97,0,6.99-6.26,9.79-12.42,9.79-7.12,0-12.89-3.4-13.02-11.15h5.46Z"/>
  <path class="cls-2" d="M277.12,672.05h9.54l-4.69-13.43h-.13l-4.72,13.43h0ZM279.04,653.25h5.81l12.03,31.23h-5.86l-2.93-8.26h-12.47l-2.93,8.26h-5.64l11.98-31.23Z"/>
  <polygon class="cls-2" points="307 653.25 314.71 653.25 323.32 677.7 323.41 677.7 331.82 653.25 339.42 653.25 339.42 684.48 334.21 684.48 334.21 660.38 334.13 660.38 325.46 684.48 320.96 684.48 312.3 660.38 312.22 660.38 312.22 684.48 307 684.48 307 653.25"/>
  <path class="cls-2" d="M359.64,672.05h9.54l-4.69-13.43h-.13l-4.72,13.43h0ZM361.56,653.25h5.83l12.03,31.23h-5.86l-2.93-8.26h-12.46l-2.93,8.26h-5.64l11.97-31.23Z"/>
  <path class="cls-2" d="M395.09,667.46h8.96c3.5,0,5.33-1.67,5.33-4.98,0-4.03-2.58-4.77-5.42-4.77h-8.88v9.76h0ZM389.62,653.25h14.91c6.87,0,10.31,3.15,10.31,8.44,0,5.99-4.1,7.52-5.16,7.87v.09c1.89.22,4.64,1.71,4.64,6.61,0,3.68.51,6.96,1.7,8.22h-5.86c-.83-1.35-.83-3.06-.83-4.59,0-5.73-1.18-8.26-6.21-8.26h-8.04v12.85h-5.47v-31.22Z"/>
  <polygon class="cls-2" points="427.65 653.25 433.11 653.25 433.11 667.46 447.01 653.25 453.75 653.25 441.29 665.72 454.63 684.48 447.8 684.48 437.58 669.57 433.11 673.98 433.11 684.48 427.65 684.48 427.65 653.25"/>
  <path class="cls-2" d="M471.27,672.05h9.53l-4.67-13.43h-.13l-4.73,13.43h0ZM473.2,653.25h5.81l12.02,31.23h-5.86l-2.93-8.26h-12.46l-2.93,8.26h-5.64l11.99-31.23Z"/>
  <polygon class="cls-2" points="501.01 653.25 506.8 653.25 521.05 676.26 521.14 676.26 521.14 653.25 526.35 653.25 526.35 684.48 520.57 684.48 506.36 661.51 506.23 661.51 506.23 684.48 501.01 684.48 501.01 653.25"/>
  <path class="cls-2" d="M545.52,680.02h5.38c8.57,0,10.4-4.86,10.4-11.15s-1.83-11.16-10.4-11.16h-5.38v22.31h0ZM540.05,653.24h12.95c9.62,0,13.77,7,13.77,15.63s-4.15,15.6-13.77,15.6h-12.95v-31.23Z"/>
  <polygon class="cls-2" points="598.12 653.25 603.59 653.25 603.59 665.67 617.79 665.67 617.79 653.25 623.26 653.25 623.26 684.48 617.79 684.48 617.79 670.4 603.59 670.4 603.59 684.48 598.12 684.48 598.12 653.25"/>
  <path class="cls-2" d="M640.86,668.86c0,5.99,2.8,11.9,9.49,11.9s9.49-5.9,9.49-11.9-2.8-11.9-9.49-11.9-9.49,5.9-9.49,11.9h0ZM665.31,668.86c0,8.97-5.64,16.36-14.96,16.36s-14.96-7.39-14.96-16.36,5.64-16.36,14.96-16.36,14.96,7.48,14.96,16.36Z"/>
  <polygon class="cls-2" points="674.55 653.25 699.83 653.25 699.83 657.97 689.9 657.97 689.9 684.48 684.44 684.48 684.44 657.97 674.55 657.97 674.55 653.25"/>
  <polygon class="cls-2" points="710.7 653.25 733.18 653.25 733.18 657.97 716.16 657.97 716.16 666.15 731.91 666.15 731.91 670.61 716.16 670.61 716.16 679.75 733.49 679.75 733.49 684.48 710.7 684.48 710.7 653.25"/>
  <polygon class="cls-2" points="745.48 653.25 750.95 653.25 750.95 679.75 766.83 679.75 766.83 684.48 745.48 684.48 745.48 653.25"/>
  <path class="cls-2" d="M293.99,583.03c-1.59.71-1.85,2.26-2.5,3.44-7.08,12.8-14.1,25.63-21.16,38.43-.55,1-.77,2.64-2.13,2.58-1.28-.07-1.49-1.69-2.02-2.71-6.09-11.82-12.15-23.66-18.24-35.49-.58-1.13-1.27-2.21-2.36-4.08-1.42,10.25-2.74,19.61-4.05,28.97-.26,1.82-.57,3.64-.77,5.48-.31,2.76-.53,5.51,2.54,7.96h-13.27c5.93-4.64,5.06-10.97,5.94-16.63,2.28-14.85,4.18-29.75,6.3-44.62.18-1.2-.46-3.03,1.2-3.45,1.95-.49,2.18,1.55,2.79,2.72,7.32,14.17,14.58,28.35,21.88,42.52.64,1.24.93,2.77,2.56,3.64,7.48-13.51,14.95-26.98,22.42-40.46,1.27-2.29,2.6-4.58,3.82-6.91.62-1.19,1.39-1.83,2.8-1.69,1.67.18,1.65,1.51,1.78,2.63,1.93,16.49,3.79,33,5.75,49.48.53,4.37.17,9.13,5.39,12.58h-17.1c2.97-2.47,2.62-5.61,2.33-8.71-1.12-11.55-2.25-23.09-3.4-34.63l-.49-1.06Z"/>
  <path class="cls-2" d="M550.58,623.78c6.89.2,12.59-2.47,17.24-7.39,10.7-11.29,10.37-31.02-.64-41.99-9.27-9.24-23.3-9.15-32.47.22-9.92,10.11-11.08,27.74-2.53,39.27,4.57,6.18,10.61,9.69,18.4,9.89h0ZM551.14,562.55c19.45.02,34.86,14.85,34.79,33.45-.07,18.17-15.82,33.01-34.98,32.98-19.16-.03-34.69-14.87-34.73-33.17-.04-18.59,15.4-33.28,34.93-33.25Z"/>
  <path class="cls-2" d="M736.79,564.24c4.27-.56,8.13-.76,12.62-.2-3.28,3.11-3.56,6.65-3.54,10.37.07,16.61.04,33.23-.01,49.84,0,1.16.8,2.84-.96,3.41-1.49.49-2.36-.8-3.27-1.75-12.94-13.71-25.9-27.4-38.81-41.13-.95-1.02-1.67-2.27-2.5-3.41l-1.16.67v12.85c0,7.65.06,15.3-.03,22.94-.04,3.49.26,6.78,3.53,9.59-4.48.71-8.33.43-12.95.25,4.27-3.93,3.37-8.6,3.38-13.06.03-16.09,0-32.16.04-48.25,0-1.21-.68-2.89.99-3.48,1.53-.55,2.33.91,3.19,1.84,12.95,13.71,25.87,27.42,38.81,41.14.96,1.03,1.93,2.05,2.81,2.97,1.14-.5,1-1.24,1-1.84,0-11.61.02-23.21,0-34.81-.01-2.96-.36-5.83-3.13-7.95Z"/>
  <path class="cls-2" d="M421.1,608.72v-11.3c0-7.66-.01-15.31,0-22.97,0-3.68-.02-7.35-3.63-10.35,4.5-.64,8.35-.47,12.95-.16-3.88,3.87-3.5,8.32-3.49,12.72.02,15.44.03,30.88-.03,46.32,0,1.57,1.02,3.79-.94,4.61-1.94.81-2.94-1.32-4.06-2.51-12.71-13.4-25.4-26.84-38.05-40.29-.97-1.02-1.69-2.28-2.53-3.43l-1.19.66v10.46c0,8.19.05,16.36-.02,24.55-.03,3.72.07,7.33,3.5,10.41-4.47.81-8.33.32-13.29.38,4.25-3.48,3.84-7.48,3.85-11.38,0-16.63-.01-33.25.02-49.88,0-1.26-.59-2.97.85-3.61,1.67-.72,2.54.98,3.5,2,13.05,13.8,26.08,27.63,39.1,41.48.86.91,1.47,2.05,2.21,3.09l1.25-.78Z"/>
  <path class="cls-2" d="M655.49,563.92h12.5c-3.88,3.34-3.73,7.22-3.71,11.14.07,8.71.03,17.41.02,26.12-.03,15.76-11.31,27.71-26.27,27.84-15.26.13-26.96-11.57-27.18-27.38-.14-9.63-.02-19.26-.04-28.89,0-3.07-.03-6.17-2.96-8.63h17.06c-3.56,2.79-3.58,6.3-3.56,9.86.05,9.23-.03,18.46.05,27.7.11,11.1,7.82,19.11,18.34,19.18,10.47.07,18.4-7.98,18.52-18.98.1-9.77-.01-19.52,0-29.29,0-3.12-.19-6.12-2.77-8.67Z"/>
  <path class="cls-2" d="M485.1,627.56h-15.53c2.72-11.18,4.41-22.23-1.69-33.09-3.41-6.09-6.59-12.31-9.88-18.47-2.39-4.52-4.38-9.37-9.91-11.33l.39-.93c4.95,0,9.89-.03,14.83.02,1.02,0,1.35.67.73,1.59-1.06,1.57-.45,3.19.24,4.52,4.62,8.87,9.37,17.66,14.36,27.02,4.84-9.3,9.38-18.04,13.89-26.79l.73-2.61c-1.85-5.17,1.97-3.8,4.37-3.78,2.43.02,4.93-.52,8.08.73-5.88,2.26-7.94,7.04-10.29,11.59-1.93,3.74-3.55,7.72-5.97,11.14-7.11,10.05-8.39,21.26-7.36,33.07.27,3.16.25,3.43,3,7.3Z"/>
  <path class="cls-2" d="M330.75,564.02h17.78c-3.62,2.88-3.83,6.26-3.83,9.71.01,14.76,0,29.53,0,44.29,0,3.33.22,6.59,3.69,9.44h-17.11c3.86-3.38,3.28-7.66,3.29-11.77.02-14.1,0-28.2.01-42.31,0-3.35-.16-6.61-3.83-9.35Z"/>
  <path class="cls-2" d="M763.96,574.83h2.59c.63,0,.98.49,1.05,1.48.04,1.06.19,2.1.44,3.08h2.66c-.3-.45-.49-1.36-.63-2.71l-.06-.37c-.09-1.65-.77-2.49-2.04-2.54v-.06c1.53-.37,2.3-1.3,2.35-2.79-.04-1.93-1.36-2.92-3.95-2.96h-4.88v11.42h2.47v-4.56h0ZM763.96,569.89h2.04c1.15-.04,1.72.43,1.72,1.42,0,1.08-.57,1.6-1.72,1.6h-2.04v-3.02Z"/>
  <path class="cls-2" d="M765.63,565.46c-4.52,0-8.22,3.69-8.22,8.22s3.7,8.22,8.22,8.22,8.22-3.7,8.22-8.22-3.69-8.22-8.22-8.22h0ZM765.63,563.06c5.85,0,10.61,4.77,10.61,10.62s-4.76,10.61-10.61,10.61-10.61-4.77-10.61-10.61,4.76-10.62,10.61-10.62Z"/>
  <path class="cls-2" d="M646.9,527.23c1.26.69,2.37,1.03,3.33,1.03,1.11,0,2.25-.4,3.43-1.21,1.18-.81,2.21-2.18,3.09-4.1.86-1.92,1.3-3.86,1.3-5.82,0-1.16-.28-2.06-.86-2.72l-2.03-.98c-1.16,0-2.3.47-3.42,1.41-1.12.93-1.92,2.24-2.39,3.92l-2.46,8.47h0ZM654.2,501.91l-3.71,13.02c1.21-1.26,2.25-2.12,3.16-2.59l2.81-.69c1.38,0,2.51.46,3.39,1.37.88.92,1.32,2.16,1.32,3.73,0,2.02-.57,4.04-1.74,6.03-1.15,2.01-2.6,3.57-4.35,4.68-1.74,1.12-3.47,1.68-5.17,1.68-1.89,0-3.84-.71-5.84-2.13l5.73-19.72c.44-1.52.66-2.41.66-2.69l-.3-.73-1.28-.33-1.21.13v-.72l6.52-1.05Z"/>
  <path class="cls-2" d="M668.51,511.65l.89,2.04c.16.64.33,1.89.48,3.74l.84,9.27c.76-.91,1.84-2.34,3.28-4.3.69-.95,1.55-2.25,2.56-3.89.62-1.01,1-1.71,1.13-2.11l.12-.63-.13-.34-.69-.31-.92-.66-.37-1.11.46-1.24,1.13-.47,1.41.69.58,1.89c0,.99-.33,2.13-1.01,3.4-.68,1.27-1.98,3.23-3.92,5.87-1.94,2.63-4.28,5.51-7.04,8.63-1.9,2.16-3.3,3.5-4.21,4.06l-2.36.85-1.03-.45-.44-1.02.61-1.34,1.33-.6.63.16.33.54.33.59.22.1.4-.19,2.41-2.03c1.21-1.24,2.1-2.24,2.68-3.03l-1.05-11.94c-.17-1.98-.44-3.17-.79-3.6l-1.78-.64-1.41.11-.17-.7,5.52-1.35Z"/>
  <path class="cls-2" d="M333.93,528.05c0,4.76,3.53,6.69,7.91,6.69,4.82,0,6.61-2.4,6.61-4.73s-1.32-3.37-2.58-3.84c-2.23-.83-4.99-1.4-9.32-2.58-5.38-1.4-6.91-4.68-6.91-7.92,0-6.3,5.77-9.18,11.41-9.18,6.47,0,11.99,3.46,11.99,9.97h-5.47c-.31-4.03-2.93-5.51-6.74-5.51-2.53,0-5.73.91-5.73,4.06,0,2.24,1.49,3.37,3.72,4.03.48.13,7.4,1.92,9.01,2.4,4.07,1.27,6.08,4.63,6.08,7.96,0,7-6.26,9.8-12.42,9.8-7.13,0-12.91-3.41-13.04-11.15h5.47Z"/>
  <rect class="cls-1" x="365.92" y="507.23" width="5.47" height="31.23"/>
  <polygon class="cls-2" points="385.3 507.23 390.77 507.23 390.77 533.73 406.64 533.73 406.64 538.46 385.3 538.46 385.3 507.23"/>
  <polygon class="cls-2" points="417.64 507.23 423.1 507.23 423.1 521.45 437.01 507.23 443.74 507.23 431.28 519.7 444.62 538.46 437.8 538.46 427.56 523.55 423.1 527.96 423.1 538.46 417.64 538.46 417.64 507.23"/>
  <path class="cls-2" d="M479.68,521.45h8.97c3.5,0,5.34-1.67,5.34-4.98,0-4.03-2.59-4.77-5.43-4.77h-8.88v9.76h0ZM474.22,507.23h14.91c6.87,0,10.31,3.16,10.31,8.45,0,5.99-4.1,7.52-5.16,7.87v.09c1.89.22,4.64,1.71,4.64,6.6,0,3.68.52,6.96,1.7,8.22h-5.86c-.83-1.35-.83-3.06-.83-4.59,0-5.73-1.17-8.26-6.21-8.26h-8.04v12.85h-5.46v-31.23Z"/>
  <path class="cls-2" d="M516.04,522.85c0,5.99,2.8,11.89,9.49,11.89s9.49-5.9,9.49-11.89-2.8-11.89-9.49-11.89-9.49,5.9-9.49,11.89h0ZM540.5,522.85c0,8.97-5.65,16.36-14.97,16.36s-14.96-7.39-14.96-16.36,5.64-16.36,14.96-16.36,14.97,7.48,14.97,16.36Z"/>
  <path class="cls-2" d="M559.14,526.04h9.54l-4.69-13.43h-.13l-4.72,13.43h0ZM561.06,507.23h5.82l12.04,31.23h-5.86l-2.93-8.26h-12.46l-2.93,8.26h-5.65l11.98-31.23Z"/>
  <path class="cls-2" d="M594.59,534h5.38c8.57,0,10.41-4.85,10.41-11.15s-1.84-11.16-10.41-11.16h-5.38v22.31h0ZM589.11,507.22h12.96c9.61,0,13.77,7,13.77,15.63s-4.16,15.6-13.77,15.6h-12.96v-31.23Z"/>
  <path class="cls-2" d="M216.62,737.68c1.66-4.74,2.49-10.87,2.49-18.34h-4.09c-.71,1.54-1.6,3.02-2.68,4.45h1.43c.47,5.7,1.42,10.32,2.85,13.89h0ZM223.56,752.1c-3.2-3.08-5.59-5.8-7.12-8.18-1.31,2.26-3.74,4.98-7.31,8.18v-3.02c2.14-2.02,4.09-4.63,5.88-7.84-2.02-4.04-3.39-9.33-4.1-15.85l-1.6,1.42v-2.85c2.5-2.96,3.92-7.12,4.28-12.47h3.2c-.35,2.14-.71,3.98-1.06,5.53h8.36v2.32h-1.95c-.12,9.37-1.48,16.68-4.09,21.9,1.42,2.84,3.26,5.52,5.52,8.01v2.84h0ZM199.16,723.44h3.92v-5.87h-3.92v5.87h0ZM197.55,742.31h7.12v-4.45h-7.12v4.45h0ZM197.55,735.73h7.12v-4.28h-7.12v4.28h0ZM194.53,751.92v-22.79h13.18v18.16c.24,3.08-1.42,4.58-4.98,4.45h-1.78v-2.31h1.6c1.43,0,2.13-.66,2.13-1.95v-3.03h-7.12v7.47h-3.03ZM193.46,717.55v-2.32h2.68v-3.92h3.02v3.92h3.92v-3.92h3.03v3.92h2.5v2.32h-2.5v5.88h2.68v2.49h-15.85v-2.49h3.21v-5.88h-2.68ZM182.6,721.12h3.74v10.87c-1.19.35-2.61.59-4.28.71v3.03c.6-.12,1.49-.24,2.68-.36l1.6-.35v12.28c0,1.31-.71,1.9-2.14,1.79h-1.42v2.49h2.67c2.85.11,4.21-1.25,4.09-4.09v-13.54l.89-.35c1.07-.48,1.9-.89,2.49-1.25v-2.49c-1.07.59-2.2,1.06-3.38,1.43v-10.15h3.2v-2.49h-3.2v-7.31h-3.2v7.31h-3.74v2.49Z"/>
  <path class="cls-2" d="M259.4,751.74v-2.67h5.34c3.43.11,5.1-1.37,4.98-4.45v-12.29h-23.5c-4.39.12-6.53-1.78-6.41-5.7v-7.66h3.74v6.95c-.12,2.61,1.18,3.86,3.92,3.74h16.02v-13.89h-26v-2.49h29.93v16.38h6.22v15.31c.12,4.63-2.43,6.89-7.65,6.77h-6.59ZM234.12,739.1v2.49h31.34v-2.49h-31.34Z"/>
  <path class="cls-2" d="M326.59,747.83c-7.36-4.27-11.47-11.4-12.29-21.37h3.74c.59,7.71,3.43,14,8.55,18.88v2.49h0ZM298.27,751.74v-2.67h3.57c1.9,0,2.85-.83,2.85-2.5v-24.74h3.91v24.39c0,3.79-1.83,5.64-5.52,5.52h-4.81ZM286.34,724.67c4.63-1.65,7.89-3.67,9.79-6.04h25.65v6.76h3.74v-9.26h-27.6c.72-1.42,1.36-2.96,1.95-4.62h-3.92c-1.31,4.98-4.51,8.66-9.61,11.04v2.13h0ZM285.98,747.83c7.36-4.27,11.47-11.4,12.29-21.37h-3.73c-.6,7.71-3.45,14-8.56,18.88v2.49Z"/>
  <path class="cls-2" d="M376.86,726.81c-8.67-.47-14.31-3.03-16.92-7.66h3.92c2.49,2.97,6.82,4.81,13,5.52v2.14h0ZM338.75,721.83h3.56v-5.34h30.64v4.98h3.56v-7.47h-37.75v7.84h0ZM338.4,726.81v-2.14c6.17-.71,10.44-2.54,12.82-5.52h4.09c-2.61,4.63-8.25,7.19-16.91,7.66h0ZM342.13,730.56v-2.49h30.99v2.49h-13.53v7.66h18.16v2.49h-18.16v11.58h-3.93v-11.58h-18.16v-2.49h18.16v-7.66h-13.53Z"/>
  <path class="cls-2" d="M409.67,740.88v-2.67c4.16-3.92,7.24-7.42,9.26-10.51-3.45.24-6.77.3-9.98.18v-2.49c4.04-4.27,6.89-8.78,8.55-13.53h4.1c-2.03,5.22-5.11,9.73-9.26,13.53,3.91,0,6.7-.11,8.36-.35.95-1.67,1.84-3.45,2.68-5.34h3.92c-2.73,6.76-7.42,12.94-14.07,18.52,5.57,0,10.38-.24,14.42-.71v2.67c-3.92.48-8.55.71-13.89.71h-4.09ZM391.15,740.88v-2.67c3.8-3.45,6.88-6.89,9.26-10.34-1.66.12-4.93.19-9.79.19v-2.68c4.04-4.39,6.82-8.9,8.36-13.53h4.11c-2.14,5.46-5.23,9.96-9.26,13.53,4.04,0,6.82-.11,8.37-.35.94-1.67,1.83-3.45,2.67-5.34h3.92c-2.49,6.65-7.19,12.82-14.07,18.52,4.98,0,9.2-.24,12.64-.71v2.84c-4.04.36-8.37.54-13.01.54h-3.2ZM388.83,747.65h40.61v2.31h-40.61v-2.31Z"/>
  <path class="cls-2" d="M463.15,748.54h8.55c2.26.12,3.33-.89,3.2-3.03v-7.48h-11.75v10.51h0ZM464.4,717.74l-1.42,2.13c1.78,2.38,3.67,4.45,5.7,6.23,2.48-1.78,4.74-4.57,6.76-8.36h-11.04ZM459.77,751.03v-15.49h18.52v10.15c.11,3.68-1.79,5.47-5.7,5.34h-12.82ZM456.74,734.3v-2.31c3.92-1.43,7.07-2.79,9.44-4.09-1.9-1.67-3.74-3.62-5.52-5.88-1.06.83-2.31,1.72-3.74,2.67v-2.49c3.2-2.61,5.47-6.23,6.77-10.87h3.56l-.54,1.6c-.12.36-.42,1.13-.89,2.31h13.35v2.5c-2.14,4.51-4.75,7.89-7.84,10.15,2.61,1.42,5.99,2.79,10.15,4.09v2.31c-5.47-1.42-9.68-3.03-12.65-4.81-2.84,1.78-6.88,3.38-12.1,4.81h0ZM445.33,724.15h4.82c1.78,0,2.61-.83,2.49-2.5v-5.87h-7.31v8.37h0ZM442.13,726.28h6.41v19.59l-1.42.36-2.14.35v-16.2h-2.86v16.56l-2.13.35v2.85c7.12-1.19,12.82-2.67,17.1-4.45v-2.31l-2.31.71c-1.32.48-2.31.78-3.03.89v-9.44h4.27v-2.32h-4.27v-6.95c2.72-.11,4.03-1.71,3.92-4.81v-8.01h-13.54v12.82Z"/>
  <path class="cls-2" d="M515.56,735.18h11.4v-8.72h-11.4v8.72h0ZM515.56,724.14h11.4v-8.55h-11.4v8.55h0ZM507.01,752.46v-2.49c3.57-2.61,5.22-7.18,4.98-13.72v-23.14h18.7v33.48c.12,3.56-1.66,5.28-5.33,5.16h-3.56v-2.49h2.85c1.54.12,2.32-.66,2.32-2.32v-9.26h-11.4c.24,6.77-2.61,11.7-8.55,14.78h0ZM497.04,744.99h4.46c1.78,0,2.61-.84,2.49-2.5v-11.21h-6.95v13.72h0ZM497.04,728.95h6.95v-12.46h-6.95v12.46h0ZM493.66,747.3h8.55c3.56.12,5.28-1.55,5.17-4.99v-28.14h-13.71v33.13Z"/>
  <path class="cls-2" d="M544.45,722.36v-7.12h17.27v-3.92h4.1v3.92h17.1v7.12h-3.57v-4.45h-31.17v4.45h-3.74ZM548.9,726.64v-2.5h30.63v2.5h-12.99v8.36h17.62v2.49h-17.62v8.91c0,3.45-1.79,5.16-5.34,5.16h-4.63v-2.67h3.03c2.02.12,2.96-.65,2.84-2.31v-9.09h-19.05v-2.49h19.05v-8.36h-13.53Z"/>
  <path class="cls-2" d="M635.86,751.03c-7.59-1.78-12.47-5.52-14.61-11.21v-1.96h6.59c1.78,0,3.8-.3,6.05-.89v2.14c-1.65.47-3.38.71-5.16.71h-3.92c1.66,4.51,5.34,7.54,11.04,9.07v2.14h0ZM604.52,723.25h19.59c1.18,0,1.78-.65,1.78-1.95v-1.25h-21.37v3.2h0ZM600.77,725.04v-6.77h28.68v2.68c.12,2.84-1.31,4.21-4.28,4.09h-24.4ZM595.79,733.59v-6.23h38.81v6.23h-3.56v-4.1h-31.7v4.1h-3.56ZM602.03,734.11h10.68c-4.04,2.03-9.61,3.51-16.73,4.45v1.78c6.77-.7,11.93-1.71,15.5-3.03l2.49.9c-4.75,2.73-10.93,4.63-18.52,5.7v1.95c8.79-.95,15.55-2.84,20.3-5.7l.54,2.31c-5.1,3.09-12.17,5.34-21.19,6.77v1.78c9.14-1.3,16.21-3.2,21.19-5.7v2.49c0,1.31-.72,1.97-2.14,1.97h-4.27v2.13h4.81c3.56.12,5.28-1.36,5.17-4.45v-4.99c.11-3.2-1.72-5.34-5.53-6.41,1.43-.59,2.68-1.25,3.74-1.96h10.34v-2.13h-26.36v2.13h0ZM594.9,716.13v-2.13h18.16v-2.85h4.27v2.85h18.17v2.13h-40.6Z"/>
  <path class="cls-2" d="M668.5,747.47h6.95v-7.84h-6.95v7.84h0ZM668.5,737.32h6.95v-7.3h-6.95v7.3h0ZM668.5,727.53h6.95v-7.3h-6.95v7.3h0ZM661.2,727.53v-2.49c3.43-3.33,5.7-7.84,6.77-13.53h3.56c-.59,2.37-1.24,4.46-1.96,6.23h5.88v-5.7h3.56v5.7h7.84v2.49h-7.84v7.3h7.3v2.49h-7.3v7.31h7.3v2.31h-7.3v7.84h8.01v2.14h-18.52v2.67h-3.57v-27.78c-1.06,1.08-2.31,2.08-3.73,3.03h0ZM646.94,716.13h8.56v12.28h-6.24c1.19-2.37,2.02-5.52,2.5-9.44h-3.2c-.24,3.81-.95,6.95-2.14,9.44v2.5h5.88c-1.2,6.17-3.51,11.39-6.95,15.67v2.49c5.45-4.28,8.72-10.32,9.79-18.16h.36v16.2c0,1.67-.9,2.44-2.68,2.31h-1.95v2.5h2.84c3.33,0,4.99-1.61,4.99-4.82v-16.2h3.74v-2.5h-3.74v-12.28h3.74v-2.5h-15.51v2.5Z"/>
  <path class="cls-2" d="M761.44,724.14h-4.98v6.06c-.12,2.14.89,3.15,3.03,3.03h1.95v-9.09h0ZM748.62,721.83h4.81v-6.06h-4.81v6.06h0ZM740.42,748.72h17.99c2.14,0,3.15-.89,3.03-2.67v-3.38h-21.02v6.05h0ZM740.42,724.14v10.5c3.56-1.9,5.22-5.4,4.99-10.5h-4.99ZM758.41,735.54h3.03v4.81h-21.02v-3.39c5.7-2.02,8.37-6.29,8.01-12.82h4.99v6.77c-.12,3.2,1.54,4.74,4.98,4.63h0ZM735.97,715.77v-2.49h30.46v2.49h-9.98v6.06h8.19v24.22c.12,3.57-1.78,5.28-5.7,5.17h-21.73v-29.39h8.2v-6.06h-9.45ZM729.92,731.26c-.6-2.73-1.67-5.64-3.2-8.72h3.03c1.3,2.49,2.49,5.4,3.56,8.72h-3.38ZM729.38,720.58c-.59-2.96-1.6-5.81-3.03-8.54h3.03c1.43,2.13,2.54,4.98,3.38,8.54h-3.38ZM725.66,751.39c2.37-5.7,3.9-11.7,4.62-17.99h3.03c-.71,6.65-2.02,12.64-3.92,17.99h-3.73Z"/>
  <path class="cls-2" d="M791.94,748.36h15.32c2.25.12,3.31-.82,3.2-2.85v-8.55h-18.52v11.4h0ZM788.2,750.86v-16.21h9.44v-14.6h3.74v5.16h15.67v2.5h-15.67v6.94h12.64v11.05c.12,3.56-1.84,5.28-5.87,5.16h-19.95ZM776.63,752.28v-3.2c1.55-2.49,2.56-4.93,3.03-7.3.47-2.38.71-6.11.71-11.23v-15.49h16.92v-3.73h4.27v3.73h16.38v2.68h-33.66v11.93c0,6.18-.53,10.81-1.6,13.9-.95,2.96-2.96,5.87-6.06,8.72Z"/>
  <path class="cls-2" d="M699.66,724h2.46l.99,1.41c.04,1.01.17,1.98.42,2.92h2.51c-.27-.43-.47-1.28-.59-2.57l-.05-.35c-.08-1.56-.72-2.36-1.93-2.4v-.06c1.45-.35,2.18-1.23,2.23-2.62-.04-1.83-1.28-2.77-3.74-2.81h-4.62v10.81h2.34v-4.32h0ZM699.66,719.32h1.93c1.09-.04,1.64.41,1.64,1.35,0,1.01-.55,1.51-1.64,1.51h-1.93v-2.86Z"/>
  <path class="cls-2" d="M701.24,715.15c-4.28,0-7.77,3.49-7.77,7.77s3.49,7.78,7.77,7.78,7.77-3.5,7.77-7.78-3.49-7.77-7.77-7.77h0ZM701.24,712.88c5.53,0,10.04,4.51,10.04,10.04s-4.51,10.04-10.04,10.04-10.04-4.51-10.04-10.04,4.51-10.04,10.04-10.04Z"/>
</svg>