<?xml version="1.0" encoding="UTF-8"?>
<svg id="Layer_1" data-name="Layer 1" xmlns="http://www.w3.org/2000/svg" viewBox="0 0 1000 1000">
  <defs>
    <style>
      .cls-1 {
        fill: #fff;
        fill-rule: evenodd;
      }
    </style>
  </defs>
  <path class="cls-1" d="M526.88,403.65c0-17.26,14.14-26.79,25.27-34.45,4.23-2.91,8.24-5.67,11.02-8.5,10.49-10.69,16.86-24.01,17.94-37.49.01-.19-.06-.37-.19-.51-.14-.13-.32-.2-.5-.18-14.35,1.14-27.67,7.51-37.51,17.95-10.17,10.78-16.48,23.36-19.29,38.45-2.38,12.81-1.86,25.42-.94,37.14.02.19-.12.25-.18.27-.06.02-.2.04-.3-.11-5.42-9.3-9.97-18.69-13.54-27.91-3.95-10.2-4.17-21.53-.6-31.91.98-2.84,1.75-5.16,2.13-6.29,2.9-8.76,4.37-17.9,4.37-27.19,0-16.63-4.84-33.08-14-47.59-.12-.19-.34-.28-.55-.28s-.42.09-.54.28c-9.16,14.51-14,30.97-14,47.59,0,9.28,1.47,18.43,4.37,27.19.38,1.13,1.15,3.46,2.13,6.29,3.57,10.38,3.36,21.71-.59,31.91-3.57,9.22-8.13,18.61-13.54,27.91-.1.16-.24.13-.3.11-.06-.02-.2-.08-.18-.27.92-11.72,1.44-24.33-.94-37.14-2.81-15.09-9.12-27.67-19.29-38.45-9.84-10.44-23.16-16.81-37.51-17.95-.18-.01-.37.05-.5.18-.13.13-.2.32-.19.51,1.08,13.48,7.45,26.8,17.94,37.49,2.78,2.84,6.78,5.59,11.01,8.5,11.13,7.66,25.27,17.19,25.27,34.45,0,26.63-23.88,30.56-36.28,42.93-10.49,10.46-16.84,23.79-17.94,37.49-.02.19.05.37.19.51.12.12.28.19.45.19.02,0,.03,0,.05,0,13.71-1.09,27.02-7.46,37.5-17.94.95-.95,1.88-1.94,2.77-2.95l-.04.17,1.18-1.5c3.17-3.78,5.87-7.9,8.05-12.25,10.96-19.19,22.73-48.85,30.67-70.36.06-.16.2-.2.28-.21.09,0,.22.05.28.21,7.94,21.5,19.71,51.17,30.67,70.36,2.18,4.35,4.88,8.47,8.04,12.25l1.19,1.5-.04-.17c.89,1.01,1.82,2,2.77,2.95,10.47,10.47,23.79,16.85,37.5,17.94.01,0,.03,0,.05,0,.17,0,.33-.07.46-.19.13-.13.2-.32.19-.51-1.09-13.7-7.45-27.04-17.94-37.49-12.4-12.37-36.28-16.3-36.28-42.93Z"/>
  <path class="cls-1" d="M632.05,403.1c-14.51-9.16-30.97-14-47.6-14s-33.08,4.84-47.59,14c-.19.12-.3.32-.3.55s.11.42.3.54c14.51,9.16,30.97,14,47.59,14s33.08-4.84,47.6-14c.19-.12.3-.32.3-.54s-.11-.43-.3-.55Z"/>
  <path class="cls-1" d="M500,432.72c-.21,0-.43.09-.55.28-9.16,14.51-14,30.97-14,47.6s4.84,33.08,14,47.59c.12.19.32.3.54.3s.43-.11.55-.3c9.16-14.51,14-30.97,14-47.59s-4.84-33.08-14-47.6c-.12-.19-.34-.28-.55-.28Z"/>
  <path class="cls-1" d="M463.44,403.64c0-.22-.11-.42-.3-.54-14.51-9.16-30.97-14-47.59-14s-33.08,4.84-47.59,14c-.18.12-.3.32-.3.55s.12.42.3.54c14.51,9.16,30.97,14,47.59,14s33.08-4.84,47.59-14c.19-.12.3-.32.3-.55Z"/>
  <path class="cls-1" d="M420.62,574.29h-20.99v2.23c2.77.07,4.72.52,5.86,1.38,1.13.86,1.7,2.49,1.7,4.92,0,3.14-1.46,8.41-4.39,15.8l-9.49,24.06-14.98-43.68c-.13-.37-.19-.7-.19-.98,0-.96.67-1.46,2.01-1.49v-2.23h-16.5v2.23c5.22.28,7.84,3.72,7.84,10.3,0,5.16-1.14,10.6-3.41,16.32l-7.78,19.58-14.78-43.73c-.12-.34-.19-.65-.19-.93,0-.99.58-1.51,1.73-1.54v-2.23h-16.28v2.23c1.12.1,2.22.59,3.29,1.49,1.07.91,2.29,2.92,3.66,6.04,1.37,3.12,2.18,5.02,2.43,5.71l15.71,46.35h2.7l9.51-24.16c1.9-4.79,4.36-9.87,7.37-15.25l13.52,39.4h2.8l18.64-46.63c1.75-4.32,3.42-7.55,5.04-9.7,1.62-2.15,3.34-3.23,5.18-3.27v-2.23Z"/>
  <path class="cls-1" d="M439.2,628.8c-4.29,0-7.89-1.85-10.82-5.53-2.92-3.69-4.39-8.28-4.39-13.78,0-.56.04-1.45.1-2.66h30.07c-.15-4.7-1.59-8.67-4.29-11.94-2.71-3.26-6.36-4.9-10.96-4.9-5.72,0-10.69,2.56-14.9,7.67-4.21,5.11-6.32,10.86-6.32,17.23,0,5.53,1.77,10.31,5.31,14.33,3.54,4.03,7.63,6.04,12.26,6.04,6.6,0,13.35-4.35,20.28-13.06v-3.08c-5.56,6.43-11.02,9.65-16.36,9.65h0ZM428.56,596.23c2.21-2.19,4.71-3.29,7.51-3.29s4.99,1.01,6.95,3.03c1.96,2.02,3.12,4.87,3.5,8.54h-22.01c.5-3.33,1.84-6.09,4.05-8.28Z"/>
  <path class="cls-1" d="M472.64,624.41v-51.2c0-1.61.67-2.75,2-3.4v-1.91l-16.31,6.39v2.24c1.42-.5,2.63-.74,3.63-.74,2.37,0,3.55,1.42,3.55,4.29v44.34c0,2.67-.55,4.54-1.67,5.59-1.13,1.06-2.95,1.62-5.5,1.68v2.24h21.44v-2.24c-2.48-.06-4.3-.61-5.43-1.63-1.14-1.03-1.7-2.9-1.7-5.64Z"/>
  <path class="cls-1" d="M506.19,631.69c-2.48-.06-4.3-.61-5.43-1.63-1.14-1.03-1.7-2.9-1.7-5.64v-51.2c0-1.61.67-2.75,2-3.4v-1.91l-16.31,6.39v2.24c1.43-.5,2.64-.75,3.63-.75,2.37,0,3.54,1.43,3.54,4.29v44.34c0,2.68-.55,4.54-1.67,5.59-1.12,1.06-2.95,1.62-5.5,1.68v2.24h21.45v-2.24Z"/>
  <path class="cls-1" d="M532.18,631.69c-2.87-.06-4.85-.68-5.97-1.84-1.12-1.16-1.68-3.56-1.68-7.2,0-7.17,1.69-13.53,5.07-19.07,3.37-5.54,7.01-8.31,10.93-8.31,1.34,0,2.43.49,3.26,1.47.84.97,1.26,2.27,1.26,3.88v28.78c0,1.46-.65,2.22-1.96,2.28v2.24h16.23v-2.24c-2.49-.06-4.3-.6-5.43-1.61-1.14-1.01-1.7-2.9-1.7-5.67v-24.43c0-6.74-2.63-10.12-7.89-10.12-2.58,0-5.31,1.07-8.21,3.2-2.89,2.13-6.56,6.19-11.05,12.17v-15.37h-1.95l-12.08,4.94v2.33c1.91-.78,3.24-1.17,3.98-1.17,2.05,0,3.06,1.54,3.06,4.62v23.83c0,2.74-.55,4.61-1.64,5.64-1.09,1.03-2.89,1.57-5.39,1.63v2.24h21.17v-2.24Z"/>
  <path class="cls-1" d="M579.64,635.28c6.6,0,13.35-4.35,20.28-13.06v-3.08c-5.56,6.43-11.02,9.65-16.36,9.65-4.29,0-7.89-1.84-10.82-5.53-2.92-3.69-4.39-8.28-4.39-13.78,0-.56.04-1.45.1-2.66h30.07c-.15-4.7-1.59-8.67-4.29-11.94-2.7-3.26-6.35-4.9-10.95-4.9-5.72,0-10.69,2.56-14.9,7.67-4.21,5.11-6.32,10.86-6.32,17.23,0,5.53,1.77,10.31,5.31,14.33,3.55,4.03,7.63,6.04,12.26,6.04h0ZM572.92,596.23c2.21-2.19,4.71-3.29,7.51-3.29s4.99,1.01,6.95,3.03c1.96,2.02,3.12,4.86,3.49,8.54h-22.01c.5-3.33,1.85-6.09,4.05-8.28Z"/>
  <path class="cls-1" d="M632.08,614.95c-1.43-1.46-4.98-3.98-10.64-7.55-3.3-2.06-5.49-3.7-6.58-4.95-1.12-1.21-1.67-2.66-1.67-4.33,0-1.49.49-2.79,1.46-3.89.99-1.1,2.34-1.65,4.08-1.65,2.45,0,4.63,1.04,6.52,3.12,1.9,2.08,2.86,4.85,2.9,8.3h3.36v-12.21c-3.27-1.24-6.31-1.86-9.14-1.86-4.61,0-8.29,1.18-11.08,3.54-2.78,2.37-4.17,5.05-4.17,8.07,0,1.46.41,2.89,1.21,4.29.77,1.4,2.18,2.78,4.2,4.13,2.03,1.35,4.26,2.8,6.72,4.36,3.45,2.17,5.76,3.93,6.95,5.27,1.15,1.37,1.72,3.04,1.72,5.03,0,2.24-.75,4.09-2.28,5.56-1.52,1.46-3.48,2.19-5.87,2.19-2.9,0-5.37-1.12-7.45-3.36-2.06-2.24-3.22-5.38-3.47-9.42h-3.17v12.92c4.35,1.86,8.19,2.8,11.51,2.8,4.48,0,8.43-1.43,11.87-4.29,3.43-2.86,5.15-6.23,5.15-10.12,0-2.46-.72-4.43-2.14-5.92Z"/>
  <path class="cls-1" d="M664.09,630.99c3.43-2.86,5.15-6.23,5.15-10.12,0-2.45-.72-4.43-2.14-5.92-1.43-1.46-4.98-3.98-10.64-7.55-3.3-2.05-5.49-3.7-6.57-4.95-1.12-1.21-1.68-2.65-1.68-4.33,0-1.49.49-2.79,1.46-3.9.98-1.1,2.34-1.65,4.08-1.65,2.45,0,4.63,1.04,6.52,3.12,1.9,2.08,2.86,4.85,2.9,8.3h3.35v-12.22c-3.27-1.24-6.31-1.86-9.14-1.86-4.6,0-8.29,1.18-11.08,3.54-2.78,2.36-4.18,5.05-4.18,8.07,0,1.46.41,2.89,1.21,4.29.77,1.4,2.18,2.78,4.2,4.13,2.03,1.35,4.26,2.81,6.72,4.36,3.45,2.18,5.76,3.93,6.95,5.27,1.15,1.37,1.72,3.04,1.72,5.03,0,2.24-.76,4.09-2.28,5.55-1.52,1.46-3.48,2.19-5.87,2.19-2.89,0-5.37-1.12-7.45-3.35-2.06-2.24-3.22-5.38-3.47-9.42h-3.17v12.92c4.35,1.86,8.19,2.8,11.52,2.8,4.48,0,8.43-1.43,11.87-4.29Z"/>
  <path class="cls-1" d="M319.73,666.94c-2.4-1.97-6.16-2.96-11.29-2.96h-29.51v2.23c2.61.07,4.44.55,5.5,1.47,1.05.92,1.58,2.89,1.58,5.9v40.43c0,2.84-.48,4.77-1.44,5.79-.96,1.02-2.84,1.54-5.64,1.57v2.23h22.8v-2.23c-4.73-.15-7.09-2.6-7.09-7.37v-19.91c1.27.56,2.5.99,3.69,1.29,1.18.29,2.31.44,3.4.44,4.97,0,9.81-2.26,14.51-6.78,4.71-4.52,7.07-9.31,7.07-14.39,0-3.17-1.21-5.74-3.59-7.72h0ZM311.9,689.39c-1.46,1.96-3.65,2.94-6.58,2.94-1.55,0-3.22-.37-5.01-1.12-1.79-.75-3.68-1.87-5.67-3.37v-18.63c2.73-1.99,5.55-2.99,8.44-2.99,3.57,0,6.31,1.38,8.18,4.14,1.88,2.76,2.83,6.16,2.83,10.21s-.73,6.87-2.2,8.83Z"/>
  <path class="cls-1" d="M356.56,717.32v-29.14c.03-3.11-.6-5.31-1.91-6.62-1.31-1.31-3.44-1.96-6.4-1.96-6.32,0-13.06,2.36-20.22,7.09v11.19h3.12c.47-4.45,1.89-8.16,4.3-11.15,2.39-2.98,5.13-4.47,8.21-4.47,1.8,0,3.21.56,4.25,1.68,1.02,1.12,1.54,2.53,1.54,4.24v5.59c-17.29,7.8-25.93,15.08-25.93,21.82,0,2.61.82,4.83,2.47,6.64,1.65,1.82,3.63,2.73,5.96,2.73s4.94-.9,7.63-2.7c2.68-1.8,5.98-4.69,9.87-8.67v6.9c0,2.99,1.33,4.48,4,4.48,2.99,0,6.84-2.32,11.56-6.95v-2.89c-3.11,2.86-5.29,4.29-6.53,4.29s-1.9-.7-1.9-2.1h0ZM346.14,713.15c-2.47,3.78-5.51,5.67-9.1,5.67-1.93,0-3.5-.57-4.69-1.73-1.21-1.15-1.8-2.69-1.8-4.62,0-3.02,1.79-5.96,5.37-8.83,3.58-2.88,8.26-4.9,14.02-6.09-.06,6.62-1.33,11.82-3.81,15.59Z"/>
  <path class="cls-1" d="M391.25,683.12c-2.51,2.28-5.37,6.16-8.57,11.63v-15.15h-2.06l-12.26,4.99v2.24c1.92-.69,3.31-1.03,4.15-1.03,2.01,0,3.03,1.37,3.03,4.11v24.2c0,2.7-.55,4.58-1.67,5.62-1.13,1.04-2.96,1.6-5.5,1.66v2.24h24.25v-2.24c-4.07,0-6.83-.59-8.28-1.77-1.44-1.18-2.17-3.73-2.17-7.65,0-6.62,1.25-12.55,3.76-17.79,2.5-5.24,5.35-7.86,8.55-7.86s4.87,2.81,4.89,8.44h3.32v-14.36c-1.43-.46-2.66-.7-3.69-.7-2.64,0-5.21,1.14-7.74,3.42Z"/>
  <path class="cls-1" d="M419.86,659.51v-1.91l-16.08,6.39v2.24c1.58-.5,2.81-.75,3.7-.75,2.23,0,3.34,1.66,3.34,4.99v43.64c0,2.83-.57,4.74-1.71,5.71-1.14.98-2.92,1.5-5.32,1.56v2.24h21.3v-2.24c-4.79-.1-7.18-2.16-7.18-6.2l.05-1.08v-51.8c0-1.46.64-2.4,1.91-2.8Z"/>
  <path class="cls-1" d="M433.86,709.71l-9.19-11.63,9.5-7.89c5.59-4.7,10.33-7.07,14.22-7.13v-2.15h-21.85v2.15c3.73.06,5.59,1.05,5.59,2.98,0,1.75-1.17,3.64-3.5,5.69l-2.11,1.86-.42.46-8.17,6.76,18,22.8h14.32v-2.24c-4.84-.04-10.32-3.92-16.41-11.67Z"/>
  <path class="cls-1" d="M523.17,666.22c2.58.06,4.4.55,5.49,1.47,1.07.92,1.61,2.89,1.61,5.9v15.99h-28.44v-15.99c0-2.8.48-4.71,1.44-5.73.97-1.03,2.85-1.57,5.64-1.63v-2.24h-22.79v2.24c2.58.06,4.41.55,5.48,1.47,1.07.92,1.61,2.89,1.61,5.9v40.43c0,2.81-.49,4.74-1.46,5.77-.98,1.04-2.86,1.57-5.62,1.6v2.24h22.79v-2.24c-4.72-.12-7.08-2.57-7.08-7.37v-21.54h28.44v21.54c0,2.81-.5,4.74-1.49,5.77-.99,1.04-2.86,1.57-5.6,1.6v2.24h22.8v-2.24c-2.58-.03-4.41-.51-5.48-1.44-1.07-.93-1.6-2.9-1.6-5.93v-40.43c0-2.8.48-4.71,1.44-5.73.97-1.03,2.84-1.57,5.64-1.63v-2.24h-22.8v2.24Z"/>
  <path class="cls-1" d="M573.98,679.69c-5.81,0-11.15,2.39-16.02,7.16-4.86,4.77-7.29,10.74-7.29,17.88,0,6,1.71,10.87,5.13,14.62,3.41,3.75,8.08,5.62,13.98,5.62s11.31-2.36,16.23-7.06c4.91-4.71,7.37-10.71,7.37-17.97,0-6.13-1.77-11.03-5.29-14.72-3.53-3.68-8.23-5.52-14.11-5.52h0ZM583.42,716.43c-2.41,2.89-5.35,4.34-8.83,4.34-4.69,0-8.81-2.2-12.34-6.6-3.52-4.39-5.28-9.39-5.28-14.99,0-4.54,1.12-8.31,3.35-11.33,2.24-3.02,5.47-4.53,9.7-4.53,2.51,0,5.02.83,7.5,2.5,2.48,1.66,4.7,4.21,6.62,7.64,1.93,3.44,2.9,7.32,2.9,11.64,0,4.67-1.21,8.44-3.62,11.33Z"/>
  <path class="cls-1" d="M613.69,683.47c-1.14-.68-1.92-1.55-2.38-2.61-.45-1.05-.67-2.92-.67-5.59,0-3.94.98-6.16,2.93-6.62v-2.42l-9.6,3.87v7.04c0,2.74-.57,4.65-1.73,5.74-1.15,1.09-3.09,1.63-5.82,1.63v2.1h7.13v31.62c0,2.23.36,3.92,1.1,5.06.74,1.13,1.83,1.7,3.3,1.7,3.14,0,7.37-2.38,12.67-7.14v-2.7c-.19.12-.45.32-.8.61-3.02,2.48-5.29,3.73-6.8,3.73-.78,0-1.36-.25-1.75-.75-.39-.5-.58-1.22-.58-2.19v-29.94h11.42v-2.1h-3.87c-1.9,0-3.41-.34-4.55-1.03Z"/>
  <path class="cls-1" d="M646.05,718.49c-4.29,0-7.89-1.85-10.82-5.53-2.92-3.69-4.39-8.28-4.39-13.77,0-.56.04-1.45.1-2.66h30.07c-.15-4.7-1.59-8.68-4.29-11.94-2.71-3.26-6.35-4.9-10.95-4.9-5.72,0-10.69,2.56-14.9,7.67-4.22,5.11-6.32,10.86-6.32,17.23,0,5.53,1.77,10.31,5.31,14.33,3.55,4.03,7.63,6.04,12.26,6.04,6.6,0,13.35-4.35,20.28-13.06v-3.08c-5.56,6.43-11.02,9.65-16.36,9.65h0ZM635.41,685.92c2.21-2.19,4.71-3.29,7.51-3.29s4.99,1.01,6.95,3.03c1.96,2.02,3.12,4.87,3.5,8.54h-22.01c.5-3.33,1.85-6.09,4.05-8.28Z"/>
  <path class="cls-1" d="M679.48,714.1v-51.2c0-1.61.67-2.75,2-3.4v-1.91l-16.31,6.39v2.24c1.42-.5,2.64-.74,3.63-.74,2.37,0,3.54,1.42,3.54,4.29v44.34c0,2.67-.55,4.54-1.67,5.59-1.13,1.06-2.95,1.62-5.5,1.68v2.24h21.45v-2.24c-2.48-.06-4.3-.6-5.43-1.63-1.14-1.03-1.7-2.9-1.7-5.64Z"/>
  <path class="cls-1" d="M715.91,719.95c3.43-2.86,5.15-6.23,5.15-10.12,0-2.45-.72-4.43-2.14-5.92-1.43-1.46-4.98-3.98-10.64-7.55-3.3-2.05-5.49-3.7-6.57-4.95-1.12-1.21-1.68-2.65-1.68-4.33,0-1.49.49-2.79,1.46-3.9.98-1.1,2.34-1.65,4.08-1.65,2.46,0,4.63,1.04,6.52,3.12,1.9,2.08,2.86,4.85,2.9,8.3h3.35v-12.22c-3.27-1.24-6.31-1.86-9.14-1.86-4.6,0-8.29,1.18-11.07,3.54-2.78,2.37-4.18,5.05-4.18,8.07,0,1.46.41,2.89,1.21,4.29.77,1.4,2.18,2.78,4.2,4.13,2.03,1.35,4.26,2.8,6.72,4.36,3.45,2.18,5.76,3.93,6.95,5.27,1.15,1.37,1.72,3.04,1.72,5.03,0,2.24-.76,4.09-2.28,5.55-1.52,1.46-3.48,2.19-5.87,2.19-2.89,0-5.37-1.12-7.45-3.36-2.06-2.24-3.22-5.38-3.47-9.42h-3.17v12.92c4.35,1.86,8.19,2.8,11.52,2.8,4.48,0,8.43-1.43,11.87-4.29Z"/>
</svg>