<?xml version="1.0" encoding="UTF-8"?>
<svg id="Layer_1" data-name="Layer 1" xmlns="http://www.w3.org/2000/svg" viewBox="0 0 1000 1000">
  <defs>
    <style>
      .cls-1 {
        fill: #fff;
      }
    </style>
  </defs>
  <path class="cls-1" d="M267.58,676.09v-2.37c2.69,0,4.02-1.4,4.02-4.2v-114.54c0-2.8-1.34-4.2-4.02-4.2v-2.37h26.45v2.37c-2.79,0-4.19,1.4-4.19,4.2v99.59c0,7.66,1.63,12.71,4.91,15.14,3.3,2.43,9.49,3.64,18.61,3.64,13.98,0,23.62-1.15,28.9-3.47,5.3-2.31,9.04-7.05,11.22-14.23l9.86,20.43h-95.77Z"/>
  <path class="cls-1" d="M405.01,550.6c-2.81,0-4.2,1.45-4.2,4.38v114.54c0,2.8,1.4,4.2,4.2,4.2v2.37h-26.45v-2.37c2.67,0,4.01-1.4,4.01-4.2v-114.54c0-2.92-1.34-4.38-4.01-4.38v-2.19h26.45v2.19Z"/>
  <path class="cls-1" d="M555.79,600.4c7.41,2.31,13.52,6.87,18.33,13.68,4.79,6.81,7.2,14.17,7.2,22.07,0,7.18-1.59,13.43-4.74,18.79-3.18,5.35-7.39,9.49-12.69,12.4-5.28,2.92-10.97,5.11-17.04,6.57-6.09,1.46-12.47,2.19-19.16,2.19-4.74,0-9.43-.45-14.04-1.37-4.62-.91-9.14-2.38-13.58-4.38-4.44-2-8.06-4.93-10.85-8.76-2.81-3.83-4.2-8.24-4.2-13.23v-93.38c0-2.8-1.34-4.2-4.01-4.2v-2.37h55.09c8.62,0,15.53.82,20.69,2.46,5.17,1.64,8.46,3.86,9.86,6.66,1.4,2.8,1.66,5.96.82,9.49-.85,3.53-2.79,7.24-5.83,11.13-3.04,3.89-6.56,7.66-10.58,11.3-4.01,3.65-8.39,7.12-13.14,10.4,5.97-1.58,11.92-1.4,17.89.55ZM503.44,565.01l-.18,68.95c2.18-6.08,5.43-11.55,9.75-16.42,4.32-4.86,10.18-10.15,17.61-15.87,4.62-3.65,8.57-7.72,11.86-12.22,3.28-4.5,5.46-8.97,6.56-13.4,1.1-4.44,1.07-8.54-.09-12.31-1.16-3.76-4.14-6.81-8.94-9.12-4.81-2.31-11.28-3.47-19.43-3.47-6.69,0-11.22.88-13.58,2.65-2.38,1.76-3.56,5.5-3.56,11.21ZM527.69,673.35c11.19,0,19.89-4.07,26.1-12.22,6.19-8.15,9.29-18.06,9.29-29.73,0-5.96-1.25-11.22-3.74-15.78-2.49-4.56-5.66-7.87-9.49-9.94-3.83-2.07-8.18-2.68-13.03-1.83-4.87.85-9.54,3.35-14.04,7.48-11.07,9.97-17.52,21.64-19.34,35.02,0,9,2.06,15.75,6.2,20.25,4.13,4.5,10.15,6.75,18.05,6.75Z"/>
  <path class="cls-1" d="M648.8,554.98l15.33,47.6c4.62-.12,11-.12,19.15,0v2.74c-7.79-.13-13.86-.13-18.24,0l20.8,64.2c.96,2.92,2.61,4.38,4.93,4.38v2.19h-27.18v-2.19c3.03,0,4.07-1.46,3.1-4.38l-15.14-46.69c-1.1-3.65-.92-7.3.55-10.95,1.45-3.64,4.01-5.77,7.66-6.38-6.32.36-12.11,1.03-17.34,2-5.23.98-10.48,2.53-15.78,4.65-5.28,2.13-10,5.2-14.13,9.21-4.14,4.02-7.36,8.88-9.66,14.59l-13.69,33.56c-1.22,2.8-.43,4.2,2.38,4.2v2.37h-10.21v-2.37c1.22,0,2.18-.24,2.91-.73.74-.48,1.4-1.64,2.02-3.47l44.86-109.99-1.45-4.56c-.98-2.8-2.61-4.2-4.93-4.2v-2.37h27.18v2.37c-3.04,0-4.07,1.4-3.1,4.2ZM645.52,604.23l-13.14-40.67-23.33,57.45c8.02-8.88,20.17-14.47,36.47-16.78Z"/>
  <path class="cls-1" d="M732.42,550.6c-2.81,0-4.2,1.45-4.2,4.38v114.54c0,2.8,1.4,4.2,4.2,4.2v2.37h-26.45v-2.37c2.67,0,4.01-1.4,4.01-4.2v-114.54c0-2.92-1.34-4.38-4.01-4.38v-2.19h26.45v2.19Z"/>
  <path class="cls-1" d="M569.57,326.1c-2.82,0-4.22,1.46-4.22,4.39v44.67c0,2.81,1.4,4.22,4.22,4.22v2.38h-26.55v-2.38c2.68,0,4.02-1.41,4.02-4.22v-44.67c0-2.93-1.34-4.39-4.02-4.39v-2.2h26.55v2.2Z"/>
  <path class="cls-1" d="M586.23,387.81c-2.19,7.2-5.94,11.96-11.26,14.28-5.31,2.32-14.97,3.47-29.01,3.47-9.15,0-15.37-1.22-18.67-3.66-3.3-2.44-4.94-7.51-4.94-15.19v-56.2c0-2.81,1.4-4.22,4.21-4.22v-2.37h-53.1v2.37c2.81,0,4.21,1.42,4.21,4.22v56.2c0,7.68-1.64,12.76-4.94,15.19-3.3,2.44-9.52,3.66-18.67,3.66-14.04,0-23.7-1.15-29.01-3.47-5.32-2.32-9.07-7.08-11.26-14.28l-9.89,20.5,9.89,20.5c2.19-7.21,5.94-11.97,11.26-14.28,5.31-2.33,14.97-3.49,29.01-3.49,9.15,0,15.37,1.22,18.67,3.66,3.3,2.45,4.94,7.51,4.94,15.19v56.22c0,2.81-1.4,4.21-4.21,4.21v2.37h53.1v-2.37c-2.81,0-4.21-1.4-4.21-4.21v-56.22c0-7.68,1.64-12.74,4.94-15.19,3.3-2.44,9.52-3.66,18.67-3.66,14.04,0,23.7,1.15,29.01,3.49,5.32,2.31,9.07,7.07,11.26,14.28l9.89-20.5-9.89-20.5ZM495.96,330.5c0-2.81,1.34-4.22,4.04-4.22s4.04,1.42,4.04,4.22v71.21c0,2.81-1.34,4.21-4.04,4.21s-4.04-1.4-4.04-4.21v-71.21ZM504.04,486.12c0,2.81-1.34,4.21-4.04,4.21s-4.04-1.4-4.04-4.21v-71.21c0-2.82,1.34-4.22,4.04-4.22s4.04,1.4,4.04,4.22v71.21Z"/>
  <path class="cls-1" d="M430.43,326.1c2.82,0,4.22,1.46,4.22,4.39v44.67c0,2.81-1.4,4.22-4.22,4.22v2.38h26.55v-2.38c-2.68,0-4.02-1.41-4.02-4.22v-44.67c0-2.93,1.34-4.39,4.02-4.39v-2.2h-26.55v2.2Z"/>
  <path class="cls-1" d="M430.43,490.51c2.82,0,4.22-1.46,4.22-4.39v-44.67c0-2.81-1.4-4.22-4.22-4.22v-2.38h26.55v2.38c-2.68,0-4.02,1.41-4.02,4.22v44.67c0,2.93,1.34,4.39,4.02,4.39v2.2h-26.55v-2.2Z"/>
  <path class="cls-1" d="M569.57,490.51c-2.82,0-4.22-1.46-4.22-4.39v-44.67c0-2.81,1.4-4.22,4.22-4.22v-2.38h-26.55v2.38c2.68,0,4.02,1.41,4.02,4.22v44.67c0,2.93-1.34,4.39-4.02,4.39v2.2h26.55v-2.2Z"/>
</svg>