<?xml version="1.0" encoding="UTF-8"?>
<svg id="Layer_1" data-name="Layer 1" xmlns="http://www.w3.org/2000/svg" viewBox="0 0 1000 1000">
  <defs>
    <style>
      .cls-1 {
        fill: #fff;
      }
    </style>
  </defs>
  <path class="cls-1" d="M43.08,652.08h913.84v-339.36H43.08v339.36ZM58.65,328.29h882.71v308.24H58.65v-308.24Z"/>
  <polygon class="cls-1" points="287.69 401.44 287.69 563.09 300.36 564.77 300.36 574.24 237.6 574.24 237.6 564.77 251.11 563.09 251.11 489.51 170.91 489.51 170.91 563.09 183.3 564.77 183.3 574.24 121.67 574.24 121.67 564.77 134.05 563.09 134.05 401.44 121.67 399.76 121.67 390.57 183.3 390.57 183.3 399.76 170.91 401.44 170.91 470.56 251.11 470.56 251.11 401.44 237.6 399.76 237.6 390.57 300.36 390.57 300.36 399.76 287.69 401.44"/>
  <polygon class="cls-1" points="373.25 564.21 385.06 565.88 385.06 574.24 327.38 574.24 327.38 565.88 339.21 564.21 339.21 453.55 327.38 451.89 327.38 443.52 373.25 443.52 373.25 564.21"/>
  <polygon class="cls-1" points="410.11 566.12 421.65 564.51 421.65 400.3 410.11 398.67 410.11 390.57 455.99 390.57 455.99 564.51 467.8 566.12 467.8 574.24 410.11 574.24 410.11 566.12"/>
  <path class="cls-1" d="M537.88,443.52h30.95v12.26h-30.95v77.76c0,20.07,4.21,26.48,22.5,26.48,6.76,0,12.68,0,18.3-1.4v8.92c-16.61,5.85-30.68,8.37-42.5,8.37-26.44,0-32.64-11.98-32.64-34.85v-85.28h-24.2v-12.26h25.05v-27.31l33.49-10.04v37.35Z"/>
  <path class="cls-1" d="M686.19,509.3c0-41.26-12.38-59.37-32.38-59.37s-31.8,17.28-31.8,59.37,12.39,58.81,31.8,58.81c20.84,0,32.38-16.44,32.38-58.81M723.89,510.13c0,40.7-27.57,68.01-70.91,68.01s-68.68-17.84-68.68-68.01c0-42.09,27.58-70.24,70.92-70.24s68.67,25.37,68.67,70.24"/>
  <path class="cls-1" d="M880.35,565.88v8.36h-57.69v-8.36l11.55-1.67v-74.43c0-20.62-7.59-29.82-23.37-29.82-7.31,0-18.85,5.02-27.29,10.87v93.38l11.81,1.67v8.36h-57.96v-8.36l11.8-1.67v-109.82l-11.8-1.66v-9.2h46.14v18.12c14.34-11.43,28.14-20.63,47.55-20.63,25.89,0,37.43,15.06,37.43,44.6v78.61l11.82,1.67Z"/>
  <path class="cls-1" d="M374.92,408.96c0,10.16-8.32,18.4-18.57,18.4s-18.58-8.23-18.58-18.4,8.31-18.4,18.58-18.4,18.57,8.23,18.57,18.4"/>
  <path class="cls-1" d="M956.92,675.43c0,6.55-5.3,11.85-11.86,11.85s-11.85-5.3-11.85-11.85,5.3-11.86,11.85-11.86,11.86,5.3,11.86,11.86ZM935.78,675.39c0,5.11,4.18,9.29,9.29,9.29s9.29-4.18,9.29-9.29-4.22-9.29-9.29-9.29-9.29,4.18-9.29,9.29ZM950.07,673.38c0,1.78-.73,2.9-2.34,3.36l2.8,4.15h-2.54l-2.54-3.82c-.2,0-.4.03-.69.03h-2.21v3.79h-2.24v-11.2h4.94c3.39,0,4.81,1.15,4.81,3.69ZM942.56,675.36h2.77c1.84,0,2.47-.53,2.47-1.84s-.63-1.81-2.47-1.81h-2.77v3.65Z"/>
</svg>