<?xml version="1.0" encoding="UTF-8"?>
<svg id="Layer_1" data-name="Layer 1" xmlns="http://www.w3.org/2000/svg" viewBox="0 0 1000 1000">
  <defs>
    <style>
      .cls-1 {
        fill: #fff;
      }
    </style>
  </defs>
  <polygon class="cls-1" points="410.69 435.72 360.22 435.72 360.22 395.57 402.75 395.57 402.75 387.49 360.22 387.49 360.22 351.46 410.69 351.46 410.69 343.38 343 343.38 343 443.8 410.69 443.8 410.69 435.72"/>
  <path class="cls-1" d="M476.14,445.52c11.52,0,25.96-1.86,33.65-5.7l3.84-30.6h-5.17l-8.34,20.67c-3.18,8.21-14.04,8.48-23.45,8.48-24.11,0-39.21-19.08-39.21-48.62,0-31.8,18.94-41.73,38.02-41.73,9.54,0,20.54.66,23.71,8.74l8.21,20.4h5.17l-3.84-30.6c-7.82-3.58-20.8-5.7-31.93-5.7-34.71,0-58.42,20.67-58.42,52.33s23.32,52.33,57.76,52.33Z"/>
  <path class="cls-1" d="M579.6,445.52c28.75,0,54.19-20.14,54.19-52.33s-25.44-52.33-54.19-52.33-54.18,20.14-54.18,52.33,25.44,52.33,54.18,52.33ZM578.94,348.15c20.14,0,35.64,17.62,35.64,49.02,0,29.15-16.82,41.07-34.18,41.07-20.53,0-35.77-17.62-35.77-49.02,0-29.15,16.96-41.07,34.31-41.07Z"/>
  <polygon class="cls-1" points="428.31 473.44 394 551.47 359.55 473.44 340.87 473.44 385.26 573.86 393.87 573.86 438.12 473.44 428.31 473.44"/>
  <rect class="cls-1" x="449.5" y="473.44" width="17.22" height="100.42"/>
  <polygon class="cls-1" points="508.06 473.44 490.84 473.44 490.84 573.86 557.47 573.86 557.47 565.78 508.06 565.78 508.06 473.44"/>
  <path class="cls-1" d="M679.35,473.44l-38.62,92.34h-53.19v-92.34h-17.22v100.42h76.57l15.1-36.17h40.4l15.24,36.17h18.28l-42.13-100.42h-14.44ZM665.31,529.61l16.83-40.4,16.96,40.4h-33.78Z"/>
  <path class="cls-1" d="M790.37,531.2h26.63v33.78c-5.7,2.25-13.78,3.05-19.61,3.05-26.49,0-40.14-20.14-40.14-48.22,0-32.19,19.34-41.73,37.89-41.73,9.41,0,20.67.66,23.85,8.74l8.21,20.4h5.17l-3.84-30.6c-8.08-3.58-20.8-5.7-31.93-5.7-34.58,0-58.42,20.67-58.42,52.33s23.32,52.33,57.76,52.33c12.72,0,28.75-3.05,38.29-7.29v-45.18h-43.85v8.08Z"/>
  <polygon class="cls-1" points="923.9 481.52 923.9 473.44 856.21 473.44 856.21 573.86 923.9 573.86 923.9 565.78 873.43 565.78 873.43 525.64 915.96 525.64 915.96 517.56 873.43 517.56 873.43 481.52 923.9 481.52"/>
  <path class="cls-1" d="M346.7,641.54c.41-.85.97-1.5,1.71-1.97.73-.47,1.58-.7,2.55-.7.7,0,1.37.16,2.03.47.65.32,1.22.77,1.71,1.35.49.58.83,1.25,1.04,1.99h3.42c-.27-1.41-.79-2.65-1.57-3.72-.77-1.07-1.73-1.9-2.87-2.48-1.14-.58-2.4-.88-3.76-.88-1.65,0-3.1.37-4.35,1.1-1.25.74-2.22,1.78-2.91,3.12-.69,1.34-1.03,2.9-1.03,4.67v6.53c0,1.77.34,3.32,1.03,4.67.69,1.34,1.66,2.38,2.91,3.11,1.25.73,2.7,1.1,4.35,1.1,1.35,0,2.6-.29,3.75-.88,1.14-.58,2.1-1.41,2.88-2.48.78-1.07,1.3-2.31,1.57-3.72h-3.42c-.21.8-.55,1.49-1.04,2.07-.49.58-1.05,1.01-1.7,1.31-.65.29-1.33.44-2.04.44-.97,0-1.82-.23-2.55-.7-.73-.46-1.3-1.12-1.71-1.97-.4-.85-.6-1.83-.6-2.95v-6.53c0-1.13.2-2.11.6-2.96Z"/>
  <path class="cls-1" d="M386.24,636.7c-1.27-.73-2.73-1.09-4.39-1.09s-3.12.36-4.39,1.09c-1.27.72-2.25,1.75-2.94,3.08-.69,1.33-1.04,2.86-1.04,4.61v6.75c0,1.75.35,3.28,1.04,4.61.69,1.33,1.67,2.35,2.94,3.08,1.27.73,2.73,1.09,4.39,1.09s3.12-.36,4.39-1.09c1.26-.73,2.24-1.75,2.94-3.08.69-1.33,1.04-2.86,1.04-4.61v-6.75c0-1.74-.35-3.28-1.04-4.61-.69-1.33-1.67-2.35-2.94-3.08ZM386.8,651.25c0,1.07-.2,2.01-.61,2.82-.41.81-.99,1.44-1.74,1.89-.75.44-1.61.66-2.59.66s-1.85-.22-2.59-.66c-.75-.44-1.33-1.07-1.74-1.89-.41-.81-.61-1.75-.61-2.82v-6.97c0-1.07.2-2.01.61-2.82.41-.81.99-1.44,1.74-1.88.75-.44,1.61-.66,2.59-.66s1.85.22,2.59.66c.75.44,1.33,1.07,1.74,1.88.41.81.61,1.76.61,2.82v6.97Z"/>
  <polygon class="cls-1" points="403.08 639.03 409.81 639.03 409.81 659.66 413.15 659.66 413.15 639.03 419.88 639.03 419.88 635.85 403.08 635.85 403.08 639.03"/>
  <polygon class="cls-1" points="432.41 639.03 439.14 639.03 439.14 659.66 442.48 659.66 442.48 639.03 449.21 639.03 449.21 635.85 432.41 635.85 432.41 639.03"/>
  <path class="cls-1" d="M468.22,635.85l-8.77,23.81h3.6l1.79-5.22h9.61l1.79,5.22h3.6l-8.77-23.81h-2.85ZM465.93,651.26l3.71-10.81,3.71,10.81h-7.42Z"/>
  <path class="cls-1" d="M500.89,650.03h4.83v1.03c0,1.15-.2,2.16-.6,2.99-.41.84-.98,1.48-1.72,1.92-.74.44-1.6.67-2.58.67s-1.87-.22-2.63-.64c-.76-.42-1.35-1.02-1.76-1.79-.41-.77-.62-1.67-.62-2.7v-7.02c0-1.13.2-2.11.6-2.96.4-.85.98-1.5,1.72-1.97.74-.47,1.6-.7,2.59-.7.68,0,1.33.15,1.96.45.63.3,1.18.74,1.66,1.31.47.58.8,1.26,1,2.06h3.62c-.27-1.41-.8-2.65-1.57-3.72-.77-1.07-1.74-1.9-2.89-2.48-1.15-.58-2.41-.88-3.77-.88-1.66,0-3.12.37-4.38,1.1-1.26.74-2.23,1.78-2.92,3.12-.69,1.34-1.03,2.9-1.03,4.67v7.02c0,1.67.35,3.14,1.05,4.41.7,1.27,1.68,2.24,2.95,2.94,1.27.69,2.75,1.04,4.43,1.04s3.12-.37,4.38-1.1c1.26-.74,2.23-1.78,2.92-3.13.69-1.35,1.03-2.91,1.03-4.68v-4.16h-8.25v3.19Z"/>
  <polygon class="cls-1" points="526.56 635.85 524.94 635.85 524.94 659.66 526.56 659.66 528.28 659.66 540.23 659.66 540.23 656.48 528.28 656.48 528.28 649.43 538.43 649.43 538.43 646.25 528.28 646.25 528.28 639.03 540.23 639.03 540.23 635.85 528.28 635.85 526.56 635.85"/>
  <path class="cls-1" d="M578.98,641.54c.41-.85.97-1.5,1.7-1.97.73-.47,1.58-.7,2.55-.7.7,0,1.38.16,2.03.47.65.32,1.22.77,1.71,1.35.49.58.83,1.25,1.04,1.99h3.42c-.27-1.41-.8-2.65-1.57-3.72-.77-1.07-1.73-1.9-2.87-2.48-1.15-.58-2.4-.88-3.77-.88-1.65,0-3.1.37-4.35,1.1-1.25.74-2.22,1.78-2.9,3.12-.69,1.34-1.03,2.9-1.03,4.67v6.53c0,1.77.35,3.32,1.03,4.67.69,1.34,1.65,2.38,2.9,3.11,1.25.73,2.7,1.1,4.35,1.1,1.35,0,2.6-.29,3.75-.88,1.15-.58,2.11-1.41,2.88-2.48.78-1.07,1.3-2.31,1.57-3.72h-3.42c-.21.8-.55,1.49-1.04,2.07-.49.58-1.05,1.01-1.7,1.31-.65.29-1.33.44-2.04.44-.97,0-1.82-.23-2.55-.7-.73-.46-1.3-1.12-1.7-1.97-.4-.85-.6-1.83-.6-2.95v-6.53c0-1.13.2-2.11.6-2.96Z"/>
  <path class="cls-1" d="M618.53,636.7c-1.27-.73-2.73-1.09-4.39-1.09s-3.12.36-4.39,1.09c-1.26.72-2.24,1.75-2.94,3.08-.69,1.33-1.04,2.86-1.04,4.61v6.75c0,1.75.35,3.28,1.04,4.61.69,1.33,1.67,2.35,2.94,3.08,1.27.73,2.73,1.09,4.39,1.09s3.12-.36,4.39-1.09c1.26-.73,2.24-1.75,2.94-3.08.69-1.33,1.04-2.86,1.04-4.61v-6.75c0-1.74-.35-3.28-1.04-4.61-.69-1.33-1.67-2.35-2.94-3.08ZM619.08,651.25c0,1.07-.2,2.01-.62,2.82-.41.81-.99,1.44-1.73,1.89-.75.44-1.61.66-2.59.66s-1.85-.22-2.59-.66c-.75-.44-1.33-1.07-1.74-1.89-.41-.81-.61-1.75-.61-2.82v-6.97c0-1.07.2-2.01.61-2.82.41-.81.99-1.44,1.74-1.88.75-.44,1.61-.66,2.59-.66s1.85.22,2.59.66c.75.44,1.33,1.07,1.73,1.88.41.81.62,1.76.62,2.82v6.97Z"/>
  <polygon class="cls-1" points="648.43 651.57 641.44 635.85 638.31 635.85 638.31 659.66 641.57 659.66 641.57 643.57 647.27 656.35 649.59 656.35 655.29 643.26 655.29 659.66 658.55 659.66 658.55 635.85 655.42 635.85 648.43 651.57"/>
  <path class="cls-1" d="M688.13,636.76c-1.08-.6-2.33-.91-3.75-.91h-9.22v23.81h3.34v-9.23h5.88c1.42,0,2.67-.3,3.75-.9,1.08-.6,1.92-1.45,2.51-2.54.59-1.1.89-2.37.89-3.83s-.3-2.73-.89-3.83c-.59-1.1-1.43-1.95-2.51-2.56ZM687.67,645.3c-.3.62-.72,1.1-1.27,1.44-.55.34-1.18.51-1.9.51h-5.99v-8.22h5.99c.72,0,1.35.17,1.9.51.55.35.97.83,1.27,1.45.3.62.45,1.34.45,2.16s-.15,1.52-.45,2.15Z"/>
  <polygon class="cls-1" points="709.78 635.85 706.44 635.85 706.44 659.66 708.11 659.66 709.78 659.66 721.74 659.66 721.74 656.48 709.78 656.48 709.78 635.85"/>
  <polygon class="cls-1" points="738.02 635.85 736.39 635.85 736.39 659.66 738.02 659.66 739.73 659.66 751.69 659.66 751.69 656.48 739.73 656.48 739.73 649.43 749.89 649.43 749.89 646.25 739.73 646.25 739.73 639.03 751.69 639.03 751.69 635.85 739.73 635.85 738.02 635.85"/>
  <polygon class="cls-1" points="782.55 635.85 778.8 635.85 773.68 644.61 768.49 635.85 764.74 635.85 771.94 647.52 764.54 659.66 768.29 659.66 773.7 650.42 779.16 659.66 782.91 659.66 775.43 647.5 782.55 635.85"/>
  <polygon class="cls-1" points="158.89 659.28 178.87 659.28 178.87 630.41 158.89 630.41 158.89 659.28 158.89 659.28"/>
  <polygon class="cls-1" points="146.43 603.74 137.36 615.52 103.59 659.28 121.34 659.28 171.05 594.85 220.73 659.28 286.85 659.28 286.85 583.79 161.83 583.79 146.43 603.74 146.43 603.74"/>
  <path class="cls-1" d="M209.78,457.47c-3.77,7.31-10.6,12.17-18.52,17.79-7.2,5.12-15.36,10.91-21.62,19.41-11.36,15.4-15.37,31.32-21.41,55.4-.14-6.71-.44-12.99-.94-18.45-2.78-30.16,3.28-35.43,8.62-40.09,2.97-2.59,6.44-5.62,8.03-11.47,2.11-5.15,4.59-10.66,7.2-16.43,5-11.06,10.33-22.86,14.26-34.83,5.96-3.19,21.6-11.68,39.53-22.37-6.67,26.86-11.97,44.86-15.15,51.03h0ZM135.79,508.55c-.26-.46-.51-.93-.78-1.38-4.43-15.1-6.8-30.41-8.14-45.69h0s0-.02,0-.03c-1.32-15.08-1.64-30.14-1.96-44.95-.08-3.77-.17-7.52-.27-11.25,11.23,12.31,20.08,24.64,24.08,36.49,2.31,10.41,4.24,20.6,4.76,29.52.13,2.22.02,3.86-.26,5.2-.38.95-.77,1.9-1.13,2.83-.84,1.3-2.03,2.37-3.6,3.74-6,5.23-11.15,11.17-12.7,25.51h0ZM112.75,509.44c-1.06-4.23-2.19-8.75-3.44-13.44,9.14,5.91,14.08,13.01,17.81,20.14,5.39,10.31,7.11,23.41,5.06,44.1-2.42-9.96-6.01-18.13-10.95-22.99-3-5.99-5.54-16.11-8.47-27.81h0ZM286.85,363.49v-16.16c-7.09,9.28-24.85,22.28-44.55,34.99,3.53-15.21,6.82-30.07,9.46-42.23h-11.54c-4.08,18.76-7.95,35.82-11.52,50.79-14.14,8.69-28.23,16.77-39.26,22.88,1.42-6.93,2.16-13.84,1.83-20.62-.09-1.87-.25-3.74-.39-5.6,5.85-13.24,12.1-22.19,18.16-30.8,3.65-5.19,7.35-10.46,10.96-16.64h-13.25c-2.27,3.5-4.59,6.8-6.94,10.15-3.69,5.25-7.45,10.64-11.19,16.98-.37-2.66-.74-5.31-1.12-7.94-.93-6.52-1.83-12.9-2.53-19.19h-11.35c.74,6.98,1.73,13.93,2.71,20.78,1.54,10.8,3.14,21.97,3.66,32.81.93,19.29-8.3,41.16-17.2,60.96-1.65-9.66-4.04-19.79-6.4-29.72-2.99-12.62-5.82-24.54-6.71-33.96-1.24-13.13,3.65-27.32,7.57-38.72,1.56-4.54,2.96-8.61,3.82-12.16h-11.69c-.74,2.5-1.71,5.35-2.79,8.49-4.28,12.43-9.61,27.9-8.14,43.46.43,4.52,1.25,9.47,2.29,14.69-5.04-6.2-10.69-12.37-16.76-18.46-.93-17.27-2.91-33.63-7.87-48.18h-11.95c4.26,10.84,6.47,23.14,7.7,36.54-9.53-8.83-19.53-17.44-29.13-25.72-2.26-1.94-4.47-3.85-6.66-5.75v14.9c12.33,10.62,25.26,21.81,36.88,33.16.32,7.59.5,15.44.67,23.51.08,3.77.16,7.6.26,11.49-10.31-17.43-24.93-34.49-37.81-47.3v16.35c17.9,19.39,36.87,45.27,39.6,65.71h.01c.78,8.68,1.9,17.46,3.51,26.21-4.18-3.19-8.88-5.91-14.19-8.22-6.02-19.63-14.62-41.13-28.89-60.32-.01-.02-.03-.04-.04-.05v20.6c6.63,11.49,11.65,23.51,15.6,35.16-1.74-.47-3.52-.93-5.36-1.34-3.51-.8-6.9-1.61-10.23-2.43v11.63c2.59.62,5.17,1.22,7.73,1.8,4.45,1.01,8.39,2.19,11.96,3.48,2.33,8.07,4.27,15.77,6.01,22.72,1.42,5.66,2.71,10.78,4.01,15.39-.32-.18-.6-.35-.92-.53-7.81-4.48-17.93-10.29-28.8-16.87v13.17c8.5,5.05,16.46,9.62,23.19,13.48,5.27,3.02,9.63,5.52,12.69,7.37,5.84,3.74,8.68,13.99,9.97,20.96-10.87-9.88-26.97-18.12-45.85-22.89v12.28c24.26,6.78,43.41,19.93,47.87,33.06l.71,10.52c0,7.88-.48,15.92-1.44,23.62l28.56-37.02c.53-4.46,1.59-9.1,3.2-15.49,8.72-19.97,26.52-19.6,61.87-18.79l6.36.14c14.08.29,35.35,4.07,57.85,8.07,1.9.34,3.85.68,5.78,1.02v-11.45c-1.26-.23-2.55-.45-3.8-.67-22.95-4.08-44.64-7.94-59.6-8.24l-6.33-.14c-20.39-.46-37.06-.82-49.84,3.76,6.17-7.61,15.27-15.17,28.63-21.62l.02.1c10.17-2.72,22.76-2.44,38.68-2.07,14.7.33,32.03.68,52.23-1.29v-11.32c-20.08,2.03-37.35,1.67-51.98,1.34-.86-.02-1.69-.04-2.54-.05,22.27-8.87,41.26-21.84,54.51-32.42v-14.71c-14.52,12.48-41.02,32.24-72.08,41.28-22.66,6.6-38.21,15.82-48.85,25.72,3.22-10.15,6.95-18.58,12.79-26.51,5.19-7.04,12.25-12.05,19.07-16.91,2.53-1.79,5.07-3.62,7.54-5.54,3.08-1.25,6.9-2.65,11.32-4.26,16.68-6.07,41.01-14.95,70.21-32.05v-13.14c-26.59,16.24-49.46,25.49-66.38,31.77,2.01-4.38,4.41-11.57,7.01-20.47,4.48-3.39,15.11-8.86,25.45-14.16,11.47-5.89,23.88-12.26,33.91-18.6v-13.57c-10.12,7.26-25.85,15.35-39.07,22.14-5.97,3.06-11.33,5.83-15.93,8.35,2.21-8.38,4.48-17.48,6.72-26.79,17.93-11.17,36.23-23.64,48.28-34.63h0Z"/>
</svg>