<?xml version="1.0" encoding="UTF-8"?>
<svg id="Layer_1" data-name="Layer 1" xmlns="http://www.w3.org/2000/svg" viewBox="0 0 1000 1000">
  <defs>
    <style>
      .cls-1 {
        fill: #fff;
      }
    </style>
  </defs>
  <path class="cls-1" d="M287.03,626.71l11.99,18.75-24.31,15.55-3.98-6.22,18.3-11.7-4.04-6.32-18.3,11.7-3.98-6.22,24.31-15.55Z"/>
  <path class="cls-1" d="M301.75,694.21l-4.83-5.52,10.92-9.55-17.63,1.89-3.77-4.31,21.72-19,4.86,5.56-10.92,9.55,17.63-1.89,3.75,4.28-21.72,19Z"/>
  <path class="cls-1" d="M339.31,708.37c.91,2.66.43,5.08-1.44,7.28-1.68,1.97-3.68,2.95-5.99,2.96-2.36.01-4.65-.93-6.86-2.82l-9.25-7.89,18.73-21.95,8.66,7.39c2.21,1.89,3.5,3.95,3.85,6.19.35,2.23-.29,4.31-1.93,6.23-1.57,1.84-3.49,2.71-5.76,2.62ZM325.66,707.67l3.48,2.97c.57.48,1.17.7,1.82.66.65-.04,1.21-.34,1.67-.88.48-.56.69-1.16.62-1.8-.07-.64-.39-1.2-.95-1.68l-3.48-2.97-3.16,3.7ZM338.72,698.22l-2.89-2.46-2.94,3.45,2.89,2.46c.52.45,1.08.66,1.67.64.59-.02,1.12-.3,1.59-.84.45-.52.64-1.08.57-1.68-.07-.6-.36-1.12-.88-1.57Z"/>
  <path class="cls-1" d="M369.76,725.62l5.68-9.04,6.21,3.9-15.34,24.44-6.21-3.9,5.9-9.39-6.88-4.32-5.9,9.39-6.25-3.93,15.34-24.44,6.25,3.92-5.68,9.04,6.88,4.32Z"/>
  <path class="cls-1" d="M407.73,760.37c-3.83,1.51-7.69,1.44-11.56-.2-3.92-1.66-6.66-4.39-8.22-8.19-1.54-3.82-1.49-7.68.16-11.57,1.65-3.89,4.38-6.6,8.19-8.12,3.82-1.55,7.69-1.49,11.61.17,3.9,1.65,6.62,4.39,8.16,8.21,1.58,3.8,1.54,7.66-.11,11.55-1.64,3.87-4.39,6.59-8.24,8.15ZM394.72,749.34c.82,1.93,2.25,3.32,4.27,4.18,2.02.86,4.02.91,5.98.16,1.95-.79,3.36-2.23,4.25-4.33.9-2.13.95-4.14.14-6.03-.79-1.95-2.21-3.35-4.26-4.22-2.05-.87-4.05-.91-5.99-.12-1.92.74-3.34,2.17-4.24,4.29-.89,2.1-.94,4.12-.15,6.07Z"/>
  <polygon class="cls-1" points="450.54 776.56 443.41 774.82 446.85 760.72 433.52 772.4 427.95 771.05 434.79 743.01 441.96 744.76 438.52 758.86 451.85 747.18 457.38 748.52 450.54 776.56"/>
  <rect class="cls-1" x="445.34" y="732.32" width="5.77" height="13.32" transform="translate(-375.94 999.23) rotate(-76.29)"/>
  <path class="cls-1" d="M493.2,752.79l11.21.18c2.91.05,5.34,1.03,7.29,2.96,1.95,1.93,2.9,4.36,2.85,7.3-.05,2.94-1.08,5.34-3.09,7.21-2.01,1.86-4.47,2.77-7.38,2.72l-3.83-.06-.14,8.66-7.38-.12.47-28.85ZM500.37,766.1l3.83.06c.82.01,1.52-.26,2.1-.83.57-.57.87-1.31.88-2.21.02-.91-.25-1.65-.81-2.22-.56-.57-1.24-.87-2.07-.88l-3.83-.06-.1,6.14Z"/>
  <path class="cls-1" d="M537.42,768.89l.5,4.22,11.09-1.33.82,6.88-18.42,2.2-3.42-28.65,18.22-2.18.82,6.84-10.89,1.3.47,3.97,9.86-1.18.81,6.75-9.86,1.18Z"/>
  <path class="cls-1" d="M581.4,772.36c-4.19,1.13-8.04.69-11.54-1.33-3.48-2.02-5.78-5.12-6.9-9.28-1.12-4.17-.69-7.98,1.31-11.45,1.98-3.52,5.08-5.85,9.3-6.99,2.52-.68,5.02-.71,7.49-.1,2.47.61,4.59,1.76,6.35,3.45l-5.21,5.21c-.8-.84-1.79-1.4-3-1.69-1.2-.29-2.45-.26-3.75.09-2.2.59-3.82,1.78-4.84,3.57-.97,1.77-1.16,3.77-.56,6,.62,2.28,1.78,3.93,3.51,4.95,1.75,1.01,3.74,1.21,5.97.61,1.3-.35,2.4-.95,3.29-1.8.89-.86,1.47-1.86,1.73-3.01l7.14,1.92c-.67,2.37-1.91,4.44-3.73,6.19-1.82,1.76-4,2.98-6.55,3.67Z"/>
  <path class="cls-1" d="M597.51,736.3l19.84-8.66,2.85,6.54-6.54,2.85,8.69,19.91-6.76,2.95-8.69-19.91-6.54,2.85-2.85-6.54Z"/>
  <path class="cls-1" d="M663.34,729.83c-.95,4.01-3.21,7.14-6.77,9.37-3.61,2.27-7.41,2.96-11.41,2.07-4.02-.91-7.15-3.16-9.41-6.74-2.25-3.58-2.92-7.37-1.99-11.36.91-4.02,3.17-7.16,6.78-9.43,3.58-2.25,7.38-2.93,11.4-2.01,4.03.88,7.17,3.11,9.42,6.69,2.24,3.56,2.9,7.37,1.98,11.42ZM646.86,734.22c2.05.43,4.01.06,5.87-1.12,1.86-1.17,3.04-2.77,3.55-4.81.46-2.05.09-4.04-1.13-5.97-1.23-1.95-2.85-3.14-4.87-3.56-2.05-.47-4.01-.11-5.89,1.08-1.89,1.18-3.06,2.8-3.52,4.85-.49,2-.13,3.98,1.1,5.93,1.22,1.93,2.85,3.13,4.89,3.59Z"/>
  <path class="cls-1" d="M664.5,697.68l8.47-7.35c2.2-1.91,4.67-2.8,7.41-2.66,2.74.13,5.07,1.31,7,3.54,1.93,2.22,2.76,4.69,2.51,7.42-.25,2.73-1.48,5.05-3.68,6.96l-2.9,2.51,5.67,6.54-5.57,4.83-18.91-21.8ZM678.71,702.81l2.9-2.51c.62-.54.96-1.21,1-2.02.05-.81-.23-1.55-.82-2.23-.59-.68-1.29-1.06-2.08-1.11-.8-.05-1.5.19-2.13.73l-2.9,2.51,4.02,4.64Z"/>
  <path class="cls-1" d="M727.8,674.86l-5.24,5.99-3.95-1.81-6.32,7.23,2.32,3.67-5.26,6.02-15.46-26.16,5.91-6.77,27.99,11.82ZM703.27,672.04l5.49,8.63,3.82-4.37-9.31-4.25Z"/>
  <path class="cls-1" d="M731,638.08l-9-5.74,3.95-6.19,24.33,15.51-3.95,6.19-9.35-5.96-4.36,6.85,9.35,5.96-3.97,6.22-24.33-15.51,3.97-6.22,9,5.74,4.36-6.85Z"/>
  <path class="cls-1" d="M714.79,460.45c-18.86-100.38-105.68-172.71-208.48-172.71s-189.62,72.33-208.48,172.71h-40.46v12.27h91.12v-12.27h-38.18c18.64-93.39,99.93-160.44,196.01-160.44s177.37,67.05,196,160.44h-38.18v12.27h91.12v-12.27h-40.47Z"/>
  <path class="cls-1" d="M506.32,826.36c-162.32,0-301.29-121.13-323.25-281.76l-.92-6.73,6.79-.23c20.42-.69,36.42-17.22,36.42-37.63s-16-36.94-36.42-37.63l-6.79-.23.92-6.73c21.96-160.63,160.93-281.76,323.25-281.76s301.29,121.13,323.25,281.76l.92,6.74-6.8.22c-20.42.66-36.41,17.19-36.41,37.63s16,36.94,36.42,37.63l6.79.23-.92,6.73c-21.96,160.63-160.93,281.76-323.25,281.76ZM196.14,549.21c23.86,151.44,156.08,264.88,310.17,264.88s286.32-113.43,310.17-264.88c-23.74-4.01-41.48-24.46-41.48-49.21s17.74-45.24,41.48-49.22c-23.86-151.44-156.08-264.87-310.17-264.87s-286.32,113.43-310.17,264.88c23.74,4.01,41.48,24.46,41.48,49.21s-17.74,45.2-41.48,49.21Z"/>
  <path class="cls-1" d="M268.2,503.02v2.55h8.51v6.02h-15.05v-22.9h14.89v5.95h-8.34v2.48h7.52v5.89h-7.52Z"/>
  <path class="cls-1" d="M290.2,512.12c-2.46,0-4.53-.51-6.18-1.54-1.66-1.03-2.78-2.43-3.37-4.22l5.6-3.24c.76,1.94,2.14,2.91,4.12,2.91,1.49,0,2.22-.39,2.22-1.18,0-.48-.26-.83-.78-1.05-.26-.11-.54-.21-.82-.29-.07-.02-.46-.14-1.18-.36l-1.28-.36c-4.56-1.37-6.84-3.83-6.84-7.36,0-2.09.75-3.83,2.26-5.2,1.55-1.37,3.54-2.06,5.99-2.06,1.96,0,3.71.46,5.23,1.39,1.53.93,2.65,2.24,3.37,3.94l-5.43,3.17c-.63-1.61-1.68-2.42-3.14-2.42-.55,0-.97.12-1.28.34-.3.23-.46.52-.46.87,0,.48.25.85.75,1.11.48.24,1.47.58,2.98,1.01,2.03.61,3.65,1.34,4.87,2.19,1.53,1.05,2.29,2.72,2.29,5s-.8,4.11-2.39,5.4c-1.59,1.29-3.77,1.93-6.55,1.93Z"/>
  <path class="cls-1" d="M302.11,488.69h17.34v6.35h-5.4v16.55h-6.55v-16.55h-5.4v-6.35Z"/>
  <path class="cls-1" d="M323.39,488.69h9.49c3.14,0,5.78,1.1,7.92,3.3,2.14,2.2,3.21,4.92,3.21,8.15s-1.07,5.97-3.21,8.18c-2.11,2.18-4.75,3.27-7.92,3.27h-9.49v-22.9ZM330.27,505.25h2.62c1.33,0,2.43-.48,3.29-1.43.86-.95,1.29-2.17,1.29-3.68s-.43-2.73-1.29-3.68c-.86-.95-1.96-1.42-3.29-1.42h-2.62v10.21Z"/>
  <path class="cls-1" d="M688.65,511.59h-16.55v-4.78l7.46-8.08.56-.62c.41-.42.72-.74.91-.98.39-.46.59-.89.59-1.31,0-.39-.13-.71-.39-.95-.26-.24-.64-.36-1.15-.36-1.22,0-2.12.77-2.71,2.32l-5.76-3.14c.76-1.79,1.88-3.16,3.35-4.11,1.47-.95,3.15-1.42,5.02-1.42,2.22,0,4.14.64,5.76,1.93,1.61,1.29,2.42,3.04,2.42,5.27,0,1.39-.31,2.6-.92,3.6-.59,1-1.53,2.24-2.81,3.7l-2.32,2.58h6.55v6.35Z"/>
  <path class="cls-1" d="M709.35,508.88c-1.68,2.16-4.06,3.24-7.13,3.24s-5.46-1.08-7.13-3.24c-1.68-2.2-2.52-5.12-2.52-8.73s.84-6.52,2.52-8.7c1.66-2.18,4.03-3.27,7.13-3.27s5.47,1.09,7.13,3.27c1.68,2.18,2.52,5.08,2.52,8.7s-.84,6.53-2.52,8.73ZM702.22,494.52c-2.07,0-3.11,1.88-3.11,5.63s1.04,5.63,3.11,5.63,3.11-1.88,3.11-5.63-1.03-5.63-3.11-5.63Z"/>
  <path class="cls-1" d="M731.97,511.59h-16.55v-4.78l7.46-8.08.56-.62c.41-.42.72-.74.91-.98.39-.46.59-.89.59-1.31,0-.39-.13-.71-.39-.95-.26-.24-.64-.36-1.15-.36-1.22,0-2.12.77-2.71,2.32l-5.76-3.14c.76-1.79,1.88-3.16,3.35-4.11,1.47-.95,3.15-1.42,5.02-1.42,2.22,0,4.14.64,5.76,1.93,1.61,1.29,2.42,3.04,2.42,5.27,0,1.39-.31,2.6-.92,3.6-.59,1-1.53,2.24-2.81,3.7l-2.32,2.58h6.55v6.35Z"/>
  <path class="cls-1" d="M734.66,491.01l6.45-2.32h5.56v22.9h-6.54v-16.06l-3.96.95-1.51-5.46Z"/>
  <path class="cls-1" d="M189.14,519.63c-10.82,0-19.63-8.81-19.63-19.63s8.81-19.63,19.63-19.63,19.63,8.81,19.63,19.63-8.81,19.63-19.63,19.63ZM189.14,492.64c-4.06,0-7.36,3.3-7.36,7.36s3.3,7.36,7.36,7.36,7.36-3.3,7.36-7.36-3.3-7.36-7.36-7.36Z"/>
  <path class="cls-1" d="M664.14,527.27v12.27h38.18c-18.37,92.05-97.61,158.46-191.88,160.36v-9.14c0-62.9,95.76-57.01,95.76-117.55v-208.27s-4.43,0-5.47,4.4h0v.02c-.08.35-.15.71-.18,1.11-3.3,45.46-62.66,51.94-85.39,85.16h-.12q0,.12-.12.12l-3.06,4.83c-2.24,3.65-4.01,7.18-5.54,10.72-1.53-3.53-3.3-7.07-5.54-10.72l-3.06-4.83q-.12,0-.12-.12h-.12c-22.73-33.21-82.09-39.7-85.39-85.16-.03-.4-.1-.77-.18-1.11v-.02h0c-1.03-4.39-5.47-4.4-5.47-4.4v208.27c0,60.54,95.76,54.65,95.76,117.55v9.14c-94.27-1.89-173.51-68.31-191.88-160.36h38.18v-12.27h-91.12v12.27h40.46c18.86,100.38,105.68,172.71,208.48,172.71s189.62-72.33,208.48-172.71h40.47v-12.27h-91.12ZM510.44,537.02v-9.54c0-53.77,69.97-57.28,90.28-94.98v18.51c-.08.35-.15.71-.18,1.11-3.3,45.46-62.66,51.94-85.39,85.15h-.12q0,.12-.12.12l-3.06,4.83c-.5.81-.96,1.61-1.42,2.41v-7.61ZM510.44,618.66v-9.54c0-53.77,69.97-57.27,90.28-94.98v18.49h0c-.08.35-.15.72-.19,1.14-3.3,45.46-62.66,51.94-85.39,85.16h-.12q0,.12-.12.12l-3.06,4.83c-.5.81-.96,1.61-1.42,2.41v-7.61ZM411.91,432.5c20.31,37.71,90.28,41.21,90.28,94.98v17.15c-.45-.8-.92-1.6-1.42-2.41l-3.06-4.83q-.12,0-.12-.12h-.12c-22.73-33.21-82.09-39.69-85.39-85.15-.03-.4-.1-.77-.18-1.11v-18.51ZM500.78,623.86l-3.06-4.83q-.12,0-.12-.12h-.12c-22.73-33.21-82.09-39.69-85.39-85.16-.03-.41-.1-.78-.19-1.14h0v-18.49c20.31,37.71,90.28,41.21,90.28,94.98v17.15c-.45-.8-.92-1.6-1.42-2.41Z"/>
  <path class="cls-1" d="M301.48,366.1s-.15-.22-.31-.9l-3.53-16.14,15.25-.47c.99-.06,1.3.04,1.3.04.03.01.06.02.09.03-.02.03-.05.06-.08.09l-1.19,1.42,4.62,3.38,11.03-15.08-4.35-3.19-1.05,1.1c-.72.75-1.53,1.35-2.4,1.76-.95.45-1.86.77-2.73.96-.65.15-1.24.25-1.78.3-.53.05-.94.07-1.35.06l-19.05.54-3.47-16.54c-.06-.37-.12-.73-.19-1.1-.06-.3-.11-.59-.15-.81-.13-.97-.12-1.88.01-2.71.12-.75.47-1.59,1.03-2.48l.88-1.38-4.44-3.24-8.85,12.09,3.12,2.28,1.66.81.9-1.23c.03.07.05.15.09.23.04.1.09.2.14.3.04.17.1.36.17.6l3.04,13.38-13.72.38s-.11,0-.39-.1c-.06-.02-.11-.04-.17-.07l1.08-1.22-4.66-3.41-10.73,14.67,4.68,3.43.97-1.67c.26-.45.59-.8.99-1.06.5-.32,1.1-.59,1.79-.79.75-.22,1.61-.38,2.55-.47,1.03-.1,2.16-.18,3.39-.22l15.83-.49,4.1,19.73c.23,1,.3,2.12.2,3.32-.09,1.11-.41,2.09-.98,2.98l-.88,1.38,4.44,3.24,9-12.3-3.12-2.28-1.52-.88-1.02,1.41-.23.28Z"/>
  <path class="cls-1" d="M335.72,319.92l.24.4c.31.49.48,1,.5,1.56.02.34-.3.86-.86,1.42l-1.08,1.09,3.32,4.26,10.53-8.23-2.53-2.94-1.16-1.37-1.37,1.09-.22.13c-.37.11-.82.11-1.36-.02-.21-.05-.79-.3-1.74-1.52l-15.75-20.17,32.3,19.06,3.48-2.72-10.25-36.87,15.96,20.44c.97,1.24,1.09,1.9,1.1,2.12.02.54-.07.96-.27,1.28l-1.7,1.49,3.46,4.43,12.8-10-2.38-3.05-.9-1.45-1.37,1.05-.34.17c-.38.21-.85.28-1.43.18-.24-.04-.91-.29-2-1.67l-18.1-23.18c-.71-.92-1.11-1.72-1.18-2.39-.05-.46.23-.99.82-1.58l1.09-1.09-3.33-4.26-11.12,8.68,9.62,34.36-30.55-18.01-11.23,8.77,3.41,4.37,1.36-.98c.54-.39,1.03-.56,1.57-.52.15.01.63.05,1.27.87l18.99,24.31.38.49Z"/>
  <path class="cls-1" d="M420.68,262.87l.54,1.53c.97,2.76.02,4.09-.92,4.94-1.76,1.6-3.92,2.95-6.41,4.02l-10.18,4.39-5.96-13.82,5.58-2.41c1.52-.66,2.26-.76,2.48-.77,0,0,.51.15,1.59,1.47l.83,1.02,4.7-2.03-5.12-11.87-4.82,2.07.32,1.41c.27,1.19.06,1.58.02,1.64-.31.45-.68.8-1.23,1.11-.13.09-.27.16-.4.21l-6.29,2.71-5.73-13.3,8.92-3.84c2.16-.93,4.05-1.43,5.61-1.47,1.3.12,2.34.63,3.42,2.01l.83,1.06,4.78-2.06-4.62-10.71-1.52.51c-.6.2-1.07.41-1.46.64l-.58.37c-.19.08-.37.19-.74.42l-.64.41c-.16.1-.33.19-.7.36-.6.34-1.17.63-1.73.88l-25.5,10.99,2.2,5.11,1.57-.63c.53-.2,1.23-.4,1.61-.12.39.28.98.92,1.6,2.36l11.64,27.01c.45,1.05.62,1.93.49,2.62-.06.32-.24.8-1.18,1.31l-1.39.76,2.16,5,35.6-15.35-4.22-12.18-5.16,2.22Z"/>
  <path class="cls-1" d="M487.47,255.37c-1.28.33-1.66-.07-1.81-.22-.69-.7-1.35-1.67-1.97-2.89l-18.74-35.88-13.7,2.3.92,5.43,1.63-.18c1.51-.17,1.91.11,1.92.12.23.16.39.5.48,1.02.07.4.13,1.2.07,2.79-.06,1.39-.15,2.84-.26,4.3l-.1.85c-.05.37-.07.74-.05.89l-.43,3.69c-.13,1.11-.23,1.94-.31,2.52l-.39,3.37c-.13,1.18-.3,2.38-.51,3.66-.41,2.93-.99,5.68-1.73,8.16-.54,1.8-1.27,2.91-2.05,3.03-.09-.01-.17-.03-.27-.05l-.73-.16c-.39-.09-.78-.16-1.19-.22-.58-.08-1.17-.08-1.76.02-1.28.22-2.38.8-3.25,1.74-.68.73-1.42,2.07-1.05,4.24.29,1.71,1.24,2.95,2.77,3.57.92.38,1.88.56,2.86.56.33,0,.67-.02,1-.06l.37-.06c3.83-.64,6.52-2.81,8-6.43,1.29-3.16,2.3-7.11,2.99-11.73l.49-3.14c.75-5.15,1.24-9.42,1.46-12.69.08-1.2.15-2.24.2-3.11l16.45,31.68,11.48-1.93-.95-5.67-1.83.46Z"/>
  <path class="cls-1" d="M531.62,234.13c-1.25-.4-2.5-.67-3.72-.82-1.15-.14-2.2-.24-3.15-.3l-6.26-.4.61-9.44c.07-1.13.32-2,.73-2.6.1-.14.39-.56,1.65-.59l1.59-.04.34-5.45-16.33-1.05-.35,5.41,1.53.27c.61.11,1.39.34,1.65.8.21.39.44,1.17.35,2.67l-1.88,29.35c-.1,1.5-.42,2.24-.69,2.61-.31.43-1.11.56-1.73.58l-1.55.08-.35,5.41,19.34,1.24c.89.06,1.93.1,3.13.14.17,0,.35,0,.52,0,1.12,0,2.26-.1,3.39-.3,2.58-.4,5.02-1.53,7.25-3.34,2.39-1.94,3.75-5.27,4.05-9.92.29-4.47-.73-7.86-3.01-10.08-2.11-2.05-4.52-3.48-7.11-4.24ZM523.84,255.93c-.56-.02-1.08-.04-1.56-.07l-5.26-.34,1.09-17.02,4.7.3c4.01.26,6.63,1.17,7.59,2.64,1.11,1.71,1.65,3.47,1.64,5.63.02.12.02.24-.01.64l-.03.41c-.2,3.18-.94,5.31-2.14,6.16-1.41,1.01-2.88,1.55-4.41,1.65-.52,0-1.06,0-1.61-.01Z"/>
  <path class="cls-1" d="M594.93,233.6l1.42.61c.56.24,1.24.63,1.36,1.14.15.68.07,1.58-.27,2.68l-3.3,10.85-20.8-6.33,3.3-10.85c.32-1.07.76-1.88,1.29-2.4.3-.3.87-.36,1.69-.18l1.56.33,1.58-5.23-15.54-4.73-1.58,5.22,1.47.59c.77.31,1.21.68,1.31,1.09.17.67.08,1.59-.26,2.72l-8.56,28.14c-.34,1.11-.79,1.94-1.29,2.4-.32.29-.89.35-1.7.18l-1.56-.33-1.58,5.22,15.53,4.73,1.59-5.22-1.48-.59c-.77-.31-1.21-.68-1.31-1.09-.17-.68-.08-1.59.27-2.72l3.54-11.63,20.8,6.33-3.54,11.62c-.33,1.09-.75,1.88-1.25,2.33-.39.36-1.21.32-1.83.23l-1.49-.23-1.56,5.14,15.6,4.75,1.58-5.23-1.48-.59c-1.15-.46-1.28-.98-1.32-1.15-.18-.72-.1-1.62.21-2.67l8.56-28.14c.08-.24.17-.53.29-.86.07-.2.18-.4.39-.71.21-.35.54-.67.98-.95.26-.16.74-.18,1.36-.04l1.58.36,1.59-5.24-15.59-4.74-1.58,5.18Z"/>
  <path class="cls-1" d="M667.41,271.26h0c-1.24-6.45-4.92-11.59-10.93-15.3-6.02-3.71-12.27-4.69-18.58-2.89-6.25,1.77-11.12,5.43-14.47,10.87-3.33,5.4-4.4,11.38-3.17,17.76,1.23,6.44,4.91,11.59,10.93,15.3,4.07,2.51,8.24,3.76,12.46,3.76,2.03,0,4.07-.29,6.12-.87,6.26-1.77,11.11-5.41,14.44-10.82,3.35-5.43,4.43-11.43,3.21-17.81ZM633.39,291.42c-2.64-1.93-4.34-4.8-5.2-8.76-.84-3.88.35-8.46,3.52-13.61,3.18-5.16,6.74-8.27,10.58-9.26,3.92-1.01,7.25-.77,10.34.79.09.03.17.07.24.11l1.36.91c2.64,1.93,4.34,4.8,5.2,8.76.84,3.88-.34,8.46-3.52,13.61-3.18,5.16-6.73,8.27-10.58,9.26-3.93,1.02-7.25.78-10.16-.71l-1.45-.82-.35-.28Z"/>
  <path class="cls-1" d="M703.19,322.74c1.91.05,3.61-.22,5.11-.81.82-.34,1.56-.73,2.2-1.16.64-.43,1.21-.9,1.69-1.38,2.57-2.56,3.8-5.26,3.67-8.03-.13-2.54-.78-4.85-1.93-6.86-.8-1.44-1.68-2.71-2.62-3.78-.9-1.02-1.61-1.8-2.13-2.32l-13.23-13.3-3.93,3.92,1.15,1.23c.82.87.71,1.32.68,1.47-.16.67-.7,1.48-1.58,2.35l-20.84,20.75c-.79.78-1.57,1.31-2.31,1.58-.47.16-1.16-.38-1.53-.72l-1.22-1.1-3.91,3.88,15.45,15.52c.54.54,1.33,1.21,2.36,1.99,1.03.78,2.25,1.52,3.67,2.22,2.03.92,4.31,1.39,6.79,1.39h.06c2.72-.01,5.34-1.26,7.8-3.7,2.53-2.52,3.78-5.23,3.71-8.08-.04-1.91-.38-3.69-.98-5.29.64.14,1.27.22,1.89.24ZM706.5,304.71c.64,1.07.96,2.3.98,3.74.02,1.24-.74,2.63-2.24,4.13-1.41,1.4-3.05,2.23-5.04,2.56-1.74.26-3.75-.72-6.01-2.98l-3.76-3.78,10.22-10.17,3.19,3.2c.39.4.85.88,1.37,1.47.45.49.87,1.09,1.27,1.83ZM686.25,312.56l4.34,4.35c1.86,1.87,2.99,3.88,3.45,6.16.4,2.01-.36,3.94-2.33,5.9-1.47,1.47-2.85,2.23-4.1,2.27-1.39.03-2.69-.19-3.84-.75-.79-.34-1.48-.76-2.06-1.25-.65-.55-1.14-.98-1.47-1.31l-4.69-4.71,10.71-10.66Z"/>
  <path class="cls-1" d="M737.62,329.94l-11.83,7.23,2.72,4.46,1.2-.26c2.15-.46,4.1-.62,5.82-.47,1.34.12,2.36.84,3.23,2.25l1.48,2.42-27.67,16.91c-.98.6-1.83.91-2.52.93h-.02c-.52,0-1.06-.55-1.42-1.02l-.95-1.22-4.63,2.82,10.01,16.38c.45.73,1.04,1.63,1.77,2.72.78,1.15,1.75,2.27,2.88,3.33,1.84,1.74,4.15,2.99,6.86,3.69.71.19,1.45.28,2.22.28,2.37,0,5-.88,7.86-2.63,3.57-2.18,5.71-4.77,6.34-7.7.59-2.72.54-5.35-.16-7.83-.44-1.58-1.01-3.04-1.7-4.34-.65-1.24-1.2-2.21-1.63-2.91l-3.27-5.35,8.08-4.93c1.34-.82,2-.83,2.24-.85.53.05.94.18,1.23.41l1.31,1.84,4.77-2.91-14.21-23.26ZM729.16,362.73l2.46,4.02c2.61,4.26,2.67,6.5,2.27,7.62-.67,1.85-1.71,3.26-3.28,4.39-.17.14-.35.27-.52.38l-.75.46c-1.94,1.18-3.97,1.83-6.05,1.91-.03,0-.05,0-.08,0-1.64,0-3.71-1.91-5.84-5.39l-2.75-4.5,14.54-8.89Z"/>
</svg>