<?xml version="1.0" encoding="UTF-8"?>
<svg id="Layer_1" data-name="Layer 1" xmlns="http://www.w3.org/2000/svg" viewBox="0 0 1000 1000">
  <defs>
    <style>
      .cls-1 {
        fill: #fff;
      }
    </style>
  </defs>
  <polygon class="cls-1" points="209.09 461.96 194.28 384.52 160.61 448.09 126.94 384.52 112.13 462.03 101.35 462.03 122.9 354.15 160.61 429.69 198.32 354.15 219.87 461.96 209.09 461.96"/>
  <rect class="cls-1" x="252.19" y="354.11" width="10.77" height="107.92"/>
  <polygon class="cls-1" points="295.29 461.99 295.29 354.16 381.57 435.83 381.48 354.16 392.26 354.16 392.26 462.04 306.07 380.52 306.07 461.99 295.29 461.99"/>
  <polygon class="cls-1" points="801.68 461.99 801.68 354.16 887.87 435.83 887.87 354.13 898.65 354.27 898.65 462.01 812.45 380.52 812.45 461.99 801.68 461.99"/>
  <polygon class="cls-1" points="467.68 462.01 467.68 418.75 424.58 354.13 438.3 354.13 473.06 408.07 507.83 354.13 521.55 354.13 478.45 418.92 478.45 462.01 467.68 462.01"/>
  <path class="cls-1" d="M726.37,462c-12.77,0-23.1-3.98-31.77-11.84-7.59-6.91-11.44-15.84-11.44-26.54v-69.47h12.51v64.8c0,10.32,2.05,16.19,6.11,21.21,5.99,7.2,13.9,10.85,24.58,10.85s18.59-3.64,24.56-10.81c4.07-4.88,6.14-10.77,6.14-21.24v-64.8h12.51v69.47c0,10.72-3.85,19.65-11.45,26.55-8.71,7.85-18.99,11.84-31.76,11.84"/>
  <path class="cls-1" d="M634.94,370.65c11.34,15.3,13.12,37.03,2.8,55.41-13.8,24.57-43.97,33.84-67.39,20.69-23.42-13.15-31.23-43.73-17.44-68.31,11.02-19.63,32.48-29.47,52.61-25.95-4.46-1.12-9.14-1.72-13.95-1.72-31.64,0-57.3,25.66-57.3,57.3s25.66,57.3,57.3,57.3,57.3-25.66,57.3-57.3c0-14.31-5.25-27.38-13.93-37.42"/>
  <polygon class="cls-1" points="284.51 507.3 258.39 507.3 258.39 490.15 252.19 490.15 252.19 533.32 258.39 533.32 258.39 512.98 284.51 512.98 284.51 533.32 290.72 533.32 290.72 490.15 284.51 490.15 284.51 507.3"/>
  <path class="cls-1" d="M335.04,488.77c-6.39,0-11.93,2.28-16.43,6.8-4.51,4.51-6.79,10.05-6.79,16.45s2.36,11.76,7.03,16.11c4.66,4.35,10.3,6.56,16.76,6.56s11.93-2.28,16.44-6.8c4.5-4.51,6.78-10.04,6.78-16.45s-2.36-11.76-7.02-16.12c-4.68-4.35-10.32-6.55-16.77-6.55M335.61,528.73h0c-4.81,0-8.96-1.64-12.34-4.87-3.37-3.23-5.09-7.25-5.09-11.95s1.65-8.92,4.91-12.33c3.25-3.4,7.27-5.13,11.95-5.13s8.9,1.65,12.31,4.91c3.39,3.25,5.11,7.28,5.11,11.97s-1.64,8.87-4.9,12.28c-3.24,3.4-7.27,5.12-11.95,5.12"/>
  <path class="cls-1" d="M401.19,510.13l-11.88-3.99c-2.46-1.21-3.65-2.95-3.65-5.32,0-.99.24-1.98.68-2.9.69-1.16,1.58-2,2.65-2.5,1.1-.52,2.36-.77,3.82-.77,1.98,0,3.8.52,5.45,1.54,1.63,1.01,2.67,2.34,3.09,3.96l.16.65,6.12-2.61-.16-.46c-.76-2.12-2.08-3.93-3.94-5.35-1.84-1.44-3.63-2.32-5.3-2.62-1.07-.2-2.45-.44-2.99-.49-.38-.04-.93-.07-1.61-.07-1.59,0-3.42.19-5.45.56-2.1.38-4.07,1.47-5.83,3.24-1.74,1.75-2.8,3.45-3.12,5.06-.34,1.56-.5,2.62-.5,3.23,0,2.37.78,4.52,2.32,6.38,1.53,1.85,3.56,3.32,6.08,4.4l8,2.57c1.6.65,2.61,1.11,3.11,1.39.47.28,1.16.85,2.03,1.69.79.76,1.19,2,1.19,3.69,0,1.14-.27,2.23-.81,3.25-.53,1.04-1.21,1.84-2.07,2.43-.9.62-1.8,1.05-2.73,1.32-.92.27-1.86.41-2.8.41-2.39,0-4.5-.77-6.26-2.27-1.78-1.51-2.64-3.35-2.64-5.63v-.88l-6.41,2.96.14.44c.63,2.02,1.36,3.69,2.16,4.97.81,1.3,1.99,2.49,3.58,3.55,2.81,1.54,5.94,2.32,9.3,2.32,3.76,0,7.2-.98,10.28-2.94,1.69-1.34,2.97-2.91,3.83-4.66.83-1.75,1.28-3.59,1.28-5.49,0-2.21-.61-4.34-1.81-6.3-1.21-1.97-2.96-3.56-5.32-4.75"/>
  <path class="cls-1" d="M445.69,490.32l-16.03-.18v43.19h7.06v-18.3h9.37c3.61-.33,6.55-1.64,8.77-3.89,2.23-2.25,3.37-5,3.37-8.17v-1.52c0-3.07-1.22-5.64-3.64-7.63-2.38-1.96-5.36-3.13-8.9-3.5M436.72,495.88h7.01c1.09.15,2.09.37,3,.66,1.46.54,2.56,1.35,3.24,2.4.72,1.09,1.06,2.27,1.06,3.62,0,1.58-.5,3.06-1.51,4.38-.97,1.29-2.29,2.18-3.94,2.65h-8.86v-13.71Z"/>
  <rect class="cls-1" x="478.45" y="490.14" width="6.8" height="43.18"/>
  <polygon class="cls-1" points="503.92 495.83 517.59 495.83 517.59 533.33 524.7 533.33 524.7 495.83 538.38 495.83 538.38 490.14 503.92 490.14 503.92 495.83"/>
  <polygon class="cls-1" points="619.85 490.15 612.72 490.15 612.72 533.33 640.06 533.33 640.06 527.53 619.85 527.53 619.85 490.15"/>
  <rect class="cls-1" x="658.29" y="490.14" width="6.8" height="43.18"/>
  <polygon class="cls-1" points="683.92 495.83 697.6 495.83 697.6 533.33 704.71 533.33 704.71 495.83 718.39 495.83 718.39 490.14 683.92 490.14 683.92 495.83"/>
  <polygon class="cls-1" points="762.71 490.17 751.42 508.89 739.6 490.14 731.08 490.15 747.67 514.76 747.67 533.33 754.67 533.33 754.67 514.75 769.58 490.15 762.71 490.17"/>
  <path class="cls-1" d="M555.83,533.33l5.25-11.6h18.11l5.23,11.6h7.95l-20.18-43.1h-4.31l-19.48,43.1h7.43ZM569.81,500.1h0l7.08,16.61h-13.92l6.84-16.61Z"/>
  <path class="cls-1" d="M136.44,626.63c0,.86-.2,3.44-.58,7.72h4.98l-.28-6.21h11.54l-.21,4.19h4.83c-.19-2.75-.36-5.27-.51-7.59,0-23.96.08-36.59.22-37.9,0-.71.05-1.39.15-2.02-1.5.05-3.04.17-4.62.36-8.28,0-13.15-.06-14.59-.21-.28-.05-.75-.1-1.37-.15.14,1.92.26,3.41.36,4.47l.07,37.33ZM140.55,608.28h11.54v16.25h-11.54v-16.25ZM140.55,588.94h11.54v15.73h-11.54v-15.73ZM186.96,619.91h-18.54c-.39,3.84-.8,6.92-1.23,9.24-.43,1.87-1.11,3.97-2.02,6.28-.73,1.68-1.54,3.34-2.45,4.98-1.06,1.64-2.46,3.56-4.19,5.78-1.54-.97-3.46-1.67-5.78-2.09,2.22-1.59,4.14-3.5,5.78-5.71,2.4-3.46,4.04-7.52,4.9-12.14.63-3.99.94-8.47.94-13.42l-.06-24.56-.3-5.33,3.46.28,19.49.08c1.54-.2,3.11-.31,4.7-.36-.1.66-.14,1.32-.14,1.95-.15,1.29-.22,18.58-.22,51.83,0,2.4-.22,4.04-.65,4.9-.53.92-1.47,1.61-2.81,2.09-2.5.77-5.42,1.31-8.73,1.59-.63-2.12-1.41-3.97-2.32-5.56,2.75.29,4.64.43,5.7.43,1.79,0,2.88-.14,3.33-.43.57-.28.94-.74,1.08-1.37l.06-18.48ZM168.7,616.3h18.26v-13.28h-18.26v13.28ZM168.7,599.41h18.26v-12.34h-18.26v12.34ZM387.81,619.41h-25.27c-.73,0-2.7-.17-5.93-.5v4.76c2.75-.28,4.72-.46,5.93-.51h25.27v17.26c0,.33-.05.91-.15,1.72-.15.49-.56.87-1.23,1.16-1.01.2-2.16.32-3.46.37-.91,0-2.35-.17-4.33-.51.76,1.72,1.39,3.62,1.87,5.69,2.17-.14,3.51-.26,4.04-.36,2.75-.33,4.64-.89,5.71-1.66,1.16-.76,1.76-2.18,1.8-4.25v-19.43h22.09c.92,0,2.97.17,6.13.51v-4.76c-1.72.19-3.08.33-4.04.43l-24.19.07v-11.41l13.73.07c1.29,0,2.69.12,4.19.36v-4.55c-1.79.2-3.68.31-5.7.36l-33.07-.08-3.61-.28v4.55c2.88-.28,4.77-.43,5.63-.43h14.59v11.41ZM364.71,591.76h25.48l-3.39-2.82-7.08-5.2c.3-.43.65-.79,1.08-1.09.96-1.14,1.61-1.97,1.96-2.45,2.35,1.35,6.16,4.26,11.4,8.73-.62.58-1.44,1.52-2.45,2.82h17.69l8.66-.37c-.2,1.74-.3,3.25-.3,4.55-.09.44,0,3.04.3,7.8h-4.84c.05-.28.1-.5.15-.64.2-1.83.28-4.41.28-7.72h-50.38v3.11l.36,5.77h-4.84c.2-.96.29-2.02.29-3.18,0-.67.03-1.17.08-1.52-.05-1.49-.17-4.2-.37-8.16,2.22.25,4.19.37,5.93.37M617.22,590.38c.93-1.14,1.88-2.14,2.9-2.96.14-.2.36-.38.64-.58-.76-.71-1.51-1.34-2.23-1.87l-4.34-3.25c-.58-.43-1.39-.99-2.45-1.66-1.01,1.06-2.14,2.12-3.39,3.18.33.15,2.3,1.64,5.91,4.49.86.71,1.86,1.6,2.96,2.66M610,614.72c.58-.33,1.08-.63,1.51-.86.44-.15.85-.37,1.23-.65-.48-.58-1.95-1.76-4.4-3.54-2.02,2.93-3.86,5.15-5.5,6.64-1.72,1.59-3.99,3.11-6.78,4.55,1.34.86,2.71,2.07,4.12,3.61l6.06-5.93c1.19-1.29,2.45-2.57,3.75-3.82M604.17,634.78v-2.82l-.22-8.44c-.05.1-.1-.29-.14-1.16.86.15,1.75.22,2.66.22.15,0,.32.02.51.06l11.05.07c2.17-.05,4.83-.16,8.01-.36-.1.58-.15,1.08-.15,1.51l-.21,8.51.15,5.78c.09.73.16,1.44.21,2.17-1.49-.2-2.81-.28-3.97-.28l-12.42-.07c-1.29-.05-3.25.07-5.84.36.23-2.7.36-4.55.36-5.56M608.06,636.45h13.65v-10.19h-13.65v10.19ZM631.74,622.44c0-.15.36-.46,1.08-.94-2.6-2.46-4.77-4.41-6.49-5.85l-6.43-5.2c-1.01,1.01-2.12,2-3.31,2.96,1.44.87,2.91,1.98,4.4,3.32,3.03,2.6,4.9,4.34,5.63,5.2.73.76,1.64,1.8,2.75,3.11.63-.91,1.17-1.56,1.66-1.95.19-.2.43-.42.72-.65M635.93,607.93h-41.66v33.65c.05,1.77.17,3.97.36,6.57h-4.76c.14-.96.21-1.95.21-2.96,0-.39.02-.68.07-.87l.08-34.64c-.05-.43-.17-2.32-.36-5.63,2.16.23,4.12.36,5.84.36h11.12c-2.32-2.65-4.77-4.79-7.37-6.42,1.54-1.21,2.67-2.17,3.39-2.9,1.16.83,2.49,1.95,3.98,3.4l4.04,3.67c-.87.77-1.66,1.51-2.39,2.24h11.56c1.34-1.82,3.18-5.22,5.48-10.18h-35.66c-.48,0-2.46.15-5.93.43v-4.34l3.03.29,54.3.08c.72-.05,2.66-.17,5.84-.37v4.34l-4.83-.36-14.95-.07c1.01.63,2.02,1.29,3.03,2.02.33.24.65.51.94.79-.38.44-.8.73-1.23.87-.72.38-1.29.81-1.73,1.3-.58.63-1.4,1.76-2.46,3.4-.48.57-.89,1.17-1.22,1.8h10.18c1.59-.05,3.49-.17,5.71-.36-.05.38-.08.79-.08,1.22-.05.15-.15,1.46-.28,3.98v31.46c0,3.03-.73,5.13-2.17,6.28-1.16.81-2.96,1.44-5.42,1.87l-3.54.37c-.23-1.59-.94-3.54-2.09-5.85,1.4.25,2.7.36,3.91.36,2.07,0,3.46-.21,4.19-.64.58-.39.86-1.33.86-2.82v-32.34ZM830.62,613.63l-.36,14.08-.43,6.64-.51,3.54c-.43,1.77-1.95,2.7-4.54,2.73-.87,0-2.24-.09-4.12-.28,1.2,1.79,1.95,3.68,2.23,5.7,1.21,0,2.6-.2,4.19-.58,1.59-.28,2.7-.68,3.33-1.16,2.02-1.15,3.26-4.83,3.75-11.04l.87-23.68c-1.88.28-3.54.43-4.99.43h-8.44v-9.89l9.6.08c2.07.15,3.51.29,4.34.43v-4.7c-1.79.29-3.4.44-4.84.44h-15.09c-1.34,0-3.19-.15-5.56-.44v4.7l5.42-.36h2.09c0,9.39-.05,15.12-.15,17.19-.05.14-.08.36-.08.64-.48,6.94-1.9,12.97-4.26,18.12-1.44,3.03-3.27,5.73-5.48,8.08,2.02.48,3.28.85,3.76,1.08.43.15.91.36,1.44.65,3.08-5.05,5.35-10.37,6.79-15.95,1.16-5.2,1.82-10.68,2.02-16.46h9.02ZM818.28,584.68c2.75,2.46,5.52,6.02,8.3,10.69.86-.77,1.66-1.4,2.38-1.88.44-.28.95-.6,1.53-.94-.78-1.16-1.48-2.12-2.09-2.88l-3.68-4.41c-.63-.76-1.64-1.87-3.03-3.31-.73.63-1.86,1.54-3.4,2.73M845.49,580.56l5.2,1.52c.83.2,1.23.44,1.23.73-.35.29-.68.53-1.01.73-.73.43-1.31,1.01-1.74,1.72-.43.63-1.23,2.27-2.38,4.91h21.01c1.77-.05,3.76-.17,5.91-.37v4.56c-.28-.2-.86-.3-1.72-.3-1.49-.1-2.9-.17-4.19-.21h-22.67c-.91,1.68-1.74,3.11-2.45,4.25l-5.35,8.73c-1.54-1.11-3.25-1.82-5.12-2.17,1.01-.86,1.87-1.68,2.6-2.45.77-.81,1.61-1.95,2.53-3.39,2.27-3.41,4.26-7.15,5.99-11.19.63-1.41,1.08-2.6,1.38-3.61.33-1.01.6-2.17.79-3.48M846,608.28c4.24-.71,7.9-1.44,10.98-2.16,2.45-.78,4.09-1.23,4.9-1.38,1.01-.28,2.32-.5,3.91-.64.91-.05,1.39-.25,1.44-.58-.15-.34-.43-.68-.86-1.01l-3.83-3.68c-1.64,1.06-2.77,1.75-3.39,2.09-2.32.91-4.99,1.8-8.02,2.67-3.31.86-6.19,1.3-8.59,1.3h-1.16c.2,2.22.35,3.87.43,4.98v30.32c-.13.91-.38,1.74-.71,2.45-.2.29-.46.65-.8,1.08.87.87,1.41,1.48,1.59,1.81l1.59,2.31c.91-1.01,2.39-2.28,4.41-3.82,2.02-1.49,4.25-3.08,6.71-4.77-.05-.91-.15-1.75-.29-2.53l-.07-2.75c-2.88,2.65-5.63,4.87-8.23,6.64v-32.34ZM870.76,616.16c-.43,0-.79.07-1.08.22-.68.28-1.16.58-1.44.86-1.59,1.29-4.72,4.26-9.39,8.88l3.47,5.84c.62.96,1.58,2.17,2.88,3.61,3.36,3.81,6.79,6.46,10.25,7.95-2.22,1.24-3.83,2.67-4.84,4.26-2.4-2.12-5.33-5.2-8.81-9.24-1.87-2.27-3.54-4.79-4.98-7.59-1.69-2.88-2.73-5.41-3.18-7.58l-1.37-6.49-.86-6.36c1.3-.1,2.67-.22,4.12-.36.1,4.37.71,8.39,1.87,12.05,1.69-1.44,3.49-3.27,5.42-5.48,2.02-2.35,3.39-4.11,4.12-5.27l3.67,3.03,1.01,1.08c0,.25-.28.43-.86.58"/>
</svg>