<?xml version="1.0" encoding="UTF-8"?>
<svg id="Layer_1" data-name="Layer 1" xmlns="http://www.w3.org/2000/svg" viewBox="0 0 1000 1000">
  <defs>
    <style>
      .cls-1 {
        fill: #fff;
        fill-rule: evenodd;
      }
    </style>
  </defs>
  <path class="cls-1" d="M503.1,650.11h-19.79c-.63,0-1.06-.63-.83-1.21l9.9-25.51c.29-.76,1.37-.76,1.66,0l9.9,25.51c.22.58-.2,1.21-.83,1.21h0ZM555.63,693.71l-3.17-3.17c-.85-.85-1.51-1.86-1.94-2.98l-15.55-40.07c-.51-1.31-.06-2.8,1.1-3.6l1.94-1.35c.88-.61.99-1.87.23-2.63l-7.58-7.57c-1.7-1.7-3.03-3.74-3.9-5.98l-13.12-33.82c-.65-1.69-.38-3.6.73-5.03l1.57-2.04c.6-.78.04-1.91-.94-1.91h-44.71c-1.01,0-1.52,1.22-.8,1.94l1.94,1.94c1.46,1.45,1.91,3.63,1.17,5.54l-13.84,35.67c-.87,2.24-2.2,4.28-3.9,5.98l-5.48,5.48c-.69.69-.67,1.81.04,2.48l1.37,1.28c.91.85,1.21,2.17.76,3.33l-15.16,39.07c-.43,1.12-1.1,2.14-1.95,2.98l-4.47,4.47c-.71.71-.21,1.93.8,1.93h38.61c1.01,0,1.51-1.22.8-1.93l-1.29-1.29c-1.45-1.45-1.91-3.62-1.17-5.53l3.04-7.84c.13-.34.46-.57.83-.57h43.18c.37,0,.7.23.83.57l2.82,7.27c.74,1.91.28,4.08-1.17,5.54l-1.86,1.86c-.72.71-.21,1.93.8,1.93h38.61c1.01,0,1.52-1.22.8-1.93Z"/>
  <path class="cls-1" d="M434.23,661.86v-4.16c0-18.66-15.04-33.78-33.59-33.78h-31.5c-2.66,0-4.82-2.17-4.82-4.85s2.15-4.85,4.82-4.85h45.04c3.32,0,6.5,1.32,8.84,3.66l2.25,2.25c.72.71,1.94.21,1.94-.8v-31.17c0-2.56-2.07-4.63-4.63-4.63h-53.43c-19.51,0-35.33,15.91-35.33,35.53s15.82,35.52,35.33,35.52h29.42c2.84,0,5.15,2.32,5.15,5.18s-2.31,5.18-5.15,5.18h-49.1c-3.32,0-6.5-1.32-8.85-3.66l-3.25-3.26c-.71-.71-1.93-.21-1.93.8v32.18c0,2.55,2.07,4.63,4.63,4.63h60.58c18.55,0,33.59-15.12,33.59-33.78Z"/>
  <path class="cls-1" d="M199.32,583.81h-97.6c-1.01,0-1.52,1.22-.8,1.93l5.12,5.12c1.77,1.77,2.77,4.17,2.77,6.68v30.94c0,2.5-1,4.9-2.77,6.67l-4.01,4.01c-.44.44-.44,1.16,0,1.6l4.01,4.01c1.77,1.77,2.77,4.17,2.77,6.68v30.73c0,2.5-1,4.9-2.77,6.67l-5.12,5.12c-.71.71-.21,1.94.8,1.94h97.6c1.68,0,3.04-1.37,3.04-3.04v-32.43c0-1.01-1.22-1.51-1.94-.8l-3.74,3.74c-1.29,1.29-3.04,2.02-4.87,2.02h-50.89c-.89,0-1.61-.72-1.61-1.61v-9.86c0-.89.72-1.61,1.61-1.61h34.39c1.83,0,3.58.73,4.87,2.02l2.23,2.23c.71.71,1.93.21,1.93-.8v-31.59c0-1.01-1.22-1.51-1.93-.8l-2.23,2.24c-1.29,1.29-3.04,2.02-4.87,2.02h-34.39c-.89,0-1.61-.72-1.61-1.61v-10.07c0-.89.72-1.61,1.61-1.61h51.47c1.83,0,3.58.72,4.87,2.02l3.16,3.16c.71.71,1.94.21,1.94-.8v-31.85c0-1.68-1.36-3.04-3.04-3.04Z"/>
  <path class="cls-1" d="M853.09,635.87h-19.8c-.69,0-1.25-.56-1.25-1.24v-19.32c0-.69.56-1.25,1.25-1.25h20.07c6.16,0,11.12,5.1,10.9,11.31-.21,5.91-5.25,10.51-11.16,10.51h0ZM899.12,693.55l-2.79-3.37c-2.1-2.53-4.06-5.17-5.88-7.9l-14.59-21.87c11.73-7.37,19.54-20.38,19.54-35.25-.01-23.08-19.11-41.61-42.18-41.61h-58.77c-1.01,0-1.52,1.22-.8,1.94l5.57,5.55c1.48,1.48,2.31,3.48,2.31,5.57v32.1c0,2.09-.83,4.09-2.31,5.56l-4.46,4.44c-.44.44-.44,1.16,0,1.6l4.46,4.44c1.48,1.48,2.31,3.48,2.31,5.57v32.28c0,2.09-.83,4.09-2.31,5.57l-5.57,5.55c-.71.71-.21,1.94.8,1.94h42.86c1.01,0,1.52-1.22.8-1.94l-4.42-5.73c-1.06-1.38-1.64-3.07-1.64-4.8v-15.13c0-.69.56-1.24,1.25-1.24h9.56c.4,0,.77.19,1.01.51l12.75,17.57c1.13,1.56,1.19,3.65.15,5.28l-2.28,3.55c-.72.71-.21,1.94.8,1.94h42.86c1.08,0,1.68-1.26.99-2.09Z"/>
  <path class="cls-1" d="M726.28,664.74c-13.75,0-24.89-11.14-24.89-24.89s11.14-24.89,24.89-24.89,24.89,11.14,24.89,24.89-11.14,24.89-24.89,24.89h0ZM785.11,635.18c-1.25-1.25-2.05-2.87-2.33-4.61-4.44-27.22-28.03-47.99-56.5-47.99s-52.06,20.78-56.5,47.99c-.28,1.74-1.08,3.36-2.33,4.61l-3.71,3.71c-.44.44-.44,1.16,0,1.6l3.64,3.64c1.26,1.26,2.05,2.89,2.33,4.64,4.29,27.39,27.97,48.35,56.57,48.35s52.28-20.96,56.57-48.35c.27-1.76,1.07-3.39,2.32-4.64l3.65-3.64c.44-.44.44-1.16,0-1.6l-3.71-3.71Z"/>
  <path class="cls-1" d="M309.56,691.76v-31.33c0-1.01-1.22-1.52-1.94-.8l-3.56,3.57c-1.41,1.4-3.31,2.19-5.3,2.19h-50.39c-1.02,0-1.85-.83-1.85-1.85v-12.84c0-2.06.82-4.04,2.28-5.5l4.64-4.64c.44-.44.44-1.16,0-1.6l-4.64-4.64c-1.46-1.46-2.28-3.44-2.28-5.5v-32.48c0-1.74.59-3.44,1.66-4.81l4.54-5.78c.62-.78.06-1.93-.94-1.93h-42.87c-1.01,0-1.51,1.22-.8,1.93l5.61,5.61c1.46,1.46,2.28,3.44,2.28,5.51v32.31c0,2.06-.82,4.04-2.28,5.5l-4.49,4.49c-.45.44-.45,1.16,0,1.6l4.49,4.49c1.46,1.46,2.28,3.44,2.28,5.5v32.1c0,2.07-.82,4.04-2.28,5.51l-5.6,5.61c-.71.71-.21,1.93.8,1.93h96.5c2.29,0,4.14-1.86,4.14-4.14Z"/>
  <path class="cls-1" d="M625.94,665.13h-27.69c-.81,0-1.46-.65-1.46-1.46v-10.35c0-.81.65-1.46,1.46-1.46h27.99c3.67.04,6.63,3.06,6.55,6.76-.07,3.65-3.21,6.5-6.86,6.5h0ZM596.79,614.29c0-.8.65-1.46,1.46-1.46h26.64c3.65,0,6.78,2.85,6.86,6.5.08,3.7-2.88,6.71-6.56,6.76h-26.94c-.81,0-1.46-.65-1.46-1.46v-10.35h0ZM661.13,617.7c0-18.87-15.29-34.16-34.16-34.16h-67.78c-1.01,0-1.52,1.22-.8,1.94l5.55,5.55c1.5,1.49,2.34,3.53,2.34,5.64v32.15c0,2.12-.84,4.15-2.34,5.65l-4.44,4.44c-.44.44-.44,1.16,0,1.6l4.44,4.44c1.5,1.5,2.34,3.53,2.34,5.65v31.94c0,2.12-.84,4.15-2.34,5.64l-5.55,5.55c-.71.71-.21,1.93.8,1.93h67.16c19.21,0,34.78-15.57,34.78-34.77,0-7.84-2.7-14.98-7.09-20.79-.4-.53-.4-1.26,0-1.79,4.38-5.73,7.09-12.81,7.09-20.58Z"/>
  <path class="cls-1" d="M477.47,431.16c-4.35,5.13-7,11.73-7,18.97,0,16.25,13.23,29.48,29.53,29.48s29.52-13.23,29.52-29.48c0-7.24-2.65-13.83-6.99-18.95-.69-.82-1.95-.86-2.68-.08-5.02,5.39-11.92,8.94-19.84,8.94s-14.85-3.57-19.85-8.96c-.73-.79-1.98-.74-2.68.07Z"/>
  <path class="cls-1" d="M401.96,256.93c.46-.49,1.09-.76,1.76-.76h1.27c.4,0,.65.41.48.76-.23.46-.48.97-.56,1.13-1.62,3.47-2.45,7.03-2.45,10.59,0,18.61,22.38,35.67,57.01,43.45,12.79,2.89,26.42,4.35,40.52,4.35s27.73-1.46,40.52-4.35c34.62-7.78,57-24.84,57-43.45,0-3.54-.82-7.08-2.42-10.53-.03-.06-.27-.55-.51-1.02-.21-.43.1-.92.57-.92h1c.74,0,1.44.31,1.95.84.06.07.12.13.16.17,7.25,7.8,10.92,16.2,10.92,24.96,0,21.38-22.15,44.5-58.06,54.61-1.46.41-2.43,1.78-2.33,3.3.06.92.09,1.81.09,2.66,0,19.76-12.14,37.6-30.1,45.11-1.52.64-1.78,2.66-.54,3.74,5.92,5.21,9.44,12.78,9.44,20.79,0,2.96-.47,5.8-1.35,8.48-.44,1.34-.13,2.8.83,3.82,6.92,7.32,11.01,17.27,10.18,28.3-1.33,17.68-15.41,32.38-33.03,34.37-22.6,2.55-41.82-15.1-41.82-37.19,0-9.91,3.98-18.81,10.3-25.5.96-1.02,1.26-2.48.83-3.81-.87-2.68-1.35-5.53-1.35-8.48,0-8.14,3.63-15.83,9.72-21.04,1.12-.96.9-2.78-.46-3.34-18.16-7.42-30.45-25.37-30.45-45.27,0-.94.03-1.91.1-2.94.09-1.36-.81-2.58-2.12-2.95-36.04-10.08-58.29-33.24-58.29-54.67,0-8.53,3.48-16.7,10.36-24.33.19-.21.51-.56.81-.88h0ZM340.48,368.64c3.54,3.09,5.89,7.32,6.59,11.96,10.07,66.6,62.59,119.26,129.13,129.53,4.63.72,8.91,2.92,12.22,6.23l9.64,9.64c1.31,1.31,3.43,1.31,4.74,0l9.82-9.82c3.3-3.3,7.54-5.5,12.14-6.24,66.05-10.64,118.1-63.04,128.15-129.28.71-4.69,3.1-8.96,6.68-12.08l9.74-8.51c1.42-1.24,1.42-3.44,0-4.68l-9.57-8.35c-3.6-3.14-6.01-7.45-6.69-12.17-9.7-66.69-61.95-119.53-128.32-130.21-4.63-.74-8.88-2.99-12.19-6.31l-9.76-9.75c-1.31-1.31-3.43-1.31-4.74,0l-9.64,9.64c-3.36,3.36-7.7,5.53-12.4,6.26-66.66,10.37-119.22,63.27-129.06,130.1-.71,4.83-3.08,9.26-6.76,12.47l-9.55,8.33c-1.42,1.24-1.42,3.44,0,4.68l9.82,8.58Z"/>
  <polygon class="cls-1" points="279.57 774.83 288.2 753.49 294.62 753.49 294.62 811.63 287.31 811.63 287.78 769.6 287.56 769.43 280.26 788.56 278.9 788.56 271.58 769.43 271.37 769.6 271.84 811.63 264.53 811.63 264.53 753.49 270.95 753.49 279.57 774.83"/>
  <polygon class="cls-1" points="305.75 811.64 305.75 753.49 326.45 753.49 326.45 760.46 313.23 760.46 313.23 777.84 325.34 777.84 325.34 784.82 313.23 784.82 313.23 804.66 327.17 804.66 327.17 811.64 305.75 811.64"/>
  <path class="cls-1" d="M345.17,791.79h8.37l-4.08-24.35h-.22l-4.08,24.35h0ZM334.55,811.64l10.97-58.49h7.78l10.88,58.49h-7.22l-2.08-12.88h-10.8l-2.29,12.88h-7.23Z"/>
  <polygon class="cls-1" points="373.82 811.64 373.82 760.46 364.9 760.46 364.9 753.49 390.23 753.49 390.23 760.46 381.3 760.46 381.3 811.64 373.82 811.64"/>
  <path class="cls-1" d="M429.38,778.65h.34c4.19,0,6.29-2.93,6.29-8.8,0-6.24-2.21-9.36-6.63-9.39v18.19h0ZM421.9,811.64v-58.15h6.25c4.99,0,8.79,1.46,11.41,4.4,2.62,2.93,3.93,6.84,3.93,11.71,0,5.53-2.01,9.68-6.04,12.45,3.12,2.21,5.77,8.09,7.95,17.64l2.68,11.94h-7.84l-2.25-10.03c-1.61-7.02-3-11.5-4.19-13.4-1.19-1.92-2.66-2.77-4.42-2.57v26.01h-7.48Z"/>
  <polygon class="cls-1" points="455.27 811.64 455.27 753.49 475.97 753.49 475.97 760.46 462.75 760.46 462.75 777.84 474.86 777.84 474.86 784.82 462.75 784.82 462.75 804.66 476.69 804.66 476.69 811.64 455.27 811.64"/>
  <path class="cls-1" d="M485.12,810.15v-7.73c2.24,2.12,4.41,3.19,6.5,3.19,1.56,0,2.89-.55,3.99-1.65,1.11-1.09,1.66-2.42,1.66-3.96,0-1.33-.31-2.95-.94-4.85-.62-1.9-2.3-5.41-5.04-10.52-2.73-5.11-4.51-8.99-5.33-11.62-.82-2.64-1.23-4.96-1.23-6.97,0-3.91,1.11-7.1,3.34-9.58,2.23-2.48,5.06-3.72,8.52-3.72,1.96,0,4.04.51,6.25,1.53v7.06c-2.04-1.19-3.78-1.79-5.23-1.79-3.77,0-5.65,1.84-5.65,5.53,0,1.36.32,3,.96,4.91.63,1.91,2.32,5.4,5.05,10.46,2.74,5.06,4.51,8.91,5.32,11.56.81,2.65,1.21,5,1.21,7.04,0,3.97-1.11,7.19-3.34,9.67-2.23,2.48-5.11,3.72-8.65,3.72-2.55,0-5.02-.75-7.4-2.25Z"/>
  <polygon class="cls-1" points="518.61 811.64 518.61 760.46 509.69 760.46 509.69 753.49 535.02 753.49 535.02 760.46 526.1 760.46 526.1 811.64 518.61 811.64"/>
  <path class="cls-1" d="M546.41,791.79h8.37l-4.08-24.35h-.21l-4.08,24.35h0ZM535.78,811.64l10.97-58.49h7.78l10.88,58.49h-7.22l-2.08-12.88h-10.8l-2.29,12.88h-7.23Z"/>
  <path class="cls-1" d="M571.52,753.49h7.48v43.66c0,5.52,1.83,8.28,5.49,8.28,1.61,0,2.93-.69,3.95-2.08,1.02-1.39,1.53-3.34,1.53-5.86v-44h7.48v43.19c0,5.1-1.29,9-3.87,11.69-2.58,2.69-5.61,4.03-9.1,4.03-3.71,0-6.8-1.4-9.27-4.21-2.47-2.8-3.7-6.45-3.7-10.92v-43.78Z"/>
  <path class="cls-1" d="M615.99,778.65h.34c4.19,0,6.29-2.93,6.29-8.8,0-6.24-2.21-9.36-6.63-9.39v18.19h0ZM608.51,811.64v-58.15h6.25c4.99,0,8.79,1.46,11.41,4.4,2.62,2.93,3.93,6.84,3.93,11.71,0,5.53-2.01,9.68-6.04,12.45,3.12,2.21,5.77,8.09,7.95,17.64l2.68,11.94h-7.84l-2.25-10.03c-1.61-7.02-3-11.5-4.19-13.4-1.19-1.92-2.66-2.77-4.42-2.57v26.01h-7.48Z"/>
  <path class="cls-1" d="M650.35,791.79h8.37l-4.08-24.35h-.22l-4.08,24.35h0ZM639.73,811.64l10.97-58.49h7.78l10.88,58.49h-7.22l-2.08-12.88h-10.8l-2.29,12.88h-7.23Z"/>
  <polygon class="cls-1" points="676.67 811.64 676.67 753.49 682.75 753.49 695.63 789.44 695.8 789.36 695.8 753.49 702.69 753.49 702.69 811.64 696.61 811.64 683.73 775.43 683.56 775.42 683.56 811.64 676.67 811.64"/>
  <polygon class="cls-1" points="719.06 811.64 719.06 760.46 710.14 760.46 710.14 753.49 735.47 753.49 735.47 760.46 726.54 760.46 726.54 811.64 719.06 811.64"/>
</svg>